<svg class="ons-svg-logo" xmlns="http://www.w3.org/2000/svg" focusable="false" width="321" height="18" viewBox="0 0 321 18" aria-labelledby="beis-logo-alt">
    <title id="beis-logo-alt">Department for Business, Energy and Industrial Strategy</title>
    <path fill="#005092" d="M0 .02h1.05V17.8H0z"/>
    <path d="M35.56 4.67c1.38 0 2.44.35 3.18 1.05.74.7 1.11 1.77 1.11 3.21 0 .75-.08 1.42-.25 2-.17.58-.43 1.07-.78 1.47-.35.4-.8.7-1.34.91-.54.21-1.19.31-1.93.31h-3.07V4.67h3.07Zm.1 7.94c.13 0 .3-.01.5-.03.2-.02.41-.07.64-.15.23-.08.45-.19.67-.34.22-.15.42-.35.6-.61s.32-.58.43-.97c.11-.39.17-.86.17-1.41s-.05-1.01-.16-1.43c-.1-.42-.28-.78-.51-1.08-.24-.3-.54-.52-.92-.68-.38-.15-.84-.23-1.39-.23h-2v6.94h1.98ZM45.51 13.2c-.48.37-1.09.55-1.83.55-.52 0-.97-.08-1.35-.25-.38-.17-.7-.4-.96-.7-.26-.3-.45-.66-.58-1.08-.13-.42-.2-.87-.22-1.37 0-.49.08-.94.23-1.35.15-.41.36-.76.63-1.06.27-.3.59-.53.96-.7.37-.17.78-.25 1.22-.25.58 0 1.05.12 1.43.36.38.24.68.54.91.91.23.37.39.77.48 1.2.09.43.12.85.11 1.24h-4.85c0 .28.03.55.1.81.08.25.2.48.36.68.17.2.38.35.64.47s.56.18.91.18c.45 0 .82-.1 1.11-.31.29-.21.48-.53.57-.95h1.05c-.14.73-.46 1.27-.94 1.64Zm-.26-4.16c-.1-.23-.23-.42-.39-.58s-.36-.29-.58-.39c-.22-.1-.47-.14-.73-.14s-.52.05-.75.14c-.22.1-.41.23-.57.39-.16.17-.28.36-.38.58-.09.22-.15.46-.16.71h3.72c-.02-.25-.07-.49-.17-.71ZM48.53 7.14v.88h.03c.18-.36.45-.62.83-.78.38-.16.79-.24 1.24-.24.5 0 .94.09 1.31.28.37.18.68.43.93.75.25.31.43.67.56 1.08s.19.84.19 1.3-.06.89-.18 1.3c-.12.41-.3.77-.55 1.07-.25.3-.56.54-.93.72-.37.18-.8.26-1.3.26-.16 0-.34-.02-.53-.05-.2-.03-.39-.09-.58-.16-.19-.08-.37-.18-.54-.31a1.65 1.65 0 0 1-.43-.48h-.03v3.33h-1.06V7.14h1.06Zm3.83 2.3c-.08-.29-.2-.54-.36-.77-.16-.23-.37-.4-.63-.54-.25-.13-.55-.2-.9-.2s-.66.07-.91.21c-.25.14-.46.33-.61.56-.16.23-.27.49-.34.78-.07.29-.11.59-.11.89 0 .32.04.62.11.92.08.3.19.56.36.78.16.23.37.41.63.54.26.14.57.21.94.21s.67-.07.92-.21c.25-.14.44-.33.6-.56.15-.23.26-.5.33-.8.07-.3.1-.61.1-.93 0-.3-.04-.6-.12-.88ZM60.3 13.59c-.18.11-.44.16-.76.16-.28 0-.49-.08-.66-.23s-.24-.41-.24-.76c-.29.35-.63.6-1.02.76s-.81.23-1.26.23c-.29 0-.57-.03-.83-.1s-.49-.17-.68-.31c-.19-.14-.34-.33-.46-.56-.11-.23-.17-.51-.17-.83 0-.37.06-.67.19-.9s.29-.42.49-.57c.2-.15.44-.26.7-.33.26-.08.53-.14.81-.19.29-.06.57-.1.83-.13s.49-.07.7-.13c.2-.05.36-.13.48-.24.12-.1.18-.26.18-.46 0-.23-.04-.42-.13-.56-.09-.14-.2-.25-.34-.33s-.29-.13-.46-.15c-.17-.03-.34-.04-.51-.04-.45 0-.83.09-1.13.26-.3.17-.46.49-.49.97h-1.06c.02-.4.1-.74.25-1.01.15-.28.35-.5.6-.67.25-.17.54-.29.86-.37.32-.08.67-.11 1.03-.11.29 0 .58.02.87.06.29.04.55.13.78.26.23.13.42.31.56.54.14.23.21.54.21.91v3.32c0 .25.01.43.04.55.03.12.13.17.29.17.09 0 .2-.02.33-.05v.83Zm-1.73-3.32c-.13.1-.31.17-.53.22-.22.05-.44.08-.68.11-.24.03-.48.06-.72.1-.24.04-.46.1-.65.18-.19.08-.35.2-.47.36-.12.15-.18.36-.18.63 0 .17.04.32.11.44s.16.22.28.29c.11.07.24.13.39.16a2.658 2.658 0 0 0 1.38-.09c.25-.1.46-.22.61-.36.16-.15.28-.3.35-.47s.11-.33.11-.48v-1.08ZM62.04 7.14v1.37h.03c.26-.53.58-.91.95-1.16.38-.25.85-.37 1.43-.35v1.13c-.43 0-.79.06-1.09.18-.3.12-.54.29-.73.51-.18.23-.32.5-.4.82-.08.32-.13.69-.13 1.11v2.88h-1.06V7.15h1ZM68.16 7.14v.94h-1.29v4.02c0 .13.01.23.03.3.02.08.06.13.12.18.06.04.14.07.24.08.1.01.24.02.41.02h.49v.94h-.81c-.28 0-.51-.02-.71-.06-.2-.04-.35-.11-.48-.21a.886.886 0 0 1-.27-.43c-.06-.18-.09-.43-.09-.73V8.07h-1.1v-.94h1.1V5.19h1.06v1.94h1.29ZM69.99 7.14v.95h.03c.48-.73 1.18-1.1 2.09-1.1.4 0 .76.08 1.09.25.33.17.56.45.69.85.22-.35.5-.62.86-.81.35-.19.75-.29 1.17-.29.33 0 .62.04.88.11s.49.18.68.33c.19.15.33.34.44.58s.16.52.16.86v4.75h-1.06V9.37c0-.2-.02-.39-.05-.56-.03-.18-.1-.33-.19-.46a.98.98 0 0 0-.38-.31c-.16-.08-.37-.11-.63-.11-.53 0-.94.15-1.24.45-.3.3-.45.7-.45 1.2v4.03h-1.06V9.36c0-.21-.02-.4-.06-.58s-.1-.33-.19-.46a.912.912 0 0 0-.37-.3c-.15-.07-.35-.11-.59-.11-.31 0-.57.06-.8.19-.22.13-.4.28-.54.45-.14.18-.24.36-.3.54-.06.19-.09.34-.09.47v4.03h-1.06V7.11h1ZM83.96 13.2c-.48.37-1.09.55-1.83.55-.52 0-.97-.08-1.35-.25-.38-.17-.7-.4-.96-.7-.26-.3-.45-.66-.58-1.08-.13-.42-.2-.87-.22-1.37 0-.49.08-.94.23-1.35.15-.41.36-.76.63-1.06.27-.3.59-.53.96-.7.37-.17.78-.25 1.22-.25.58 0 1.05.12 1.43.36.38.24.68.54.91.91.23.37.39.77.48 1.2.09.43.12.85.11 1.24h-4.85c0 .28.03.55.1.81.08.25.2.48.36.68.17.2.38.35.64.47s.56.18.91.18c.45 0 .82-.1 1.11-.31.29-.21.48-.53.57-.95h1.05c-.14.73-.46 1.27-.94 1.64Zm-.26-4.16c-.1-.23-.23-.42-.39-.58s-.36-.29-.58-.39c-.22-.1-.47-.14-.73-.14s-.52.05-.75.14c-.22.1-.41.23-.57.39-.16.17-.28.36-.38.58-.09.22-.15.46-.16.71h3.72c-.02-.25-.07-.49-.17-.71ZM86.9 7.14v1.03h.03c.44-.78 1.14-1.18 2.1-1.18.43 0 .78.06 1.06.18s.51.28.69.49c.18.21.3.46.37.75s.11.61.11.96v4.26H90.2V9.25c0-.4-.12-.72-.35-.95-.23-.23-.56-.35-.96-.35-.33 0-.61.05-.85.15-.24.1-.44.24-.6.43-.16.18-.28.4-.36.65-.08.25-.12.52-.12.81v3.66H85.9V7.17h1ZM95.28 7.14v.94h-1.29v4.02c0 .13.01.23.03.3.02.08.06.13.12.18.06.04.14.07.24.08.1.01.24.02.41.02h.49v.94h-.81c-.28 0-.51-.02-.71-.06-.2-.04-.35-.11-.48-.21a.886.886 0 0 1-.27-.43c-.06-.18-.09-.43-.09-.73V8.07h-1.1v-.94h1.1V5.19h1.06v1.94h1.29ZM99.03 8.08v-.94h1.09v-.96c0-.53.15-.92.46-1.2.3-.27.75-.41 1.33-.41.1 0 .21 0 .34.02.13.02.24.04.34.08v.93a1.32 1.32 0 0 0-.3-.07c-.11-.01-.21-.02-.3-.02-.26 0-.46.05-.6.15-.14.1-.21.29-.21.58v.9h1.25v.94h-1.25v5.54h-1.06V8.08h-1.09ZM102.82 9.05c.13-.41.33-.77.6-1.08.27-.3.6-.54.99-.72.39-.18.84-.26 1.35-.26s.97.09 1.36.26a2.87 2.87 0 0 1 1.58 1.8c.13.41.2.86.2 1.33s-.07.92-.2 1.33c-.13.41-.33.77-.6 1.07-.27.3-.59.54-.98.71-.39.17-.84.26-1.36.26s-.96-.09-1.35-.26a2.85 2.85 0 0 1-.99-.71c-.27-.3-.47-.66-.6-1.07-.13-.41-.2-.85-.2-1.33s.07-.92.2-1.33Zm1.08 2.38c.1.3.25.56.43.76a1.903 1.903 0 0 0 1.43.63c.27 0 .54-.05.78-.16.25-.11.46-.27.65-.47.18-.2.33-.46.43-.76.1-.3.16-.65.16-1.05s-.05-.74-.16-1.05c-.1-.3-.25-.56-.43-.77-.18-.21-.4-.37-.65-.48-.25-.11-.51-.16-.78-.16s-.54.05-.78.16c-.25.11-.46.27-.65.48-.18.21-.33.47-.43.77-.1.3-.16.65-.16 1.05s.05.74.16 1.05ZM110.87 7.14v1.37h.03c.26-.53.58-.91.95-1.16.38-.25.85-.37 1.43-.35v1.13c-.43 0-.79.06-1.09.18-.3.12-.54.29-.73.51-.18.23-.32.5-.4.82-.08.32-.13.69-.13 1.11v2.88h-1.06V7.15h1ZM120.73 4.67h.62c.22 0 .44.02.66.04.22.02.42.05.61.09.19.04.35.1.48.19.29.18.54.42.75.73.2.31.31.69.31 1.14 0 .48-.11.89-.34 1.23-.23.35-.56.6-.98.77v.03c.55.12.97.37 1.26.75.29.38.44.85.44 1.4a2.585 2.585 0 0 1-.7 1.77c-.23.24-.51.43-.85.58-.34.15-.73.22-1.17.22h-4.32V4.67h3.24Zm.33 3.85c.68 0 1.16-.12 1.46-.36.3-.24.44-.59.44-1.07 0-.32-.05-.57-.15-.75-.1-.18-.24-.33-.41-.43-.18-.1-.38-.16-.61-.19a5.64 5.64 0 0 0-.73-.04h-2.38v2.84h2.38Zm.6 4.1c.53 0 .94-.14 1.23-.43.3-.28.44-.68.44-1.18 0-.29-.05-.53-.16-.73-.11-.19-.25-.34-.43-.46-.18-.11-.39-.19-.62-.24s-.48-.07-.73-.07h-2.72v3.09h2.98ZM129.95 13.61v-1.03h-.03c-.23.4-.51.7-.86.88-.35.19-.76.28-1.24.28-.43 0-.78-.06-1.06-.17-.28-.11-.51-.27-.69-.48-.18-.21-.3-.46-.37-.75s-.11-.61-.11-.96V7.12h1.06v4.38c0 .4.12.72.35.95.23.23.56.35.96.35.33 0 .61-.05.85-.15.24-.1.44-.24.6-.43.16-.18.28-.4.36-.64.08-.25.12-.52.12-.81V7.11h1.06v6.48h-1ZM133.13 12.17c.1.16.23.29.39.39.16.1.35.17.55.21.2.04.42.06.63.06.17 0 .34-.01.53-.04.18-.03.35-.07.51-.14.15-.07.28-.16.38-.29s.15-.29.15-.49c0-.28-.1-.48-.31-.63a2.55 2.55 0 0 0-.78-.34c-.31-.09-.65-.17-1.02-.24-.37-.07-.71-.17-1.02-.3-.31-.13-.57-.31-.78-.54-.21-.23-.31-.56-.31-.98 0-.33.07-.61.22-.84.15-.23.33-.42.56-.57.23-.15.49-.25.78-.33s.57-.11.86-.11c.37 0 .71.03 1.01.09.31.06.58.17.82.33.24.15.43.36.57.63.14.26.23.59.25.98h-1.06c-.02-.21-.07-.38-.16-.52s-.21-.25-.35-.33c-.14-.08-.3-.14-.47-.18a2.592 2.592 0 0 0-1-.02c-.16.02-.31.07-.44.13s-.24.15-.33.25c-.08.1-.13.24-.13.41 0 .18.06.34.19.46s.29.22.49.3.43.15.68.2c.25.05.5.11.75.17.27.06.53.13.78.21s.48.19.68.33c.2.14.35.31.48.52.12.21.18.47.18.78 0 .39-.08.72-.24.98-.16.26-.38.47-.64.63-.26.16-.56.27-.89.33-.33.06-.66.09-.98.09-.36 0-.7-.04-1.03-.11-.33-.08-.61-.2-.86-.37-.25-.17-.45-.4-.6-.68-.15-.28-.23-.62-.25-1.02h1.06c0 .23.06.43.16.6ZM138.37 5.97v-1.3h1.06v1.3h-1.06Zm1.06 1.16v6.48h-1.06V7.13h1.06ZM141.77 7.14v1.03h.03c.44-.78 1.14-1.18 2.1-1.18.43 0 .78.06 1.06.18s.51.28.69.49.3.46.37.75.11.61.11.96v4.26h-1.06V9.25c0-.4-.12-.72-.35-.95s-.56-.35-.96-.35c-.33 0-.61.05-.85.15-.24.1-.44.24-.6.43-.16.18-.28.4-.36.65-.08.25-.12.52-.12.81v3.66h-1.06V7.17h1ZM152.02 13.2c-.48.37-1.09.55-1.83.55-.52 0-.97-.08-1.35-.25-.38-.17-.7-.4-.96-.7-.26-.3-.45-.66-.58-1.08-.13-.42-.2-.87-.22-1.37 0-.49.08-.94.23-1.35.15-.41.36-.76.63-1.06.27-.3.59-.53.96-.7.37-.17.78-.25 1.22-.25.58 0 1.05.12 1.43.36s.68.54.91.91c.23.37.39.77.48 1.2s.12.85.11 1.24h-4.85c0 .28.02.55.1.81.08.25.2.48.36.68.17.2.38.35.64.47s.56.18.91.18c.45 0 .82-.1 1.11-.31.29-.21.48-.53.57-.95h1.05c-.14.73-.46 1.27-.94 1.64Zm-.26-4.16c-.1-.23-.23-.42-.39-.58-.16-.16-.35-.29-.58-.39-.22-.1-.47-.14-.73-.14s-.52.05-.75.14c-.22.1-.41.23-.57.39-.16.17-.28.36-.38.58-.09.22-.15.46-.16.71h3.72c-.02-.25-.07-.49-.17-.71ZM154.8 12.17c.1.16.23.29.39.39.16.1.35.17.55.21.2.04.42.06.63.06.17 0 .34-.01.53-.04.18-.03.35-.07.51-.14.15-.07.28-.16.38-.29s.15-.29.15-.49c0-.28-.1-.48-.31-.63a2.55 2.55 0 0 0-.78-.34c-.31-.09-.65-.17-1.02-.24-.37-.07-.71-.17-1.02-.3-.31-.13-.57-.31-.78-.54-.21-.23-.31-.56-.31-.98 0-.33.07-.61.22-.84.15-.23.33-.42.56-.57.23-.15.49-.25.78-.33s.57-.11.86-.11c.37 0 .71.03 1.01.09.31.06.58.17.82.33.24.15.43.36.57.63.14.26.23.59.25.98h-1.06c-.02-.21-.07-.38-.16-.52s-.21-.25-.35-.33c-.14-.08-.3-.14-.47-.18a2.592 2.592 0 0 0-1-.02c-.16.02-.31.07-.44.13s-.24.15-.33.25c-.08.1-.13.24-.13.41 0 .18.06.34.19.46s.29.22.49.3c.2.08.43.15.68.2s.5.11.75.17c.27.06.53.13.78.21s.48.19.68.33c.2.14.35.31.48.52.12.21.18.47.18.78 0 .39-.08.72-.24.98-.16.26-.38.47-.64.63-.26.16-.56.27-.89.33-.33.06-.66.09-.98.09-.36 0-.7-.04-1.03-.11-.33-.08-.61-.2-.86-.37-.25-.17-.45-.4-.6-.68-.15-.28-.23-.62-.25-1.02h1.06c0 .23.06.43.16.6ZM160.87 12.17c.1.16.23.29.39.39.16.1.35.17.55.21.2.04.42.06.63.06.17 0 .34-.01.53-.04.18-.03.35-.07.51-.14a.99.99 0 0 0 .38-.29c.1-.13.15-.29.15-.49 0-.28-.1-.48-.31-.63a2.55 2.55 0 0 0-.78-.34c-.31-.09-.65-.17-1.02-.24-.37-.07-.71-.17-1.02-.3-.31-.13-.57-.31-.78-.54-.21-.23-.31-.56-.31-.98 0-.33.07-.61.22-.84.15-.23.33-.42.56-.57.23-.15.49-.25.78-.33s.57-.11.86-.11c.37 0 .71.03 1.01.09.31.06.58.17.82.33.24.15.43.36.57.63.14.26.23.59.25.98h-1.07c-.02-.21-.07-.38-.16-.52s-.21-.25-.35-.33-.3-.14-.47-.18a2.592 2.592 0 0 0-1-.02c-.16.02-.31.07-.44.13s-.24.15-.33.25c-.08.1-.13.24-.13.41 0 .18.06.34.19.46s.29.22.49.3.43.15.68.2.5.11.75.17c.27.06.53.13.78.21s.48.19.68.33c.2.14.35.31.48.52.12.21.18.47.18.78 0 .39-.08.72-.24.98-.16.26-.38.47-.64.63-.26.16-.56.27-.89.33-.33.06-.66.09-.98.09-.36 0-.7-.04-1.03-.11-.33-.08-.61-.2-.86-.37-.25-.17-.45-.4-.6-.68-.15-.28-.23-.62-.25-1.02h1.06c0 .23.06.43.16.6ZM167.63 12.22v1.26c0 .48-.11.89-.33 1.23-.22.34-.57.58-1.05.73v-.63c.14-.05.26-.12.36-.22.1-.1.17-.2.23-.31.06-.11.1-.23.12-.34.02-.12.03-.23.02-.33h-.74v-1.39h1.39ZM179.06 4.67v1h-4.99v2.84h4.65v1h-4.65v3.09h5.02v1h-6.21V4.67h6.17ZM180.98 7.14v1.03h.02c.44-.78 1.14-1.18 2.1-1.18.43 0 .78.06 1.06.18s.51.28.69.49c.18.21.3.46.37.75s.11.61.11.96v4.26h-1.06V9.25c0-.4-.12-.72-.35-.95-.23-.23-.56-.35-.96-.35-.33 0-.61.05-.85.15-.24.1-.44.24-.59.43-.16.18-.28.4-.36.65-.08.25-.12.52-.12.81v3.66h-1.06V7.17h1ZM191.23 13.2c-.48.37-1.09.55-1.83.55-.52 0-.97-.08-1.35-.25-.38-.17-.7-.4-.96-.7-.26-.3-.45-.66-.58-1.08-.13-.42-.2-.87-.22-1.37 0-.49.08-.94.23-1.35.15-.41.36-.76.63-1.06.27-.3.59-.53.96-.7.37-.17.78-.25 1.22-.25.58 0 1.05.12 1.43.36.38.24.68.54.91.91.23.37.39.77.48 1.2s.12.85.11 1.24h-4.85c0 .28.02.55.1.81.08.25.2.48.36.68.17.2.38.35.64.47s.56.18.91.18c.45 0 .82-.1 1.11-.31.29-.21.48-.53.57-.95h1.05c-.14.73-.46 1.27-.94 1.64Zm-.26-4.16c-.1-.23-.23-.42-.39-.58s-.35-.29-.58-.39c-.22-.1-.47-.14-.73-.14s-.52.05-.75.14c-.22.1-.41.23-.57.39-.16.17-.28.36-.38.58-.09.22-.15.46-.16.71h3.72c-.02-.25-.07-.49-.17-.71ZM194.15 7.14v1.37h.02c.26-.53.58-.91.95-1.16.38-.25.85-.37 1.43-.35v1.13c-.43 0-.79.06-1.09.18-.3.12-.54.29-.73.51-.18.23-.32.5-.4.82s-.13.69-.13 1.11v2.88h-1.06V7.15h1ZM201.92 15.44c-.48.53-1.24.79-2.28.79-.3 0-.61-.03-.92-.1-.31-.07-.6-.18-.85-.33-.25-.15-.47-.35-.63-.59-.17-.24-.26-.54-.28-.89h1.06c0 .19.07.35.18.49.11.13.25.24.41.33.16.08.34.14.53.18.19.04.38.06.55.06.35 0 .65-.06.89-.18s.44-.29.6-.5c.16-.21.27-.47.34-.77.07-.3.11-.63.11-.99v-.43h-.03c-.18.4-.46.7-.83.88-.37.19-.77.28-1.18.28-.48 0-.91-.09-1.27-.26s-.66-.41-.9-.71-.42-.64-.54-1.04c-.12-.4-.18-.82-.18-1.26 0-.38.05-.78.15-1.18.1-.41.27-.77.5-1.1.23-.33.54-.6.93-.81.38-.21.86-.32 1.42-.32.41 0 .78.09 1.13.27.34.18.61.45.8.81h.01v-.93h1v5.92c0 1.06-.24 1.85-.73 2.38Zm-1.36-2.91c.25-.15.44-.34.6-.58s.26-.51.33-.81c.07-.3.11-.6.11-.9 0-.28-.03-.56-.1-.84-.07-.28-.17-.52-.32-.75a1.7 1.7 0 0 0-.57-.53c-.23-.13-.52-.2-.85-.2s-.63.06-.88.19c-.24.13-.44.3-.6.52-.15.22-.27.47-.34.75s-.11.58-.11.89c0 .29.03.58.09.88.06.29.16.56.3.8.14.24.33.43.56.58.23.15.53.22.88.22s.65-.07.9-.22ZM206.53 14.48c-.13.32-.25.58-.37.8-.12.22-.25.39-.4.53-.15.14-.31.24-.49.3s-.39.09-.62.09c-.13 0-.25 0-.38-.02s-.25-.05-.36-.09v-.98c.09.04.2.08.32.11s.22.04.31.04c.22 0 .4-.05.54-.16.15-.1.26-.25.33-.44l.44-1.09-2.57-6.44h1.2l1.89 5.3h.03l1.82-5.3h1.13l-2.82 7.34ZM217.32 13.44c-.46.21-.94.31-1.43.31-.6 0-1.09-.09-1.45-.28-.37-.18-.65-.4-.85-.66-.2-.26-.33-.53-.39-.8a3.43 3.43 0 0 1-.09-.69c0-.35.06-.66.17-.93.11-.27.26-.51.45-.72.19-.21.41-.41.66-.58.25-.17.52-.33.81-.48-.13-.18-.25-.34-.36-.5-.12-.16-.22-.32-.32-.48-.1-.16-.17-.33-.23-.51-.05-.18-.08-.38-.08-.61a1.786 1.786 0 0 1 1.15-1.7c.25-.1.54-.15.86-.15.28 0 .54.04.81.11.26.08.49.19.7.34a1.686 1.686 0 0 1 .66 1.38c0 .27-.05.52-.14.75-.09.23-.22.44-.38.63s-.34.37-.54.52c-.2.15-.41.29-.63.42l1.62 1.97c.17-.47.26-.93.29-1.39h1.01c-.02.27-.05.49-.08.68-.03.19-.07.36-.11.52-.05.16-.1.32-.17.47-.07.15-.15.33-.24.53l1.74 2.02h-1.39l-.95-1.11c-.27.42-.63.73-1.1.94Zm-2.14-3.78a2.279 2.279 0 0 0-.83.96c-.08.2-.13.43-.13.7 0 .23.05.43.14.62.1.19.22.35.38.48s.34.23.54.31c.2.08.42.11.63.11.41 0 .77-.1 1.1-.29.32-.19.59-.45.81-.78l-2.05-2.47c-.21.12-.41.24-.6.36Zm1.35-1.82c.14-.1.27-.21.39-.34.12-.13.21-.26.29-.42.08-.15.11-.33.11-.52 0-.26-.09-.48-.28-.67-.18-.19-.43-.28-.75-.28-.25 0-.48.08-.7.23-.22.15-.33.39-.33.72 0 .13.03.27.08.4s.12.27.21.39c.08.13.18.26.28.38.1.13.2.25.3.38.13-.08.26-.18.4-.28ZM226.02 4.67v8.94h-1.19V4.67h1.19ZM228.51 7.14v1.03h.02c.44-.78 1.14-1.18 2.1-1.18.43 0 .78.06 1.06.18s.51.28.69.49c.18.21.3.46.37.75s.11.61.11.96v4.26h-1.06V9.25c0-.4-.12-.72-.35-.95-.23-.23-.56-.35-.96-.35-.33 0-.61.05-.85.15-.24.1-.44.24-.59.43-.16.18-.28.4-.36.65-.08.25-.12.52-.12.81v3.66h-1.06V7.17h1ZM238.92 13.61v-.88h-.02c-.18.36-.45.62-.83.78-.38.16-.79.24-1.24.24-.5 0-.94-.09-1.31-.28-.37-.18-.68-.43-.93-.74s-.43-.67-.56-1.08-.19-.84-.19-1.3.06-.89.18-1.3c.12-.41.3-.77.55-1.07.25-.3.56-.55.93-.73.37-.18.8-.27 1.3-.27.17 0 .35.02.54.05.19.03.38.09.58.17.19.08.37.18.54.31.17.13.32.29.43.48h.02V4.66h1.06v8.94h-1.06Zm-3.83-2.3c.08.29.2.54.36.77s.37.41.63.54c.25.13.55.2.9.2s.66-.07.91-.21c.25-.14.45-.33.61-.56.16-.23.27-.49.34-.78.07-.29.11-.59.11-.89 0-.32-.04-.62-.11-.92-.08-.3-.19-.56-.36-.78s-.37-.41-.63-.54c-.26-.14-.57-.21-.94-.21s-.66.07-.91.21a1.7 1.7 0 0 0-.6.56c-.15.23-.26.5-.33.8-.07.3-.1.61-.1.93 0 .3.04.6.12.88ZM245.66 13.61v-1.03h-.02c-.23.4-.51.7-.86.88-.35.19-.76.28-1.24.28-.43 0-.78-.06-1.06-.17-.28-.11-.51-.27-.69-.48-.18-.21-.3-.46-.37-.75s-.11-.61-.11-.96V7.12h1.06v4.38c0 .4.12.72.35.95.23.23.56.35.96.35.33 0 .61-.05.85-.15.24-.1.44-.24.6-.43.16-.18.28-.4.36-.64s.12-.52.12-.81V7.11h1.06v6.48h-1ZM248.84 12.17c.1.16.23.29.39.39.16.1.35.17.55.21.2.04.42.06.63.06.17 0 .34-.01.53-.04.18-.03.35-.07.51-.14a.99.99 0 0 0 .38-.29c.1-.13.15-.29.15-.49 0-.28-.1-.48-.31-.63a2.55 2.55 0 0 0-.78-.34c-.31-.09-.65-.17-1.02-.24-.37-.07-.71-.17-1.02-.3s-.57-.31-.78-.54c-.21-.23-.31-.56-.31-.98 0-.33.07-.61.22-.84.15-.23.33-.42.56-.57.23-.15.49-.25.78-.33.29-.07.57-.11.86-.11.37 0 .71.03 1.01.09.31.06.58.17.82.33.24.15.43.36.57.63.14.26.23.59.25.98h-1.06c-.02-.21-.07-.38-.16-.52s-.21-.25-.35-.33c-.14-.08-.3-.14-.47-.18a2.592 2.592 0 0 0-1-.02c-.16.02-.31.07-.44.13s-.24.15-.33.25c-.08.1-.13.24-.13.41 0 .18.06.34.19.46s.29.22.49.3.43.15.68.2.5.11.75.17c.27.06.53.13.78.21.25.08.48.19.68.33.2.14.35.31.48.52.12.21.18.47.18.78 0 .39-.08.72-.24.98-.16.26-.38.47-.64.63-.26.16-.56.27-.89.33-.33.06-.66.09-.98.09-.36 0-.7-.04-1.03-.11-.33-.08-.61-.2-.86-.37-.25-.17-.45-.4-.6-.68s-.23-.62-.25-1.02h1.06c0 .23.06.43.16.6ZM256.77 7.14v.94h-1.29v4.02c0 .13.01.23.03.3.02.08.06.13.12.18s.14.07.24.08c.1.01.24.02.41.02h.49v.94h-.81c-.28 0-.51-.02-.71-.06s-.35-.11-.48-.21a.886.886 0 0 1-.27-.43c-.06-.18-.09-.43-.09-.73V8.07h-1.1v-.94h1.1V5.19h1.06v1.94h1.29ZM258.58 7.14v1.37h.02c.26-.53.58-.91.95-1.16.38-.25.85-.37 1.43-.35v1.13c-.43 0-.79.06-1.09.18-.3.12-.54.29-.73.51-.18.23-.32.5-.4.82s-.13.69-.13 1.11v2.88h-1.06V7.15h1ZM261.6 5.97v-1.3h1.06v1.3h-1.06Zm1.06 1.16v6.48h-1.06V7.13h1.06ZM269.77 13.59c-.18.11-.44.16-.76.16-.28 0-.49-.08-.66-.23s-.24-.41-.24-.76c-.29.35-.63.6-1.02.76-.39.15-.81.23-1.26.23a3.2 3.2 0 0 1-.83-.1c-.26-.07-.49-.17-.68-.31-.19-.14-.34-.33-.46-.56-.11-.23-.17-.51-.17-.83 0-.37.06-.67.19-.9s.29-.42.49-.57.44-.26.7-.33c.26-.08.53-.14.81-.19.29-.06.57-.1.83-.13s.49-.07.7-.13c.2-.05.36-.13.48-.24.12-.1.18-.26.18-.46 0-.23-.04-.42-.13-.56a.975.975 0 0 0-.34-.33c-.14-.08-.29-.13-.46-.15-.17-.03-.34-.04-.51-.04-.45 0-.83.09-1.13.26-.3.17-.46.49-.49.97h-1.06c.02-.4.1-.74.25-1.01.15-.28.35-.5.6-.67.25-.17.54-.29.86-.37s.67-.11 1.03-.11c.29 0 .58.02.87.06.29.04.55.13.78.26s.42.31.56.54c.14.23.21.54.21.91v3.32c0 .25.01.43.04.55.03.12.13.17.29.17.09 0 .2-.02.33-.05v.83Zm-1.73-3.32c-.13.1-.31.17-.53.22-.22.05-.44.08-.68.11-.24.03-.48.06-.72.1s-.46.1-.65.18-.35.2-.47.36c-.12.15-.18.36-.18.63 0 .17.04.32.11.44s.16.22.28.29c.11.07.24.13.39.16a2.658 2.658 0 0 0 1.38-.09c.25-.1.45-.22.61-.36.16-.15.28-.3.35-.47s.11-.33.11-.48v-1.08ZM271.64 4.67v8.94h-1.06V4.67h1.06ZM281.18 5.89c-.4-.29-.9-.43-1.52-.43-.25 0-.5.03-.74.08s-.46.13-.64.25c-.19.12-.34.27-.45.47s-.17.44-.17.73c0 .28.08.5.24.67.16.17.38.31.65.42s.58.2.92.27c.34.07.69.15 1.05.23.35.08.7.18 1.05.29.34.11.65.27.92.46s.49.43.65.73.24.66.24 1.1c0 .48-.11.88-.32 1.22-.21.34-.49.61-.82.83-.33.21-.71.37-1.12.46s-.82.14-1.23.14c-.5 0-.97-.06-1.42-.19s-.84-.32-1.18-.57c-.34-.25-.61-.58-.8-.98-.2-.4-.29-.87-.29-1.41h1.13c0 .38.07.7.22.97s.34.49.58.67c.24.18.52.3.83.39.32.08.64.13.98.13.27 0 .54-.03.81-.08s.52-.14.73-.26c.22-.12.39-.29.53-.49.13-.21.2-.48.2-.8 0-.31-.08-.56-.24-.75a1.79 1.79 0 0 0-.65-.47c-.27-.12-.58-.22-.92-.29-.34-.08-.69-.15-1.05-.23-.36-.08-.7-.17-1.05-.28-.34-.1-.65-.24-.92-.41-.27-.17-.49-.39-.65-.66s-.24-.61-.24-1.02c0-.45.09-.84.28-1.17.18-.33.43-.6.73-.81.3-.21.65-.37 1.04-.48.39-.1.79-.16 1.2-.16.46 0 .88.05 1.28.16.39.11.74.28 1.03.51.3.23.53.53.7.88.17.36.27.78.28 1.27h-1.13c-.07-.64-.3-1.11-.7-1.4ZM287.12 7.14v.94h-1.29v4.02c0 .13.01.23.03.3.02.08.06.13.12.18s.14.07.24.08c.1.01.24.02.41.02h.49v.94h-.81c-.28 0-.51-.02-.71-.06s-.35-.11-.48-.21a.886.886 0 0 1-.27-.43c-.06-.18-.09-.43-.09-.73V8.07h-1.1v-.94h1.1V5.19h1.06v1.94h1.29ZM288.93 7.14v1.37h.02c.26-.53.58-.91.95-1.16.38-.25.85-.37 1.43-.35v1.13c-.43 0-.79.06-1.09.18-.3.12-.54.29-.73.51-.18.23-.32.5-.4.82s-.13.69-.13 1.11v2.88h-1.06V7.15h1ZM297.63 13.59c-.18.11-.44.16-.76.16-.28 0-.49-.08-.66-.23s-.24-.41-.24-.76c-.29.35-.63.6-1.02.76-.39.15-.81.23-1.26.23a3.2 3.2 0 0 1-.83-.1c-.26-.07-.49-.17-.68-.31-.19-.14-.34-.33-.46-.56-.11-.23-.17-.51-.17-.83 0-.37.06-.67.19-.9s.29-.42.49-.57.44-.26.7-.33c.26-.08.53-.14.81-.19.29-.06.57-.1.83-.13s.49-.07.7-.13c.2-.05.36-.13.48-.24.12-.1.18-.26.18-.46 0-.23-.04-.42-.13-.56a.975.975 0 0 0-.34-.33c-.14-.08-.29-.13-.46-.15-.17-.03-.34-.04-.51-.04-.45 0-.83.09-1.13.26-.3.17-.46.49-.49.97h-1.06c.02-.4.1-.74.25-1.01.15-.28.35-.5.6-.67.25-.17.54-.29.86-.37s.67-.11 1.03-.11c.29 0 .58.02.87.06.29.04.55.13.78.26s.42.31.56.54c.14.23.21.54.21.91v3.32c0 .25.01.43.04.55.03.12.13.17.29.17.09 0 .2-.02.33-.05v.83Zm-1.73-3.32c-.13.1-.31.17-.53.22-.22.05-.44.08-.68.11-.24.03-.48.06-.72.1s-.46.1-.65.18-.35.2-.47.36c-.12.15-.18.36-.18.63 0 .17.04.32.11.44s.16.22.28.29c.11.07.24.13.39.16a2.658 2.658 0 0 0 1.38-.09c.25-.1.45-.22.61-.36.16-.15.28-.3.35-.47s.11-.33.11-.48v-1.08ZM301.06 7.14v.94h-1.29v4.02c0 .13.01.23.03.3.02.08.06.13.12.18s.14.07.24.08c.1.01.24.02.41.02h.49v.94h-.81c-.28 0-.51-.02-.71-.06s-.35-.11-.48-.21a.886.886 0 0 1-.27-.43c-.06-.18-.09-.43-.09-.73V8.07h-1.1v-.94h1.1V5.19h1.06v1.94h1.29ZM306.3 13.2c-.48.37-1.09.55-1.83.55-.52 0-.97-.08-1.35-.25-.38-.17-.7-.4-.96-.7-.26-.3-.45-.66-.58-1.08-.13-.42-.2-.87-.22-1.37 0-.49.08-.94.23-1.35.15-.41.36-.76.63-1.06.27-.3.59-.53.96-.7.37-.17.78-.25 1.22-.25.58 0 1.05.12 1.43.36.38.24.68.54.91.91.23.37.39.77.48 1.2s.12.85.11 1.24h-4.85c0 .28.02.55.1.81.08.25.2.48.36.68.17.2.38.35.64.47s.56.18.91.18c.45 0 .82-.1 1.11-.31.29-.21.48-.53.57-.95h1.05c-.14.73-.46 1.27-.94 1.64Zm-.26-4.16c-.1-.23-.23-.42-.39-.58s-.35-.29-.58-.39c-.22-.1-.47-.14-.73-.14s-.52.05-.75.14c-.22.1-.41.23-.57.39-.16.17-.28.36-.38.58-.09.22-.15.46-.16.71h3.72c-.02-.25-.07-.49-.17-.71ZM313.12 15.44c-.48.53-1.24.79-2.28.79-.3 0-.61-.03-.92-.1-.31-.07-.6-.18-.85-.33-.25-.15-.47-.35-.63-.59-.17-.24-.26-.54-.28-.89h1.06c0 .19.07.35.18.49.11.13.25.24.41.33.16.08.34.14.53.18.19.04.38.06.55.06.35 0 .65-.06.89-.18s.44-.29.6-.5c.16-.21.27-.47.34-.77.07-.3.11-.63.11-.99v-.43h-.03c-.18.4-.46.7-.83.88-.37.19-.77.28-1.18.28-.48 0-.91-.09-1.27-.26s-.66-.41-.9-.71-.42-.64-.54-1.04c-.12-.4-.18-.82-.18-1.26 0-.38.05-.78.15-1.18.1-.41.27-.77.5-1.1.23-.33.54-.6.93-.81.38-.21.86-.32 1.42-.32.41 0 .78.09 1.13.27.34.18.61.45.8.81h.01v-.93h1v5.92c0 1.06-.24 1.85-.73 2.38Zm-1.36-2.91c.25-.15.44-.34.6-.58s.26-.51.33-.81c.07-.3.11-.6.11-.9 0-.28-.03-.56-.1-.84-.07-.28-.17-.52-.32-.75a1.7 1.7 0 0 0-.57-.53c-.23-.13-.52-.2-.85-.2s-.63.06-.88.19c-.24.13-.44.3-.6.52-.15.22-.27.47-.34.75s-.11.58-.11.89c0 .29.03.58.09.88.06.29.16.56.3.8.14.24.33.43.56.58.23.15.53.22.88.22s.65-.07.9-.22ZM317.73 14.48c-.13.32-.25.58-.37.8-.12.22-.25.39-.4.53-.15.14-.31.24-.49.3s-.39.09-.62.09c-.13 0-.25 0-.38-.02s-.25-.05-.36-.09v-.98c.09.04.2.08.32.11s.22.04.31.04c.22 0 .4-.05.54-.16.15-.1.26-.25.33-.44l.44-1.09-2.57-6.44h1.2l1.89 5.3h.03l1.82-5.3h1.13l-2.82 7.34ZM14.68 2.92c-.1.2-.19.31-.18.46.01.15.17.26.25.41.07-.18.18-.31.17-.45-.01-.14-.2-.32-.24-.42M17.3 2.92c.1.2.19.31.18.46-.01.15-.17.26-.25.41-.07-.18-.18-.31-.17-.45.01-.14.2-.32.24-.42M13.16 2.81c.1 0 .18-.08.18-.18s-.08-.18-.18-.18-.18.08-.18.18.08.18.18.18M13.28 3.06c0-.1-.08-.18-.18-.18s-.18.08-.18.18.08.18.18.18.18-.08.18-.18M13.37 3.49c0-.1-.08-.18-.18-.18s-.18.08-.18.18.08.18.18.18.18-.08.18-.18M14.15 1.96c.1 0 .18-.08.18-.18s-.08-.18-.18-.18-.18.08-.18.18.08.18.18.18M13.71 2.1c.1 0 .18-.08.18-.18s-.08-.18-.18-.18-.18.08-.18.18.08.18.18.18M13.36 2.4c.1 0 .18-.08.18-.18s-.08-.18-.18-.18-.18.08-.18.18.08.18.18.18M14.61 2.01c.1 0 .18-.08.18-.18s-.08-.18-.18-.18-.18.08-.18.18.08.18.18.18M15.05 2.13c.1 0 .18-.08.18-.18s-.08-.18-.18-.18-.18.08-.18.18.08.18.18.18M15.46 2.33c.1 0 .18-.08.18-.18s-.08-.18-.18-.18-.18.08-.18.18.08.18.18.18M18.63 2.63c0 .1.08.18.18.18s.18-.08.18-.18-.08-.18-.18-.18-.18.08-.18.18M18.86 2.89c-.1 0-.18.08-.18.18s.08.18.18.18.18-.08.18-.18-.08-.18-.18-.18M18.78 3.31c-.1 0-.18.08-.18.18s.08.18.18.18.18-.08.18-.18-.08-.18-.18-.18M17.82 1.96c.1 0 .18-.08.18-.18s-.08-.18-.18-.18-.18.08-.18.18.08.18.18.18M18.26 2.1c.1 0 .18-.08.18-.18s-.08-.18-.18-.18-.18.08-.18.18.08.18.18.18M18.61 2.4c.1 0 .18-.08.18-.18s-.08-.18-.18-.18-.18.08-.18.18.08.18.18.18M17.36 2.01c.1 0 .18-.08.18-.18s-.08-.18-.18-.18-.18.08-.18.18.08.18.18.18M16.92 2.13c.1 0 .18-.08.18-.18s-.08-.18-.18-.18-.18.08-.18.18.08.18.18.18M16.33 2.15c0 .1.08.18.18.18s.18-.08.18-.18-.08-.18-.18-.18-.18.08-.18.18M15.68 3.11h.2v-.76a.664.664 0 0 1-.2-.06v.82ZM16.29 2.29c-.06.03-.13.05-.2.06v.76h.2v-.82ZM15.87 1.45V1c-.22.05-.4.22-.44.45h.44ZM16.1 1.45h.43A.568.568 0 0 0 16.1 1v.45ZM15.44 1.67c.06.25.28.44.54.44s.49-.19.54-.44h-1.09ZM16.29.93a.605.605 0 0 1-.24-.39c.14.03.31.13.4.26V.18c-.1.13-.26.23-.4.26.02-.15.11-.28.23-.44h-.59c.12.15.22.29.23.44a.703.703 0 0 1-.4-.26v.61c.1-.13.26-.23.4-.26-.02.15-.11.29-.24.39h.61ZM16.31 13.66c-.12 0-.22-.1-.22-.22s.1-.22.22-.22.22.1.22.22-.1.22-.22.22m-1.05-.32c-.13 0-.24-.11-.24-.24s.11-.24.24-.24.24.11.24.24-.11.24-.24.24m-.36-1.06-.06-.04c-.11-.08-.2-.08-.3 0-.05.04-.09.09-.13.14l-.06.07.04.03c.11.09.13.19.1.25-.01.02-.03.04-.06.05a.32.32 0 0 1-.22-.05l-.04-.03-.03.04s-.01.02-.02.03c0 .01-.02.03-.03.05-.05.09-.07.15-.07.2v.04c.02.06.07.09.11.12l.03.02c.05.03.12.08.18.11-.1.06-.2.06-.3.01-.15-.07-.25-.25-.25-.34 0-.13.06-.3.17-.47l.02-.03-.02-.03c-.03-.05-.06-.1-.08-.15.06 0 .11.02.17.03h.03l.02-.01c.07-.07.3-.31.52-.31.1 0 .2.05.28.14.06.06.09.14.1.21l-.1-.07m2.04.84c-.56-.14-1.22-.38-1.84-.66a.47.47 0 0 0-.13-.38.47.47 0 0 0-.35-.17c-.06 0-.11.01-.17.03a3.19 3.19 0 0 1-.26-.26 3.195 3.195 0 0 1-.71-1.58c-.03.18-.23.42-.58.42 0-.04 0-.13-.03-.14-.09.1-.23.21-.55.1.05.25.12.49.21.72.19.5.46.96.8 1.35.11.13.23.25.36.36v.07c0 .13.13.34.31.43.15.07.31.05.45-.05.27.14.62.28.99.38.42.12.82.18 1.14.18.27 0 .63-.13.99-.35.14-.09.27-.19.37-.28.01-.01.03-.02.04-.04-.28.04-.69-.04-1.03-.12M16.79 15.37c-.04-.08-.1-.12-.15-.12-.23 0-.14.6-.41.6-.12 0-.18-.08-.18-.16s.06-.11.06-.18-.05-.09-.11-.09-.11.02-.11.09.06.09.06.18-.06.16-.18.16c-.27 0-.18-.6-.41-.6-.05 0-.11.04-.15.12a.495.495 0 0 1-.07-.24c0-.11.08-.26.26-.26.3 0 .23.41.38.41.06 0 .11-.04.11-.1 0-.12-.21-.23-.21-.4s.15-.31.32-.45c.17.14.32.28.32.45s-.21.28-.21.4c0 .06.05.1.11.1.15 0 .07-.41.38-.41.18 0 .26.15.26.26 0 .06-.03.15-.07.24m-.8.84c-.08 0-.15-.07-.15-.15s.07-.15.15-.15.15.07.15.15-.07.15-.15.15m.6-1.46s-.08 0-.11.02v-.67c-.29 0-.63-.06-.98-.15v.82s-.08-.02-.12-.02c-.23 0-.38.2-.38.38 0 .17.1.33.19.43.04-.1.08-.19.14-.19.12 0 .06.58.4.6-.01.03-.02.06-.02.09 0 .15.12.27.27.27s.27-.12.27-.27c0-.03 0-.06-.02-.09.34-.02.28-.6.4-.6.06 0 .09.08.15.19.09-.1.19-.26.19-.43 0-.18-.14-.38-.38-.38" class="cls-2"/>
    <path d="M24.44 15.56s-.05-.05-.09-.04c-.78.23-1.75-.42-2.69-1.05-.79-.53-1.54-1.02-2.17-1.02-.24 0-.45.05-.63.15-.22.12-.39.32-.5.58-.11.26-.22.44-.31.58-.11.17-.19.3-.19.45 0 .13.05.24.16.35.09.09.22.18.41.28l.12.06c.16.08.25.13.27.21-.31.14-.71.25-1.16.33-.51.09-1.08.14-1.67.14s-1.16-.05-1.67-.14c-.45-.08-.86-.19-1.17-.33.01-.13.11-.18.28-.26l.12-.06c.15-.08.3-.16.4-.25.11-.1.16-.2.16-.33 0-.15-.08-.28-.19-.45-.09-.14-.2-.32-.31-.58-.11-.26-.28-.45-.5-.58-.18-.1-.39-.15-.63-.15-.64 0-1.39.5-2.18 1.02-.94.63-1.91 1.27-2.69 1.04-.04-.01-.07 0-.09.04-.01.04 0 .07.04.09.24.11.45.27.65.43.28.22.55.43.84.43.28 0 .58-.09.94-.28.31-.16.64-.39.96-.6.62-.42 1.26-.86 1.86-.91-.06.07-.13.12-.18.17-.18.16-.33.3-.33.58 0 .22.08.38.18.6.03.06.07.14.1.22.07.15.1.27.14.44.02.07.04.15.06.25.04.14.11.41.55.64.52.26 1.4.4 2.64.4s2.12-.13 2.64-.4c.44-.23.52-.49.55-.64.03-.1.04-.17.06-.25.04-.17.07-.29.14-.44.05-.11.1-.2.14-.28.09-.17.17-.31.17-.51 0-.28-.16-.43-.35-.6-.06-.05-.12-.11-.19-.18.61.05 1.24.48 1.86.91.32.21.64.44.96.6.36.19.66.28.94.28.29 0 .56-.21.84-.43.2-.16.41-.32.65-.43.03-.01.05-.05.04-.09M16.09 9.49V6.56c.31.01.6.09.88.23.3.15.58.37.81.64.23.28.42.6.55.95.13.35.19.73.2 1.12h-2.44Zm-.1-4.16c-.83 0-1.41.25-1.74.47-.19-.11-.28-.23-.28-.36 0-.47 1.34-.51 2.01-.51.68 0 2.02.04 2.02.51 0 .13-.08.24-.28.36-.33-.22-.91-.47-1.74-.47m-.04 4.16h-2.5c0-.39.07-.76.2-1.12.13-.36.31-.68.55-.95.23-.27.51-.49.81-.64.3-.15.62-.22.94-.23v2.94Zm3.79-.19a.967.967 0 0 1-.3-.35c-.09-.19-.48-.96-.54-1.06a.455.455 0 0 1-.08-.23c0-.08.04-.14.08-.2.03-.04.11-.12.15-.17.02-.04.05-.07.07-.09-.14-.24-.29-.43-.47-.64-.23-.26-.48-.48-.76-.66.15-.1.3-.24.3-.47 0-.14-.06-.24-.16-.33.16-.5.44-1.1.68-1.37l-.5-.21c.13.2.14.43.11.57a.673.673 0 0 1-.28-.38c-.03.15-.11.4-.19.55.14-.07.26-.1.41-.04-.08.11-.3.29-.63.21-.18-.04-.36-.14-.35-.28 0-.08.07-.18.18-.17.11.01.12.18.08.25.14-.08.29-.5.07-.57-.18-.05-.34.19-.4.38-.03-.22-.13-.44-.3-.43-.23.02-.16.44-.08.55.01-.15.1-.23.16-.22.06 0 .14.05.13.18-.01.14-.21.22-.43.22s-.58-.07-.62-.48c.14.02.35.13.45.27a2.58 2.58 0 0 1 0-.68c-.11.16-.31.25-.44.27.04-.18.19-.36.37-.47h-.91c.18.11.33.29.37.47a.685.685 0 0 1-.43-.27c.03.26.03.43 0 .68.09-.14.3-.24.44-.27-.04.41-.41.47-.62.47-.22 0-.42-.08-.43-.22-.01-.14.07-.18.13-.18.07 0 .15.07.16.22.08-.11.16-.54-.08-.55-.18-.01-.27.2-.3.43-.06-.19-.22-.43-.4-.38-.22.06-.08.48.07.57-.03-.07-.03-.24.08-.25.11-.01.17.09.18.17 0 .14-.17.23-.35.28a.587.587 0 0 1-.63-.21c.15-.06.27-.03.41.04-.08-.15-.16-.39-.19-.55-.04.17-.15.29-.29.38a.789.789 0 0 1 .11-.57l-.5.21c.24.27.52.87.68 1.37-.1.09-.15.19-.15.33 0 .23.15.37.3.47-.28.18-.53.4-.76.66-.34.39-.61.84-.8 1.34.07.07.37.4.44.49.13.16.2.32.2.44 0 .23.06.32.18.47.04.05.09.23.1.34h2.5v2.72c-.1 0-.2.03-.29.14.29.12.56.22.84.31.03-.18.06-.29.15-.4 0 0-.36-.04-.56-.05V9.64h2.44c-.01.37-.07.73-.2 1.08-.13.36-.31.68-.55.95-.23.27-.51.49-.81.64-.05.02-.05.06-.1.08-.04.05-.09.13-.12.22-.03.08-.04.14-.06.25.11.04.18.05.29.08.86.21 1.07.15 1.12.11.19-.15.37-.32.54-.51.34-.39.61-.84.8-1.35.19-.52.29-1.08.29-1.65V9.3" class="cls-2"/>
    <path d="M17.46 7.75s-.03.05-.02.07c0 .02.03.05.07.05-.03.02-.05.06-.06.1.05 0 .09 0 .11-.03 0 .04 0 .07.03.08.02.01.04.01.07 0 .18.3.31.64.37.99-.02-.02-.05-.03-.09-.03 0 .05.02.09.05.11h-.61s-.01-.07-.04-.08c-.02 0-.05 0-.08.03 0-.03-.02-.07-.05-.11a.16.16 0 0 0-.05.11c-.03-.03-.06-.04-.08-.03-.02 0-.04.04-.04.08h-.52s.04-.06.04-.1c-.04 0-.08.02-.1.04v-.84s.08-.01.08-.04c0-.02 0-.05-.03-.08.04 0 .07-.02.11-.05a.16.16 0 0 0-.11-.05c.03-.03.04-.06.03-.08 0-.03-.04-.05-.08-.04v-.71s.05.03.09.04c0-.04 0-.08-.02-.1.16.05.32.13.47.23.18.12.34.27.48.44m.69 1.26s.03.1-.03.09c-.05-.44-.22-.87-.47-1.24.05-.02.09-.06.1-.13-.08 0-.13.03-.16.07a.304.304 0 0 1-.05-.07c-.15-.2-.33-.36-.53-.49-.19-.13-.38-.21-.59-.27 0-.05.07-.05.09-.01 0-.08-.06-.12-.1-.1-.02 0-.04.03-.04.06-.02-.03-.06-.05-.11-.06 0 .05.01.09.04.12-.03 0-.05.01-.06.03-.02.04 0 .11.08.11a.05.05 0 0 1 .03-.09v.95s-.11 0-.16.04c.05.05.11.06.16.04V9.1c-.05 0-.07-.06-.02-.09-.08 0-.11.07-.09.11.01.02.03.04.08.04-.02.03-.04.06-.04.11.05 0 .08-.02.11-.04 0 .04.02.07.04.08.04.02.11-.01.11-.09-.03.04-.09.03-.09-.02h.72s0 .11.04.16c.05-.05.06-.11.04-.16h.8s-.06.06-.09.02c0 .08.07.11.11.09.02-.01.04-.04.04-.08.03.02.06.04.11.04 0-.05-.02-.08-.04-.11.04 0 .07-.02.08-.04.02-.04-.02-.11-.1-.1" class="cls-2"/>
    <path d="M17.72 8.75s.06-.04.07-.06c-.04.01-.06 0-.07 0 .02-.01.05 0 .02-.04-.03-.04-.05-.05-.08-.01-.03.03-.22 0-.22-.15.01.03.04.04.07.06 0 0 .02 0 .02.01h.09s.07-.04.08-.08c0-.08-.07-.12-.15-.19-.03-.03-.06-.05-.08-.07-.03-.06 0-.11-.08-.21 0-.03 0-.05-.02-.09-.04.07-.06.2.05.31.08.09.25.17.25.25 0 .02-.02.03-.04.04h-.04c-.01 0-.02 0-.04-.02-.02-.01-.04-.02-.06-.05a1.59 1.59 0 0 1-.18-.22c-.08-.1-.04-.2-.03-.29.06-.08-.03-.24-.09-.28 0 0 .01-.04 0-.08h-.05c-.01-.03-.02-.04-.04-.04-.03 0-.03-.02-.04-.04-.02.02-.03.04-.05.04h-.05c-.02.02-.03.02-.06.02s-.03.02-.03.04c0 .01 0 .04.02.05l.03.03.02-.03s.06-.02.06.01c0 .02 0 .03-.02.03h-.07c-.02 0-.02.02-.02.04s.02.03.06.02c.04 0 .11-.02.11.02 0 .09-.1.08-.12.19-.03-.02-.05-.03-.06-.06a.276.276 0 0 0-.07-.09c-.02-.02-.05-.04-.07-.06-.03-.02-.04-.04-.04-.07 0-.03.01-.06.01-.09v-.03c0-.02-.03-.03-.05-.03 0 0 .02.01.02.03l-.01.02v.04c0-.02-.02-.05-.04-.06h-.01c0-.02-.03-.04-.05-.01h.02v.02c0 .02.02.03.04.03-.04-.02-.06 0-.06.02v.02c-.01 0-.02.03 0 .05v-.02h.04c-.02.03-.02.05 0 .06-.02.03-.06.02-.06-.02-.03.05.02.09.07.07v.06s0-.01.01-.01c0 .01 0 .03.02.03v-.02c0 .01.02.03.02.04.02.04.07.14.17.19-.05.03-.09.08-.12.12-.03.03-.07.06-.1.04-.01 0-.01-.02-.03-.03-.01 0-.02-.01-.03 0h-.02c-.02 0-.05 0-.05.02h.04v.02c0 .01 0 .03.06.02 0 0-.01.01-.03 0-.02 0-.04-.03-.05 0l-.01.01c-.02 0-.04.05-.02.07 0 0 0-.02.02-.03 0 0 0 .01.01.01.02.02.03.04.07-.02 0 .03-.03.06 0 .07h.02c0 .03.05.04.06.03-.01 0-.03-.01-.03-.04h.02c.02-.02 0-.04 0-.06 0 .01.02.03.05.02.01 0 .02-.02.02-.03.04-.01.07-.03.09-.02 0-.02.02-.04.06-.05.04-.01.06 0 .07.01 0-.02.02-.04.04-.07 0 .15.2.15.25.24a.28.28 0 0 0-.17-.03c-.05 0-.14.06-.15.11 0 .05.04.13.09.16-.06.01-.08 0-.13 0s-.05-.08-.11-.06c0 0-.01 0-.01.01s-.05.03-.05.05c0 0 .02-.02.03-.02v.01s0 .02.02.02h.02c0 .02-.07-.01-.06.05 0 0 0 .01.01.02 0 .02.01.04.04.03 0 0-.02-.01-.01-.02h.01v.03c0 .02.03.04.06.02 0 0-.03 0-.03-.02h.01v-.02h.02c0 .01.02.02.04.02.01 0 .02-.01.02-.02 0 0 .02 0 .03.02 0-.02 0-.04.06 0l.03-.03s.05.02.06 0c.03-.02.01-.03.01-.05-.02-.05-.03-.04-.04-.09-.02-.08.09-.12.15-.11.01.05.08.17.19.21.07.02.1-.05.12-.04l.01.02v.08c0 .02-.05 0-.07 0-.01 0-.03 0-.03.01-.02 0-.05.02-.05.05 0 0 .02-.02.04-.02v.01c0 .03.04.04.06.02 0 0 .01 0 0 0-.02.01-.05.04-.02.05h.02c0 .02.01.04.03.04v-.04h.01c.02 0 .01-.04.03-.05 0 .02-.01.05 0 .05h.02c0 .02.03.03.05.02 0 0-.02 0-.02-.02l.01-.02c.01-.05-.03-.05-.03-.07 0-.02.05 0 .05-.05.02-.01.04-.03.05-.04-.03 0-.05 0-.06-.01ZM15.45 10.11h-.03s-.09.01-.09.06c0 .05.03.08.08.09h.02v.04l-.05.34-.37-.53c.17-.07.32-.15.39-.15.06 0 .07.03.06.15m-.14.93-.59-.84c.06-.01.13-.03.19-.06l.44.63c-.01.09-.03.18-.04.27m-.06.38-.83-1.2H14.64l.67.96c-.01.09-.03.18-.04.25m-.94-1.19.91 1.31c-.49-.19-.97-.63-.91-1.31m1.36-.1h-.04v-.04c0-.15-.08-.26-.24-.26-.14 0-.41.18-.79.18-.16 0-.35-.08-.47-.15l-.05.11v-.01c0-.05-.04-.09-.09-.09s-.09.04-.09.09.04.09.09.09c.03 0 .06-.01.07-.04l-.05.11s.03.01.05.02c-.06.58.37 1.31 1.12 1.53.11-.03.23-.01.23.11 0 .07-.04.11-.1.11-.05 0-.07-.03-.07-.06 0-.05.09-.02.1-.05.01-.05-.02-.07-.07-.07s-.13.03-.13.12c0 .1.08.16.17.16.08 0 .26-.05.23-.25.04 0 .09 0 .1-.04v-.12h-.03l.03-1.32h.03s.09-.02.09-.07-.04-.08-.08-.08M15 7.34s0-.02.01-.02.02 0 .02-.01 0-.02-.02-.02c.01 0 .02 0 .01-.01H15l.01-.01h.01l.05.02v.03s0-.01-.01-.02v.02h-.03v.04c0 .01-.02.03-.03.02-.02 0-.01-.03 0-.04m.05-.12s-.02.02-.04.01c-.01-.01 0-.02-.01-.04.01 0 .04.03.05.03m.04.02s.04.02.06.02c-.03 0-.02.02-.04.02s-.02-.02-.02-.04M15.5 7.47c.18 0 .27-.06.27-.11 0-.2-.49-.08-.49-.2 0-.02.01-.04.04-.05.25-.02.25-.19.43-.23-.21-.03-.24.14-.33.14.05-.02.07-.08.06-.1-.04.06-.14.06-.19.13 0 .01-.01.02 0 .03-.03.02-.05.04-.05.07 0 .19.5.06.5.19 0 .05-.09.08-.22.08-.1 0-.18-.07-.37-.02 0-.03.06-.09.04-.12.02 0 .03-.02.03-.04-.01-.01-.02-.01-.04-.02v-.03s0-.02-.01-.03c0 0-.02-.02-.04-.03-.02-.01-.04-.01-.04-.01h-.03c-.01 0-.02 0-.02.01 0 0-.02-.01-.03-.01 0 .02-.01.03 0 .05-.02 0-.04.05-.05.04 0 .01.01.02.02.02-.01.03-.02.06-.04.06 0 0 0 .01.01.01-.02.04-.02.09-.03.11s-.02-.02-.04-.03c-.03-.02-.03-.03-.02-.06 0-.02.02-.05.02-.07v-.02c0-.02-.02-.03-.04-.03 0 0 .01.01.01.03l-.01.01s-.01.02 0 .02v.01c0-.02 0-.04-.03-.04h-.01c0-.02-.02-.03-.05-.01h.02v.02c0 .02.01.03.03.03-.03-.01-.05 0-.06.01v.01c-.01 0-.02.02 0 .04 0 0 0-.02.01-.02h.02c-.03.02-.03.04 0 .05 0 .04-.07.03-.06 0-.04.05.01.08.06.06 0 0 0 .01.01.02h.01c0 .01 0 .02.02.03v-.02s.02.03.05.06c-.04.02-.11.03-.11.03h-.09c-.03.01-.1.04-.12.01 0 0 0-.02-.01-.03l-.02-.02h-.02c-.01-.01-.04-.01-.05 0 0 0 .02 0 .03.02v.01s0 .02.04.04h-.02c-.02-.01-.02-.03-.04-.02h-.01c-.02 0-.05.02-.04.04 0 0 0-.02.02-.02v.01c0 .02.01.04.06 0-.01.02-.04.04-.02.05h.01c0 .03.02.04.04.04 0 0-.02-.02-.01-.04h.01c.02 0 .01-.04.02-.04 0 .01 0 .04.03.03.02 0 .04-.02.03-.04 0 0 .02.02.01.03 0 0 .01 0 .02-.02v.05s.04-.02.04-.04v.01h.05v.03s0-.01.01-.01c0 0 0 .03.02.04 0-.07.04-.04.08-.07 0 0 0 .02-.02.02.02 0 .05-.02.05-.04 0 0 .01-.01.03-.02.01 0 .04 0 .05-.02v.03c.04 0 .09-.05.11-.05.09-.02-.06-.09.13-.08.01 0 .04 0 .06-.02-.01.03-.02.09.01.09.01 0 .04.01.05.02-.02 0-.03 0-.04.01-.05.03-.05-.07-.09-.05h-.01c-.02 0-.04.02-.04.04 0 0 .02-.02.03-.02 0 0 0 .02.02.02h.02c0 .02-.06-.01-.05.04v.02c0 .01.01.03.04.02 0 0-.01 0-.01-.02h.01v.03c0 .02.02.04.05.02 0 0-.02 0-.03-.01h.01v-.02h.01c0 .01.02.02.04.02.03-.01 0-.04.03-.04H15.37c0-.01 0-.06-.02-.07-.02 0 0-.03-.01-.05.03.01.06.02.09.02.07 0 0-.01.03-.03.03-.02.07-.01.08 0 0 0 .02 0 .01.02v.06c0 .01-.04 0-.06 0h-.02c-.02 0-.04.02-.04.04 0 0 .02-.01.03-.02 0 .02.03.03.04.02-.01.01-.04.03-.02.04h.01c0 .02.01.03.02.03v-.03h.01c.02 0 0-.03.03-.04v.04h.01c0 .01.02.02.04.01 0 0-.02 0-.02-.01 0 0 .01-.01.01-.02.01-.04-.02-.04-.02-.05 0-.02.04 0 .04-.04 0 0 0-.02-.02-.02s.02 0 .02-.01c-.03 0-.02-.02-.02-.04 0 0 .02-.02.01-.04 0 .01-.04.03-.04 0 0 0 0-.02-.03-.01-.05 0-.07-.02-.15-.03M14.56 8.11s.01-.02.02-.02.02 0 .02-.01 0-.02-.02-.03c.01 0 .02 0 .01-.02h-.02s0-.01.01-.01h.02l.05.03s.01 0 .01.01v.02s0-.02-.01-.02v.02c-.01 0-.03-.01-.03 0v.06c0 .01-.02.03-.04.02-.02-.01-.02-.03-.01-.04m.06-.14s-.03.03-.04.01c-.01-.01 0-.02-.02-.05.02.01.05.03.06.03m.04.02s.05.02.07.03c-.03 0-.02.02-.04.02s-.03-.03-.02-.05m1.08.15c0-.05-.06-.09-.23-.09s-.57.07-.57-.03c0-.05.08-.04.17-.04 0 0 .02.02.04.02.22.07.49-.05.63-.01-.16-.12-.29 0-.47-.03.1 0 .13-.03.14-.06-.08.05-.22-.03-.32.03 0 0-.01 0-.01.01-.12 0-.22 0-.22.08 0 .17.47.07.61.07s.18.01.18.04c0 .04-.15.05-.23.05-.13 0-.51-.07-.74-.02.02-.04.06-.09.04-.11.02 0 .04-.03.04-.04a.076.076 0 0 0-.04-.02c0-.01 0-.02-.01-.03 0 0 0-.03-.01-.03 0 0-.03-.02-.05-.03-.03-.01-.04-.01-.05-.01h-.03c-.01 0-.03 0-.03.01-.01-.01-.02-.01-.04-.02 0 .02-.01.03 0 .06-.02 0-.04.06-.06.05 0 .01.01.02.02.02-.02.03-.02.07-.04.07.01.02.02.02.03.03v.07h-.04v-.01h-.01.02-.02s-.04-.05-.08-.07c-.03-.02-.03-.04-.03-.07 0-.03.02-.06.02-.09v-.03c0-.02-.03-.03-.04-.03 0 0 .02.01.02.03l-.02.02v.04c0-.02-.02-.05-.03-.05h-.01c0-.02-.02-.04-.05-.01h.02v.02c0 .02.01.03.04.03v.01c0 .01 0 0 0 0-.04-.02-.06 0-.06.02v.02c-.02.01-.02.03 0 .05v-.03.01h.03c-.03.03-.03.05 0 .06 0 .05-.07.04-.06 0-.04.06.02.1.07.07 0 0 0 .02.02.02 0 0 0-.01.01-.01 0 .01 0 .03.02.03v-.02s.03.04.07.06c.03.01.06.05.08.03 0 .03.03.07.02.07h-.12c-.03.02-.11.05-.14.01 0-.01 0-.02-.02-.04 0-.01-.02-.02-.03-.02h-.02c-.01-.01-.04-.02-.05 0 0 0 .02 0 .03.02v.02c0 .01 0 .03.05.05h-.03c-.02-.02-.02-.04-.05-.02h-.02c-.02 0-.06.02-.04.05 0 0 .01-.02.03-.02v.02c0 .03.02.05.07.01-.01.02-.05.04-.02.06h.01c0 .03.03.05.04.05 0 0-.02-.02-.02-.04h.01c.03-.01.01-.04.03-.05 0 .01 0 .04.04.04.03 0 .04-.03.04-.04 0 0 .02.02.01.03 0 0 .02-.01.02-.02 0 .02 0 .03-.01.05.01 0 .04-.02.05-.05 0 0 0 .01.01.02h.06v.03s0-.02.01-.02c0 0 0 .03.02.05 0-.08.05-.05.1-.08 0 0 0 .02-.02.03.05.01.14-.07.15-.1h.05c.15.01.05-.14.29-.09.02 0 .05-.02.06-.03-.02.03-.02.1.01.1.02 0 .05.01.06.03-.02 0-.04 0-.05.01-.05.04-.05-.08-.11-.06 0 0-.01 0-.02.01-.02 0-.05.03-.05.05 0 0 .02-.02.04-.02v.01s0 .02.02.02h.02c0 .02-.07-.01-.06.05 0 0 0 .01.01.02 0 .02.01.04.04.03 0 0-.02-.01-.01-.02H15v.03c0 .02.03.04.06.02 0 0-.03 0-.03-.01h.02v-.02h.02c0 .01.02.03.04.02.04-.01 0-.05.04-.05h.1c0-.02 0-.07-.03-.09-.02 0 0-.03-.02-.06.03.01.07.03.11.03.08 0 .1-.01.14-.03.04-.02.08-.01.1 0 .01 0 .02 0 .02.02v.06c0 .02-.04 0-.07 0-.01 0-.02 0-.02.01-.02 0-.04.02-.04.04 0 0 .02-.02.04-.02 0 .03.03.04.05.02-.02.01-.05.04-.02.05h.01c0 .02.01.03.03.04v-.04h.01c.02 0 0-.03.03-.05 0 .02-.01.05 0 .05h.01c0 .02.02.03.05.02 0 0-.02 0-.02-.02l.01-.02c.01-.04-.02-.04-.02-.06 0-.02.04 0 .04-.05 0 0 0-.02-.02-.03s.02 0 .03-.01c-.03 0-.02-.02-.03-.04.01 0 .02-.02.01-.05-.01.01-.05.03-.05 0 0 0 0-.02-.03-.02-.05 0-.09 0-.19-.01.11 0 .28-.03.28-.09M14.36 8.88s0-.02.02-.02c.01 0 .02 0 .02-.01s0-.02-.02-.03c.01 0 .02 0 .01-.02h-.02l.01-.01h.02l.05.03s.01 0 .01.01v.02s0-.02-.02-.02v.02h-.03v.06c0 .01-.02.03-.04.02-.02-.01-.02-.03-.01-.04m.06-.13s-.03.03-.04.01c-.01-.01 0-.02-.02-.04.02.01.05.03.06.03m.04.02s.05.02.07.03c-.03 0-.02.02-.04.02s-.03-.03-.02-.04m1.21.14c0-.05-.06-.08-.22-.08s-.68.06-.68-.03c0-.06.17-.03.3-.03 0 0 .02.02.04.02.21.06.44-.08.59-.03-.12-.11-.28.01-.44-.02.09 0 .19-.02.2-.04-.07.05-.28-.03-.37.02 0 0-.01 0-.01.01-.16 0-.35-.02-.35.07 0 .17.58.07.72.07s.17.01.17.04c0 .04-.14.05-.22.05-.13 0-.67-.07-.89 0 .01-.04.06-.09.04-.12.02 0 .03-.02.04-.04a.076.076 0 0 0-.04-.02v-.03s0-.02-.01-.03c0 0-.03-.02-.05-.03-.02-.01-.04-.01-.05-.01h-.03c-.01 0-.03 0-.03.01l-.04-.02c0 .02-.01.03 0 .06-.02 0-.04.05-.06.05 0 .01.01.02.02.02-.02.03-.02.06-.04.07 0 0 .01.02.02.02v.05h-.08c-.03 0-.05-.04-.09-.07-.03-.02-.03-.03-.03-.07 0-.03.01-.06.01-.08v-.03c0-.02-.03-.03-.04-.03 0 0 .02.01.02.03 0 0-.01.01-.01.02v.04c0-.02-.02-.05-.04-.05h-.01c0-.02-.02-.04-.05-.01h.02v.02c0 .02.02.03.04.03-.04-.02-.05 0-.05.02v.01c-.01.01-.02.03 0 .04v-.02h.05c-.03.02-.02.05.01.05 0 .05-.06.04-.06 0-.03.05.03.09.07.07 0 0 0 .02.02.02h.01c0 .01 0 .03.02.03v-.02s.04.06.11.1c.01 0 .03 0 .04-.02 0 0 0 .01.01.02 0 .03.02.07.02.07h-.14c-.03.02-.11.04-.13.01 0-.01 0-.02-.02-.04 0-.01-.02-.02-.02-.02h-.02c-.01-.01-.04-.02-.05 0 0 0 .02 0 .03.02v.01c0 .01 0 .03.05.04h-.03c-.02-.01-.02-.04-.04-.02h-.02c-.02 0-.05.03-.04.05 0 0 .01-.02.03-.02v.02c0 .02.02.04.07.01-.01.02-.05.04-.02.06h.01c0 .03.02.05.04.05 0 0-.02-.02-.02-.04h.01c.02 0 .01-.04.03-.05 0 .01 0 .04.04.04.03 0 .04-.03.04-.04 0 0 .02.02.01.03 0 0 .02-.01.02-.02 0 .01 0 .03-.01.05.01 0 .04-.02.05-.05v.02h.06v.03s0-.01.01-.01c0 0 0 .03.02.04 0-.07.09-.04.14-.07 0 0 0 .02-.02.02.02 0 .04 0 .06-.02l.07-.03v-.02h.03c.05 0 .04-.04.06-.03.27.04.12-.12.43-.09.02 0 .02 0 .04-.02-.02.03-.02.08.02.09.01 0 .04.01.06.02-.02 0-.04 0-.04.01-.05.03-.05-.07-.1-.05 0 0-.01 0-.01.01-.02 0-.05.02-.04.05 0 0 .02-.02.03-.02v.01s0 .02.02.02h.02c0 .02-.07-.01-.05.04v.02c0 .02.01.03.04.02 0 0-.02-.01-.01-.02H15v.03c0 .02.03.04.06.02 0 0-.03 0-.03-.01h.01v-.02h.02c0 .01.02.02.04.02.03-.01 0-.04.03-.05h.1c0-.01 0-.06-.03-.08-.02 0 0-.03-.02-.06.03.01.06.03.1.03.08 0 .1-.01.13-.03.04-.02.08-.01.09 0 0 0 .02 0 .02.02v.06c0 .02-.04 0-.06 0-.01 0-.02 0-.02.01-.02 0-.04.02-.04.04 0 0 .02-.02.03-.02 0 .03.03.04.05.02-.02.01-.04.04-.02.05h.01c0 .02.01.03.02.04v-.03h.01c.02 0 0-.03.03-.04v.05h.01c0 .01.02.03.05.01 0 0-.02 0-.02-.02l.01-.02c.01-.04-.02-.04-.02-.06 0-.02.04 0 .04-.05 0 0 0-.02-.02-.02s.02 0 .03-.01c-.03 0-.02-.02-.02-.04 0 0 .02-.02.01-.04 0 .01-.04.03-.05 0 0 0 0-.02-.03-.02-.05 0-.08 0-.18-.01.1 0 .27-.03.27-.09M16.69 9.91Zm.04.07s.01-.02.02-.02.02 0 .02-.01 0-.02-.02-.03c.01 0 .02 0 .01-.01h-.02V9.9h.02l.05.02s.01 0 0 .01v.02s0-.02-.01-.02v.02c-.01 0-.02-.01-.03 0v.06c0 .01-.02.03-.04.02-.02-.01-.02-.03-.01-.04m.06-.13s-.03.03-.04.01c-.01-.01 0-.02-.02-.04.02.01.05.03.06.03m.04.02s.05.02.06.03c-.03 0-.02.02-.04.02s-.03-.03-.02-.04m1.2.31c.01 0 .02-.02.02-.04-.01.02-.05.03-.05 0 0 0 0-.02-.03-.02-.05 0-.1 0-.19-.01 0 0-.01 0 0 0 .09 0 .27-.02.27-.08 0-.05-.06-.08-.22-.08s-.68.06-.68-.03c0-.06.17-.03.3-.03 0 0 .02.02.04.02.21.06.46-.1.59-.06-.17-.06-.27.04-.44 0 .09 0 .19-.02.2-.05-.07.05-.28-.03-.37.02 0 0-.01 0-.02.01-.16 0-.35-.02-.35.07 0 .17.58.07.72.07s.17.01.17.04c0 .04-.14.05-.22.05-.13 0-.67-.07-.89 0 .01-.04.07-.09.04-.12.02 0 .03-.02.03-.04a.076.076 0 0 0-.04-.02v-.03s0-.02-.01-.03c0 0-.02-.02-.05-.03-.02-.01-.04-.01-.05-.01h-.03c-.01 0-.03 0-.03.01-.01 0-.02-.02-.04-.02 0 .02-.01.03 0 .06-.02 0-.04.05-.06.04 0 .01.01.02.02.02-.02.03-.02.06-.04.07.01.02.02.02.03.02v.05h-.03s-.02-.01-.03-.01h-.03c-.03 0-.05-.05-.09-.07-.03-.02-.03-.03-.03-.07 0-.03.01-.05.01-.08v-.03c0-.02-.03-.03-.04-.03 0 0 .02.01.02.03 0 0-.01.01-.01.02v.04c0-.02-.02-.05-.03-.05h-.01c0-.02-.02-.04-.05-.01h.02v.02c0 .02.01.03.04.03-.04-.02-.05 0-.05.02v.01c-.01 0-.02.03 0 .04v-.02h.04c-.03.02-.02.05.01.06 0 .05-.06.04-.06 0-.03.05.03.09.07.07 0 0 0 .02.02.02h.01c0 .01 0 .03.02.03v-.02s.04.07.11.11c0 0 .03-.02.04-.03 0 .01.01.03.02.03h.01l.03.06h-.1c-.03.02-.11.04-.13.01 0-.01 0-.02-.02-.04 0-.01-.02-.02-.02-.02h-.02c-.01-.01-.04-.02-.05 0 0 0 .02 0 .03.02v.01c0 .01 0 .03.05.04h-.03c-.02-.01-.02-.04-.04-.02h-.02c-.02 0-.05.02-.04.05 0 0 .01-.02.03-.02v.02c0 .03.01.04.07.01-.01.02-.05.04-.02.06h.01c0 .03.03.05.04.05 0 0-.02-.02-.02-.04h.02c.02-.01.01-.04.03-.05 0 .01 0 .04.04.04.03 0 .04-.03.04-.04 0 0 .02.02.01.03 0 0 .02-.01.02-.02 0 .01 0 .03-.01.05.01 0 .04-.02.05-.05 0 0 0 .01.01.02h.06v.03s0-.02.01-.02c0 0 0 .03.02.05 0-.07.05-.04.09-.07 0 0 0 .02-.02.02.02.01.08-.03.08-.06 0 0 .03 0 .05-.01.05 0 .04-.04.06-.03.27.04.12-.12.44-.09.02 0 .02-.02.04-.03-.02.03-.02.09.02.1.01 0 .04.01.05.02-.02 0-.04 0-.05.01-.05.03-.05-.07-.1-.05 0 0-.01 0-.01.01-.02 0-.05.02-.04.05 0 0 .02-.02.03-.02s0 .03.02.03h.02c0 .02-.07-.01-.05.04 0 0 0 .01.01.02 0 .02.01.03.04.02 0 0-.02-.01-.01-.02h.01v.03c0 .02.03.04.06.02 0 0-.03 0-.03-.01h.01v-.02h.01c0 .01.02.02.04.02.04-.01 0-.04.03-.05h.1c0-.01 0-.06-.03-.08-.02 0 0-.03-.02-.06.03.01.06.03.1.03.08 0 .1-.01.14-.03.04-.02.08-.01.09 0 0 0 .02 0 .01.02-.01.04 0 .04 0 .06 0 .01-.04 0-.06 0-.01 0-.02 0-.02.01-.02 0-.04.02-.04.04 0 0 .02-.02.04-.02s.03.04.05.03c-.02.01-.05.04-.02.05h.01c0 .02 0 .03.02.04v-.03h.01s.01-.03.03-.04c0 .02-.01.04 0 .05h.01c0 .01.02.03.05.01 0 0-.02 0-.02-.02l.01-.02c.02-.04-.02-.04-.02-.06 0-.02.04 0 .04-.05 0 0 0-.02-.01-.02s.02 0 .03-.01c-.03 0-.02-.02-.02-.04M16.83 10.65s-.02-.03-.02-.04l.06.03c-.03 0-.02.02-.04.02m-.03.04s0-.01-.01-.02v.02c-.01 0-.02-.01-.03 0v.04c0 .01-.02.03-.04.02-.02 0-.01-.03-.01-.04 0-.01.01-.02.02-.02s.02 0 .02-.01 0-.02-.02-.03c.01 0 .02 0 .01-.01h-.02v-.01h.02l.05.02v.03m-.03-.1s-.03.03-.04.01c-.01-.01 0-.02-.01-.04.02.01.04.03.05.03m.51.01s.02.02.04.03c.2.06.44-.09.56-.06-.16-.06-.26.04-.42 0 .09 0 .19-.02.19-.04-.07.05-.27-.03-.35.02h-.01c-.11 0-.2 0-.2.07 0 .16.42.07.56.07s.12.01.12.04c0 .04-.15.05-.23.05-.11 0-.46-.06-.67-.02.02-.03.05-.08.03-.1.02 0 .03-.02.03-.04a.076.076 0 0 0-.04-.02v-.03s0-.02-.01-.03c0 0-.02-.02-.05-.03-.02-.01-.04-.01-.05-.01h-.03c-.01 0-.02 0-.03.01l-.04-.02c0 .02-.01.03 0 .06-.02 0-.04.05-.06.04 0 .01.01.02.02.02-.02.03-.02.06-.04.06l.02.02c0 .02 0 .04-.01.06h-.02c-.02 0-.04 0-.08-.02-.03-.02-.03-.03-.03-.07 0-.03.01-.05.01-.08v-.02c0-.02-.03-.03-.04-.03 0 0 .02.01.02.03l-.01.01v.04c0-.02-.02-.05-.03-.05h-.01c0-.02-.02-.04-.05-.01h.02v.02c0 .02.02.03.04.03-.04-.02-.05 0-.05.02v.02c-.01 0-.02.03 0 .04v-.02h.03c-.02.02-.02.05.01.05 0 .04-.06.04-.06 0-.03.05.03.09.07.06 0 0 0 .02.02.02 0 .01 0 .03.02.03v-.02s0-.02.06.01c0 0 .01.02.02.02h.04v.07h-.09c-.03.02-.1.04-.12.01 0-.01 0-.02-.01-.04 0-.01-.02-.02-.02-.02h-.02s-.04-.02-.05 0c0 0 .02 0 .03.02v.01c0 .01 0 .03.04.04h-.03c-.02-.01-.02-.03-.04-.02h-.02c-.02 0-.05.02-.04.05 0 0 0-.02.02-.02v.01c0 .02.02.04.06 0-.01.02-.04.04-.02.06h.01c0 .03.02.05.04.04 0 0-.02-.02-.02-.04h.02c.02 0 .01-.04.02-.05 0 .01 0 .04.04.04.03 0 .04-.02.04-.04 0 0 .02.02.01.03l.02-.02c0 .01 0 .03-.01.05.01 0 .04-.02.04-.05 0 0 0 .01.01.02h.05v.03s0-.02.01-.02c0 0 0 .03.02.04 0-.07.06-.05.11-.08 0 0 0 .02-.02.02.05.03.1-.04.11-.07l.01-.01v.02c.05 0 .04-.03.06-.03.14.01.03-.12.25-.08.01 0 .04-.01.05-.02-.02.03-.02.09.01.09.01 0 .04.01.05.02-.02 0-.04 0-.04.01-.05.03-.05-.07-.1-.05h-.01c-.02 0-.05.02-.04.04 0 0 .02-.02.03-.02v.01s0 .02.02.02h.02c0 .02-.06-.01-.05.04 0 0 0 .01.01.02 0 .02.01.03.04.02 0 0-.02-.01-.01-.02h.01v.03c0 .02.02.04.05.02 0 0-.03 0-.03-.02h.01v-.02h.01c0 .01.02.02.04.02.03-.01 0-.04.03-.05H17.28c0-.01 0-.06-.03-.08-.02 0 0-.03-.01-.05.03.01.06.02.1.02.07 0 .11 0 .14-.03.04-.02.08-.01.09 0 0 0 .02 0 0 .02-.02.04 0 .04-.02.06-.01.01-.04 0-.06 0h-.02c-.02 0-.05.02-.05.04 0 0 .02-.02.04-.02 0 .03.02.03.04.02-.02.01-.05.04-.03.04h.01c0 .02 0 .03.01.03 0 0 0-.01.01-.03h.01c.02 0 .02-.03.04-.04-.01.02-.02.04 0 .05h.01c0 .01.02.02.04.01 0 0-.02 0-.02-.01 0 0 .01-.02.02-.02.02-.04-.01-.04 0-.06 0-.02.04 0 .05-.05 0 0 0-.02-.01-.02s.02 0 .03-.01c-.03 0-.01-.02-.01-.04.01 0 .02-.02.02-.04-.01.01-.05.03-.04 0 0 0 0-.02-.03-.01-.05 0-.12 0-.21-.01.09 0 .28-.02.28-.08 0-.05 0-.08-.17-.08s-.51.06-.51-.03c0-.04.07-.04.15-.03M16.65 11.45s0-.02.01-.02c0 0 .02 0 .02-.01s0-.02-.02-.02c.01 0 .02 0 .01-.01h-.02v-.01h.02l.05.02v.03s0-.01-.01-.02v.02h-.03v.04c0 .01-.02.03-.03.02-.02 0-.02-.03 0-.04m.06-.12s-.02.02-.04.01c-.01-.01 0-.02-.01-.04.01.01.04.03.05.03m.03.02s.04.02.06.02c-.03 0-.02.02-.04.01-.02 0-.02-.02-.02-.04m.38-.02s.02.02.04.03c.2.06.44-.09.56-.06-.16-.06-.26.04-.42 0 .09 0 .19-.02.19-.04-.07.05-.27-.03-.35.02 0 0-.01 0-.02.02-.06.01-.12.05-.12.09 0 .13.52.03.52.07 0 .04-.1.07-.24.07-.1 0-.28-.07-.51-.01s.06-.1.04-.12c.02 0 .03-.02.03-.04-.01-.01-.02-.01-.04-.02v-.03s0-.02-.01-.03c0 0-.02-.02-.04-.03-.02-.01-.04-.01-.05-.01h-.03c-.01 0-.02 0-.03.01 0 0-.02-.01-.03-.02 0 .02-.01.03 0 .05-.02 0-.04.05-.05.04 0 .01.01.02.02.02-.01.03-.02.06-.04.06 0 0 .01.02.02.02-.01.04-.01.09 0 .13-.03-.03-.08-.11-.11-.13-.03-.02-.03-.03-.03-.06s.01-.05.01-.07v-.02c0-.02-.03-.03-.04-.03 0 0 .02.01.02.03l-.01.01v.04c0-.02-.02-.05-.03-.05h-.01c0-.02-.02-.03-.04-.01h.02v.02c0 .02.01.03.03.03-.04-.01-.05 0-.05.02v.01c-.01 0-.02.03 0 .04v-.02h.03c-.02.02-.02.04.01.05 0 .04-.06.03-.06 0-.03.05.02.09.06.06 0 0 0 .01.01.01 0 .01 0 .03.02.03v-.02s0 .07.06.1c.01.04.04.05.07.05.01.03.03.05.02.05h-.1c-.01 0-.04.02-.07.02-.02 0-.04 0-.05-.01 0-.01 0-.02-.01-.04 0-.01-.02-.02-.02-.02h-.02c-.01-.01-.04-.01-.05 0 0 0 .02 0 .03.02v.01s0 .02.04.04h-.02c-.02-.01-.02-.03-.04-.02h-.01c-.02 0-.05.02-.03.05 0 0 0-.02.02-.02v.01c0 .02.01.04.06 0-.01.02-.04.04-.02.05h.01c0 .03.02.04.04.04 0 0-.02-.02-.01-.04h.01c.02 0 .01-.04.02-.04 0 .01 0 .04.03.03.02 0 .04-.02.03-.04 0 0 .02.01.01.03l.02-.02c0 .01 0 .03-.01.04 0 0 .04-.02.04-.04v.01h.05v.03s0-.01.01-.01c0 0 0 .03.01.04 0-.07.04-.04.08-.07 0 0 0 .02-.02.02.02 0 .06-.02.06-.04 0 0 .03-.04.04-.11h.02c.06 0 .08-.04.14-.05-.01.02-.02.05-.02.08s.04.06.05.07c-.02 0-.04 0-.04.01-.04.03-.05-.07-.09-.05 0 0-.01 0-.01.01-.02 0-.05.02-.04.04 0 0 .02-.02.03-.02s0 .02.02.02h.02c0 .02-.06-.01-.05.04v.02c0 .01.01.03.04.02 0 0-.02-.01-.01-.02h.01v.02c0 .02.02.04.05.02 0 0-.02 0-.03-.01h.01v-.02h.01s.02.02.04.01c.03-.01 0-.04.03-.04h.02c.02 0 .04.01.05 0 0-.01 0-.06-.02-.07-.02 0 .02-.11-.05-.15.04 0 .15.02.17 0 .03 0 .07.03.08.04v.02c-.03.02-.03.03-.04.03s-.02-.02-.03-.03h-.02c-.02 0-.04 0-.05.02h.03v.02c-.02 0-.05 0-.04.02v.01c-.01 0-.02.03 0 .04 0 0 0-.01.02-.02v.01c.01.01.03-.02.05-.01-.02 0-.03.02-.03.03v.01c0 .01 0 .03.02.04v-.02h.02c.03-.02.01-.04.02-.05.01-.01.03.02.06 0v-.03s.01.02.03.01c-.02-.02 0-.03.01-.04 0 0 .02 0 .04-.02-.02 0-.05-.02-.03-.03.03-.01.04-.03.03-.05-.03-.04-.08-.04-.09-.08h.05c.18 0 .29-.05.28-.1 0-.12-.53 0-.53-.08 0-.03.03-.05.07-.06M8.6 2.16c0-.07-.06-.13-.13-.13s-.13.06-.13.13.06.13.13.13.13-.06.13-.13M8.56 1.82c0-.07-.06-.13-.13-.13s-.13.06-.13.13.06.13.13.13.13-.06.13-.13M8.63 1.67c.07 0 .13-.06.13-.13s-.06-.13-.13-.13-.13.06-.13.13.06.13.13.13M8.97 1.65c.07 0 .13-.06.13-.13s-.06-.13-.13-.13-.13.06-.13.13.06.13.13.13M10.42 1.41c.05.05.13.05.18 0 .05-.05.05-.13 0-.18a.127.127 0 0 0-.18 0c-.05.05-.05.13 0 .18M10.39 1.14c.05-.05.05-.13 0-.18a.127.127 0 0 0-.18 0c-.05.05-.05.13 0 .18.05.05.13.05.18 0M10.05 1.09s.05-.13 0-.18a.127.127 0 0 0-.18 0c-.05.05-.05.13 0 .18.05.05.13.05.18 0M9.76 1.3s.05-.13 0-.18a.127.127 0 0 0-.18 0c-.05.05-.05.13 0 .18.05.05.13.05.18 0M8.95 1.13l.1.22.13-.15h.02c.01.07.02.2.02.28 0 .09.07.16.16.16s.16-.07.16-.16c0-.06-.03-.12-.09-.14-.06-.05-.13-.11-.18-.17v-.02l.22.02L9.4.94l-.16.14V.84l-.23.09.15.18v.02l-.2.02ZM10.43 1.52c.05.08.07.11.07.18a.344.344 0 0 1-.13-.12l.03.3c.04-.05.06-.09.11-.11-.01.19-.09.27-.15.29-.08.02-.14-.04-.15-.1-.02-.09.06-.14.13-.06.01-.18-.13-.18-.19-.1.07-.17.04-.29-.11-.38-.1.16-.06.27.07.39-.12-.06-.22.04-.12.17.02-.11.12-.09.14 0 .02.08-.05.18-.18.22-.18.06-.24-.06-.29-.16.04-.03.13-.02.24.05l-.09-.29c-.04.1-.1.15-.17.18 0-.08.06-.25.06-.25l-.35.14s.16.08.22.14c-.07.03-.15.04-.25 0l.14.27c.03-.12.09-.19.14-.2.04.1.08.23-.09.32-.12.06-.24.04-.28-.03-.05-.08 0-.17.1-.1-.02-.17-.16-.17-.2-.04 0-.17-.04-.28-.22-.33-.04.17.01.28.19.35-.1-.01-.2.09-.07.21 0-.11.09-.12.14-.05.03.05.03.13-.04.18-.06.04-.17.03-.31-.1.04-.02.09-.01.15 0l-.19-.23c.01.08 0 .14-.01.18-.04-.05-.05-.09-.07-.18l-.14.13c.14.08.29.21.48.47.2-.12.56-.3.78-.39.22-.09.6-.22.83-.27-.05-.32-.03-.52.01-.68h-.19Z" class="cls-2"/>
    <path d="M10.83 3.21c-.18.14-.41.01-.52-.17.25-.1.53-.21.72-.33-.18.27-.06.39-.2.5m-.04 1.85c-.23.1-.41-.1-.45-.24-.04-.14-.08-.25-.03-.3.1-.1.13-.17.07-.3-.07-.14-.22-.07-.38-.03.07-.13.08-.23-.02-.22-.12.01-.12.21-.19.19-.07-.02-.03-.14-.03-.2 0-.08.05-.11.14-.15l.66-.25c.09-.03.15-.05.2.01.04.04.15.1.12.16s-.17-.08-.27 0c-.08.06-.01.13.14.17-.14.08-.3.14-.25.29.04.13.12.16.26.16.08 0 .13.11.19.24s.08.37-.16.47M9.53 3.72c-.18.02-.17-.15-.49-.23.22-.04.51-.16.75-.25.05.21-.04.46-.26.48m3.7 5.92c.05-.14-.2-.29-.23-.49s0-.38-.23-.64c-.22-.26-.98-1.07-1.21-1.33.06 0 .19-.04.34.1.08.08.25.23.4.38.2-.51.45-.9.81-1.3.05-.05.09-.1.14-.15-.13.04-.33.07-.45.15 0-.22 0-.41-.15-.55.06-.31 0-.69-.7-1.16.36.09.57.41.85.16-.25 0-.25-.54-1.14-.99.34 0 .61.54 1 .23-.37-.04-.49-.7-1.16-.91.23.03.47.14.67-.13-.23.05-.37-.16-.62-.18.09-.29.07-.47-.03-.68-.17.01-.35.07-.48.17-.02-.16-.19-.17-.33-.16 0 .07.04.17-.04.18-.12.02-.52.13-.82.25-.31.12-.66.34-.76.41-.06.04-.12-.06-.15-.1-.11.09-.21.21-.14.33-.17.02-.36.06-.52.19 0 .2.16.39.41.5-.41.41-.04.79-.4 1.15.51.02.42-.69.68-.79-.03.5-.31.59-.31 1.13 0 .29.17.6.02.79.43-.12.32-1.06.58-1.35.05.16.02.32-.04.48-.15.44.02 1.05-.22 1.24.44-.04.49-.74.85-1-.31.63-.63 1.97-1.09 2.65-.74 1-1.18 2.23-1.87 2.23-.3 0-.53-.18-.53-.57 0-1.14 1.96-1.93 1.96-3.14 0-.54-.44-.75-.72-.75-.19 0-.41.09-.6.25a.682.682 0 0 0-.23-.05c-.69 0-.51 1.24-1.11 1.23.24.13.65-.13.89-.48-.1.81-1.26.59-1.17 1.56.16-.76 2.01-.65 2.01-1.8 0-.13-.07-.24-.16-.32.14-.09.27-.12.39-.12.22 0 .42.17.42.49 0 1.02-1.95 1.88-1.95 3.13 0 .21.06.39.16.53-.14.06-.28.03-.4-.11-.01.32.45.53.74.36.06.02.13.04.2.04-.09.24-.39.31-.54.3.48.38 1.31-.12 1.26-.54.38-.31.62-.83.89-1.17-.02.08-.03.16-.04.24-.28.51-.54.96-.61 1.63-.06.56-.34 1.06-.74 1.06-.09 0-.23-.11-.3-.06-.12.11 0 .22 0 .32 0 .16-.31.32-.31.81 0 .22.13.49.08.63.13-.06.29-.27.36-.55.13.65-.28.62.02 1.2.04-.19.23-.27.34-.19.12.08.06.14-.02.22-.09.09-.17.52.23.49-.07-.05-.08-.16.12-.2.27-.05.35.07.64.07.18 0 .23-.23.37-.23s.14.11.09.19c.23-.06.27-.18.27-.31s-.1-.21-.02-.26c.08-.05.34 0 .24.22.14-.02.21-.12.21-.29s-.19-.26-.37-.23c-.03-.1-.18-.16-.33-.16-.32 0-.27.25-.49.25-.35 0-.69-.46-.69-1.22 0-.41.44-.52.76-.65.31-.14.86-.47 1.19-1.02.26-.43.27-.91.23-1.47.44.25.49.62.49.88 0 .34-.18.48-.32.55-.12.05-.16.03-.17.1-.02.09.04.14.09.17.16.08.13.23.17.4.04.17.19.43.44.62.03-.1.02-.27 0-.48.34.17.07.85.73.85-.12-.07-.09-.25-.02-.27.07-.03.16.04.29.22.13.18.09.16.4.16s.17-.11.34-.11.15.19.06.33c.28-.08.36-.3.27-.51.24-.13.37.06.41.19.24-.24 0-.53-.19-.55 0-.09-.08-.18-.18-.19-.1 0-.2-.01-.31 0-.11 0-.18.17-.31.17-.41 0-1.23-.75-1.23-1.07s.78-.52.78-1.02c0-.66-.65-.88-1.19-1.3.19-.22.76-.27 1.08-.11.04-.18.15-.14.2-.45.11.28 0 .52.11.63.09-.13.33-.11.31-.46.07.21-.09.54.07.69.03-.18.13-.21.2-.21s.12.05.12.15c0 .26-.32.14-.32.44 0 .12.16.17.16.25s-.13.2-.29.1c.05.11.16.21.29.21.14 0 .3-.12.36-.26.07.19.02.4-.12.42.14.07.48 0 .44-.43.19.03.29.16.18.39.16-.04.3-.11.3-.28 0-.13-.14-.17-.08-.33M25.84 12.78c0-.23.18-.41.41-.41s.41.18.41.41-.18.41-.41.41-.41-.18-.41-.41m-.14 0c0 .3.25.55.55.55s.55-.25.55-.55-.25-.55-.55-.55-.55.25-.55.55M23.9 13.78c-.16-.03-.27-.15-.25-.26.01-.06.05-.09.08-.11.06-.04.15-.06.24-.04.14.03.25.13.25.23v.03c-.02.12-.17.19-.32.16m-.25-.49c-.07.05-.12.12-.14.2-.02.1.01.19.08.28.07.08.17.13.28.15.11.02.22 0 .31-.04.1-.05.16-.13.18-.23.04-.19-.13-.38-.36-.42-.13-.02-.25 0-.35.07M20.59 5.89c0-.07.04-.15.12-.21.06-.05.14-.07.21-.06.03 0 .07.02.1.06.03.04.03.08.03.11 0 .07-.05.14-.11.19-.11.08-.25.09-.31 0a.161.161 0 0 1-.03-.09m.03-.32c-.17.13-.22.36-.11.5s.34.15.51.02c.09-.07.15-.17.17-.28 0-.08 0-.16-.06-.22a.287.287 0 0 0-.2-.11.437.437 0 0 0-.31.09M23.21 13.14Zm0-.14a.14.14 0 0 1-.12-.06.319.319 0 0 1-.08-.24c0-.09.03-.18.09-.23.03-.03.07-.06.13-.05.12 0 .21.13.21.29 0 .09-.03.18-.09.23-.03.03-.07.05-.13.05m-.21-.62c-.08.08-.13.2-.13.33 0 .14.04.26.12.34.06.06.14.1.22.1.08 0 .16-.03.23-.09.08-.08.13-.2.13-.33 0-.11-.03-.22-.09-.3a.34.34 0 0 0-.25-.14c-.08 0-.16.03-.23.09M20.42 8.47c-.14-.07-.22-.21-.17-.32a.17.17 0 0 1 .1-.09c.07-.03.16-.02.25.02.08.04.15.11.17.18.01.03.02.09 0 .14a.17.17 0 0 1-.1.09c-.07.03-.17.02-.25-.02m-.11-.54c-.08.03-.15.09-.19.16-.08.18.02.4.23.5.12.06.25.07.36.03.08-.03.15-.09.19-.16.04-.07.04-.16 0-.24a.505.505 0 0 0-.24-.26.437.437 0 0 0-.35-.03" class="cls-2"/>
    <path d="M24.3 10.44c-.09.13-.24.17-.34.1-.1-.07-.11-.23-.02-.36.09-.13.24-.17.34-.1.1.07.11.23.02.36m-.65 1.02c-.09.13-.24.17-.34.1-.1-.07-.11-.23-.02-.36.09-.13.24-.17.34-.1.1.07.11.23.02.36m-2.22-5.61c.08-.24.22-.71.22-.71l.25.1c-.07.03-.16.1-.24.17.06.03.16.03.23-.02l-.1.25s-.09-.13-.16-.15c-.05.2.08.28.17.32.15.08.25.09.29.02.05-.09-.05-.21-.18-.15-.01-.13.06-.2.15-.2.07 0 .12.06.14.15 0-.21.09-.38.28-.44.07.21.01.35-.14.5.08-.03.18-.03.21.03.05.07.03.17-.09.23-.03-.14-.18-.15-.23-.06-.04.09.02.17.16.25.16.09.29.04.38-.1-.05-.02-.15 0-.23.05l.17-.31s.04.12.11.18c.02-.07.06-.19 0-.3l.36.21c-.12.01-.21.1-.26.16.09.03.17.02.21 0l-.19.3c0-.1-.03-.19-.08-.23-.08.15-.06.29.1.38.14.08.24.1.3.02.05-.08-.03-.22-.17-.17 0-.13.07-.2.16-.19.07 0 .12.08.13.17.05-.21.14-.33.36-.37.04.2-.05.37-.24.47.08-.03.17-.01.2.05.04.08.02.17-.1.23-.02-.14-.17-.16-.22-.08-.04.07.02.15.17.24.09.06.21.13.36-.02-.05-.05-.16-.07-.21-.07l.17-.21c0 .08.05.17.1.2.02-.1.04-.21.03-.29l.21.17s-.34.36-.51.55l-2.28-1.32Zm2.69 3.06s.01-.09.05-.13a.18.18 0 0 1 .13-.05c.08 0 .16.04.22.11s.1.15.1.23c0 .03-.01.09-.05.12s-.09.05-.13.05c-.08 0-.16-.04-.22-.11a.366.366 0 0 1-.1-.23m.99 4.53c.02-.08.07-.15.15-.2.08-.05.17-.07.24-.06.04 0 .08.03.12.07s.03.1.02.13c-.02.08-.07.15-.15.2-.13.09-.29.08-.36-.02a.162.162 0 0 1-.02-.13m-4.69-6.83c0 .08-.04.15-.08.19-.02.02-.06.04-.1.04-.09 0-.16-.11-.16-.24v-.02c0-.08.03-.15.08-.19a.16.16 0 0 1 .11-.04c.05 0 .08.03.1.05.04.05.07.12.06.2m1.45-2.98c.08-.15 0-.37.27-.37.13 0 .25.13.41.18-.26.02-.49.08-.68.19m4.23 3.73c.18.49.53.67.81.54-.61-.07-.12-1.11-.9-1.11-.04 0-.09 0-.13.01-.13-.14-.28-.2-.51-.2-.33 0-.9.32-.9.98 0 1.42 1.65 1.55 1.65 2.8 0 .37-.28.59-.59.59-.28 0-.5-.31-.73-.8-.11-.23-.35-.55-.61-.88.08.05.16.08.24.09.09 0 .17-.03.23-.08.06-.06.09-.13.1-.22a.479.479 0 0 0-.45-.48c-.09 0-.17.03-.23.08-.06.06-.09.13-.1.22 0 .06 0 .11.03.16-.36-.46-.68-.92-.68-1.17 0-.22.15-.41.34-.65l.06.04.05-.06c.07-.07.2-.22.49-.53l.02-.02.07-.07-.18-.14c.05-.11.09-.22.12-.35.05.23.17.37.33.33-.11-.24.11-.55-.03-1.13.13.22.33.34.47.3-.37-.32.11-.78-.37-1.48.16.05.26.02.33-.06-.43-.06-.24-.61-1-.81.19-.03.3-.14.27-.24-.2.15-.38-.27-1.04-.26-.04-.25-.27-.51-.53-.63.05.19 0 .36-.05.51L20.54.5c-.06-.06-.1-.07-.11-.05-.02.02-.02.06.02.1l1.85 2.32c-.14.05-.28.11-.42.16-.09.03-.16.12-.16.24-.34.17-.64.38-.79.52-.11.1-.2.13-.1.36.04.09-.08.31.19.15.18-.11.57-.32.63-.19.03.07-.17.17-.3.22-.13.05-.28.16-.26.21.02.05.13 0 .13.05 0 .06.05.12.1.12s.12-.11.17-.08c.04.04-.02.29-.06.35.21-.03.34-.23.35-.38 0-.16.05-.19.08-.22.03-.02.07.17.03.28.11-.02.23-.17.21-.44.06-.04.11-.08.15-.08.07 0 .21.19.41.19.37 0 .57-.3.59-.43a.43.43 0 0 0-.05-.3c.13.11.17.27.17.39 0 .52-.92.76-1.29 1.12l-.04.04-.43-.17-.03.09s0 .02-.03.08c-.04.15-.14.45-.2.63l-.02.07.04.02c-.26.34-.46.72-.51 1.11-.1-.11-.2-.19-.31-.29.01-.04.02-.08.02-.12 0-.12-.03-.23-.1-.3a.261.261 0 0 0-.2-.1c-.07 0-.15.02-.21.08-.01.01-.03.02-.04.04-.02-.01-.03-.02-.05-.04-.14-.11-.32-.24-.42-.36-.04-.05-.09-.08-.19-.08h-.19c-.06 0-.1.05-.17.11-.03.03-.13.11-.24.19.05.05.11.11.16.17.03.03.05.06.08.1.03-.02.06-.04.07-.06.04-.04.1-.05.16-.05s.13.04.19.12c.04.06.39.51.67.83l-.09.03c-.12.05-.4.04-.52.03-.12-.01-.15-.04-.23.09-.03.05-.07.11-.11.16-.04.05-.07.11.01.26.13.21.44.78.55 1.03.1.26.23.3.43.38.2.08.54.28.58.32v-.2c-.05-.06-.24-.13-.31-.16s-.09-.06 0-.06.33.09.5.16c-.05-.19-.23-.4-.34-.52-.14-.04-.29-.04-.35 0 0 .04-.02.09-.08.09s-.09-.05-.08-.1c.02-.06.1-.08.09-.19-.02-.11-.15-.13-.24-.14-.12-.18-.26-.44-.33-.54-.06-.11-.03-.16.02-.2.11-.09.32.05.76.07.15 0 .34.02.54.03.06.51.26.99.97 1.17.35.09.7.34.82.67-1.41-.02-1.63.53-1.63 1.04 0 .59.5.56.5 1 0 .39-1.19.55-1.55.6-.3.04-.48.11-.62.26-.15.15-.29.29-.56.55 0 0 .11.03.23.02l.2-.26c.06-.09.1-.16.14-.15.04 0 .01.07-.03.17l-.16.28c.7.05.74-.21.74-.32s-.17-.18-.07-.24c.1-.07.19-.02.26.07.08.09.11.17.3.1 0 0 1.52-.63 1.71-.72.17-.08.12-.15.02-.24-.11-.09-.13-.25-.13-.4 0-.46.28-.6.77-.59 0 .08-.02.15-.02.22 0 .72 1.08 1.42 1.38 1.42.13 0 .31-.1.32.33 0 .32.07.54.01.91-.06.37-.16.42-.38.58-.22.15-.43.64-.52.74.1.06.2.07.29-.16.07-.2.15-.33.23-.38-.09.22-.15.53-.19.63.28.05.73-.2.73-.4s-.15-.18-.15-.31c0-.06.07-.12.15-.12.11 0 .2.09.2.13.12-.07.2-.19.2-.47 0-.11 0-.23-.01-.35 0 .02.01.03.02.05.05.08.14.13.25.14.1 0 .21-.02.3-.08a.5.5 0 0 0 .21-.29v-.07c0-.06-.02-.12-.05-.17a.277.277 0 0 0-.2-.13.485.485 0 0 0-.55.34c-.02-.39-.05-.76-.04-.91.02-.22.02-.32-.05-.35-.07-.03-.15.09-.26.09s-.43-.29-.43-.6.33-.71.32-1.13c0-.13.08-.2.13-.08.06.14.16.34.3.5-.09.53.5 1.05.98.67-.24.03-.4-.18-.51-.39.04 0 .08.01.13.01h.07c.17.21.71.19.85-.33-.09.11-.29.19-.43.17.2-.16.31-.41.31-.69 0-1.35-1.64-1.51-1.64-2.74 0-.46.4-.75.68-.75.11 0 .19.03.25.08-.11.11-.16.27-.15.47.04.97 1.63.92 1.65 1.39.18-.7-1.01-.49-1.05-1.44" class="cls-2"/>
</svg>
