<svg class="ons-u-di ons-u-mr-m" xmlns="http://www.w3.org/2000/svg" focusable="false" width="105" height="56" viewBox="0 0 105 56" aria-labelledby="beis-logo-alt">
    <title id="beis-logo-alt">Department for Business, Energy and Industrial Strategy logo</title>
    <path d="M0 0h.98v53.59H0V0Z" fill="#005092"/>
    <path d="M8.73 20.74c1.28 0 2.27.33 2.96.98s1.04 1.65 1.04 2.98c0 .7-.08 1.32-.23 1.86s-.4 1-.72 1.36-.74.65-1.25.85-1.1.3-1.79.3H5.88v-8.33h2.86Zm.09 7.39c.12 0 .27 0 .47-.03.18-.02.39-.06.59-.14.21-.07.42-.18.62-.32s.39-.33.55-.57.3-.54.41-.91c.1-.36.15-.79.15-1.31s-.05-.95-.14-1.33c-.09-.37-.25-.71-.48-1.01-.22-.27-.51-.49-.86-.63s-.78-.21-1.29-.21H6.98v6.46h1.84Zm9.17.56c-.45.35-1.02.51-1.7.51-.48 0-.9-.08-1.25-.23-.34-.15-.65-.37-.9-.65-.24-.27-.42-.61-.54-1s-.19-.81-.2-1.27c0-.46.07-.88.21-1.26.14-.38.34-.71.59-.99.25-.27.55-.5.9-.65s.72-.23 1.14-.23c.54 0 .98.11 1.33.34s.64.5.86.85c.21.35.37.71.45 1.12s.11.78.1 1.15h-4.51c0 .26.02.52.09.75s.18.45.34.63.36.33.59.44c.27.12.56.17.86.16.42 0 .76-.1 1.03-.3s.45-.49.53-.89h.98c-.13.67-.43 1.18-.88 1.53H18Zm-.23-3.87c-.09-.21-.21-.39-.36-.54a1.702 1.702 0 0 0-1.22-.49c-.24 0-.49.04-.69.13-.4.17-.72.5-.88.91-.08.2-.13.43-.15.66h3.46c-.02-.23-.07-.46-.15-.66h-.01Zm3.04-1.78v.81h.02c.16-.34.42-.58.77-.73.35-.15.73-.22 1.15-.22.47 0 .88.08 1.22.25s.63.41.87.69c.23.3.41.63.52 1.01s.17.78.17 1.21-.06.83-.17 1.21-.29.71-.51 1c-.23.29-.52.51-.87.67s-.74.24-1.21.24c-.15 0-.32-.02-.5-.05-.18-.03-.37-.08-.54-.15a2.16 2.16 0 0 1-.51-.29c-.16-.12-.3-.27-.41-.45h-.02v3.11h-.99v-8.33h1Zm3.56 2.15c-.07-.26-.18-.51-.34-.71-.15-.21-.35-.38-.58-.5-.23-.12-.52-.18-.83-.18s-.62.06-.86.19c-.23.13-.43.31-.57.52-.15.21-.25.46-.32.73-.06.27-.1.55-.1.82 0 .3.03.58.1.86s.18.52.34.73.35.38.59.51.53.19.88.19.63-.06.86-.19c.23-.13.42-.31.55-.53.14-.21.24-.47.31-.74s.09-.57.09-.87c0-.27-.04-.55-.11-.82Zm7.39 3.85c-.17.1-.41.15-.71.15-.25 0-.46-.07-.61-.21s-.22-.38-.22-.7c-.27.33-.59.56-.95.7s-.75.21-1.17.21c-.27 0-.53-.03-.77-.09s-.46-.16-.63-.3c-.18-.13-.32-.31-.43-.52-.1-.21-.15-.47-.15-.77 0-.35.06-.62.17-.83s.27-.4.46-.53.41-.23.65-.31.5-.13.75-.17c.27-.05.53-.09.77-.12s.46-.06.65-.11c.18-.05.34-.12.45-.22.11-.1.16-.23.16-.43 0-.21-.04-.4-.12-.53-.08-.13-.18-.23-.32-.31s-.27-.11-.43-.14c-.16-.02-.32-.03-.47-.03-.42 0-.77.08-1.05.23-.27.16-.43.46-.46.91h-.99c.02-.38.09-.69.23-.95s.33-.47.56-.62c.23-.16.5-.27.79-.35s.62-.1.96-.1c.27 0 .54.02.81.06.26.04.51.12.73.23.21.12.4.29.53.51.13.21.19.5.19.85v3.1c0 .23.01.41.04.51.03.11.12.16.27.16.08 0 .18-.02.31-.05v.77h-.03Zm-1.61-3.09c-.12.09-.29.16-.49.2-.2.04-.42.08-.63.1l-.67.09c-.22.03-.43.09-.61.17s-.33.18-.44.33-.17.34-.17.59c0 .16.03.3.1.41.06.11.15.2.25.27s.22.12.37.15c.14.03.29.05.45.05.33 0 .61-.04.83-.13.23-.09.43-.2.57-.34.15-.13.25-.29.33-.44s.1-.31.1-.45v-1.01h.01Zm3.23-2.92v1.27h.02c.24-.49.54-.86.89-1.09s.79-.35 1.33-.33v1.05c-.4 0-.73.05-1.02.16-.27.11-.51.26-.67.48-.17.21-.3.47-.38.76-.08.3-.11.64-.11 1.03v2.68h-.99v-6.03h.94-.01Zm5.7.01v.88h-1.2v3.75c0 .11 0 .21.03.27.02.07.06.12.11.16.05.04.13.06.22.07.1.01.22.02.38.02h.46v.88h-.75c-.25 0-.48-.02-.66-.05-.16-.03-.32-.09-.45-.19a.804.804 0 0 1-.25-.4c-.05-.17-.08-.4-.08-.67v-3.84h-1.03v-.88h1.03v-1.81h.99v1.81h1.21Zm1.7 0v.89h.02c.45-.68 1.1-1.03 1.94-1.03.38 0 .71.08 1.02.23s.52.42.64.79c.2-.33.47-.58.79-.75.33-.18.69-.26 1.09-.26.31 0 .58.03.82.1s.46.17.63.31c.17.14.32.32.41.54s.14.49.14.79v4.42h-.99v-3.95c0-.18-.02-.37-.05-.53s-.09-.31-.17-.43a.86.86 0 0 0-.36-.29c-.15-.07-.35-.1-.59-.1-.49 0-.88.14-1.15.42s-.42.65-.42 1.12v3.76h-.99v-3.95c0-.19-.02-.38-.05-.54s-.09-.31-.18-.43a.774.774 0 0 0-.35-.27c-.14-.06-.33-.1-.55-.1-.29 0-.54.06-.74.17s-.38.25-.5.42c-.13.16-.22.34-.27.51-.06.17-.09.32-.09.44v3.76h-.99v-6.03h.94-.01Zm13.01 5.64c-.45.35-1.02.51-1.7.51-.48 0-.9-.08-1.25-.23-.34-.15-.65-.37-.9-.65-.24-.27-.42-.61-.54-1s-.19-.81-.2-1.27c0-.46.07-.88.21-1.26.14-.38.34-.71.59-.99.25-.27.55-.5.9-.65s.72-.23 1.14-.23c.54 0 .98.11 1.33.34.36.22.64.5.86.85s.37.71.45 1.12c.08.41.11.78.1 1.15h-4.51c0 .26.02.52.09.75s.18.45.34.63.36.33.59.44c.27.12.56.17.86.16.42 0 .76-.1 1.03-.3s.45-.49.53-.89h.98c-.13.67-.43 1.18-.88 1.53h-.01Zm-.23-3.87c-.09-.21-.21-.39-.36-.54a1.702 1.702 0 0 0-1.22-.49c-.24 0-.49.04-.69.13-.4.17-.72.5-.88.91-.08.2-.13.43-.15.66h3.46c-.02-.23-.07-.46-.15-.66h-.01Zm2.96-1.78v.96h.02c.41-.73 1.07-1.1 1.95-1.1.4 0 .72.05.99.16s.48.26.64.46.27.43.35.69c.06.26.1.57.1.9v3.96h-.99v-4.08c0-.38-.11-.67-.33-.89-.21-.21-.52-.33-.9-.33-.31 0-.57.05-.78.14-.22.09-.41.22-.55.4-.15.17-.25.37-.34.6-.07.23-.11.48-.11.75v3.4h-.99v-6.03h.94-.01Zm7.8 0v.88h-1.2v3.75c0 .11 0 .21.03.27.02.07.06.12.11.16.05.04.13.06.22.07.1.01.22.02.38.02h.46v.88h-.75c-.25 0-.48-.02-.66-.05-.16-.03-.32-.09-.45-.19a.804.804 0 0 1-.25-.4c-.05-.17-.08-.4-.08-.67v-3.84h-1.03v-.88h1.03v-1.81h.99v1.81h1.21Zm3.49.88v-.88h1.02v-.9c0-.49.14-.87.43-1.11.29-.25.7-.38 1.24-.38.21 0 .43.03.63.09v.87a1.31 1.31 0 0 0-.27-.06c-.1-.01-.19-.02-.27-.02-.24 0-.43.05-.56.14-.13.09-.19.27-.19.54v.83H71v.88h-1.17v5.15h-.99v-5.15h-1.03Zm3.52.89c.12-.39.32-.72.56-1 .24-.29.56-.51.92-.67.37-.16.78-.24 1.26-.24s.91.08 1.26.24c.37.16.66.39.92.67.24.29.44.62.56 1 .12.39.18.79.18 1.24s-.06.86-.18 1.23-.32.71-.56 1c-.24.29-.55.51-.92.66-.36.16-.78.23-1.26.23s-.9-.08-1.26-.23c-.37-.16-.67-.38-.92-.66s-.44-.62-.56-1c-.12-.38-.18-.79-.18-1.23s.06-.86.18-1.24Zm1.01 2.22c.1.29.23.52.41.71.34.38.83.59 1.33.59.51 0 .99-.21 1.33-.59.17-.19.31-.43.41-.71s.14-.61.14-.98-.05-.69-.14-.98c-.1-.29-.23-.52-.41-.71a1.7 1.7 0 0 0-1.33-.6c-.26 0-.5.05-.73.15s-.43.24-.6.45c-.17.19-.31.44-.41.71-.1.29-.14.61-.14.98s.05.69.14.98Zm6.5-3.99v1.27h.02c.24-.49.54-.86.89-1.09.35-.23.79-.35 1.33-.33v1.05c-.4 0-.73.05-1.02.16-.27.11-.51.26-.67.48-.17.21-.3.47-.38.76s-.11.64-.11 1.03v2.68h-.99v-6.03h.94-.01ZM8.89 32.99h.58c.2 0 .41.02.61.03.2.02.39.05.57.09.17.04.33.1.45.17.27.16.5.39.69.67.19.29.29.64.29 1.06 0 .45-.1.82-.32 1.15s-.52.56-.92.71v.02c.51.11.91.35 1.18.7.27.36.41.79.41 1.3 0 .61-.23 1.21-.65 1.65-.21.22-.48.4-.79.54-.32.13-.68.2-1.09.2H5.88v-8.33H8.9v.02Zm.3 3.58c.63 0 1.08-.11 1.35-.34.27-.22.42-.55.42-1 0-.3-.05-.53-.14-.7a.94.94 0 0 0-.39-.4c-.16-.09-.36-.15-.57-.18s-.44-.04-.68-.04H6.96v2.65h2.23Zm.56 3.82c.49 0 .88-.13 1.15-.4s.42-.63.42-1.1c0-.27-.05-.5-.15-.67-.1-.18-.23-.32-.41-.43-.16-.1-.36-.18-.58-.22s-.45-.06-.67-.06H6.97v2.88h2.78Zm7.72.94v-.96h-.02c-.21.38-.48.65-.8.82-.33.17-.71.26-1.15.26-.4 0-.72-.05-.99-.15-.26-.1-.48-.25-.64-.45s-.27-.43-.35-.69c-.06-.26-.1-.57-.1-.9V35.3h.99v4.08c0 .38.11.67.33.89s.52.33.9.33c.31 0 .57-.05.78-.14.22-.09.41-.22.55-.4s.25-.37.34-.6c.07-.23.11-.48.11-.75v-3.4h.99v6.03h-.94.01Zm2.96-1.36c.09.15.21.27.37.36.15.09.33.15.51.19.19.04.39.06.59.06.15 0 .32-.01.49-.03s.33-.06.47-.13c.14-.06.26-.15.36-.27s.14-.27.14-.46c0-.25-.1-.45-.3-.58s-.44-.23-.73-.32c-.3-.08-.61-.15-.95-.22-.35-.06-.66-.16-.95-.27-.3-.12-.53-.29-.73-.51-.19-.21-.3-.52-.3-.91 0-.31.07-.56.2-.78.13-.21.32-.4.53-.53.21-.13.46-.23.72-.31s.53-.1.79-.1c.35 0 .66.03.95.09s.54.16.76.31.4.34.53.58c.13.24.21.55.23.92h-.99c-.02-.19-.06-.36-.15-.49a.896.896 0 0 0-.33-.31c-.13-.08-.27-.13-.44-.17-.16-.03-.32-.05-.49-.05-.15 0-.3.01-.45.03s-.29.06-.42.12c-.12.05-.22.13-.31.23-.08.1-.11.22-.11.38 0 .17.06.32.18.43.12.11.27.2.46.27s.4.13.63.18l.7.15c.24.05.49.12.73.19.23.08.45.18.63.31s.33.29.45.49c.11.19.17.44.17.72 0 .37-.07.67-.22.91s-.35.44-.59.58c-.24.15-.52.25-.82.31-.31.06-.61.09-.92.09-.34 0-.65-.03-.96-.1-.31-.07-.57-.18-.8-.35-.23-.16-.42-.37-.56-.63s-.21-.58-.23-.95h.99c0 .21.06.41.15.55v.02Zm4.87-5.76V33h.99v1.21h-.99Zm.99 1.09v6.03h-.99V35.3h.99Zm2.18 0v.96h.02c.41-.73 1.07-1.1 1.95-1.1.4 0 .72.05.99.16s.48.26.64.46c.16.19.27.43.35.69.06.26.1.57.1.9v3.96h-.99v-4.08c0-.38-.11-.67-.33-.89s-.52-.33-.9-.33c-.31 0-.57.05-.78.14-.22.09-.41.22-.55.4-.15.17-.25.37-.34.6-.07.23-.11.48-.11.75v3.4h-.99v-6.03h.94-.01Zm9.54 5.64c-.45.35-1.02.51-1.7.51-.48 0-.9-.08-1.25-.23-.34-.15-.65-.37-.9-.65-.24-.27-.42-.61-.54-1s-.19-.81-.2-1.27c0-.46.07-.88.21-1.26.14-.38.34-.71.59-.99s.55-.5.9-.65c.35-.15.72-.23 1.14-.23.54 0 .98.11 1.33.34.36.22.64.5.86.85s.37.71.45 1.12c.08.41.11.78.1 1.15h-4.51c0 .26.02.52.09.75.07.23.18.45.34.63s.36.33.59.44c.27.12.56.17.86.16.42 0 .76-.1 1.03-.3.26-.19.45-.49.53-.89h.98c-.13.67-.43 1.18-.88 1.53h-.01Zm-.23-3.87c-.09-.21-.21-.39-.36-.54a1.702 1.702 0 0 0-1.22-.49c-.24 0-.49.04-.69.13-.4.17-.72.5-.88.91-.08.2-.13.43-.15.66h3.46c-.02-.23-.07-.46-.15-.66h-.01Zm2.82 2.89c.09.15.21.27.37.36.15.09.33.15.51.19.19.04.39.06.59.06.15 0 .32-.01.49-.03s.33-.06.47-.13c.14-.06.26-.15.36-.27s.14-.27.14-.46c0-.25-.1-.45-.3-.58-.19-.13-.44-.23-.73-.32s-.61-.15-.95-.22c-.35-.06-.66-.16-.95-.27-.3-.12-.53-.29-.73-.51-.19-.21-.3-.52-.3-.91 0-.31.07-.56.2-.78.13-.21.32-.4.53-.53s.46-.23.72-.31.53-.1.79-.1c.35 0 .66.03.95.09s.54.16.76.31.4.34.53.58c.13.24.21.55.23.92h-.99c-.02-.19-.06-.36-.15-.49a.896.896 0 0 0-.33-.31c-.13-.08-.27-.13-.44-.17-.16-.03-.32-.05-.49-.05-.15 0-.3.01-.45.03-.15.02-.29.06-.42.12-.12.05-.22.13-.31.23-.08.1-.11.22-.11.38 0 .17.06.32.18.43.12.11.27.2.46.27s.4.13.63.18l.7.15c.24.05.49.12.73.19.23.08.45.18.63.31s.33.29.45.49c.11.19.17.44.17.72 0 .37-.07.67-.22.91s-.35.44-.59.58c-.24.15-.52.25-.82.31-.31.06-.61.09-.92.09-.34 0-.65-.03-.96-.1s-.57-.18-.8-.35-.42-.37-.56-.63-.21-.58-.23-.95h.99c0 .21.06.41.15.55v.02Zm5.64 0c.09.15.21.27.37.36.15.09.33.15.51.19.19.04.39.06.59.06.15 0 .32-.01.49-.03s.33-.06.47-.13c.14-.06.26-.15.36-.27s.14-.27.14-.46c0-.25-.1-.45-.3-.58-.19-.13-.44-.23-.73-.32s-.61-.15-.95-.22c-.35-.06-.66-.16-.95-.27-.3-.12-.53-.29-.73-.51-.19-.21-.3-.52-.3-.91 0-.31.07-.56.2-.78.13-.21.32-.4.53-.53s.46-.23.72-.31.53-.1.79-.1c.35 0 .66.03.95.09s.54.16.76.31.4.34.53.58c.13.24.21.55.23.92h-.99c-.02-.19-.06-.36-.15-.49a.896.896 0 0 0-.33-.31c-.13-.08-.27-.13-.44-.17-.16-.03-.32-.05-.49-.05-.15 0-.3.01-.45.03-.15.02-.29.06-.42.12-.12.05-.22.13-.31.23-.08.1-.11.22-.11.38 0 .17.06.32.18.43.12.11.27.2.46.27s.4.13.63.18l.7.15c.24.05.49.12.73.19.23.08.45.18.63.31s.33.29.45.49c.11.19.17.44.17.72 0 .37-.07.67-.22.91s-.35.44-.59.58c-.24.15-.52.25-.82.31-.31.06-.61.09-.92.09-.34 0-.65-.03-.96-.1s-.57-.18-.8-.35-.42-.37-.56-.63-.21-.58-.23-.95h.99c0 .21.06.41.15.55v.02Zm6.28.06v1.18c0 .45-.1.82-.31 1.14-.2.32-.53.54-.98.67v-.58c.13-.05.24-.11.34-.2s.16-.18.21-.3c.05-.1.09-.21.11-.32.02-.11.02-.21.02-.31h-.69v-1.29h1.29Zm10.64-7.04v.94h-4.64v2.65h4.33v.94h-4.33v2.88h4.67v.94h-5.78V33h5.75Zm1.79 2.29v.96h.02c.41-.73 1.07-1.1 1.95-1.1.4 0 .72.05.99.16s.48.26.64.46c.16.19.27.43.35.69.06.26.1.57.1.9v3.96h-.99v-4.08c0-.38-.11-.67-.33-.89s-.52-.33-.9-.33c-.31 0-.57.05-.78.14-.22.09-.41.22-.55.4-.15.17-.25.37-.34.6-.07.23-.11.48-.11.75v3.4h-.99v-6.03h.94-.01Zm9.54 5.64c-.45.35-1.02.51-1.7.51-.48 0-.9-.08-1.25-.23-.34-.15-.65-.37-.9-.65-.24-.27-.42-.61-.54-1-.12-.39-.19-.81-.2-1.27 0-.46.07-.88.21-1.26.14-.38.34-.71.59-.99s.55-.5.9-.65c.35-.15.72-.23 1.14-.23.54 0 .98.11 1.33.34s.64.5.86.85.37.71.45 1.12c.08.41.11.78.1 1.15h-4.51c0 .26.02.52.09.75.07.23.18.45.34.63s.36.33.59.44c.27.12.56.17.86.16.42 0 .76-.1 1.03-.3.26-.19.45-.49.53-.89h.98c-.13.67-.43 1.18-.88 1.53h-.01Zm-.23-3.87c-.09-.21-.21-.39-.36-.54a1.702 1.702 0 0 0-1.22-.49c-.24 0-.49.04-.69.13-.4.17-.72.5-.88.91-.08.2-.13.43-.15.66h3.46c-.02-.23-.07-.46-.15-.66h-.01Zm2.95-1.78v1.27h.02c.24-.49.54-.86.89-1.09.35-.23.79-.35 1.33-.33v1.05c-.4 0-.73.05-1.02.16-.27.11-.51.26-.67.48-.17.21-.3.47-.38.76s-.11.64-.11 1.03v2.68h-.99v-6.03h.94-.01ZM84.44 43c-.45.49-1.16.73-2.12.73-.27 0-.57-.03-.86-.09-.3-.06-.56-.16-.79-.31-.23-.14-.44-.33-.59-.55s-.24-.5-.25-.82h.99c0 .18.06.33.17.46.1.12.23.22.39.31.15.08.32.13.5.17.18.03.35.05.51.05.33 0 .6-.06.82-.17.22-.11.41-.26.56-.47.14-.19.25-.44.32-.71s.1-.59.1-.92v-.4h-.02c-.17.38-.43.65-.77.82s-.71.26-1.1.26c-.45 0-.85-.08-1.18-.24s-.61-.39-.83-.66-.4-.6-.51-.97c-.12-.38-.17-.77-.17-1.17 0-.36.05-.72.14-1.1s.24-.72.47-1.03c.21-.31.51-.56.87-.75.36-.19.79-.3 1.31-.3.38 0 .73.08 1.05.25.32.16.57.42.74.75h.01v-.87h.94v5.52c0 .99-.22 1.72-.67 2.22v-.03Zm-1.27-2.71c.23-.13.42-.32.55-.54.14-.22.24-.47.31-.75.06-.27.1-.56.1-.83s-.03-.53-.09-.78-.16-.49-.3-.69-.32-.37-.53-.5c-.21-.12-.48-.18-.79-.18s-.59.06-.81.18-.41.29-.55.49-.24.44-.32.7c-.06.26-.1.54-.1.82s.03.54.08.81.14.52.27.74.31.4.53.54c.21.13.49.2.81.2s.6-.07.83-.2Zm5.55 1.8c-.11.3-.23.54-.35.74-.11.2-.23.37-.38.5-.13.13-.29.22-.46.27-.16.06-.36.09-.58.09-.11 0-.23 0-.35-.02-.11-.02-.23-.04-.34-.08v-.91c.18.08.38.13.58.14.2 0 .37-.05.51-.14.13-.1.23-.23.31-.42l.41-1.02-2.39-6h1.12l1.76 4.93h.02l1.69-4.93h1.05l-2.63 6.83h.02ZM9.28 53.4c-.43.19-.88.3-1.33.3-.56 0-1.01-.08-1.35-.25-.35-.17-.61-.38-.79-.62-.18-.24-.31-.49-.37-.74s-.09-.47-.09-.64c0-.33.05-.61.15-.87.1-.24.24-.47.42-.67.17-.19.38-.38.62-.54.23-.16.49-.31.75-.45-.11-.16-.23-.32-.34-.47-.11-.15-.2-.3-.3-.45-.09-.15-.16-.32-.21-.48s-.07-.36-.07-.57.04-.44.12-.65.2-.39.37-.55.36-.29.59-.38.5-.14.8-.14c.25 0 .51.03.75.1s.46.17.65.32c.18.14.34.33.45.54s.17.46.17.74c0 .24-.04.48-.13.69-.08.21-.2.41-.35.59-.15.18-.32.34-.5.49-.18.14-.38.27-.58.39l1.51 1.83c.15-.44.24-.87.26-1.29h.95c-.02.24-.05.46-.07.63-.03.17-.06.34-.1.49-.04.15-.09.3-.15.44s-.13.31-.22.5l1.62 1.87h-1.29l-.89-1.04c-.24.39-.59.68-1.02.88h-.03Zm-2-3.51c-.17.11-.33.24-.46.4-.13.15-.23.32-.32.5s-.11.4-.11.65a1.305 1.305 0 0 0 .49 1.03c.14.12.32.21.51.29s.39.1.59.1c.38 0 .72-.09 1.02-.26.3-.18.55-.42.75-.72l-1.91-2.3c-.19.11-.38.22-.55.34h-.01Zm1.25-1.7c.13-.09.25-.19.37-.32.11-.11.19-.24.26-.39s.1-.31.1-.49c0-.24-.08-.45-.25-.62-.17-.17-.41-.26-.7-.26-.23 0-.45.07-.65.21s-.31.37-.31.67c0 .12.02.24.07.38.05.12.11.24.19.37s.16.23.25.36l.27.35c.11-.08.24-.16.38-.25h.01Zm8.85-2.95v8.33h-1.11v-8.33h1.11Zm2.32 2.3v.96h.02c.41-.73 1.07-1.1 1.95-1.1.4 0 .72.05.99.16s.48.26.64.46c.16.19.27.43.35.69.06.26.1.57.1.9v3.96h-.99v-4.08c0-.38-.11-.67-.33-.89s-.52-.33-.9-.33c-.31 0-.57.05-.78.14-.22.09-.41.22-.55.4-.15.17-.25.37-.34.6-.07.23-.11.48-.11.75v3.4h-.99v-6.03h.94-.01Zm9.68 6.03v-.81h-.02c-.16.34-.42.58-.77.72-.35.15-.73.22-1.15.22-.47 0-.88-.08-1.22-.25s-.63-.4-.87-.69c-.23-.29-.41-.62-.52-1s-.17-.78-.17-1.21.06-.83.17-1.21.29-.71.51-1c.23-.29.52-.51.87-.67.53-.25 1.13-.32 1.71-.2.18.03.36.08.54.15s.35.17.51.3c.16.12.3.27.41.45h.02v-3.11h.99v8.33h-1Zm-3.56-2.15c.07.26.18.51.34.71s.35.38.58.5c.23.12.52.18.83.18s.62-.06.86-.19c.23-.13.43-.31.57-.52s.25-.46.32-.73.1-.55.1-.82c0-.3-.03-.58-.1-.86s-.18-.52-.34-.73-.35-.38-.59-.51-.53-.19-.88-.19-.62.06-.86.19c-.23.13-.42.31-.56.53-.14.21-.24.47-.31.74s-.09.57-.09.87c0 .27.04.55.11.82h.01Zm9.85 2.15v-.96h-.02c-.21.38-.48.65-.8.82-.33.17-.71.26-1.15.26-.4 0-.72-.05-.99-.15-.26-.1-.48-.25-.64-.45s-.27-.43-.35-.69c-.06-.26-.1-.57-.1-.9v-3.96h.99v4.08c0 .38.11.67.33.89s.52.33.9.33c.31 0 .57-.05.78-.14.22-.09.41-.22.55-.4s.25-.37.34-.6c.07-.23.11-.48.11-.75v-3.4h.99v6.03h-.94.01Zm2.95-1.36c.09.15.21.27.37.36.15.09.33.15.51.19.19.04.39.06.59.06.15 0 .32-.01.49-.03s.33-.06.47-.13c.14-.06.26-.15.36-.27s.14-.27.14-.46c0-.25-.1-.45-.3-.58-.19-.13-.44-.23-.73-.32s-.61-.15-.95-.22c-.35-.06-.66-.16-.95-.27-.3-.12-.53-.29-.73-.51-.19-.21-.3-.52-.3-.91 0-.31.07-.56.2-.78.13-.21.32-.4.53-.53s.46-.23.72-.31.53-.1.79-.1c.35 0 .66.03.95.09s.54.16.76.31.4.34.53.58c.13.24.21.55.23.92h-.99c-.02-.19-.06-.36-.15-.49a.896.896 0 0 0-.33-.31c-.13-.08-.27-.13-.44-.17-.16-.03-.32-.05-.49-.05-.15 0-.3.01-.45.03-.15.02-.29.06-.42.12-.12.05-.22.13-.31.23-.08.1-.11.22-.11.38 0 .17.06.32.18.43.12.11.27.2.46.27s.4.13.63.18l.7.15c.24.05.49.12.73.19.23.08.45.18.63.31s.33.29.45.49c.11.19.17.44.17.72 0 .37-.07.67-.22.91s-.35.44-.59.58c-.24.15-.52.25-.82.31-.31.06-.61.09-.92.09-.34 0-.65-.03-.96-.1s-.57-.18-.8-.35-.42-.37-.56-.63-.21-.58-.23-.95h.99c0 .21.06.41.15.55v.02Zm7.37-4.67v.88h-1.2v3.75c0 .11 0 .21.03.27.02.07.06.12.11.16s.13.06.22.07c.1.01.22.02.38.02h.46v.88h-.75c-.25 0-.48-.02-.66-.05-.16-.03-.32-.09-.45-.19a.804.804 0 0 1-.25-.4c-.05-.17-.08-.4-.08-.67v-3.84h-1.03v-.88h1.03v-1.8h.99v1.8H46Zm1.69 0v1.27h.02c.24-.49.54-.86.89-1.09s.79-.35 1.33-.33v1.05c-.4 0-.73.05-1.02.16-.27.11-.51.26-.67.48-.17.21-.3.47-.38.76-.08.3-.11.64-.11 1.03v2.68h-.99v-6.03h.94-.01Zm2.81-1.08v-1.21h.99v1.21h-.99Zm.99 1.09v6.03h-.99v-6.03h.99Zm6.62 6c-.17.1-.41.15-.71.15-.25 0-.46-.07-.61-.21s-.22-.38-.22-.7c-.27.33-.59.56-.95.7s-.75.21-1.17.21c-.27 0-.53-.03-.77-.09s-.46-.16-.63-.3c-.18-.13-.32-.31-.43-.52-.1-.21-.15-.47-.15-.77 0-.35.06-.62.17-.83s.27-.4.46-.53.41-.23.65-.31c.24-.07.5-.13.75-.17.27-.05.53-.09.77-.12s.46-.06.65-.11c.18-.05.34-.12.45-.22.11-.1.16-.23.16-.43 0-.21-.04-.4-.12-.53-.08-.13-.18-.23-.32-.31s-.27-.11-.43-.14c-.16-.02-.32-.03-.47-.03-.42 0-.77.08-1.05.23-.27.16-.43.46-.46.91h-.99c.02-.38.09-.69.23-.95s.33-.47.56-.62c.23-.16.5-.27.79-.35.3-.07.62-.1.96-.1.27 0 .54.02.81.06.26.04.51.12.73.23.21.12.4.29.53.51.13.21.19.5.19.85v3.1c0 .23.01.41.04.51.03.11.12.16.27.16.08 0 .18-.02.31-.05v.77h-.03Zm-1.61-3.09c-.12.09-.29.16-.49.2s-.42.08-.63.1l-.67.09c-.22.03-.43.09-.61.17-.18.08-.33.18-.44.33s-.17.34-.17.59c0 .16.03.3.1.41.06.11.15.2.25.27s.22.12.37.15c.14.03.29.05.45.05.33 0 .61-.04.83-.13.23-.09.43-.2.57-.34.15-.13.25-.29.33-.44s.1-.31.1-.45v-1.01h.01Zm3.35-5.22v8.33h-.99v-8.33h.99Zm8.88 1.14c-.37-.26-.85-.41-1.42-.41-.23 0-.46.02-.69.07-.22.05-.43.12-.6.23s-.32.25-.42.44c-.1.18-.15.41-.15.68 0 .25.07.47.22.62.15.16.36.29.61.39.25.1.54.18.86.25.32.06.64.14.98.21.33.08.65.17.98.27.32.1.6.24.86.43s.46.41.61.67.22.61.22 1.03c0 .45-.1.82-.3 1.14-.19.32-.45.57-.76.77-.32.19-.66.35-1.05.43-.39.09-.76.13-1.15.13-.47 0-.91-.06-1.32-.17-.42-.11-.78-.3-1.1-.53-.32-.23-.56-.54-.74-.91s-.27-.8-.27-1.31h1.05c0 .35.07.65.2.91s.32.46.54.62.48.29.77.37.6.11.91.11c.24 0 .5-.02.75-.07s.48-.12.68-.23.37-.26.49-.46.18-.45.18-.74-.07-.52-.22-.7-.36-.33-.61-.44-.54-.2-.86-.27-.64-.14-.98-.21c-.33-.07-.65-.16-.98-.25-.32-.1-.6-.22-.86-.39s-.46-.37-.61-.62-.22-.57-.22-.95c0-.42.08-.78.25-1.09s.4-.56.68-.75c.29-.19.61-.35.97-.45.37-.1.73-.14 1.11-.14.43 0 .82.05 1.19.15.37.1.68.26.96.48.27.21.49.49.65.82.16.33.24.72.26 1.18h-1.05c-.06-.6-.27-1.03-.65-1.3h.02Zm5.53 1.15v.88h-1.2v3.75c0 .11 0 .21.03.27.02.07.06.12.11.16s.13.06.22.07c.1.01.22.02.38.02h.46v.88h-.75c-.25 0-.48-.02-.66-.05-.16-.03-.32-.09-.45-.19a.804.804 0 0 1-.25-.4c-.05-.17-.08-.4-.08-.67v-3.84h-1.03v-.88h1.03v-1.8h.99v1.8h1.21Zm1.69 0v1.27h.02c.24-.49.54-.86.89-1.09.35-.23.79-.35 1.33-.33v1.05c-.4 0-.73.05-1.02.16-.27.11-.51.26-.67.48-.17.21-.3.47-.38.76s-.11.64-.11 1.03v2.68h-.99v-6.03h.94-.01Zm8.09 6.01c-.17.1-.41.15-.71.15-.25 0-.46-.07-.61-.21s-.22-.38-.22-.7c-.27.33-.59.56-.95.7s-.75.21-1.17.21c-.27 0-.53-.03-.77-.09s-.46-.16-.63-.3c-.18-.13-.32-.31-.43-.52-.1-.21-.15-.47-.15-.77 0-.35.06-.62.17-.83s.27-.4.46-.53.41-.23.65-.31.5-.13.75-.17c.27-.05.53-.09.77-.12s.46-.06.65-.11c.18-.05.34-.12.45-.22.11-.1.16-.23.16-.43 0-.21-.04-.4-.12-.53s-.18-.23-.32-.31-.27-.11-.43-.14c-.16-.02-.32-.03-.47-.03-.42 0-.77.08-1.05.23-.27.16-.43.46-.46.91h-.99c.02-.38.09-.69.23-.95s.33-.47.56-.62c.23-.16.5-.27.79-.35s.62-.1.96-.1c.27 0 .54.02.81.06.26.04.51.12.73.23.21.12.4.29.53.51.13.21.19.5.19.85v3.1c0 .23.01.41.04.51.03.11.12.16.27.16.08 0 .18-.02.31-.05v.77H84Zm-1.61-3.09c-.12.09-.29.16-.49.2-.2.04-.42.08-.63.1l-.67.09c-.22.03-.43.09-.61.17-.18.08-.33.18-.44.33s-.17.34-.17.59c0 .16.03.3.1.41.06.11.15.2.25.27s.22.12.37.15c.14.03.29.05.45.05.33 0 .61-.04.83-.13.23-.09.43-.2.57-.34.15-.13.25-.29.33-.44s.1-.31.1-.45v-1.01h.01Zm4.8-2.92v.88h-1.2v3.75c0 .11 0 .21.03.27.02.07.06.12.11.16s.13.06.22.07c.1.01.22.02.38.02h.46v.88h-.75c-.25 0-.48-.02-.66-.05-.16-.03-.32-.09-.45-.19a.804.804 0 0 1-.25-.4c-.05-.17-.08-.4-.08-.67v-3.84H84v-.88h1.03v-1.8h.99v1.8h1.21Zm4.88 5.64c-.45.35-1.02.51-1.7.51-.48 0-.9-.08-1.25-.23-.34-.15-.65-.37-.9-.65-.24-.27-.42-.61-.54-1-.12-.39-.19-.81-.2-1.27 0-.46.07-.88.21-1.26.14-.38.34-.71.59-.99s.55-.5.9-.65c.35-.15.72-.23 1.14-.23.54 0 .98.11 1.33.34s.64.5.86.85.37.71.45 1.12c.08.41.11.78.1 1.15h-4.51c0 .26.02.52.09.75.07.23.18.45.34.63s.36.33.59.44c.27.12.56.17.86.16.42 0 .76-.1 1.03-.3.26-.19.45-.49.53-.89H93c-.13.67-.43 1.18-.88 1.53h-.01Zm-.23-3.87c-.09-.21-.21-.39-.36-.54a1.702 1.702 0 0 0-1.22-.49c-.24 0-.49.04-.69.13-.4.17-.72.5-.88.91-.08.2-.13.43-.15.66h3.46c-.02-.23-.07-.46-.15-.66h-.01Zm6.59 5.95c-.45.49-1.16.73-2.12.73-.27 0-.57-.03-.86-.09-.3-.06-.56-.16-.79-.31-.23-.14-.44-.33-.59-.55s-.24-.5-.25-.82h.99c0 .18.06.33.17.46.1.12.23.22.39.31.15.08.32.13.5.17.18.03.35.05.51.05.33 0 .6-.06.82-.17.22-.11.41-.26.56-.47.14-.19.25-.44.32-.71s.1-.59.1-.92v-.4h-.02c-.17.38-.43.65-.77.82s-.71.26-1.1.26c-.45 0-.85-.08-1.18-.24s-.61-.39-.83-.66-.4-.6-.51-.97c-.12-.38-.17-.77-.17-1.17 0-.36.05-.72.14-1.1s.24-.72.47-1.03c.21-.31.51-.56.87-.75.36-.19.79-.3 1.31-.3.38 0 .73.08 1.05.25.32.16.57.42.74.75h.01v-.87h.94v5.52c0 .99-.22 1.72-.67 2.22v-.03Zm-1.27-2.71c.23-.13.42-.32.55-.54.14-.22.24-.47.31-.75.06-.27.1-.56.1-.83s-.03-.53-.09-.78-.16-.49-.3-.69-.32-.37-.53-.5c-.21-.12-.48-.18-.79-.18s-.59.06-.81.18-.41.29-.55.49-.24.44-.32.7c-.06.26-.1.54-.1.82s.03.54.08.81.14.52.27.74.31.4.53.54c.21.13.49.2.81.2s.6-.07.83-.2Zm5.55 1.8c-.11.3-.23.54-.35.74-.11.2-.23.37-.38.5-.13.13-.29.22-.46.27-.16.06-.36.09-.58.09-.11 0-.23 0-.35-.02-.11-.02-.23-.04-.34-.08v-.91c.18.08.38.13.58.14.2 0 .37-.05.51-.14.13-.1.23-.23.31-.42l.41-1.02-2.39-6h1.12l1.76 4.93h.02l1.69-4.93h1.05l-2.63 6.83h.02ZM13.66 2.75c-.09.18-.17.29-.16.43s.16.24.23.39c.06-.16.17-.29.15-.42-.01-.13-.19-.3-.22-.4m2.44 0c.09.18.17.29.16.43s-.16.24-.23.39c-.06-.16-.17-.29-.15-.42.01-.13.19-.3.22-.4m-3.85-.1c.09 0 .16-.07.16-.16s-.07-.16-.16-.16-.16.07-.16.16.07.16.16.16m.1.23c0-.09-.07-.16-.16-.16s-.16.07-.16.16.07.16.16.16.16-.07.16-.16m.08.4c0-.09-.07-.16-.16-.16s-.16.07-.16.16.07.16.16.16.16-.07.16-.16m.72-1.42c.09 0 .16-.07.16-.16s-.07-.16-.16-.16-.16.07-.16.16.07.16.16.16m-.41.12c.09 0 .16-.07.16-.16s-.07-.16-.16-.16-.16.07-.16.16.07.16.16.16m-.33.29c.09 0 .16-.07.16-.16s-.07-.16-.16-.16-.16.07-.16.16.07.16.16.16m1.17-.37c.09 0 .16-.07.16-.16s-.07-.16-.16-.16-.16.07-.16.16.07.16.16.16m.41.11c.09 0 .16-.07.16-.16s-.07-.16-.16-.16-.16.07-.16.16.07.16.16.16m.39.18c.09 0 .16-.07.16-.16s-.07-.16-.16-.16-.16.07-.16.16.07.16.16.16m2.94.29c0 .09.07.16.16.16s.16-.07.16-.16-.07-.16-.16-.16-.16.07-.16.16m.22.23c-.09 0-.16.07-.16.16s.07.16.16.16.16-.07.16-.16-.07-.16-.16-.16m-.08.4c-.09 0-.16.07-.16.16s.07.16.16.16.16-.07.16-.16-.07-.16-.16-.16m-.9-1.25c.09 0 .16-.07.16-.16s-.07-.16-.16-.16-.16.07-.16.16.07.16.16.16m.42.12c.09 0 .16-.07.16-.16s-.07-.16-.16-.16-.16.07-.16.16.07.16.16.16m.32.29c.09 0 .16-.07.16-.16s-.07-.16-.16-.16-.16.07-.16.16.07.16.16.16m-1.16-.37c.09 0 .16-.07.16-.16s-.07-.16-.16-.16-.16.07-.16.16.07.16.16.16m-.41.11c.09 0 .16-.07.16-.16s-.07-.16-.16-.16-.16.07-.16.16.07.16.16.16m-.55.02c0 .09.07.16.16.16s.16-.07.16-.16-.07-.16-.16-.16-.16.07-.16.16m-.6.89h.18v-.7c-.06 0-.13-.03-.18-.06v.76Zm.56-.76c-.06.03-.12.05-.18.06v.7h.18v-.76Zm-.39-.77V.97c-.2.04-.37.21-.41.42h.41Zm.21 0h.41a.51.51 0 0 0-.41-.42v.42Z"/>
    <path d="M14.38 1.59c.05.23.25.41.51.41s.46-.17.51-.41h-1.02Zm.78-.69a.552.552 0 0 1-.22-.37c.13.02.29.12.38.23V.2a.61.61 0 0 1-.38.23c.01-.14.1-.26.21-.41h-.55c.11.14.2.26.21.41a.715.715 0 0 1-.38-.23v.57c.09-.11.24-.21.38-.23a.6.6 0 0 1-.22.37h.57Zm.02 11.84c-.11 0-.2-.09-.2-.2s.09-.2.2-.2.2.09.2.2-.09.2-.2.2m-.98-.31c-.12 0-.22-.1-.22-.22s.1-.22.22-.22.22.1.22.22-.1.22-.22.22m-.34-.99-.05-.04c-.1-.07-.18-.07-.27 0l-.12.12-.06.06.04.03c.1.08.12.18.09.23-.01.02-.03.03-.05.04-.05.01-.12 0-.2-.05l-.04-.02-.02.04s-.01.02-.02.03c0 .01-.02.03-.03.04-.04.08-.07.14-.07.19v.04c.02.06.06.08.1.11h.02s.11.08.16.11a.3.3 0 0 1-.29.01c-.14-.07-.23-.23-.23-.32 0-.12.05-.27.15-.44l.02-.02v-.02s-.07-.1-.09-.14c.05 0 .11.02.16.03h.05c.06-.08.29-.3.49-.3.09 0 .18.05.25.13.05.06.08.13.09.19a.55.55 0 0 1-.09-.07m1.9.78c-.52-.13-1.14-.36-1.72-.61a.48.48 0 0 0-.12-.36c-.09-.1-.2-.16-.33-.16-.05 0-.1.01-.15.03a2.877 2.877 0 0 1-.74-1.13c-.07-.19-.12-.39-.15-.59-.03.17-.21.39-.54.4 0-.03 0-.12-.03-.13-.08.09-.21.19-.51.09.04.23.11.46.19.67.22.61.59 1.16 1.08 1.59v.07c0 .12.12.32.29.4.14.07.29.05.43-.05.25.13.57.26.92.36.39.11.76.17 1.06.17.25 0 .59-.12.92-.33.13-.08.25-.17.35-.26.01-.01.02-.02.04-.03-.25.04-.64-.04-.97-.11m-.13 2.09c-.04-.07-.09-.11-.14-.11-.21 0-.13.56-.39.56-.11 0-.17-.07-.17-.15s.05-.1.05-.16-.05-.08-.1-.08-.1.02-.1.08.05.09.05.16-.06.15-.17.15c-.25 0-.17-.56-.38-.56-.05 0-.1.04-.14.11a.626.626 0 0 1-.07-.22c0-.1.08-.24.24-.24.29 0 .21.39.36.39.06 0 .1-.04.1-.09 0-.11-.19-.21-.19-.38s.14-.29.31-.42c.16.12.31.25.31.42s-.19.26-.19.38c0 .06.04.09.1.09.13 0 .07-.39.36-.39.16 0 .24.14.24.24 0 .06-.02.14-.06.22m-.74.78c-.07 0-.14-.06-.14-.14s.06-.14.14-.14.14.06.14.14-.06.14-.14.14m.56-1.35s-.07 0-.1.01v-.62c-.27 0-.59-.05-.91-.13v.76s-.07-.02-.11-.02c-.21 0-.36.18-.36.36 0 .16.09.31.17.4.04-.1.08-.17.13-.17.11 0 .06.54.38.55-.01.03-.02.05-.02.08 0 .13.11.24.24.24s.24-.11.24-.24c0-.03 0-.06-.02-.08.32-.01.26-.55.38-.55.05 0 .09.07.13.17a.64.64 0 0 0 .17-.4c0-.17-.13-.36-.36-.36"/>
    <path d="M22.75 14.52s-.05-.05-.08-.04c-.73.21-1.63-.39-2.5-.98-.73-.49-1.43-.96-2.03-.96-.22 0-.42.05-.58.14-.21.12-.38.31-.46.54-.1.24-.2.41-.3.54-.1.16-.17.27-.17.42 0 .12.05.22.15.33.08.08.2.16.38.26.04.02.07.04.11.05.14.07.23.12.25.2-.29.12-.66.23-1.08.31-.48.08-1 .12-1.56.12s-1.08-.04-1.56-.12c-.43-.07-.79-.18-1.09-.31.01-.12.1-.17.25-.24.04-.02.07-.03.11-.05.14-.08.29-.15.38-.23.1-.09.15-.18.15-.31 0-.14-.07-.25-.17-.42-.08-.13-.19-.3-.3-.54s-.25-.43-.47-.54c-.16-.09-.37-.14-.58-.14-.6 0-1.29.46-2.03.96-.88.58-1.78 1.18-2.5.97-.03 0-.07 0-.08.04-.01.03 0 .07.04.08.22.1.42.25.6.4.26.2.51.4.78.4.25 0 .54-.08.88-.25.3-.15.6-.36.9-.56.58-.4 1.17-.79 1.73-.85-.06.06-.11.11-.17.16-.16.15-.31.27-.31.54 0 .2.07.36.16.56.03.06.06.12.09.2.06.14.09.25.12.41.02.07.03.14.06.23.04.13.1.39.52.59.48.24 1.3.37 2.45.37s1.98-.12 2.45-.37c.42-.21.48-.46.52-.59.02-.09.04-.16.06-.23.04-.15.06-.26.12-.41.05-.1.09-.18.13-.25.08-.16.15-.29.15-.48 0-.26-.15-.4-.33-.55-.05-.05-.11-.1-.17-.16.56.04 1.16.45 1.73.85.3.2.6.41.9.56.34.17.62.25.88.25.27 0 .52-.19.78-.4.19-.14.39-.3.6-.4.03-.01.05-.05.04-.08m-7.76-5.67V6.14c.29.01.56.08.82.21.29.14.54.34.75.59s.39.55.51.89c.12.33.18.68.18 1.04h-2.27ZM14.85 5c-.77 0-1.3.22-1.62.44-.18-.1-.25-.21-.25-.34 0-.44 1.24-.48 1.87-.48s1.87.04 1.87.48c0 .12-.08.22-.25.34-.31-.2-.85-.44-1.62-.44m-.04 3.87h-2.32c0-.36.07-.71.18-1.04.12-.34.3-.63.51-.89.4-.49 1-.78 1.63-.8v2.74Zm3.53-.18a.79.79 0 0 1-.27-.33c-.08-.18-.45-.89-.51-.99a.405.405 0 0 1-.07-.21c0-.07.04-.13.08-.19.03-.04.1-.11.13-.16.02-.03.04-.06.06-.08-.13-.22-.26-.4-.44-.59a3.65 3.65 0 0 0-.7-.61c.14-.09.27-.22.27-.44a.41.41 0 0 0-.14-.31c.14-.47.41-1.03.63-1.27l-.47-.19c.12.18.13.4.1.53a.598.598 0 0 1-.26-.36c-.02.14-.1.37-.17.51.13-.06.24-.09.38-.04-.08.1-.29.27-.59.19-.16-.04-.34-.13-.33-.25 0-.08.06-.17.16-.16.1.01.11.16.07.23.13-.07.27-.47.06-.53-.16-.04-.32.18-.37.36-.03-.21-.12-.41-.29-.4-.21.01-.14.41-.07.51.01-.14.09-.21.15-.2.06 0 .13.04.12.17-.01.12-.19.2-.4.2s-.54-.06-.58-.44c.13.02.33.12.42.24-.03-.23-.03-.4 0-.63-.1.15-.29.22-.41.24.04-.16.17-.34.34-.44h-.85c.16.1.31.27.34.44a.75.75 0 0 1-.41-.24c.03.23.03.41 0 .63.08-.12.27-.22.41-.24-.03.38-.38.44-.58.44s-.39-.08-.4-.2c-.01-.12.06-.16.12-.17.06 0 .14.07.15.2.07-.1.14-.5-.07-.51-.16-.01-.25.19-.29.4-.05-.17-.2-.4-.37-.36-.21.06-.07.45.06.53-.03-.07-.03-.22.07-.23.1 0 .16.08.16.16 0 .13-.16.21-.33.25a.576.576 0 0 1-.59-.19c.14-.06.24-.03.39.03-.07-.13-.15-.37-.17-.51-.04.15-.14.27-.26.36-.04-.18 0-.37.1-.53l-.47.19c.22.24.49.81.63 1.28a.41.41 0 0 0-.14.31c0 .21.14.35.27.44a3.788 3.788 0 0 0-1.44 1.85c.06.07.35.38.41.46.11.14.18.3.19.41 0 .21.05.3.16.44.03.04.08.21.09.32h2.32v2.53c-.09 0-.18.03-.26.12.26.11.52.2.78.29.02-.16.06-.26.14-.37 0 0-.34-.03-.52-.04V9.01h2.27a2.997 2.997 0 0 1-.69 1.89c-.21.26-.47.46-.75.59-.04.02-.04.05-.09.07-.04.04-.08.12-.11.2-.03.07-.04.13-.05.23.1.03.16.05.26.07.79.2 1 .14 1.04.1.18-.14.35-.3.5-.47.32-.37.57-.78.74-1.25.18-.49.27-1 .27-1.53v-.22"/>
    <path d="M16.25 7.24s-.03.04-.02.06c0 .02.03.04.07.04-.02.02-.05.05-.05.09.04 0 .08 0 .1-.02 0 .04 0 .06.02.08.02.01.04.01.06 0 .17.27.29.6.34.93-.03-.01-.05-.02-.08-.02 0 .05.02.08.05.1h-.57s-.01-.07-.04-.07c-.02 0-.05 0-.08.03 0-.03-.01-.07-.04-.1-.03.03-.04.07-.04.1-.03-.03-.05-.04-.08-.03-.02 0-.04.04-.04.07h-.49s.03-.05.03-.09c-.04 0-.07.01-.1.04v-.78s.07-.01.08-.04c0-.02 0-.05-.03-.08.03 0 .07-.01.1-.04a.128.128 0 0 0-.1-.04c.03-.03.03-.05.03-.08 0-.02-.04-.04-.08-.04v-.66s.05.03.08.03c0-.04 0-.07-.02-.09.15.05.3.12.44.21.16.11.32.24.45.42m.64 1.17s.03.09-.02.08c-.05-.41-.2-.81-.44-1.15.04-.02.08-.05.09-.12-.07 0-.12.02-.14.06-.02-.02-.03-.04-.05-.06a1.946 1.946 0 0 0-1.04-.71c0-.04.06-.05.08-.01 0-.07-.05-.11-.09-.09-.02 0-.04.02-.04.06-.02-.03-.05-.05-.1-.05 0 .05.01.08.03.11-.03 0-.05.01-.06.03-.02.03 0 .1.08.1-.03-.03-.02-.08.02-.08v.89s-.1 0-.15.04c.05.05.1.05.15.04v.97s-.06-.06-.02-.08c-.07 0-.1.06-.09.1.01.02.03.04.07.03-.02.02-.04.06-.04.1.04 0 .08-.02.1-.04 0 .04.01.06.04.07.03.02.1-.01.1-.08-.03.04-.08.02-.08-.02h.67s0 .1.04.14c.05-.05.05-.1.04-.14h.74s-.05.06-.08.02c0 .07.07.1.1.08.02-.01.04-.03.03-.07.02.02.06.04.1.04 0-.04-.02-.08-.04-.1.04 0 .06-.01.07-.04s-.02-.1-.09-.1"/>
    <path d="M16.49 8.18s.05-.03.06-.06c-.03.01-.06 0-.06 0 .02-.01.05 0 .02-.04-.03-.04-.04-.04-.07-.01-.03.03-.2 0-.2-.14.01.02.04.04.06.05 0 0 .01 0 .02.01h.07s.07-.04.07-.07c0-.07-.06-.11-.14-.17l-.07-.07c-.03-.05 0-.1-.08-.2 0-.02 0-.05-.02-.08-.04.06-.05.18.04.29.07.08.23.16.23.23 0 .02-.02.03-.04.03h-.03s-.02 0-.03-.02c-.02 0-.03-.02-.06-.04-.06-.06-.12-.15-.16-.2-.07-.09-.04-.18-.03-.26.05-.07-.03-.22-.08-.25 0 0 .01-.03 0-.08h-.05s-.02-.03-.04-.04c-.03 0-.03-.02-.03-.04-.02.02-.02.03-.04.03h-.05s-.03.02-.05.02c-.03 0-.03.02-.03.04 0 .01 0 .03.02.04l.02.03.02-.03s.05-.01.06.01l-.02.03h-.06s-.02.02-.02.04.02.03.06.02c.04 0 .1-.02.1.01 0 .08-.09.08-.11.17-.02-.02-.04-.03-.06-.05a.27.27 0 0 0-.07-.08c-.02-.02-.05-.04-.07-.06-.03-.02-.03-.03-.03-.07 0-.03.01-.05.01-.08v-.02s-.03-.03-.04-.03c0 0 .02.01.02.03 0 0-.01.01-.01.02v.04s-.02-.05-.03-.05h-.01s-.02-.04-.05-.01h.02v.02s.01.03.04.03c-.04-.02-.05 0-.05.02v.02s-.02.03 0 .04v-.02h.04s-.02.04 0 .05c-.01.03-.06.02-.05-.02-.03.05.02.08.06.07v.05s0 .03.02.03v-.02s.02.02.02.03c.02.04.06.13.16.17-.05.03-.08.07-.11.11-.03.03-.07.05-.09.04-.01 0-.01-.02-.03-.03h-.05s-.04 0-.05.01h.03v.02s0 .02.06.02c0 0-.01.01-.03 0-.02 0-.03-.02-.05 0h-.01s-.04.05-.02.07c0 0 0-.02.01-.03h.01s.03.04.06-.01c0 .02-.02.06 0 .06h.01s.04.03.06.03c0 0-.03-.01-.03-.03h.01v-.05c0 .01.02.03.05.02.01 0 .02-.02.02-.03.03-.01.06-.02.09-.02 0-.02.02-.04.05-.05.04 0 .05 0 .06.01 0-.02.02-.04.04-.06 0 .14.18.14.23.22-.06-.02-.12-.04-.15-.03-.05 0-.13.05-.14.1 0 .04.04.12.08.15-.05.01-.07 0-.12 0-.04 0-.05-.07-.1-.05h-.01s-.05.02-.04.04c0 0 .02-.02.03-.02s0 .03.02.03h.02s-.06-.01-.05.04.01.04.04.03c0 0-.02-.01-.01-.02h.01v.03s.03.04.05.02c0 0-.03 0-.03-.01h.01v-.02h.01s.02.02.04.02c.01 0 .02 0 .02-.01 0 0 .02 0 .02.01 0-.02 0-.04.05 0l.03-.02s.04.02.06 0c.03-.02.01-.02.01-.05-.02-.04-.03-.04-.04-.08-.01-.07.08-.11.14-.1.01.04.07.16.18.19.06.02.09-.05.11-.04v.02l.01.08c0 .02-.04 0-.06 0-.01 0-.02 0-.02.01-.02 0-.04.02-.04.04 0 0 .02-.02.04-.02 0 .03.03.04.05.02-.02.01-.04.04-.02.05h.01s.01.03.03.04v-.03h.01s.01-.03.03-.04v.05h.01s.02.03.05.01c0 0-.02 0-.02-.02 0 0 .01-.01.01-.02.01-.04-.02-.04-.02-.06s.04 0 .04-.05c.02-.01.04-.02.04-.04h-.05l.14.1Zm-2.12 1.26h-.03s-.08.01-.08.06.03.07.07.08h.02v.03c-.01.07-.03.18-.05.32l-.35-.5c.16-.06.3-.13.37-.13.05 0 .07.03.05.14m-.13.87-.55-.78c.06-.01.12-.03.17-.05l.41.59c-.01.08-.03.16-.04.24m-.06.36-.77-1.11h.19l.62.9c-.01.08-.03.16-.04.22m-.88-1.11.85 1.22c-.46-.17-.91-.58-.85-1.22m1.26-.09h-.04v-.04c0-.13-.07-.23-.22-.23-.13 0-.39.17-.73.17-.15 0-.33-.07-.44-.14l-.04.1c0-.06-.04-.1-.09-.1s-.09.04-.09.09.04.09.09.09c.03 0 .05-.01.07-.03l-.04.1s.03.01.05.02c-.05.54.35 1.22 1.04 1.43.1-.03.21-.01.21.1 0 .07-.03.1-.1.1-.04 0-.07-.02-.07-.05 0-.05.08-.02.09-.05.01-.04-.02-.06-.06-.06s-.12.03-.12.11c0 .1.07.15.16.15.08 0 .24-.04.21-.23.04 0 .08 0 .09-.04v-.11h-.03l.03-1.22h.03s.08-.01.09-.06c0-.05-.04-.07-.07-.07m-.62-2.63s0-.02.01-.02c0 0 .01 0 .02-.01l-.01-.02s.01 0 0-.01h-.02l.01-.01.04.02v.02s0-.01-.01-.01v.02h-.02v.04s-.02.02-.03.02c-.02 0-.01-.02 0-.03m.05-.11s-.02.02-.03.01c-.01-.01 0-.01-.01-.04.01 0 .04.02.05.03m.03.02s.04.02.05.02c-.02 0-.02.02-.03.01-.02 0-.02-.02-.02-.04m.39.21c.16 0 .24-.05.24-.1 0-.18-.46-.07-.46-.18 0-.02.01-.03.03-.05.22-.02.23-.18.4-.21-.19-.03-.22.13-.31.13.03-.02.06-.05.06-.09-.04.05-.13.06-.17.12 0 0-.01.02 0 .03-.03.02-.05.04-.05.07 0 .17.46.05.46.18 0 .04-.08.07-.2.07-.09 0-.16-.07-.34-.02 0-.03.06-.08.04-.11.02 0 .03-.02.03-.03 0 0-.02-.01-.03-.02v-.04s-.02-.02-.04-.03c-.02 0-.03 0-.04-.01h-.02s-.02 0-.02.01c0 0-.02-.01-.03-.01v.05s-.03.04-.05.04c0 .01.01.02.02.02-.01.02-.02.05-.03.05 0 0 0 .01.01.01-.01.04-.02.08-.02.1s-.02-.02-.04-.03c-.03-.02-.02-.03-.02-.05s.02-.04.02-.06v-.02s-.02-.03-.03-.02c0 0 .01 0 .01.02h-.01s-.01.03 0 .03 0-.03-.02-.03h-.01s-.02-.03-.04-.01h.02v.02s0 .02.03.02c-.03-.01-.05 0-.05.01s-.02.03 0 .04c0 0 0-.02.01-.02h.02s-.02.04 0 .04c0 .04-.06.03-.05 0-.04.04.01.07.05.05 0 0 0 .01.01.01 0 0 0 .02.02.02s.04.05.04.05c-.04.02-.1.03-.1.03h-.08s-.09.04-.11.01c0 0 0-.02-.01-.03 0 0-.01-.02-.02-.02h-.02s-.03-.01-.04 0c0 0 .02 0 .02.02s0 .03.04.04h-.02s-.02-.03-.04-.02h-.01s-.05.02-.03.04c0 0 0-.02.02-.02s.01.05.05.01c0 .02-.04.04-.02.05h.01s.02.04.04.04c0 0-.02-.02-.01-.04h.01s.01-.03.02-.04c0 0 0 .03.03.03.02 0 .03-.02.03-.03 0 0 .02.01.01.03 0 0 .01 0 .02-.02v.04s.03-.01.04-.04.05.01.05.01v.02s0 .01.01.03c0-.06.04-.04.08-.06 0 0 0 .01-.02.02.01 0 .05-.01.05-.04l.02-.02s.04 0 .04-.02v.03l.1-.05c.08-.02-.05-.08.12-.07.01 0 .04 0 .05-.02-.01.03-.01.08.01.08.01 0 .04.01.04.02h-.04s-.04-.06-.09-.04h-.01s-.04.02-.04.04c0 0 .01-.01.03-.02 0 0 0 .01.02.01h.02s-.05 0-.04.04 0 .04.03.03c0 0-.01 0-.01-.02h.01s.02.04.05.03c0 0-.02 0-.02-.01h.01V7.1h.01s.02.02.03.01c.03 0 0-.03.03-.04h.08s0-.05-.02-.07c-.01 0 0-.02-.01-.05.03.01.05.02.09.02.06 0 0 0 .03-.03.03-.02.07-.01.08 0 0 0 .02 0 .01.01V7h-.07s-.03.02-.03.04c0 0 .02-.01.03-.01 0 .02.03.03.04.01-.01 0-.04.03-.02.04h.01s0 .03.02.03v-.03h.01s0-.03.02-.04v.04h.01s.02.02.04.01c0 0-.01 0-.02-.01 0 0 0-.01.01-.01 0-.03-.02-.03-.02-.05s.03 0 .03-.04c0 0 0-.02-.01-.02s.02 0 .02-.01c-.02 0-.02-.02-.02-.03 0 0 .01-.02.01-.04 0 .01-.04.02-.04 0 0 0 0-.02-.03-.01-.04 0-.06-.02-.14-.02m-.8.74s0-.02.02-.02c.01 0 .02 0 .02-.01s0-.02-.02-.03c.01 0 .02 0 .01-.01h-.02l.02-.01.05.02s.01 0 .01.01v.02s0-.02-.01-.02v.02s-.02-.01-.03 0v.06s-.02.03-.04.02c-.02-.01-.02-.03-.01-.04m.06-.13s-.03.03-.04.01c-.01-.01 0-.02-.01-.04.02.01.05.03.05.03m.04.02s.04.02.06.02c-.03 0-.02.02-.04.02s-.02-.02-.02-.04m1.02.14s-.06-.08-.21-.08-.53.06-.53-.03c0-.04.07-.04.15-.04 0 0 .02.01.03.02.21.06.46-.05.58-.01-.15-.11-.27 0-.44-.03.09 0 .12-.03.13-.05-.07.05-.21-.02-.3.03h-.01c-.11.01-.2.01-.2.08 0 .16.44.07.57.07s.16.01.16.04c0 .04-.13.05-.21.05-.12 0-.48-.06-.69-.02.02-.03.06-.08.03-.1.02 0 .03-.02.03-.04a.076.076 0 0 0-.04-.02s0-.02-.01-.03c0 0 0-.02-.01-.03 0 0-.02-.02-.05-.03-.02-.01-.04-.01-.05-.01h-.03s-.02 0-.03.01l-.04-.02s-.01.03 0 .06c-.02 0-.04.05-.06.04 0 .01.01.02.02.02-.02.03-.02.06-.04.06.01.02.02.02.03.02v.06h-.03l-.01-.01h.01-.02s-.04-.05-.07-.07-.03-.03-.03-.07c0-.03.02-.05.02-.08V7.4s-.03-.03-.04-.03c0 0 .02.01.02.03h-.01v.05s-.01-.05-.03-.05h-.01s-.02-.04-.05-.01h.02v.02s.01.03.03.03c-.04-.02-.05 0-.05.02s-.02.04 0 .05v-.02h.03s-.02.05 0 .05c0 .05-.06.04-.06 0-.04.05.02.09.07.07 0 0 0 .02.01.02h.01s0 .02.02.02v-.02l.06.06s.05.05.07.03c0 .03.02.07.02.07h-.11s-.1.04-.13.01c0-.01 0-.02-.01-.04 0-.01-.02-.02-.02-.02h-.02s-.04-.01-.05 0c0 0 .02 0 .03.02s0 .04.04.05h-.03s-.02-.03-.04-.02h-.01s-.05.02-.04.05c0 0 .01-.02.03-.02v.02s.01.04.06 0c-.01.02-.04.04-.02.06h.01s.03.05.04.05c0 0-.02-.02-.01-.04h.01s.01-.04.03-.05c0 .01 0 .04.03.04s.04-.02.04-.04c0 0 .02.02.01.03 0 0 .02 0 .02-.02 0 .01 0 .03-.01.05.01 0 .04-.02.04-.05v.02h.06v.03s0-.01.01-.01c0 0 0 .03.02.04 0-.07.04-.04.09-.07 0 0 0 .02-.02.02.05.01.13-.06.14-.09h.05c.14.01.04-.13.27-.09.01 0 .04-.01.05-.03-.02.03-.02.09.01.1.01 0 .04.01.05.02-.02 0-.04 0-.04.01-.05.03-.05-.07-.1-.05h-.01s-.05.02-.04.04c0 0 .02-.02.03-.02s0 .03.02.03h.02s-.06-.01-.05.04v.02s.01.03.04.02c0 0-.02-.01-.01-.02h.01v.03s.03.04.05.02c0 0-.03 0-.03-.01h.01V7.9h.01s.02.02.04.02c.03-.01 0-.04.03-.05h.09s0-.06-.03-.08c-.02 0 0-.03-.01-.05.03.01.06.02.1.02.07 0 .09-.01.12-.03.04-.02.08 0 .09 0 0 0 .02 0 .01.02v.06h-.08s-.04.02-.04.04c0 0 .02-.02.03-.02 0 .03.03.03.05.02-.02.01-.04.04-.02.04h.01s.01.03.02.03v-.03h.01s0-.03.03-.04v.05h.01s.02.03.04.01c0 0-.02 0-.02-.02 0 0 .01-.01.01-.02.01-.04-.02-.04-.02-.06s.04 0 .04-.05c0 0 0-.02-.02-.02s.02 0 .03-.01c-.03 0-.02-.02-.02-.04 0 0 .02-.02.01-.04 0 .01-.04.03-.05 0 0 0 0-.02-.03-.01-.05 0-.08 0-.17-.01.1 0 .26-.03.26-.09m-1.13.77s0-.02.01-.02.02 0 .02-.01 0-.02-.02-.02c.01 0 .02 0 .01-.01h-.02l.02-.01.05.02v.03s0-.01-.01-.02v.02h-.03v.04s-.02.03-.03.02c-.02-.01-.02-.03 0-.04m.06-.12s-.03.02-.04.01 0-.02-.01-.04c.02.01.04.03.05.03m.04.02s.04.02.06.02c-.03 0-.02.01-.04.01s-.02-.02-.02-.04m1.13.12s-.05-.08-.2-.08-.63.06-.63-.03c0-.05.16-.03.27-.03 0 0 .02.02.03.02.2.06.41-.08.55-.03-.11-.1-.25.01-.41-.02.09 0 .18-.02.18-.04-.07.04-.26-.03-.35.02H14c-.14.01-.33-.01-.33.08 0 .15.54.06.67.06s.15.01.15.04c0 .04-.13.04-.2.04-.12 0-.63-.06-.82 0 .01-.03.06-.08.04-.11.02 0 .03-.02.03-.04-.01-.01-.02-.02-.04-.02v-.03s0-.02-.01-.03c0 0-.02-.02-.05-.03-.02 0-.04 0-.05-.01h-.03s-.02 0-.03.01c0 0-.02-.01-.03-.01 0 .02-.01.03 0 .05-.02 0-.04.05-.05.04 0 .01.01.02.02.02-.01.03-.02.06-.04.06l.02.02v.05h-.07s-.04-.04-.08-.06c-.03-.02-.03-.03-.03-.06s.01-.05.01-.07v-.02s-.03-.03-.04-.03c0 0 .01.01.02.03h-.01v.05s-.02-.05-.03-.05h-.01s-.02-.03-.04-.01h.02v.02s.01.03.04.03c-.03-.02-.05 0-.05.02s-.02.04 0 .05V8.2H13s-.02.04.01.05c0 .04-.06.03-.06 0-.03.05.02.09.07.06 0 0 0 .01.01.02 0 .01 0 .03.02.03v-.02s.04.06.1.09c.01 0 .03 0 .04-.02h.01s.02.07.01.07h-.13s-.1.04-.12.01c0 0 0-.02-.01-.03 0-.01-.02-.02-.02-.02h-.02s-.04-.01-.05 0c0 0 .02 0 .03.02s0 .03.04.05h-.02s-.02-.03-.04-.02h-.01s-.05.02-.04.05c0 0 0-.02.02-.02s.01.05.06.01c-.01.02-.04.04-.02.05h.01s.02.05.04.04c0 0-.02-.02-.01-.04h.01s.01-.04.02-.04c0 0 0 .04.03.03.02 0 .04-.02.03-.04 0 0 .02.01.01.03 0 0 .01 0 .02-.02 0 .01 0 .03-.01.05 0 0 .04-.02.04-.04s.05.01.05.01v.03s0-.01.01-.01c0 0 0 .03.01.04 0-.07.09-.03.13-.06 0 0 0 .02-.02.02.01 0 .04 0 .06-.02l.07-.03v-.02h.02s.04-.03.06-.03c.25.03.11-.11.41-.08.01 0 .02 0 .03-.02-.02.03-.02.08.01.08.01 0 .04.01.05.02-.02 0-.04 0-.04.01-.05.03-.05-.07-.09-.05h-.01s-.05.02-.04.04c0 0 .02-.02.03-.02s0 .03.02.03h.02s-.06 0-.05.04v.02s.01.03.04.02c0 0-.02-.01-.01-.02h.01v.03s.02.04.05.02c0 0-.02 0-.03-.01h.01v-.02h.01s.02.02.04.02c.03-.01 0-.04.03-.05h.09s0-.06-.02-.07c-.02 0 0-.03-.01-.05.03.01.06.02.1.02.07 0 .09-.01.12-.03.03-.02.07 0 .08 0 0 0 .02 0 .01.02v.06h-.06c-.01 0-.02 0-.02.01-.02 0-.04.02-.04.04 0 0 .02-.01.03-.02 0 .03.03.03.04.02-.01.01-.04.04-.02.04h.01s.01.03.02.03v-.03h.01s0-.03.03-.04v.04h.01s.02.02.04.01c0 0-.02 0-.02-.01 0 0 .01-.01.01-.02.01-.04-.02-.04-.02-.05 0-.02.04 0 .04-.04 0 0 0-.02-.02-.02s.02 0 .03-.01c-.03 0-.02-.02-.02-.04 0 0 .01-.02.01-.04 0 .01-.04.03-.04 0 0 0 0-.02-.03-.01-.05 0-.08 0-.17-.01.09 0 .25-.02.25-.08l.16.06Zm.98 1.02s.01-.02.02-.02.02 0 .02-.01 0-.02-.02-.02c.01 0 .02 0 .01-.01h-.02l.02-.01.05.02v.03s0-.01-.01-.02v.02s-.02-.01-.03 0v.05s-.02.02-.03.02c-.02 0-.02-.03-.01-.04m.06-.12s-.02.03-.04.01c-.01-.01 0-.02-.01-.04.02 0 .04.03.05.03m.04.02s.04.02.06.02c-.03 0-.02.02-.04.02s-.02-.02-.02-.04m1.11.29s.02-.02.02-.04c0 .01-.04.03-.04 0 0 0 0-.02-.03-.01-.05 0-.09 0-.18-.01.09 0 .25-.02.25-.08 0-.05-.05-.08-.2-.08s-.63.06-.63-.03c0-.05.16-.03.27-.03 0 0 .02.02.03.02.2.06.43-.09.55-.06-.15-.05-.25.04-.41 0 .09 0 .18-.02.18-.04-.07.04-.26-.03-.35.02h-.01c-.14.01-.33-.01-.33.08 0 .15.54.06.67.06s.16.01.16.04c0 .04-.13.05-.2.05-.12 0-.63-.07-.82 0 .01-.03.06-.08.04-.11.02 0 .03-.02.03-.04-.01-.01-.02-.02-.04-.02v-.03s0-.02-.01-.03c0 0-.02-.02-.04-.03-.02-.01-.04 0-.05-.01h-.03s-.02 0-.03.01l-.04-.02s-.01.03 0 .05c-.02 0-.04.05-.05.04 0 .01.01.02.02.02-.01.03-.02.06-.04.06.01.01.02.02.03.02v.04h-.07s-.04-.04-.08-.06c-.03-.02-.03-.03-.03-.06s.01-.05.01-.07v-.02s-.03-.03-.04-.03c0 0 .01.01.02.03h-.01v.05s-.02-.05-.03-.05h-.01s-.02-.03-.04-.01h.02v.02s.01.03.03.03c-.03-.02-.05 0-.05.02s-.01.04 0 .05v-.02h.02s-.02.05.01.05c0 .04-.06.03-.06 0-.03.05.02.09.07.06 0 0 0 .02.01.02 0 .01 0 .03.02.03V9.4s.04.06.1.1c0 0 .02-.02.04-.02 0 .01 0 .02.02.03h.01s.03.05.02.05h-.09s-.1.04-.12.01c0-.01 0-.02-.01-.04 0-.01-.02-.02-.02-.02h-.02s-.04-.01-.05 0c0 0 .02 0 .03.02s0 .03.04.05h-.02s-.02-.03-.04-.02h-.01s-.05.02-.04.05c0 0 0-.02.02-.02s.01.05.06.02c-.01.02-.04.04-.02.05 0 .03.02.05.04.04 0 0-.02-.02-.02-.04h.01s.01-.04.02-.04c0 .01 0 .04.03.03.02 0 .04-.02.03-.04 0 0 .02.02.01.03l.02-.02s0 .03-.01.05c.01 0 .04-.02.04-.05s.05.01.05.01v.03s0-.01.01-.01c0 0 0 .03.02.04 0-.07.04-.04.08-.07 0 0 0 .02-.02.02.02.01.08-.03.08-.05 0 0 .02 0 .04-.01.04 0 .04-.03.05-.03.25.03.11-.11.41-.08.01 0 .02-.02.03-.03-.02.03-.02.09.01.09.01 0 .04.01.05.02-.02 0-.04 0-.04.01-.04.03-.05-.07-.09-.05 0 0-.01 0-.01.01-.02 0-.05.02-.04.04 0 0 .02-.02.03-.02s0 .03.02.03h.02s-.06 0-.05.04v.02s0 .03.04.02c0 0-.01-.01-.01-.02h.01v.03s.02.04.05.02c0 0-.02 0-.03-.01h.01v-.02h.01s.02.02.04.02c.03-.01 0-.04.03-.04h.09s0-.06-.02-.07c-.02 0 0-.03-.01-.05.03.01.06.02.09.02.07 0 .09 0 .12-.03.04-.02.07-.01.09 0 0 0 .01 0 .01.02-.01.04 0 .04 0 .06 0 .01-.04 0-.06 0h-.02s-.04.02-.04.04c0 0 .02-.01.03-.02s.03.04.04.02c-.02.01-.04.03-.02.04h.01s0 .03.02.03v-.03h.01s.01-.03.03-.04c0 .02-.01.04 0 .04h.01s.02.02.04.01c0 0-.02 0-.02-.01 0 0 .01-.01.01-.02.01-.04-.02-.04-.02-.05 0-.02.04 0 .04-.04 0 0 0-.02-.01-.02s.02 0 .03-.01c-.03 0-.02-.02-.02-.04m-.95.49s-.02-.02-.02-.04c0 0 .04.02.06.02-.03 0-.02.02-.04.02m-.02.03s0-.01-.01-.02V10h-.03v.04s-.02.02-.03.02c-.02 0-.01-.03 0-.04 0-.01 0-.02.01-.02s.02 0 .02-.01 0-.02-.02-.02c.01 0 .02 0 .01-.01h-.02l.01-.01.05.02V10m-.03-.09s-.02.02-.04.01c-.01-.01 0-.02-.01-.04.01.01.04.03.05.03m.48 0s.01.02.03.02c.19.05.41-.09.52-.05-.15-.05-.24.04-.39 0 .08 0 .17-.02.17-.04-.06.04-.25-.03-.33.02h-.01c-.1 0-.19 0-.19.06 0 .14.4.06.52.06s.11.01.11.04-.14.04-.21.04c-.1 0-.43-.05-.62-.02.02-.03.05-.07.03-.09.02 0 .03-.02.03-.04-.01 0-.02-.01-.04-.02v-.03s0-.02-.01-.02c0 0-.02-.02-.04-.03-.02-.01-.03-.01-.04-.01h-.03s-.02 0-.02.01c0 0-.02-.01-.03-.01 0 .02-.01.03 0 .05-.02 0-.03.05-.05.04 0 .01.01.02.02.02-.01.03-.02.06-.04.06 0 0 0 .01.01.02v.05h-.02s-.04 0-.08-.02c-.03-.02-.03-.03-.03-.06s.01-.05.01-.07v-.02s-.03-.03-.04-.02l.02.02h-.01v.05s-.01-.04-.03-.04h-.01s-.02-.03-.04-.01h.02v.02s.01.03.03.03c-.03-.01-.05 0-.05.02s-.02.04 0 .05v-.02h.03s-.02.04 0 .05c0 .04-.06.03-.05 0-.03.05.02.08.06.06 0 0 0 .01.01.02 0 0 0 .02.02.03v-.02s0-.02.06 0c0 0 0 .01.02.02h.04v.06h-.08s-.09.04-.11.01c0 0 0-.02-.01-.03l-.02-.02h-.02s-.04-.01-.05 0c0 0 .02 0 .03.02s0 .03.04.05h-.02s-.02-.03-.04-.02h-.01s-.05.02-.03.04c0 0 0-.02.02-.02s.01.05.06.01c-.01.02-.04.04-.02.05 0 .02.02.04.04.04 0 0-.02-.02-.01-.04h.01s.01-.03.02-.04c0 .01 0 .03.03.03.02 0 .04-.02.03-.04 0 0 .01.01.01.03 0 0 .01 0 .02-.02 0 .01 0 .03-.01.04.01 0 .04-.02.04-.04s.05.01.05.01v.03s0-.01.01-.01c0 0 0 .03.01.04 0-.06.06-.05.1-.07 0 0 0 .02-.02.02.04.03.09-.03.1-.06h.01v.01c.04 0 .04-.03.05-.03.13.01.03-.11.23-.07.01 0 .04-.01.05-.02-.01.03-.02.08.01.09.01 0 .04.01.05.02-.02 0-.03 0-.04.01-.04.03-.04-.06-.09-.05h-.01s-.04.02-.04.04c0 0 .02-.01.03-.02s0 .02.02.02h.02s-.06 0-.05.04.01.04.04.03c0 0-.01-.01-.01-.02h.01v.02s.02.04.05.02c0 0-.02 0-.03-.01h.01v-.02h.01s.02.02.04.02c.03-.01 0-.04.03-.04h.09s0-.06-.02-.07c-.02 0 0-.03-.01-.05.03.01.05.02.09.02.07 0 .1 0 .13-.03.04-.02.07-.01.08 0 0 0 .01 0 0 .02-.02.03 0 .04-.02.05-.01.01-.04 0-.06 0h-.02s-.04.02-.04.04c0 0 .02-.01.03-.02 0 .02.02.03.04.01-.02.01-.05.03-.03.04h.01s0 .03.01.03v-.03h.01s.02-.03.03-.04c-.01.02-.02.04 0 .04h.01s.02.02.04.01c0 0-.01 0-.01-.01 0 0 .01-.01.01-.02.02-.04-.01-.04 0-.05 0-.02.04 0 .05-.04v-.02s.02 0 .03-.01c-.03 0-.01-.02-.01-.03.01 0 .02-.02.02-.04-.01.01-.04.03-.04 0 0 0 0-.02-.02-.01-.04 0-.11 0-.19-.01.08 0 .25-.02.25-.07 0-.04 0-.07-.15-.07s-.48.05-.48-.03c0-.04.06-.04.14-.03m-.49.9s0-.02.01-.02c0 0 .01 0 .02-.01 0-.01 0-.02-.02-.02.01 0 .02 0 .01-.01h-.02l.01-.01.04.02v.02s0-.01-.01-.01-.02.01-.02.01v.04s-.02.02-.03.02c-.02 0-.01-.03 0-.03m.05-.11s-.02.02-.03.01c-.01-.01 0-.01-.01-.04.01 0 .04.02.05.03m.03.02s.04.02.05.02c-.02 0-.02.01-.03.01-.02 0-.02-.02-.02-.04m.36-.02s.01.02.03.02c.19.05.41-.09.52-.06-.15-.05-.24.04-.39 0 .08 0 .17-.02.17-.04-.06.04-.24-.03-.33.02 0 0-.01 0-.01.01-.06.01-.11.04-.11.09 0 .12.49.03.49.07 0 .03-.09.06-.22.06-.1 0-.26-.06-.48-.01s.06-.09.04-.11c.02 0 .03-.02.03-.03s-.02-.01-.03-.02v-.05s-.02-.02-.04-.03c-.02 0-.03 0-.04-.01h-.04s-.02-.01-.03-.01c0 .02-.01.03 0 .05-.02 0-.03.04-.05.04 0 .01.01.02.02.02-.01.03-.02.05-.04.06l.02.02s-.01.08 0 .12c-.03-.03-.07-.1-.1-.12-.03-.02-.03-.03-.03-.06 0-.02.01-.04 0-.07v-.02s-.02-.03-.04-.02l.02.02h-.01v.04s-.01-.04-.03-.04h-.01s-.02-.03-.04 0h.02v.02s.01.02.03.02c-.03-.01-.05 0-.05.01s-.01.03 0 .05v-.02h.02s-.02.04 0 .05c0 .04-.05.03-.05 0-.03.04.02.08.06.06 0 0 0 .01.01.01 0 0 0 .02.02.03v-.02s0 .06.05.09c0 .03.04.05.07.05 0 .02.02.04.02.04h-.09s-.04.02-.06.02-.04 0-.05-.01c0 0 0-.02-.01-.03 0 0-.01-.02-.02-.02h-.02s-.03-.01-.04 0c0 0 .02 0 .02.02s0 .03.04.05h-.02s-.02-.03-.04-.02h-.01s-.04.02-.03.04c0 0 0-.02.02-.02s.01.05.05.01c0 .02-.04.03-.02.05 0 .02.02.04.03.04 0 0-.02-.02-.01-.04h.01s0-.03.02-.04c0 0 0 .03.03.03.02 0 .03-.02.03-.03 0 0 .02.01.01.03 0 0 .01 0 .02-.02v.04s.03-.01.04-.04.05.01.05.01v.02s0-.01.01-.01c0 0 0 .02.01.04 0-.06.04-.04.08-.06 0 0 0 .01-.02.02.01 0 .06-.02.06-.04 0 0 .03-.03.04-.1h.02c.05 0 .07-.04.12-.04-.01.01-.02.05-.02.07 0 .03.04.06.05.07h-.04s-.04-.06-.09-.05h-.01s-.04.02-.04.04c0 0 .01-.01.03-.02s0 .02.02.02h.02s-.05 0-.04.04.01.04.03.03c0 0-.01 0-.01-.02h.01s.02.04.05.03c0 0-.02 0-.02-.01h.01v-.02h.01s.02.02.03.01c.03 0 0-.03.03-.04h.02s.04.01.05 0c0-.01 0-.05-.02-.07-.01 0 .02-.1-.05-.14.03 0 .14.02.16 0 .03 0 .07.03.07.04v.02s-.02.03-.04.03-.02-.02-.03-.03h-.02s-.04 0-.04.02h.03s-.05.01-.04.02-.01.04 0 .05c0 0 0-.01.02-.02 0 0 .03-.02.04 0-.02 0-.03.02-.02.03s0 .04.02.05v-.02h.02s.01-.04.02-.05.03.02.05 0v-.02s.01.02.02 0c-.02-.02 0-.02 0-.04 0 0 .02 0 .03-.02-.01 0-.05-.02-.03-.03.03-.01.04-.03.02-.05-.03-.03-.08-.04-.08-.07h.05c.16 0 .26-.04.26-.1 0-.11-.5 0-.5-.07 0-.02.03-.04.07-.05M8 2.05c0-.06-.05-.12-.12-.12s-.12.05-.12.12.05.12.12.12.12-.05.12-.12m-.04-.32c0-.06-.05-.12-.12-.12s-.12.05-.12.12.05.12.12.12.12-.05.12-.12m.07-.14c.06 0 .12-.05.12-.12s-.05-.12-.12-.12-.12.05-.12.12.05.12.12.12m.32-.02c.06 0 .12-.05.12-.12s-.05-.12-.12-.12-.12.05-.12.12.05.12.12.12m1.34-.22s.12.05.16 0c.04-.04.04-.12 0-.16-.05-.05-.12-.05-.16 0-.05.05-.05.12 0 .17m-.02-.25s.05-.12 0-.16C9.62.9 9.55.9 9.51.95c-.05.04-.05.12 0 .16.05.05.12.05.16 0m-.32-.06s.05-.12 0-.16c-.04-.05-.12-.05-.17 0-.05.05-.05.12 0 .17s.12.05.16 0m-.25.19s.05-.12 0-.16c-.04-.05-.12-.05-.17 0-.05.05-.05.12 0 .17.05.04.12.04.16 0m-.75-.17.09.2.12-.14h.01c.01.07.01.19.01.25 0 .08.07.15.15.15s.15-.07.15-.15c0-.06-.03-.11-.08-.13a.572.572 0 0 1-.16-.15V1.1l.2.02-.08-.21-.15.13V.82L8.38.9l.14.16v.02l-.18.02h-.01Z"/>
    <path d="M9.7 1.45c.05.07.06.1.06.16a.254.254 0 0 1-.12-.11l.02.27s.06-.08.1-.1c0 .18-.08.25-.14.26-.07.01-.13-.03-.14-.09-.01-.08.05-.13.12-.06.01-.16-.12-.16-.18-.09.07-.16.04-.26-.1-.36-.09.15-.05.24.06.37-.11-.05-.2.04-.11.16.02-.1.11-.08.13 0 .02.07-.05.16-.17.2-.17.05-.22-.06-.26-.15.04-.02.12-.02.22.05l-.08-.27c-.04.09-.09.13-.16.16 0-.08.05-.23.05-.23l-.33.13s.15.07.2.13c-.07.03-.13.04-.23 0l.13.25c.03-.11.08-.18.12-.19.03.09.07.21-.08.3-.11.06-.22.04-.26-.03s0-.15.09-.09c-.01-.15-.15-.15-.19-.04 0-.16-.04-.25-.21-.31-.04.16.01.25.17.33-.09-.01-.19.08-.06.19 0-.1.08-.11.13-.04.03.05.03.12-.04.16-.05.03-.15.03-.29-.09.04-.02.08 0 .14 0l-.17-.21c0 .08 0 .13-.01.16-.04-.04-.05-.08-.07-.16l-.13.12c.12.08.27.19.45.44.46-.28.97-.48 1.5-.6-.04-.3-.02-.49.01-.63h-.18.03Zm.38 1.59c-.16.13-.39.01-.49-.16.22-.09.49-.2.67-.31-.16.25-.05.37-.18.47m-.04 1.72c-.21.09-.38-.09-.42-.22-.04-.13-.07-.23-.03-.29.09-.09.12-.16.06-.27-.06-.13-.2-.07-.36-.03.07-.12.07-.21-.02-.2-.11.01-.11.19-.18.17-.06-.02-.03-.13-.03-.18 0-.08.05-.1.13-.14l.62-.23c.08-.03.13-.04.19.01.04.04.14.09.11.15-.03.06-.16-.07-.25 0-.08.06 0 .12.13.16-.13.08-.27.13-.23.26.04.12.11.15.23.15.07 0 .12.1.17.22.06.12.08.34-.15.44M8.83 3.51c-.16.01-.16-.14-.46-.21.2-.04.47-.14.7-.23.04.19-.03.43-.24.45m3.44 5.51c.05-.12-.18-.27-.21-.45s0-.36-.21-.6c-.2-.23-.92-1-1.13-1.24.05 0 .18-.03.32.09.08.07.22.21.37.36.19-.48.42-.83.75-1.21.04-.05.08-.09.13-.14-.12.04-.32.06-.42.14 0-.2 0-.38-.13-.51.05-.3 0-.64-.65-1.08.34.08.53.39.78.15-.23 0-.23-.51-1.07-.93.32 0 .56.51.93.21-.35-.04-.46-.65-1.08-.85.21.02.44.13.62-.12-.21.05-.35-.15-.57-.16.09-.26.07-.44-.03-.63-.16.01-.33.06-.45.16-.02-.15-.17-.15-.32-.14 0 .06.04.15-.03.17-.11.02-.48.12-.76.23-.29.11-.61.32-.7.38-.06.04-.11-.05-.14-.1-.1.08-.2.19-.12.31-.16.01-.34.05-.48.17 0 .18.15.37.38.47-.39.39-.04.73-.38 1.07.48.02.4-.64.63-.73-.02.47-.29.55-.29 1.05 0 .26.16.56.02.73.4-.11.3-.99.54-1.25.04.15.02.3-.03.45-.14.41.02.98-.2 1.15.41-.04.46-.69.79-.93-.29.59-.58 1.83-1.01 2.46-.69.94-1.1 2.08-1.74 2.08-.29 0-.49-.17-.49-.53 0-1.06 1.82-1.79 1.82-2.92 0-.5-.41-.69-.67-.69-.17 0-.39.08-.56.23a.537.537 0 0 0-.21-.05c-.64 0-.47 1.16-1.04 1.15.22.12.61-.12.83-.44-.09.75-1.17.55-1.09 1.46.15-.7 1.87-.6 1.87-1.67a.42.42 0 0 0-.15-.31c.13-.08.25-.11.37-.11.2 0 .4.15.4.46 0 .95-1.81 1.75-1.81 2.91 0 .19.06.36.15.49-.12.05-.25.03-.37-.1-.01.3.42.49.69.34.06.02.12.03.18.04-.08.22-.36.29-.5.27.45.35 1.22-.11 1.18-.51.36-.29.58-.77.83-1.09-.02.07-.03.15-.04.22-.26.47-.5.9-.57 1.52-.06.52-.32.99-.68.99-.08 0-.21-.1-.27-.05-.11.1 0 .2 0 .3 0 .15-.29.3-.29.75 0 .2.12.45.07.59.11-.06.27-.25.34-.51.12.6-.25.58.02 1.11.03-.17.21-.25.32-.17.11.07.06.12-.02.2s-.15.48.21.46c-.07-.04-.07-.15.11-.19.25-.05.33.06.59.06.16 0 .21-.21.35-.21s.13.1.08.17c.21-.06.25-.17.25-.3s-.1-.19-.02-.23c.07-.05.32 0 .22.2.12-.02.19-.11.19-.26s-.17-.24-.35-.21c-.03-.1-.17-.15-.31-.15-.3 0-.25.23-.46.23-.33 0-.64-.43-.64-1.14 0-.39.41-.48.7-.6s.8-.44 1.11-.96c.24-.4.24-.85.21-1.36.41.23.46.57.46.82 0 .32-.16.45-.3.51-.11.05-.15.03-.16.09-.01.08.04.13.09.15.15.07.12.21.16.37s.18.4.41.57c.02-.09.02-.24 0-.45.32.15.06.79.67.79-.11-.06-.08-.23-.02-.25.06-.02.14.04.26.2s.09.15.38.15.16-.1.32-.1.14.17.06.31c.25-.08.34-.27.25-.48.22-.12.35.05.39.17.22-.22 0-.5-.17-.52 0-.08-.07-.17-.16-.17s-.18-.01-.29 0c-.1 0-.16.16-.29.16-.39 0-1.14-.69-1.14-1s.72-.49.72-.95c0-.61-.6-.81-1.11-1.21.18-.2.7-.25 1.01-.1.03-.17.14-.13.18-.42.1.25 0 .48.1.59.08-.12.31-.1.29-.43.07.2-.08.51.07.64.03-.16.12-.19.18-.19s.11.04.11.14c0 .24-.31.13-.31.41 0 .11.14.15.14.23s-.12.19-.26.09c.05.1.14.2.27.2s.27-.11.34-.24c.07.17.02.37-.11.4.13.06.45 0 .41-.4.17.03.27.15.16.37.14-.04.27-.11.27-.26 0-.12-.13-.15-.07-.32M24 11.95c0-.21.17-.38.39-.38a.38.38 0 1 1 0 .76c-.2 0-.39-.17-.39-.38m-.13 0c0 .29.23.51.51.51s.51-.23.51-.51-.23-.51-.51-.51-.51.23-.51.51m-1.68.93c-.14-.03-.24-.13-.23-.24 0-.05.04-.09.07-.1.06-.04.14-.05.22-.04.13.02.23.12.23.21v.03c-.02.11-.15.17-.3.14m-.23-.46c-.07.05-.11.11-.12.19-.02.09.01.18.08.25.14.15.36.19.54.1.09-.05.14-.12.16-.21.03-.18-.12-.36-.34-.4-.12-.02-.23 0-.33.06m-2.85-6.88c0-.07.04-.14.11-.19.06-.04.13-.07.19-.06.03 0 .07.02.09.05.03.04.03.08.03.1 0 .06-.05.13-.1.17-.1.08-.23.08-.3 0a.114.114 0 0 1-.03-.08m.03-.3c-.16.12-.2.34-.1.47s.32.13.48.01c.09-.07.14-.16.15-.26 0-.07 0-.15-.05-.2a.274.274 0 0 0-.18-.1c-.1-.01-.2.02-.3.08Zm2.41 6.93c-.05 0-.09-.03-.11-.05a.323.323 0 0 1-.08-.21c0-.08.03-.16.08-.21.02-.02.06-.05.12-.05.11 0 .19.12.19.27 0 .08-.03.16-.08.21-.02.02-.06.05-.11.05m-.2-.58c-.08.07-.12.18-.12.31s.04.23.11.32c.06.06.13.09.2.09.08 0 .15-.03.21-.08.08-.07.12-.18.12-.31 0-.1-.03-.2-.08-.27a.321.321 0 0 0-.23-.13c-.08 0-.15.03-.21.09m-2.4-3.67c-.13-.06-.2-.19-.15-.3.02-.05.06-.07.1-.08.07-.02.15-.02.23.02s.13.1.16.16c.01.03.02.08 0 .13s-.06.07-.1.08c-.07.02-.15.02-.23-.02m-.1-.5c-.08.03-.14.08-.17.15-.08.16.02.38.21.47.11.05.23.06.34.03.08-.03.14-.08.17-.15a.28.28 0 0 0 0-.22.449.449 0 0 0-.55-.27"/>
    <path d="M22.61 9.74c-.08.12-.22.16-.32.09s-.1-.21-.02-.34.22-.16.32-.09c.09.06.1.21.02.34m-.6.96c-.08.12-.22.16-.33.09-.09-.06-.1-.21-.02-.34s.22-.16.32-.09.1.21.02.34m-2.07-5.21c.07-.22.2-.66.2-.66l.23.09c-.07.03-.15.09-.22.16.05.02.14.03.21-.02l-.09.23s-.09-.12-.15-.13c-.05.18.07.25.15.31.14.07.23.08.27.02.04-.08-.05-.19-.16-.14-.01-.12.05-.18.13-.18.06 0 .11.06.13.13 0-.19.08-.36.26-.41.07.19.01.33-.13.46.07-.03.16-.03.19.03.04.07.03.16-.08.21-.02-.13-.17-.14-.21-.05-.04.08.02.16.15.23.15.08.27.03.36-.1-.05-.02-.13 0-.21.04l.15-.29s.03.11.1.17c.02-.06.06-.18 0-.29l.34.19c-.11.01-.19.09-.23.15.08.03.15.01.19 0l-.17.27c0-.08-.02-.15-.07-.21-.07.13-.06.26.09.36.13.08.22.09.27.02.05-.08-.03-.2-.15-.16 0-.12.07-.18.14-.17.06 0 .11.08.12.16.05-.19.13-.31.34-.35.04.18-.05.35-.22.44.08-.02.15 0 .18.05.04.07.02.16-.09.21-.02-.13-.16-.15-.2-.07-.04.07.02.14.15.22.08.05.2.12.34-.02-.04-.05-.15-.06-.19-.06l.15-.19c0 .08.05.15.09.19.02-.1.04-.2.03-.27l.19.15s-.32.34-.47.51L19.92 5.5v-.03Zm2.5 2.85s.01-.08.05-.11c.04-.04.08-.04.12-.04.07 0 .15.04.21.1s.09.14.09.21c0 .03-.01.08-.05.11s-.08.04-.12.04c-.07 0-.15-.04-.2-.1a.288.288 0 0 1-.09-.21m.92 4.22c.01-.08.06-.15.13-.18.07-.05.15-.06.22-.05.03 0 .08.03.11.07s.03.09.02.12c-.01.08-.06.15-.13.18-.12.08-.27.07-.34-.02-.03-.04-.03-.08-.02-.12m-4.37-6.35c0 .07-.03.14-.08.18-.02.02-.05.04-.1.04-.08 0-.15-.1-.15-.22v-.02c0-.07.03-.14.08-.18.02-.02.05-.04.1-.04.04 0 .07.03.09.05.04.04.06.11.06.18m1.35-2.77c.07-.13 0-.35.25-.35.12 0 .23.12.38.17-.24.02-.46.07-.63.17m3.93 3.47c.16.46.5.62.75.51-.57-.06-.11-1.03-.83-1.03-.04 0-.08 0-.12.01-.12-.13-.26-.18-.47-.18-.31 0-.83.3-.83.91 0 1.32 1.54 1.44 1.54 2.61 0 .35-.25.55-.55.55-.25 0-.47-.29-.68-.74-.1-.21-.33-.51-.56-.81.07.05.15.08.22.08.08 0 .16-.02.21-.08.05-.05.09-.12.09-.2 0-.11-.04-.22-.12-.31a.41.41 0 0 0-.31-.14c-.08 0-.16.03-.21.08s-.09.12-.09.2c0 .06 0 .1.02.14-.33-.43-.64-.86-.64-1.09 0-.2.14-.39.32-.6l.06.03.05-.05c.06-.07.19-.2.46-.49l.02-.02.06-.07-.16-.13c.04-.1.08-.2.11-.33.05.21.16.35.31.31-.1-.22.1-.51-.03-1.05.12.2.31.32.44.27-.34-.31.1-.72-.35-1.37.14.05.24.02.31-.05-.41-.06-.22-.57-.93-.75.17-.03.29-.13.25-.22-.18.13-.35-.25-.97-.24-.04-.23-.25-.47-.49-.59.04.17 0 .34-.04.47L19.09.55C19.03.5 19 .48 18.99.5c-.02.02-.01.06.02.09l1.72 2.16c-.13.04-.25.1-.39.15-.08.03-.15.11-.15.22-.32.16-.6.36-.73.48-.1.09-.19.12-.1.34.04.08-.07.29.17.13.16-.1.53-.31.59-.17.03.07-.15.15-.27.2-.12.05-.26.14-.24.19s.12 0 .12.05c0 .06.05.11.1.11s.11-.1.15-.07c.04.03-.02.27-.06.33.19-.02.32-.21.33-.36 0-.14.04-.18.07-.2.03-.02.06.15.02.26.1-.02.21-.15.19-.41.05-.04.1-.07.14-.07.06 0 .19.18.38.18.34 0 .53-.27.55-.41.02-.1 0-.2-.05-.29.12.1.16.25.16.37 0 .48-.86.71-1.2 1.04-.01.01-.03.02-.04.04l-.4-.15-.03.09s0 .02-.02.07c-.04.13-.13.42-.18.59l-.02.06.04.02c-.23.32-.43.67-.47 1.03-.09-.1-.18-.18-.3-.26.04-.14.02-.28-.07-.4-.05-.05-.11-.09-.18-.09s-.14.02-.19.07c-.01.01-.02.02-.03.04-.01-.01-.03-.02-.04-.03-.13-.1-.3-.22-.4-.34-.04-.05-.08-.07-.17-.07h-.17c-.05 0-.09.04-.16.1-.03.03-.12.1-.22.18.05.05.1.1.14.15.02.03.05.06.07.09.03-.02.05-.04.07-.05.04-.03.1-.04.15-.04s.12.04.17.11c.04.05.36.48.63.77-.03 0-.06.02-.08.03-.11.05-.38.04-.49.03-.11 0-.14-.04-.21.08-.03.05-.07.1-.1.15-.04.05-.07.1.01.23.12.2.41.72.51.97.1.23.21.27.4.36s.51.25.54.31v-.18c-.04-.05-.22-.12-.29-.14-.07-.02-.08-.05 0-.05s.31.08.46.14c-.05-.18-.21-.38-.32-.48-.13-.04-.27-.04-.33 0 0 .04-.02.08-.07.08s-.09-.04-.07-.09.1-.07.08-.17c-.02-.1-.14-.12-.22-.13-.11-.16-.24-.41-.31-.51s-.02-.15.02-.18c.1-.08.31.04.71.07.14 0 .33.02.5.03.05.47.24.93.9 1.09.33.08.65.32.76.62-1.31-.02-1.52.49-1.52.98 0 .55.46.52.46.93 0 .36-1.1.51-1.44.56-.29.04-.45.1-.58.24-.13.13-.27.26-.52.51 0 0 .1.02.21.02l.18-.24c.05-.08.09-.15.13-.14.04 0 .01.07-.03.15l-.15.25c.65.04.69-.19.69-.3s-.16-.16-.07-.22.17-.02.24.07.1.16.27.09c0 0 1.42-.58 1.59-.66.16-.07.11-.14.02-.22-.1-.09-.12-.22-.12-.38 0-.43.25-.56.71-.55 0 .07-.01.14-.01.2 0 .67 1.01 1.32 1.28 1.32.12 0 .29-.09.3.32 0 .3.07.51.01.85-.05.35-.15.4-.36.54-.2.14-.4.6-.49.69.09.06.19.07.26-.15.06-.18.13-.32.21-.36-.08.2-.14.5-.17.58.25.04.67-.19.67-.38s-.14-.16-.14-.29c0-.05.06-.11.14-.11.1 0 .18.08.19.12.11-.06.18-.17.18-.44 0-.1 0-.21-.01-.33 0 .01.01.03.02.04.05.08.13.12.23.13.1 0 .2-.03.29-.08.1-.07.17-.16.19-.27v-.06c0-.06-.02-.11-.05-.16a.247.247 0 0 0-.19-.12.456.456 0 0 0-.51.31c-.02-.37-.05-.7-.04-.85.01-.2.02-.3-.05-.33s-.14.08-.24.08-.4-.27-.4-.56.32-.66.3-1.06c0-.12.07-.18.12-.07.06.13.15.32.29.47-.08.5.47.98.92.62-.22.03-.38-.16-.47-.37.04 0 .08.01.12.01h.07c.15.19.66.18.78-.31a.5.5 0 0 1-.4.16c.19-.14.29-.39.29-.64 0-1.26-1.53-1.41-1.53-2.56 0-.43.38-.7.63-.7.1 0 .17.03.23.07-.1.1-.15.25-.14.44.04.91 1.52.86 1.54 1.29.16-.65-.94-.45-.98-1.33"/>
</svg>
<svg class="ons-u-di" xmlns="http://www.w3.org/2000/svg" focusable="false" width="106" height="56" viewBox="0 0 106 56" aria-labelledby="finance-ni-logo-alt">
    <title id="finance-ni-logo-alt">Northern Ireland Department of Finance logo</title>
    <path d="M43.06 8.39h-9.18v.54h1.57v11.69h-1.57v.55h5.33v-.51h-1.57v-5.65h.52c1.67 0 1.95.29 2.08 2.43v.1h.42v-5.39h-.42v.07c-.05 1.59-.29 2.03-1.2 2.21-.46.05-.93.08-1.39.08V9h1.08c.67-.04 1.35-.02 2.02.05.46.09.87.33 1.17.68.46.52.68 1.06.95 2.32v.08h.41l-.22-3.73Zm3.33 5.2h-3.16v.57h1.27v6.53h-1.27v.54h4.42v-.54h-1.26v-7.1zm-.98-2.62c.64-.01 1.15-.52 1.16-1.16 0-.64-.5-1.17-1.14-1.18h-.04c-.61-.01-1.12.47-1.13 1.08v.11c-.03.61.44 1.13 1.05 1.16h.01l.08-.02Zm10.46 5.59c0-1.45-.1-1.89-.57-2.38a3.075 3.075 0 0 0-4.32.27v-.82h-3.13v.55h1.3v6.5h-1.3v.54h4.29v-.53h-1.13V18.5c0-2.26.1-3.12.46-3.63.3-.43.78-.69 1.3-.71.33 0 .65.14.88.39.29.37.37 1.01.37 3.29v2.85h-1.18v.54h4.32v-.54h-1.3v-4.13Zm8.85 3.86c-.34.29-.37.29-.49.29-.32 0-.34 0-.34-1.67v-2.55c0-1.64 0-1.79-.46-2.26a3.2 3.2 0 0 0-2.32-.83c-1.64 0-3.07.93-3.07 2.01-.01.48.36.88.84.9h.06c.47.01.86-.35.89-.82v-.08c0-.25-.11-.48-.29-.65q-.07-.1-.07-.15c0-.29.68-.71 1.35-.71.35-.02.7.1.96.34.19.22.25.37.25 1.48v1.23c-2.9.07-4.49.98-4.49 2.61 0 1.13.83 1.89 2.11 1.89.97 0 1.88-.49 2.42-1.3.12.79.83 1.35 1.62 1.29.52 0 1.02-.21 1.39-.58l.05-.06-.34-.41-.07.02Zm-2.69-2.97v.29c.05.63-.03 1.26-.25 1.86-.24.51-.74.84-1.3.85a1.01 1.01 0 0 1-1.08-.94v-.24c0-1.16.81-1.74 2.63-1.82Zm11.32-.89c0-1.45-.1-1.89-.56-2.38a3.05 3.05 0 0 0-4.3.27v-.82h-3.16v.55h1.3v6.5h-1.3v.54h4.28v-.53h-1.14V18.5c0-2.26.1-3.12.46-3.63.29-.43.78-.7 1.3-.71.33 0 .65.14.87.39.29.37.37 1.01.37 3.29v2.85h-1.16v.54h4.29v-.54h-1.22l-.03-4.13Zm7.86 2.16c-.46 1.39-1.3 2.11-2.45 2.11-.47.02-.93-.16-1.25-.51-.29-.37-.39-.93-.39-2.32 0-3.41.51-3.95 1.76-3.95.61 0 1.23.29 1.23.49l-.05.07c-.23.26-.36.59-.39.93-.04.51.34.95.85.99h.08c.54 0 .98-.43.99-.97s0-.09 0-.13c0-1.06-1.3-2.01-2.7-2.01a4.008 4.008 0 0 0-3.95 4.06 3.933 3.933 0 0 0 3.71 3.95c1.52 0 2.53-.83 3.25-2.65l.05-.12h-.65l-.08.06Zm7.31-.1c-.34 1.39-1.3 2.19-2.45 2.19a1.59 1.59 0 0 1-1.45-.78c-.22-.4-.25-.76-.25-2.63v-.5h4.93v-.1c-.15-2.06-1.47-3.38-3.41-3.38s-3.65 1.89-3.65 4.02 1.77 4.01 3.71 4.01c1.63.02 3.01-1.17 3.25-2.78v-.09h-.65l-.03.06Zm-4.18-2.28v-.35c0-1.42.4-1.95 1.48-1.95.5-.06.98.22 1.16.69.16.52.21 1.07.15 1.62h-2.78Zm-70.43 8.02-3.48-2.01v-4.07l3.48-2.04 3.48 2.04v4.07l-3.48 2.01zm0 8.12-3.48-2.01V26.4l3.48-2.04 3.48 2.04v4.07l-3.48 2.01zM6.97 12.2l-3.49-2.05V6.09l3.49-2.01 3.46 2.01v4.06L6.97 12.2zm0 8.12-3.49-2.04v-4.05l3.49-2.03 3.46 2.03v4.05l-3.46 2.04z" style="fill:#001f5b"/>
    <path d="M6.97 28.44 3.48 26.4v-4.05l3.49-2.03 3.46 2.03v4.05l-3.46 2.04zM0 16.24V8.12l3.48 2.03v4.08L0 16.24zm0 8.12v-8.12l3.48 2.04v4.07L0 24.36z" style="fill:#001f5b"/>
    <path d="m13.91 8.12-3.48-2.03V2.03L13.91 0l3.48 2.03v4.06l-3.48 2.03zm0 8.12-3.48-2.01v-4.08l3.48-2.03 3.48 2.03v4.08l-3.48 2.01zm6.97-4.04-3.49-2.05V6.09l3.49-2.01 3.48 2.01v4.06l-3.48 2.05zm0 8.12-3.49-2.04v-4.05l3.49-2.03 3.48 2.03v4.05l-3.48 2.04zm0 8.12-3.49-2.04v-4.05l3.49-2.03 3.48 2.03v4.05l-3.48 2.04z" style="fill:#8b9064"/>
    <path d="m27.84 16.24-3.48-2.01v-4.08l3.48-2.03v8.12zm0 8.12-3.48-2.01v-4.07l3.48-2.04v8.12z" style="fill:#8b9064"/>
    <path d="M36.58.46H35.1v4.37h1.64c.51 0 1-.24 1.3-.65.34-.44.52-.99.49-1.55 0-.56-.18-1.1-.53-1.53-.34-.43-.87-.67-1.42-.64Zm-.84.52h.87c.41-.02.81.16 1.05.5.21.34.31.73.3 1.13.02.44-.1.88-.34 1.25-.25.31-.64.49-1.04.46h-.84V.98Zm6.1 2.27c.03-.47-.11-.93-.4-1.3-.26-.3-.63-.47-1.02-.46-.41 0-.8.17-1.09.46-.31.36-.46.83-.41 1.3-.02.45.13.88.41 1.23.27.31.67.48 1.09.46.31 0 .61-.09.87-.26.23-.17.4-.41.48-.69l-.51-.1c-.11.37-.46.62-.84.61-.24 0-.47-.09-.65-.25-.23-.25-.33-.59-.29-.93h2.32l.04-.08Zm-2.32-.39c.01-.24.11-.47.26-.65.16-.19.4-.29.65-.29.17 0 .33.05.46.15.12.09.21.21.28.35.05.15.08.31.1.46l-1.75-.02Zm4.37-1.37c-.42.01-.8.26-.97.65v-.55h-.49v4.32h.54V4.42c.19.33.55.52.93.52.37 0 .71-.17.93-.46.26-.35.39-.78.38-1.22.02-.44-.11-.87-.36-1.24-.21-.32-.57-.52-.95-.52Zm-.1.49c.24 0 .46.12.58.33.17.28.25.6.22.93.04.34-.05.68-.24.96a.727.727 0 0 1-1.09.05.878.878 0 0 1-.29-.58v-.94c.05-.2.15-.39.29-.54.15-.13.33-.2.52-.21Zm4.47 2.2V2.85c.04-.37-.07-.74-.29-1.03-.27-.22-.61-.33-.96-.29-.83 0-1.3.29-1.42.93l.52.1c.08-.37.37-.57.87-.57.16 0 .32.03.46.1.11.05.19.14.25.25.04.17.06.34.06.51h-.41c-.5-.05-.99.06-1.42.32-.26.19-.41.49-.42.81 0 .27.1.52.29.71.23.2.53.31.84.29.47.03.91-.23 1.11-.65-.02.17 0 .33.04.5h.54c-.04-.21-.06-.43-.05-.64Zm-1.52.29a.693.693 0 0 1-.5-.15.46.46 0 0 1-.17-.39c0-.22.12-.42.32-.52.29-.14.61-.21.93-.19.15-.01.31-.01.46 0v.2c-.02.29-.15.57-.37.76-.17.2-.42.32-.69.31v-.02Zm3.77-2.98c-.17 0-.33.07-.46.18-.19.15-.34.35-.42.58v-.64h-.49v3.25h.52V3.12c0-.29.1-.58.29-.8.16-.19.4-.3.65-.29h.12v-.5a.645.645 0 0 0-.2-.03Zm1.93 3c-.32 0-.5-.15-.5-.46V2.04h.71v-.46h-.68V.74l-.52.05v.81h-.56v.46h.56v1.86c-.07.46.25.89.71.98.08.01.17.01.25 0 .15.01.31.01.46 0v-.43c-.15.02-.29.03-.44.03Zm4.73-2.8c-.17-.12-.37-.19-.58-.2-.45 0-.85.29-1.01.72a.949.949 0 0 0-.29-.49.951.951 0 0 0-.65-.22c-.42.02-.79.27-.96.65V1.6h-.4v3.25h.52V2.91c-.01-.24.07-.47.22-.65a.631.631 0 0 1 .97-.11c.14.15.21.35.19.56v2.15h.54V3.04c-.01-.28.07-.56.25-.79.13-.16.33-.25.54-.25.13 0 .25.05.35.12.09.06.16.16.19.26.04.15.06.31.06.46v2.03h.54V2.84c0-.22-.03-.44-.08-.65-.09-.2-.23-.37-.4-.5Zm3.9 1.56c.03-.47-.11-.93-.39-1.3a1.3 1.3 0 0 0-1.04-.46c-.41 0-.79.17-1.08.46-.3.36-.44.83-.39 1.3-.02.45.13.88.41 1.23.27.31.67.48 1.08.46.31 0 .61-.09.87-.26.25-.17.43-.41.52-.7l-.52-.1c-.11.37-.45.62-.83.61-.24 0-.47-.09-.65-.25-.23-.25-.33-.59-.29-.93h2.32l-.02-.06Zm-2.28-.39c.01-.24.11-.47.27-.65.28-.31.74-.37 1.08-.13.12.09.21.21.26.35.05.15.09.31.1.46l-1.71-.03Zm5.02-1.17c-.18-.13-.39-.2-.61-.2-.42.02-.8.27-.98.65v-.52h-.5v3.25h.54v-1.8c-.02-.28.07-.56.24-.79.15-.18.37-.29.61-.29.17-.01.34.05.46.17.14.18.21.4.18.63v2.08h.51V3.01c.02-.28 0-.57-.1-.84a.762.762 0 0 0-.36-.48Zm2.39 2.8c-.32 0-.5-.15-.5-.46V2.04h.72v-.46h-.71V.74l-.51.05v.81h-.58v.46h.58v1.86c-.07.46.24.89.7.97.08.01.17.01.25 0h.46v-.43c-.14.02-.28.04-.41.04Zm3.55-3c-.4 0-.79.16-1.05.46-.29.34-.44.78-.42 1.23-.01.44.11.87.36 1.23.26.32.65.5 1.06.49.42.02.83-.16 1.11-.49.28-.35.43-.78.42-1.23.02-.43-.12-.86-.39-1.2-.27-.33-.67-.51-1.1-.49Zm0 2.97c-.23 0-.46-.11-.6-.29-.2-.29-.3-.63-.27-.98-.03-.33.06-.66.24-.93a.81.81 0 0 1 .61-.29c.25 0 .49.1.65.29.19.29.27.64.23.99.03.34-.05.68-.24.96a.86.86 0 0 1-.64.26h.02ZM73.32.42c-.15-.03-.31-.04-.46-.05-.26 0-.51.07-.71.22-.2.15-.29.46-.29.98h-.54v.46h.54v2.78h.54V2.03h.76v-.46h-.76v-.08c-.03-.18.03-.37.15-.51.13-.11.3-.17.46-.15.1 0 .2.02.29.05V.42h.03Zm-36.7 29.65h-.65l-1.39 4.35h.52l.39-1.25h1.57l.46 1.28h.61l-1.49-4.37h-.02Zm.24 2.67h-1.3l.65-1.95.65 1.95Zm3.68-1.44c-.18-.13-.39-.2-.61-.2-.42 0-.8.24-.99.61v-.52h-.54v3.25h.54v-1.76c-.01-.29.08-.57.26-.8.15-.18.38-.29.62-.29.16 0 .32.06.44.17.15.18.22.42.19.65v2.05h.49v-1.89c.02-.28 0-.57-.1-.84a.797.797 0 0 0-.3-.44Zm5.77.68c.12-.19.19-.41.2-.63 0-.31-.13-.61-.35-.83-.28-.28-.66-.43-1.05-.41h-1.72v4.35h.57v-1.89h1.2l.8 1.86h.61l-.87-2.01a.96.96 0 0 0 .6-.44Zm-2.36-1.37h1.16c.21 0 .42.06.58.19.15.13.23.32.22.51 0 .22-.07.43-.22.58-.18.16-.41.24-.65.22h-1.11l.02-1.51Zm4.42.51c-.4 0-.78.17-1.04.46-.28.35-.43.78-.42 1.23 0 .44.13.87.39 1.22.25.32.65.49 1.05.46.41.02.8-.16 1.06-.46.28-.35.43-.78.42-1.23.02-.44-.12-.86-.39-1.2-.25-.33-.65-.51-1.07-.48Zm0 2.95c-.24 0-.46-.11-.61-.29-.2-.29-.29-.64-.25-.98-.03-.33.06-.66.25-.93.15-.19.37-.29.61-.29s.46.11.61.29c.19.28.28.62.25.96.04.34-.05.68-.25.96a.81.81 0 0 1-.64.26l.02.02Zm2.01-2.87h.54v3.23h-.54zm-.02-1.13h.59v.61h-.59zm3.53 1.23c-.18-.13-.39-.2-.61-.2-.42 0-.8.24-.98.61v-.52h-.49v3.25h.55v-1.76c-.02-.28.06-.56.23-.79.16-.19.4-.3.65-.29.17-.01.34.05.46.17.15.18.23.42.2.65v2.05h.5v-1.91c.02-.28-.02-.57-.1-.84a.73.73 0 0 0-.42-.44Zm3.76.44c-.17-.38-.54-.62-.96-.61-.42 0-.8.26-.98.65v-.52h-.52v3.25h.5v-1.82c-.01-.28.07-.56.25-.78.16-.2.4-.3.65-.29.16 0 .32.05.44.17.16.18.23.42.19.65v2.06h.52v-1.91c.02-.28-.02-.57-.1-.84ZM46.51 40.6c.64-.01 1.15-.52 1.16-1.16 0-.63-.49-1.16-1.13-1.17h-.03a1.16 1.16 0 0 0 0 2.32Zm.98 2.6h-3.17v.54h1.3v6.55h-2.43l-4.1-12.31h-.65l-4.32 12.31h-.93v.56h3.25v-.56h-1.62l1.17-3.54h3.71l1.16 3.54h-1.62v.56h9.53v-.56h-1.3V43.2Zm-8.02 3h-3.25l1.66-4.91 1.59 4.91Zm14.67-3.17c-.84 0-1.48.54-1.99 1.64V43.2h-3.16v.54h1.3v6.55h-1.3v.56h4.42v-.56h-1.25V48.6c0-2.21.2-3.25.73-4.22.18-.29.37-.46.46-.46s.08 0 .1.2c.05.73.34 1.11.93 1.11.55.02 1.02-.41 1.04-.96v-.09c0-.64-.52-1.16-1.16-1.16h-.01l-.1.03Zm7.75.85s.08 0 .12.25c0 .36.29.65.65.65h.07c.43 0 .78-.34.78-.77v-.08c0-.51-.42-.93-.93-.93h-.09c-.52.05-.99.32-1.3.73-.6-.49-1.36-.75-2.14-.73-1.77 0-3.09 1.16-3.09 2.78 0 .85.42 1.65 1.13 2.13-1.08.74-1.62 1.52-1.62 2.38 0 .77.52 1.45 1.27 1.65-.75.23-1.28.91-1.3 1.69 0 1.3 1.59 2.35 3.55 2.35 2.32 0 4.06-1.52 4.06-3.61 0-1.55-.65-2.13-2.32-2.13l-3.17.05c-.93 0-1.11-.22-1.11-.61s.42-.95 1.21-1.45c.45.22.95.31 1.45.29 1.77 0 3.12-1.12 3.12-2.65 0-.63-.21-1.24-.58-1.74.1-.24.15-.27.25-.27Zm-2.85 4.06c-.87 0-1.11-.37-1.11-1.69 0-2.48.17-2.67 1.16-2.67.87 0 1.11.17 1.11 1.86 0 1.39-.05 1.79-.19 2.06-.22.31-.59.48-.97.45Zm-.07 7.43c-1.35 0-2.26-.76-2.26-1.91 0-.52.21-1.02.58-1.39h.08c.36.05.72.06 1.08.05h.99c.23.01.46.01.68 0h1.13c.83 0 .98.24.98.71-.02 1.4-1.45 2.55-3.27 2.55Z" style="fill:#001f5b"/>
    <path d="M70.45 46.48v-.1C70.3 44.32 68.98 43 67.04 43s-3.65 1.89-3.65 4.02 1.77 4.01 3.71 4.01c1.63.02 3.01-1.17 3.25-2.78v-.1h-.65v.07c-.35 1.39-1.3 2.19-2.45 2.19a1.59 1.59 0 0 1-1.45-.78c-.22-.4-.25-.77-.25-2.61v-.46h4.9v-.06Zm-3.46-2.87c.5-.07.98.22 1.16.69.17.52.22 1.07.15 1.61h-2.78v-.34c0-1.42.4-1.96 1.48-1.96Zm11.22 6.41c-.35.29-.37.29-.5.29-.32 0-.35 0-.35-1.67v-2.55c0-1.64 0-1.79-.46-2.26a3.2 3.2 0 0 0-2.32-.83c-1.65 0-3.07.93-3.07 2.01-.02.48.36.88.84.9h.03c.46.01.85-.35.87-.82s0-.06 0-.08c0-.25-.11-.48-.29-.65q-.07-.1-.07-.15c0-.29.69-.71 1.35-.71.35-.03.7.1.96.34.19.22.24.37.24 1.48v1.23c-2.9.07-4.5.98-4.5 2.61 0 1.13.84 1.89 2.11 1.89.97 0 1.88-.49 2.43-1.3.11.79.82 1.36 1.62 1.3.52 0 1.02-.21 1.39-.58l.05-.05-.35-.41Zm-2.72-2.97v.29c.05.63-.03 1.26-.25 1.86-.24.5-.74.83-1.3.85-.56.04-1.04-.37-1.09-.93v-.21c0-1.21.82-1.77 2.64-1.86ZM86.24 38h-3.16v.54h1.3v5.85a2.438 2.438 0 0 0-2.18-1.3c-1.74 0-3.25 1.81-3.25 3.97s1.5 4.06 3.31 4.06c.89-.01 1.7-.51 2.11-1.3v1.16h3.14v-.56h-1.27V38Zm-3.9 12.43c-.43-.01-.81-.25-1.01-.64-.19-.39-.25-.78-.25-2.5 0-1.95.08-2.68.27-3.07.2-.34.56-.55.95-.58 1.13 0 1.95 1.42 1.95 3.41s-.8 3.37-1.92 3.37Zm12.7-.41c-.35.29-.37.29-.49.29-.32 0-.35 0-.35-1.67v-2.55c0-1.64 0-1.79-.46-2.26a3.2 3.2 0 0 0-2.32-.83c-1.64 0-3.07.93-3.07 2.01-.02.48.36.88.84.9h.06c.47.03.87-.33.9-.8v-.1c0-.25-.11-.48-.29-.65q-.08-.1-.08-.15c0-.29.69-.71 1.35-.71.35-.02.7.1.95.34.21.22.25.37.25 1.48v1.23c-2.9.07-4.49.98-4.49 2.61 0 1.13.83 1.89 2.11 1.89.97 0 1.88-.49 2.43-1.3.11.79.82 1.36 1.62 1.3.52 0 1.03-.21 1.39-.58l.05-.05-.35-.41h-.06Zm-2.73-2.97v.29c.05.63-.03 1.26-.24 1.86-.24.51-.74.84-1.3.85-.56.04-1.04-.37-1.09-.93v-.22c0-1.2.82-1.75 2.63-1.85Zm5.5-6.45c.63-.02 1.14-.53 1.16-1.16 0-.64-.5-1.17-1.15-1.17h-.02c-.61-.03-1.13.43-1.16 1.04s0 .08 0 .12c0 .63.51 1.15 1.14 1.16h.03Zm.98 2.6h-3.14v.56h1.25v6.53h-1.25v.56h4.39v-.56h-1.25V43.2zm4.39 2.65c-1.52-.27-1.79-.5-1.79-1.01.1-.77.8-1.32 1.57-1.23 1.05 0 1.93.78 2.06 1.82v.08h.46l-.07-2.4h-.42l-.27.58c-.5-.42-1.13-.65-1.79-.65-1.28-.04-2.35.97-2.39 2.25v.16c0 1.52.69 2.16 2.65 2.5 1.45.22 1.72.58 1.72 1.13a1.49 1.49 0 0 1-1.59 1.39h-.06c-1.2 0-1.89-.73-2.35-2.53v-.07h-.42l.05 3.01h.35l.42-.56c.54.5 1.25.77 1.98.76 1.4 0 2.53-1.14 2.53-2.53v-.19c0-1.45-.73-2.18-2.63-2.5ZM33.65 25.99h71.94v.27H33.65z" style="fill:#001f5b"/>
</svg>
