<svg class="ons-u-di ons-u-mr-m" xmlns="http://www.w3.org/2000/svg" focusable="false" width="105" height="56" viewBox="0 0 105 56" aria-labelledby="dsit-logo-alt">
    <title id="dsit-logo-alt">Department for Science, Innovation and Technology logo</title>
    <path d="M0 0h.98v53.59H0V0Z" fill="#193479"/>
    <path d="M13.66 2.75c-.09.18-.17.29-.16.43s.16.24.23.39c.06-.16.17-.29.15-.42-.01-.13-.19-.3-.22-.4m2.44 0c.09.18.17.29.16.43s-.16.24-.23.39c-.06-.16-.17-.29-.15-.42.01-.13.19-.3.22-.4m-3.85-.1c.09 0 .16-.07.16-.16s-.07-.16-.16-.16-.16.07-.16.16.07.16.16.16m.1.23c0-.09-.07-.16-.16-.16s-.16.07-.16.16.07.16.16.16.16-.07.16-.16m.08.4c0-.09-.07-.16-.16-.16s-.16.07-.16.16.07.16.16.16.16-.07.16-.16m.72-1.42c.09 0 .16-.07.16-.16s-.07-.16-.16-.16-.16.07-.16.16.07.16.16.16m-.41.12c.09 0 .16-.07.16-.16s-.07-.16-.16-.16-.16.07-.16.16.07.16.16.16m-.33.29c.09 0 .16-.07.16-.16s-.07-.16-.16-.16-.16.07-.16.16.07.16.16.16m1.17-.37c.09 0 .16-.07.16-.16s-.07-.16-.16-.16-.16.07-.16.16.07.16.16.16m.41.11c.09 0 .16-.07.16-.16s-.07-.16-.16-.16-.16.07-.16.16.07.16.16.16m.39.18c.09 0 .16-.07.16-.16s-.07-.16-.16-.16-.16.07-.16.16.07.16.16.16m2.94.29c0 .09.07.16.16.16s.16-.07.16-.16-.07-.16-.16-.16-.16.07-.16.16m.22.23c-.09 0-.16.07-.16.16s.07.16.16.16.16-.07.16-.16-.07-.16-.16-.16m-.08.4c-.09 0-.16.07-.16.16s.07.16.16.16.16-.07.16-.16-.07-.16-.16-.16m-.9-1.25c.09 0 .16-.07.16-.16s-.07-.16-.16-.16-.16.07-.16.16.07.16.16.16m.42.12c.09 0 .16-.07.16-.16s-.07-.16-.16-.16-.16.07-.16.16.07.16.16.16m.32.29c.09 0 .16-.07.16-.16s-.07-.16-.16-.16-.16.07-.16.16.07.16.16.16m-1.16-.37c.09 0 .16-.07.16-.16s-.07-.16-.16-.16-.16.07-.16.16.07.16.16.16m-.41.11c.09 0 .16-.07.16-.16s-.07-.16-.16-.16-.16.07-.16.16.07.16.16.16m-.55.02c0 .09.07.16.16.16s.16-.07.16-.16-.07-.16-.16-.16-.16.07-.16.16m-.6.89h.18v-.7c-.06 0-.13-.03-.18-.06v.76Zm.56-.76c-.06.03-.12.05-.18.06v.7h.18v-.76Zm-.39-.77V.97c-.2.04-.37.21-.41.42h.41Zm.21 0h.41a.51.51 0 0 0-.41-.42v.42Z"/>
    <path d="M14.38 1.59c.05.23.25.41.51.41s.46-.17.51-.41h-1.02Zm.78-.69a.552.552 0 0 1-.22-.37c.13.02.29.12.38.23V.2a.61.61 0 0 1-.38.23c.01-.14.1-.26.21-.41h-.55c.11.14.2.26.21.41a.715.715 0 0 1-.38-.23v.57c.09-.11.24-.21.38-.23a.6.6 0 0 1-.22.37h.57Zm.02 11.84c-.11 0-.2-.09-.2-.2s.09-.2.2-.2.2.09.2.2-.09.2-.2.2m-.98-.31c-.12 0-.22-.1-.22-.22s.1-.22.22-.22.22.1.22.22-.1.22-.22.22m-.34-.99-.05-.04c-.1-.07-.18-.07-.27 0l-.12.12-.06.06.04.03c.1.08.12.18.09.23-.01.02-.03.03-.05.04-.05.01-.12 0-.2-.05l-.04-.02-.02.04s-.01.02-.02.03c0 .01-.02.03-.03.04-.04.08-.07.14-.07.19v.04c.02.06.06.08.1.11h.02s.11.08.16.11a.3.3 0 0 1-.29.01c-.14-.07-.23-.23-.23-.32 0-.12.05-.27.15-.44l.02-.02v-.02s-.07-.1-.09-.14c.05 0 .11.02.16.03h.05c.06-.08.29-.3.49-.3.09 0 .18.05.25.13.05.06.08.13.09.19a.55.55 0 0 1-.09-.07m1.9.78c-.52-.13-1.14-.36-1.72-.61a.48.48 0 0 0-.12-.36c-.09-.1-.2-.16-.33-.16-.05 0-.1.01-.15.03a2.877 2.877 0 0 1-.74-1.13c-.07-.19-.12-.39-.15-.59-.03.17-.21.39-.54.4 0-.03 0-.12-.03-.13-.08.09-.21.19-.51.09.04.23.11.46.19.67.22.61.59 1.16 1.08 1.59v.07c0 .12.12.32.29.4.14.07.29.05.43-.05.25.13.57.26.92.36.39.11.76.17 1.06.17.25 0 .59-.12.92-.33.13-.08.25-.17.35-.26.01-.01.02-.02.04-.03-.25.04-.64-.04-.97-.11m-.13 2.09c-.04-.07-.09-.11-.14-.11-.21 0-.13.56-.39.56-.11 0-.17-.07-.17-.15s.05-.1.05-.16-.05-.08-.1-.08-.1.02-.1.08.05.09.05.16-.06.15-.17.15c-.25 0-.17-.56-.38-.56-.05 0-.1.04-.14.11a.626.626 0 0 1-.07-.22c0-.1.08-.24.24-.24.29 0 .21.39.36.39.06 0 .1-.04.1-.09 0-.11-.19-.21-.19-.38s.14-.29.31-.42c.16.12.31.25.31.42s-.19.26-.19.38c0 .06.04.09.1.09.13 0 .07-.39.36-.39.16 0 .24.14.24.24 0 .06-.02.14-.06.22m-.74.78c-.07 0-.14-.06-.14-.14s.06-.14.14-.14.14.06.14.14-.06.14-.14.14m.56-1.35s-.07 0-.1.01v-.62c-.27 0-.59-.05-.91-.13v.76s-.07-.02-.11-.02c-.21 0-.36.18-.36.36 0 .16.09.31.17.4.04-.1.08-.17.13-.17.11 0 .06.54.38.55-.01.03-.02.05-.02.08 0 .13.11.24.24.24s.24-.11.24-.24c0-.03 0-.06-.02-.08.32-.01.26-.55.38-.55.05 0 .09.07.13.17a.64.64 0 0 0 .17-.4c0-.17-.13-.36-.36-.36"/>
    <path d="M22.75 14.52s-.05-.05-.08-.04c-.73.21-1.63-.39-2.5-.98-.73-.49-1.43-.96-2.03-.96-.22 0-.42.05-.58.14-.21.12-.38.31-.46.54-.1.24-.2.41-.3.54-.1.16-.17.27-.17.42 0 .12.05.22.15.33.08.08.2.16.38.26.04.02.07.04.11.05.14.07.23.12.25.2-.29.12-.66.23-1.08.31-.48.08-1 .12-1.56.12s-1.08-.04-1.56-.12c-.43-.07-.79-.18-1.09-.31.01-.12.1-.17.25-.24.04-.02.07-.03.11-.05.14-.08.29-.15.38-.23.1-.09.15-.18.15-.31 0-.14-.07-.25-.17-.42-.08-.13-.19-.3-.3-.54s-.25-.43-.47-.54c-.16-.09-.37-.14-.58-.14-.6 0-1.29.46-2.03.96-.88.58-1.78 1.18-2.5.97-.03 0-.07 0-.08.04-.01.03 0 .07.04.08.22.1.42.25.6.4.26.2.51.4.78.4.25 0 .54-.08.88-.25.3-.15.6-.36.9-.56.58-.4 1.17-.79 1.73-.85-.06.06-.11.11-.17.16-.16.15-.31.27-.31.54 0 .2.07.36.16.56.03.06.06.12.09.2.06.14.09.25.12.41.02.07.03.14.06.23.04.13.1.39.52.59.48.24 1.3.37 2.45.37s1.98-.12 2.45-.37c.42-.21.48-.46.52-.59.02-.09.04-.16.06-.23.04-.15.06-.26.12-.41.05-.1.09-.18.13-.25.08-.16.15-.29.15-.48 0-.26-.15-.4-.33-.55-.05-.05-.11-.1-.17-.16.56.04 1.16.45 1.73.85.3.2.6.41.9.56.34.17.62.25.88.25s.52-.19.78-.4c.19-.14.39-.3.6-.4.03-.01.05-.05.04-.08m-7.76-5.67V6.14c.29.01.56.08.82.21.29.14.54.34.75.59s.39.55.51.89c.12.33.18.68.18 1.04h-2.27.01ZM14.85 5c-.77 0-1.3.22-1.62.44-.18-.1-.25-.21-.25-.34 0-.44 1.24-.48 1.87-.48s1.87.04 1.87.48c0 .12-.08.22-.25.34-.31-.2-.85-.44-1.62-.44m-.04 3.87h-2.32c0-.36.07-.71.18-1.04.12-.34.3-.63.51-.89.4-.49 1-.78 1.63-.8v2.74Zm3.53-.18a.79.79 0 0 1-.27-.33c-.08-.18-.45-.89-.51-.99-.04-.06-.07-.14-.07-.21s.04-.13.08-.19c.03-.04.1-.11.13-.16.02-.03.04-.06.06-.08-.13-.22-.26-.4-.44-.59a3.65 3.65 0 0 0-.7-.61c.14-.09.27-.22.27-.44a.41.41 0 0 0-.14-.31c.14-.47.41-1.03.63-1.27l-.47-.19c.12.18.13.4.1.53a.598.598 0 0 1-.26-.36c-.02.14-.1.37-.17.51.13-.06.24-.09.38-.04-.08.1-.29.27-.59.19-.16-.04-.34-.13-.33-.25 0-.08.06-.17.16-.16s.11.16.07.23c.13-.07.27-.47.06-.53-.16-.04-.32.18-.37.36-.03-.21-.12-.41-.29-.4-.21 0-.14.41-.07.51.01-.14.09-.21.15-.2.06 0 .13.04.12.17-.01.12-.19.2-.4.2s-.54-.06-.58-.44c.13.02.33.12.42.24-.03-.23-.03-.4 0-.63-.1.15-.29.22-.41.24.04-.16.17-.34.34-.44h-.85c.16.1.31.27.34.44a.75.75 0 0 1-.41-.24c.03.23.03.41 0 .63.08-.12.27-.22.41-.24-.03.38-.38.44-.58.44s-.39-.08-.4-.2c-.01-.12.06-.16.12-.17.06 0 .14.07.15.2.07-.1.14-.5-.07-.51-.16 0-.25.19-.29.4-.05-.17-.2-.4-.37-.36-.21.06-.07.45.06.53-.03-.07-.03-.22.07-.23.1 0 .16.08.16.16 0 .13-.16.21-.33.25a.576.576 0 0 1-.59-.19c.14-.06.24-.03.39.03-.07-.13-.15-.37-.17-.51-.04.15-.14.27-.26.36-.04-.18 0-.37.1-.53l-.47.19c.22.24.49.81.63 1.28a.41.41 0 0 0-.14.31c0 .21.14.35.27.44a3.788 3.788 0 0 0-1.44 1.85c.06.07.35.38.41.46.11.14.18.3.19.41 0 .21.05.3.16.44.03.04.08.21.09.32h2.32v2.53c-.09 0-.18.03-.26.12.26.11.52.2.78.29.02-.16.06-.26.14-.37 0 0-.34-.03-.52-.04V9.01h2.27a2.997 2.997 0 0 1-.69 1.89c-.21.26-.47.46-.75.59-.04.02-.04.05-.09.07-.04.04-.08.12-.11.2-.03.07-.04.13-.05.23.1.03.16.05.26.07.79.2 1 .14 1.04.1.18-.14.35-.3.5-.47.32-.37.57-.78.74-1.25.18-.49.27-1 .27-1.53v-.22"/>
    <path d="M16.25 7.24s-.03.04-.02.06c0 .02.03.04.07.04-.02.02-.05.05-.05.09.04 0 .08 0 .1-.02 0 .04 0 .06.02.08.02.01.04.01.06 0 .17.27.29.6.34.93-.03-.01-.05-.02-.08-.02 0 .05.02.08.05.1h-.57s-.01-.07-.04-.07c-.02 0-.05 0-.08.03 0-.03-.01-.07-.04-.1-.03.03-.04.07-.04.1-.03-.03-.05-.04-.08-.03-.02 0-.04.04-.04.07h-.49s.03-.05.03-.09c-.04 0-.07.01-.1.04v-.78s.07-.01.08-.04c0-.02 0-.05-.03-.08.03 0 .07-.01.1-.04a.128.128 0 0 0-.1-.04c.03-.03.03-.05.03-.08 0-.02-.04-.04-.08-.04v-.66s.05.03.08.03c0-.04 0-.07-.02-.09.15.05.3.12.44.21.16.11.32.24.45.42m.64 1.17s.03.09-.02.08c-.05-.41-.2-.81-.44-1.15.04-.02.08-.05.09-.12-.07 0-.12.02-.14.06-.02-.02-.03-.04-.05-.06a1.946 1.946 0 0 0-1.04-.71c0-.04.06-.05.08-.01 0-.07-.05-.11-.09-.09-.02 0-.04.02-.04.06-.02-.03-.05-.05-.1-.05 0 .05.01.08.03.11-.03 0-.05.01-.06.03-.02.03 0 .1.08.1-.03-.03-.02-.08.02-.08v.89s-.1 0-.15.04c.05.05.1.05.15.04v.97s-.06-.06-.02-.08c-.07 0-.1.06-.09.1.01.02.03.04.07.03-.02.02-.04.06-.04.1.04 0 .08-.02.1-.04 0 .04.01.06.04.07.03.02.1-.01.1-.08-.03.04-.08.02-.08-.02h.67s0 .1.04.14c.05-.05.05-.1.04-.14h.74s-.05.06-.08.02c0 .07.07.1.1.08.02-.01.04-.03.03-.07.02.02.06.04.1.04 0-.04-.02-.08-.04-.1.04 0 .06-.01.07-.04s-.02-.1-.09-.1"/>
    <path d="M16.49 8.18s.05-.03.06-.06c-.03.01-.06 0-.06 0 .02-.01.05 0 .02-.04-.03-.04-.04-.04-.07-.01-.03.03-.2 0-.2-.14.01.02.04.04.06.05 0 0 .01 0 .02.01h.07s.07-.04.07-.07c0-.07-.06-.11-.14-.17l-.07-.07c-.03-.05 0-.1-.08-.2 0-.02 0-.05-.02-.08-.04.06-.05.18.04.29.07.08.23.16.23.23 0 .02-.02.03-.04.03h-.03s-.02 0-.03-.02c-.02 0-.03-.02-.06-.04-.06-.06-.12-.15-.16-.2-.07-.09-.04-.18-.03-.26.05-.07-.03-.22-.08-.25 0 0 .01-.03 0-.08h-.05s-.02-.03-.04-.04c-.03 0-.03-.02-.03-.04-.02.02-.02.03-.04.03h-.05s-.03.02-.05.02c-.03 0-.03.02-.03.04 0 .01 0 .03.02.04l.02.03.02-.03s.05-.01.06.01c0 .01 0 .02-.02.03h-.06s-.02.02-.02.04.02.03.06.02c.04 0 .1-.02.1.01 0 .08-.09.08-.11.17-.02-.02-.04-.03-.06-.05a.27.27 0 0 0-.07-.08c-.02-.02-.05-.04-.07-.06-.03-.02-.03-.03-.03-.07 0-.03.01-.05.01-.08v-.02s-.03-.03-.04-.03c0 0 .02.01.02.03 0 0-.01.01-.01.02v.04s-.02-.05-.03-.05h-.01s-.02-.04-.05-.01h.02v.02s.01.03.04.03c-.04-.02-.05 0-.05.02v.02s-.02.03 0 .04v-.02h.04s-.02.04 0 .05c-.01.03-.06.02-.05-.02-.03.05.02.08.06.07v.05s0 .03.02.03v-.02s.02.02.02.03c.02.04.06.13.16.17-.05.03-.08.07-.11.11-.03.03-.07.05-.09.04-.01 0-.01-.02-.03-.03h-.05s-.04 0-.05.01h.03v.02s0 .02.06.02c0 0-.01.01-.03 0-.02 0-.03-.02-.05 0h-.01s-.04.05-.02.07c0 0 0-.02.01-.03h.01s.03.04.06-.01c0 .02-.02.06 0 .06h.01s.04.03.06.03c0 0-.03-.01-.03-.03h.01v-.05s.02.03.05.02c.01 0 .02-.02.02-.03.03-.01.06-.02.09-.02 0-.02.02-.04.05-.05.04 0 .05 0 .06.01 0-.02.02-.04.04-.06 0 .14.18.14.23.22-.06-.02-.12-.04-.15-.03-.05 0-.13.05-.14.1 0 .04.04.12.08.15-.05.01-.07 0-.12 0-.04 0-.05-.07-.1-.05h-.01s-.05.02-.04.04c0 0 .02-.02.03-.02s0 .03.02.03h.02s-.06-.01-.05.04.01.04.04.03c0 0-.02-.01-.01-.02h.01v.03s.03.04.05.02c0 0-.03 0-.03-.01h.01v-.02h.01s.02.02.04.02c.01 0 .02 0 .02-.01 0 0 .02 0 .02.01 0-.02 0-.04.05 0l.03-.02s.04.02.06 0c.03-.02.01-.02.01-.05-.02-.04-.03-.04-.04-.08-.01-.07.08-.11.14-.1.01.04.07.16.18.19.06.02.09-.05.11-.04v.1h-.05c-.01 0-.02 0-.02.01-.02 0-.04.02-.04.04 0 0 .02-.02.04-.02 0 .03.03.04.05.02-.02.01-.04.04-.02.05h.01s.01.03.03.04v-.03h.01s.01-.03.03-.04v.05h.01s.02.03.05.01c0 0-.02 0-.02-.02 0 0 .01-.01.01-.02.01-.04-.02-.04-.02-.06s.04 0 .04-.05c.02-.01.04-.02.04-.04h-.05l.14.1Zm-2.12 1.26h-.03s-.08.01-.08.06.03.07.07.08h.02v.03c-.01.07-.03.18-.05.32l-.35-.5c.16-.06.3-.13.37-.13.05 0 .07.03.05.14m-.13.87-.55-.78c.06-.01.12-.03.17-.05l.41.59c-.01.08-.03.16-.04.24m-.06.36-.77-1.11h.19l.62.9c-.01.08-.03.16-.04.22m-.88-1.11.85 1.22c-.46-.17-.91-.58-.85-1.22m1.26-.09h-.04v-.04c0-.13-.07-.23-.22-.23-.13 0-.39.17-.73.17-.15 0-.33-.07-.44-.14l-.04.1c0-.06-.04-.1-.09-.1s-.09.04-.09.09.04.09.09.09c.03 0 .05-.01.07-.03l-.04.1s.03.01.05.02c-.05.54.35 1.22 1.04 1.43.1-.03.21-.01.21.1 0 .07-.03.1-.1.1-.04 0-.07-.02-.07-.05 0-.05.08-.02.09-.05.01-.04-.02-.06-.06-.06s-.12.03-.12.11c0 .1.07.15.16.15.08 0 .24-.04.21-.23.04 0 .08 0 .09-.04v-.11h-.03l.03-1.22h.03s.08-.01.09-.06c0-.05-.04-.07-.07-.07m-.62-2.63s0-.02.01-.02c0 0 .01 0 .02-.01 0 0 0-.01-.01-.02-.02 0 .01 0 0-.01h-.02.05v.02s0-.01-.01-.01v.02h-.02v.04s-.02.02-.03.02c-.02 0-.01-.02 0-.03m.05-.11s-.02.02-.03.01c-.01-.01 0-.01-.01-.04.01 0 .04.02.05.03m.03.02s.04.02.05.02c-.02 0-.02.02-.03.01-.02 0-.02-.02-.02-.04m.39.21c.16 0 .24-.05.24-.1 0-.18-.46-.07-.46-.18 0-.02.01-.03.03-.05.22-.02.23-.18.4-.21-.19-.03-.22.13-.31.13.03-.02.06-.05.06-.09-.04.05-.13.06-.17.12 0 0-.01.02 0 .03-.03.02-.05.04-.05.07 0 .17.46.05.46.18 0 .04-.08.07-.2.07-.09 0-.16-.07-.34-.02 0-.03.06-.08.04-.11.02 0 .03-.02.03-.03 0 0-.02-.01-.03-.02v-.04s-.02-.02-.04-.03c-.02 0-.03 0-.04-.01h-.02s-.02 0-.02.01c0 0-.02-.01-.03-.01v.05s-.03.04-.05.04c0 .01.01.02.02.02-.01.02-.02.05-.03.05 0 0 0 .01.01.01-.01.04-.02.08-.02.1s-.02-.02-.04-.03c-.03-.02-.02-.03-.02-.05s.02-.04.02-.06v-.02s-.02-.03-.03-.02c0 0 .01 0 .01.02h-.01s-.01.03 0 .03 0-.03-.02-.03h-.01s-.02-.03-.04-.01h.02v.02s0 .02.03.02c-.03-.01-.05 0-.05.01s-.02.03 0 .04c0 0 0-.02.01-.02h.02s-.02.04 0 .04c0 .04-.06.03-.05 0-.04.04.01.07.05.05 0 0 0 .01.01.01 0 0 0 .02.02.02l.04.05-.1.03h-.08s-.09.04-.11.01c0 0 0-.02-.01-.03 0 0-.01-.02-.02-.02h-.02s-.03-.01-.04 0c0 0 .02 0 .02.02s0 .03.04.04h-.02s-.02-.03-.04-.02h-.01s-.05.02-.03.04c0 0 0-.02.02-.02s.01.05.05.01c0 .02-.04.04-.02.05h.01s.02.04.04.04c0 0-.02-.02-.01-.04h.01s.01-.03.02-.04c0 0 0 .03.03.03.02 0 .03-.02.03-.03 0 0 .02.01.01.03 0 0 .01 0 .02-.02v.04s.03-.01.04-.04h.05v.03s0 .01.01.03c0-.06.04-.04.08-.06 0 0 0 .01-.02.02.01 0 .05-.01.05-.04l.02-.02s.04 0 .04-.02v.03l.1-.05c.08-.02-.05-.08.12-.07.01 0 .04 0 .05-.02-.01.03-.01.08.01.08.01 0 .04.01.04.02h-.04s-.04-.06-.09-.04h-.01s-.04.02-.04.04c0 0 .01-.01.03-.02 0 0 0 .01.02.01h.02s-.05 0-.04.04 0 .04.03.03c0 0-.01 0-.01-.02h.01s.02.04.05.03c0 0-.02 0-.02-.01h.01v-.02h.01s.02.02.03.01c.03 0 0-.03.03-.04h.08s0-.05-.02-.07c-.01 0 0-.02-.01-.05.03.01.05.02.09.02.06 0 0 0 .03-.03.03-.02.07-.01.08 0 0 0 .02 0 .01.01v.05h-.07s-.03.02-.03.04c0 0 .02-.01.03-.01 0 .02.03.03.04.01-.01 0-.04.03-.02.04h.01s0 .03.02.03v-.03h.01s0-.03.02-.04v.04h.01s.02.02.04.01c0 0-.01 0-.02-.01 0 0 0-.01.01-.01 0-.03-.02-.03-.02-.05s.03 0 .03-.04c0 0 0-.02-.01-.02s.02 0 .02-.01c-.02 0-.02-.02-.02-.03 0 0 .01-.02.01-.04 0 .01-.04.02-.04 0 0 0 0-.02-.03-.01-.04 0-.06-.02-.14-.02m-.8.74s0-.02.02-.02c.01 0 .02 0 .02-.01s0-.02-.02-.03c.01 0 .02 0 .01-.01h-.02.07s.01 0 .01.01v.02s0-.02-.01-.02v.02s-.02-.01-.03 0v.06s-.02.03-.04.02c-.02-.01-.02-.03-.01-.04m.06-.13s-.03.03-.04.01c-.01-.01 0-.02-.01-.04.02.01.05.03.05.03m.04.02s.04.02.06.02c-.03 0-.02.02-.04.02s-.02-.02-.02-.04m1.02.14s-.06-.08-.21-.08-.53.06-.53-.03c0-.04.07-.04.15-.04 0 0 .02.01.03.02.21.06.46-.05.58-.01-.15-.11-.27 0-.44-.03.09 0 .12-.03.13-.05-.07.05-.21-.02-.3.03h-.01c-.11.01-.2.01-.2.08 0 .16.44.07.57.07s.16.01.16.04c0 .04-.13.05-.21.05-.12 0-.48-.06-.69-.02.02-.03.06-.08.03-.1.02 0 .03-.02.03-.04a.076.076 0 0 0-.04-.02s0-.02-.01-.03c0 0 0-.02-.01-.03 0 0-.02-.02-.05-.03-.02-.01-.04-.01-.05-.01h-.03s-.02 0-.03.01l-.04-.02s-.01.03 0 .06c-.02 0-.04.05-.06.04 0 .01.01.02.02.02-.02.03-.02.06-.04.06.01.02.02.02.03.02v.06h-.04l.01-.01h-.02s-.04-.05-.07-.07-.03-.03-.03-.07c0-.03.02-.05.02-.08v-.02s-.03-.03-.04-.03c0 0 .02.01.02.03h-.01v.05s-.01-.05-.03-.05h-.01s-.02-.04-.05-.01h.02v.02s.01.03.03.03c-.04-.02-.05 0-.05.02s-.02.04 0 .05v-.02h.03s-.02.05 0 .05c0 .05-.06.04-.06 0-.04.05.02.09.07.07 0 0 0 .02.01.02h.01s0 .02.02.02v-.02l.06.06s.05.05.07.03c0 .03.02.07.02.07h-.11s-.1.04-.13.01c0-.01 0-.02-.01-.04 0-.01-.02-.02-.02-.02h-.02s-.04-.01-.05 0c0 0 .02 0 .03.02s0 .04.04.05h-.03s-.02-.03-.04-.02h-.01s-.05.02-.04.05c0 0 .01-.02.03-.02v.02s.01.04.06 0c-.01.02-.04.04-.02.06h.01s.03.05.04.05c0 0-.02-.02-.01-.04h.01s.01-.04.03-.05c0 .01 0 .04.03.04s.04-.02.04-.04c0 0 .02.02.01.03 0 0 .02 0 .02-.02 0 .01 0 .03-.01.05.01 0 .04-.02.04-.05v.02h.06v.03s0-.01.01-.01c0 0 0 .03.02.04 0-.07.04-.04.09-.07 0 0 0 .02-.02.02.05.01.13-.06.14-.09h.05c.14.01.04-.13.27-.09.01 0 .04-.01.05-.03-.02.03-.02.09.01.1.01 0 .04.01.05.02-.02 0-.04 0-.04.01-.05.03-.05-.07-.1-.05h-.01s-.05.02-.04.04c0 0 .02-.02.03-.02s0 .03.02.03h.02s-.06-.01-.05.04v.02s.01.03.04.02c0 0-.02-.01-.01-.02h.01v.03s.03.04.05.02c0 0-.03 0-.03-.01h.01v-.02h.01s.02.02.04.02c.03-.01 0-.04.03-.05h.09s0-.06-.03-.08c-.02 0 0-.03-.01-.05.03.01.06.02.1.02.07 0 .09-.01.12-.03.04-.02.08 0 .09 0 0 0 .02 0 .01.02v.06h-.08s-.04.02-.04.04c0 0 .02-.02.03-.02 0 .03.03.03.05.02-.02.01-.04.04-.02.04h.01s.01.03.02.03v-.03h.01s0-.03.03-.04v.05h.01s.02.03.04.01c0 0-.02 0-.02-.02 0 0 .01-.01.01-.02.01-.04-.02-.04-.02-.06s.04 0 .04-.05c0 0 0-.02-.02-.02s.02 0 .03-.01c-.03 0-.02-.02-.02-.04 0 0 .02-.02.01-.04 0 .01-.04.03-.05 0 0 0 0-.02-.03-.01-.05 0-.08 0-.17-.01.1 0 .26-.03.26-.09m-1.13.77s0-.02.01-.02.02 0 .02-.01 0-.02-.02-.02c.01 0 .02 0 .01-.01h-.02.02l.05.01v.03s0-.01-.01-.02v.02h-.03v.04s-.02.03-.03.02c-.02-.01-.02-.03 0-.04m.06-.12s-.03.02-.04.01 0-.02-.01-.04c.02.01.04.03.05.03m.04.02s.04.02.06.02c-.03 0-.02.01-.04.01s-.02-.02-.02-.04m1.13.12s-.05-.08-.2-.08-.63.06-.63-.03c0-.05.16-.03.27-.03 0 0 .02.02.03.02.2.06.41-.08.55-.03-.11-.1-.25.01-.41-.02.09 0 .18-.02.18-.04-.07.04-.26-.03-.35.02H14c-.14.01-.33-.01-.33.08 0 .15.54.06.67.06s.15.01.15.04c0 .04-.13.04-.2.04-.12 0-.63-.06-.82 0 .01-.03.06-.08.04-.11.02 0 .03-.02.03-.04-.01-.01-.02-.02-.04-.02v-.03s0-.02-.01-.03c0 0-.02-.02-.05-.03-.02 0-.04 0-.05-.01h-.03s-.02 0-.03.01c0 0-.02-.01-.03-.01 0 .02-.01.03 0 .05-.02 0-.04.05-.05.04 0 .01.01.02.02.02-.01.03-.02.06-.04.06l.02.02v.05h-.07s-.04-.04-.08-.06c-.03-.02-.03-.03-.03-.06s.01-.05.01-.07v-.02s-.03-.03-.04-.03c0 0 .01.01.02.03h-.01v.05s-.02-.05-.03-.05h-.01s-.02-.03-.04-.01h.02v.02s.01.03.04.03c-.03-.02-.05 0-.05.02s-.02.04 0 .05v-.02H13s-.02.04.01.05c0 .04-.06.03-.06 0-.03.05.02.09.07.06 0 0 0 .01.01.02 0 .01 0 .03.02.03v-.02s.04.06.1.09c.01 0 .03 0 .04-.02h.01s.02.07.01.07h-.13s-.1.04-.12.01c0 0 0-.02-.01-.03 0-.01-.02-.02-.02-.02h-.02s-.04-.01-.05 0c0 0 .02 0 .03.02s0 .03.04.05h-.02s-.02-.03-.04-.02h-.01s-.05.02-.04.05c0 0 0-.02.02-.02s.01.05.06.01c-.01.02-.04.04-.02.05h.01s.02.05.04.04c0 0-.02-.02-.01-.04h.01s.01-.04.02-.04c0 0 0 .04.03.03.02 0 .04-.02.03-.04 0 0 .02.01.01.03 0 0 .01 0 .02-.02 0 .01 0 .03-.01.05 0 0 .04-.02.04-.04h.05v.04s0-.01.01-.01c0 0 0 .03.01.04 0-.07.09-.03.13-.06 0 0 0 .02-.02.02.01 0 .04 0 .06-.02l.07-.03v-.02h.02s.04-.03.06-.03c.25.03.11-.11.41-.08.01 0 .02 0 .03-.02-.02.03-.02.08.01.08.01 0 .04.01.05.02-.02 0-.04 0-.04.01-.05.03-.05-.07-.09-.05h-.01s-.05.02-.04.04c0 0 .02-.02.03-.02s0 .03.02.03h.02s-.06 0-.05.04v.02s.01.03.04.02c0 0-.02-.01-.01-.02h.01v.03s.02.04.05.02c0 0-.02 0-.03-.01h.01v-.02h.01s.02.02.04.02c.03-.01 0-.04.03-.05h.09s0-.06-.02-.07c-.02 0 0-.03-.01-.05.03.01.06.02.1.02.07 0 .09-.01.12-.03.03-.02.07 0 .08 0 0 0 .02 0 .01.02v.06h-.06s-.02 0-.02.01c-.02 0-.04.02-.04.04 0 0 .02-.01.03-.02 0 .03.03.03.04.02-.01.01-.04.04-.02.04h.01s.01.03.02.03v-.03h.01s0-.03.03-.04v.04h.01s.02.02.04.01c0 0-.02 0-.02-.01 0 0 .01-.01.01-.02.01-.04-.02-.04-.02-.05 0-.02.04 0 .04-.04 0 0 0-.02-.02-.02s.02 0 .03-.01c-.03 0-.02-.02-.02-.04 0 0 .01-.02.01-.04 0 .01-.04.03-.04 0 0 0 0-.02-.03-.01-.05 0-.08 0-.17-.01.09 0 .25-.02.25-.08l.16.06h.02Zm.98 1.02s.01-.02.02-.02.02 0 .02-.01 0-.02-.02-.02c.01 0 .02 0 .01-.01h-.02.02l.05.01v.03s0-.01-.01-.02v.02s-.02-.01-.03 0v.05s-.02.02-.03.02c-.02 0-.02-.03-.01-.04m.06-.12s-.02.03-.04.01c-.01-.01 0-.02-.01-.04.02 0 .04.03.05.03m.04.02s.04.02.06.02c-.03 0-.02.02-.04.02s-.02-.02-.02-.04m1.11.29s.02-.02.02-.04c0 .01-.04.03-.04 0 0 0 0-.02-.03-.01-.05 0-.09 0-.18-.01.09 0 .25-.02.25-.08 0-.05-.05-.08-.2-.08s-.63.06-.63-.03c0-.05.16-.03.27-.03 0 0 .02.02.03.02.2.06.43-.09.55-.06-.15-.05-.25.04-.41 0 .09 0 .18-.02.18-.04-.07.04-.26-.03-.35.02h-.01c-.14.01-.33-.01-.33.08 0 .15.54.06.67.06s.16.01.16.04c0 .04-.13.05-.2.05-.12 0-.63-.07-.82 0 .01-.03.06-.08.04-.11.02 0 .03-.02.03-.04-.01-.01-.02-.02-.04-.02v-.03s0-.02-.01-.03c0 0-.02-.02-.04-.03-.02-.01-.04 0-.05-.01h-.03s-.02 0-.03.01l-.04-.02s-.01.03 0 .05c-.02 0-.04.05-.05.04 0 .01.01.02.02.02-.01.03-.02.06-.04.06.01.01.02.02.03.02v.04h-.07s-.04-.04-.08-.06c-.03-.02-.03-.03-.03-.06s.01-.05.01-.07v-.02s-.03-.03-.04-.03c0 0 .01.01.02.03h-.01v.05s-.02-.05-.03-.05h-.01s-.02-.03-.04-.01h.02v.02s.01.03.03.03c-.03-.02-.05 0-.05.02s-.01.04 0 .05v-.02h.02s-.02.05.01.05c0 .04-.06.03-.06 0-.03.05.02.09.07.06 0 0 0 .02.01.02 0 .01 0 .03.02.03v-.02s.04.06.1.1c0 0 .02-.02.04-.02 0 .01 0 .02.02.03h.01s.03.05.02.05h-.09s-.1.04-.12.01c0-.01 0-.02-.01-.04 0-.01-.02-.02-.02-.02h-.02s-.04-.01-.05 0c0 0 .02 0 .03.02s0 .03.04.05h-.02s-.02-.03-.04-.02h-.01s-.05.02-.04.05c0 0 0-.02.02-.02s.01.05.06.02c-.01.02-.04.04-.02.05 0 .03.02.05.04.04 0 0-.02-.02-.02-.04h.01s.01-.04.02-.04c0 .01 0 .04.03.03.02 0 .04-.02.03-.04 0 0 .02.02.01.03l.02-.02s0 .03-.01.05c.01 0 .04-.02.04-.05h.05v.04s0-.01.01-.01c0 0 0 .03.02.04 0-.07.04-.04.08-.07 0 0 0 .02-.02.02.02.01.08-.03.08-.05 0 0 .02 0 .04-.01.04 0 .04-.03.05-.03.25.03.11-.11.41-.08.01 0 .02-.02.03-.03-.02.03-.02.09.01.09.01 0 .04.01.05.02-.02 0-.04 0-.04.01-.04.03-.05-.07-.09-.05 0 0-.01 0-.01.01-.02 0-.05.02-.04.04 0 0 .02-.02.03-.02s0 .03.02.03h.02s-.06 0-.05.04v.02s0 .03.04.02c0 0-.01-.01-.01-.02h.01v.03s.02.04.05.02c0 0-.02 0-.03-.01h.01v-.02h.01s.02.02.04.02c.03-.01 0-.04.03-.04h.09s0-.06-.02-.07c-.02 0 0-.03-.01-.05.03.01.06.02.09.02.07 0 .09 0 .12-.03.04-.02.07-.01.09 0 0 0 .01 0 .01.02-.01.04 0 .04 0 .06 0 .01-.04 0-.06 0h-.02s-.04.02-.04.04c0 0 .02-.01.03-.02s.03.04.04.02c-.02.01-.04.03-.02.04h.01s0 .03.02.03v-.03h.01s.01-.03.03-.04c0 .02-.01.04 0 .04h.01s.02.02.04.01c0 0-.02 0-.02-.01 0 0 .01-.01.01-.02.01-.04-.02-.04-.02-.05 0-.02.04 0 .04-.04 0 0 0-.02-.01-.02s.02 0 .03-.01c-.03 0-.02-.02-.02-.04m-.95.49s-.02-.02-.02-.04c0 0 .04.02.06.02-.03 0-.02.02-.04.02m-.02.03s0-.01-.01-.02v.02h-.03v.04s-.02.02-.03.02c-.02 0-.01-.03 0-.04 0-.01 0-.02.01-.02s.02 0 .02-.01 0-.02-.02-.02c.01 0 .02 0 .01-.01h-.02.01l.05.01v.03m-.03-.09s-.02.02-.04.01c-.01-.01 0-.02-.01-.04.01.01.04.03.05.03m.48 0s.01.02.03.02c.19.05.41-.09.52-.05-.15-.05-.24.04-.39 0 .08 0 .17-.02.17-.04-.06.04-.25-.03-.33.02h-.01c-.1 0-.19 0-.19.06 0 .14.4.06.52.06s.11.01.11.04-.14.04-.21.04c-.1 0-.43-.05-.62-.02.02-.03.05-.07.03-.09.02 0 .03-.02.03-.04-.01 0-.02-.01-.04-.02v-.03s0-.02-.01-.02c0 0-.02-.02-.04-.03-.02-.01-.03-.01-.04-.01h-.03s-.02 0-.02.01c0 0-.02-.01-.03-.01 0 .02-.01.03 0 .05-.02 0-.03.05-.05.04 0 .01.01.02.02.02-.01.03-.02.06-.04.06 0 0 0 .01.01.02v.05h-.02s-.04 0-.08-.02c-.03-.02-.03-.03-.03-.06s.01-.05.01-.07v-.02s-.03-.03-.04-.02l.02.02h-.01v.05s-.01-.04-.03-.04h-.01s-.02-.03-.04-.01h.02v.02s.01.03.03.03c-.03-.01-.05 0-.05.02s-.02.04 0 .05v-.02h.03s-.02.04 0 .05c0 .04-.06.03-.05 0-.03.05.02.08.06.06 0 0 0 .01.01.02 0 0 0 .02.02.03v-.02s0-.02.06 0c0 0 0 .01.02.02h.04v.06h-.08s-.09.04-.11.01c0 0 0-.02-.01-.03l-.02-.02h-.02s-.04-.01-.05 0c0 0 .02 0 .03.02s0 .03.04.05h-.02s-.02-.03-.04-.02h-.01s-.05.02-.03.04c0 0 0-.02.02-.02s.01.05.06.01c-.01.02-.04.04-.02.05 0 .02.02.04.04.04 0 0-.02-.02-.01-.04h.01s.01-.03.02-.04c0 .01 0 .03.03.03.02 0 .04-.02.03-.04 0 0 .01.01.01.03 0 0 .01 0 .02-.02 0 .01 0 .03-.01.04.01 0 .04-.02.04-.04h.05v.04s0-.01.01-.01c0 0 0 .03.01.04 0-.06.06-.05.1-.07 0 0 0 .02-.02.02.04.03.09-.03.1-.06h.01s.04-.02.05-.02c.13.01.03-.11.23-.07.01 0 .04-.01.05-.02-.01.03-.02.08.01.09.01 0 .04.01.05.02-.02 0-.03 0-.04.01-.04.03-.04-.06-.09-.05h-.01s-.04.02-.04.04c0 0 .02-.01.03-.02s0 .02.02.02h.02s-.06 0-.05.04.01.04.04.03c0 0-.01-.01-.01-.02h.01v.02s.02.04.05.02c0 0-.02 0-.03-.01h.01v-.02h.01s.02.02.04.02c.03-.01 0-.04.03-.04h.09s0-.06-.02-.07c-.02 0 0-.03-.01-.05.03.01.05.02.09.02.07 0 .1 0 .13-.03.04-.02.07-.01.08 0 0 0 .01 0 0 .02-.02.03 0 .04-.02.05-.01.01-.04 0-.06 0h-.02s-.04.02-.04.04c0 0 .02-.01.03-.02 0 .02.02.03.04.01-.02.01-.05.03-.03.04h.01s0 .03.01.03v-.03h.01s.02-.03.03-.04c-.01.02-.02.04 0 .04h.01s.02.02.04.01c0 0-.01 0-.01-.01 0 0 .01-.01.01-.02.02-.04-.01-.04 0-.05 0-.02.04 0 .05-.04v-.02s.02 0 .03-.01c-.03 0-.01-.02-.01-.03.01 0 .02-.02.02-.04-.01.01-.04.03-.04 0 0 0 0-.02-.02-.01-.04 0-.11 0-.19-.01.08 0 .25-.02.25-.07 0-.04 0-.07-.15-.07s-.48.05-.48-.03c0-.04.06-.04.14-.03m-.49.9s0-.02.01-.02c0 0 .01 0 .02-.01 0-.01 0-.02-.02-.02.01 0 .02 0 .01-.01h-.02.01l.04.01v.02s0-.01-.01-.01h-.02v.05s-.02.02-.03.02c-.02 0-.01-.03 0-.03m.05-.11s-.02.02-.03.01c-.01-.01 0-.01-.01-.04.01 0 .04.02.05.03m.03.02s.04.02.05.02c-.02 0-.02.01-.03.01-.02 0-.02-.02-.02-.04m.36-.02s.01.02.03.02c.19.05.41-.09.52-.06-.15-.05-.24.04-.39 0 .08 0 .17-.02.17-.04-.06.04-.24-.03-.33.02 0 0-.01 0-.01.01-.06.01-.11.04-.11.09 0 .12.49.03.49.07 0 .03-.09.06-.22.06-.1 0-.26-.06-.48-.01s.06-.09.04-.11c.02 0 .03-.02.03-.03s-.02-.01-.03-.02v-.05s-.02-.02-.04-.03c-.02 0-.03 0-.04-.01h-.04s-.02-.01-.03-.01c0 .02-.01.03 0 .05-.02 0-.03.04-.05.04 0 .01.01.02.02.02-.01.03-.02.05-.04.06l.02.02s-.01.08 0 .12c-.03-.03-.07-.1-.1-.12-.03-.02-.03-.03-.03-.06 0-.02.01-.04 0-.07v-.02s-.02-.03-.04-.02l.02.02h-.01v.04s-.01-.04-.03-.04h-.01s-.02-.03-.04 0h.02v.02s.01.02.03.02c-.03-.01-.05 0-.05.01s-.01.03 0 .05v-.02h.02s-.02.04 0 .05c0 .04-.05.03-.05 0-.03.04.02.08.06.06 0 0 0 .01.01.01 0 0 0 .02.02.03v-.02s0 .06.05.09c0 .03.04.05.07.05 0 .02.02.04.02.04h-.09s-.04.02-.06.02-.04 0-.05-.01c0 0 0-.02-.01-.03 0 0-.01-.02-.02-.02h-.02s-.03-.01-.04 0c0 0 .02 0 .02.02s0 .03.04.05h-.02s-.02-.03-.04-.02h-.01s-.04.02-.03.04c0 0 0-.02.02-.02s.01.05.05.01c0 .02-.04.03-.02.05 0 .02.02.04.03.04 0 0-.02-.02-.01-.04h.01s0-.03.02-.04c0 0 0 .03.03.03.02 0 .03-.02.03-.03 0 0 .02.01.01.03 0 0 .01 0 .02-.02v.04s.03-.01.04-.04h.05V11s0-.01.01-.01c0 0 0 .02.01.04 0-.06.04-.04.08-.06 0 0 0 .01-.02.02.01 0 .06-.02.06-.04 0 0 .03-.03.04-.1h.02c.05 0 .07-.04.12-.04-.01.01-.02.05-.02.07 0 .03.04.06.05.07h-.04s-.04-.06-.09-.05h-.01s-.04.02-.04.04c0 0 .01-.01.03-.02s0 .02.02.02h.02s-.05 0-.04.04.01.04.03.03c0 0-.01 0-.01-.02h.01s.02.04.05.03c0 0-.02 0-.02-.01h.01v-.02h.01s.02.02.03.01c.03 0 0-.03.03-.04h.02s.04.01.05 0c0-.01 0-.05-.02-.07-.01 0 .02-.1-.05-.14.03 0 .14.02.16 0 .03 0 .07.03.07.04v.02s-.02.03-.04.03-.02-.02-.03-.03h-.02s-.04 0-.04.02h.03s-.05.01-.04.02-.01.04 0 .05c0 0 0-.01.02-.02 0 0 .03-.02.04 0-.02 0-.03.02-.02.03s0 .04.02.05v-.02h.02s.01-.04.02-.05.03.02.05 0v-.02s.01.02.02 0c-.02-.02 0-.02 0-.04 0 0 .02 0 .03-.02-.01 0-.05-.02-.03-.03.03-.01.04-.03.02-.05-.03-.03-.08-.04-.08-.07h.05c.16 0 .26-.04.26-.1 0-.11-.5 0-.5-.07 0-.02.03-.04.07-.05M8 2.05c0-.06-.05-.12-.12-.12s-.12.05-.12.12.05.12.12.12.12-.05.12-.12m-.04-.32c0-.06-.05-.12-.12-.12s-.12.05-.12.12.05.12.12.12.12-.05.12-.12m.07-.14c.06 0 .12-.05.12-.12s-.05-.12-.12-.12-.12.05-.12.12.05.12.12.12m.32-.02c.06 0 .12-.05.12-.12s-.05-.12-.12-.12-.12.05-.12.12.05.12.12.12m1.34-.22s.12.05.16 0c.04-.04.04-.12 0-.16-.05-.05-.12-.05-.16 0-.05.05-.05.12 0 .17m-.02-.25s.05-.12 0-.16C9.62.9 9.55.9 9.51.95c-.05.04-.05.12 0 .16.05.05.12.05.16 0m-.32-.06s.05-.12 0-.16c-.04-.05-.12-.05-.17 0-.05.05-.05.12 0 .17s.12.05.16 0m-.25.19s.05-.12 0-.16c-.04-.05-.12-.05-.17 0-.05.05-.05.12 0 .17.05.04.12.04.16 0m-.75-.17.09.2.12-.14h.01c.01.07.01.19.01.25 0 .08.07.15.15.15s.15-.07.15-.15c0-.06-.03-.11-.08-.13a.572.572 0 0 1-.16-.15V1.1l.2.02-.08-.21-.15.13V.82L8.38.9l.14.16v.02l-.18.02h-.01Z"/>
    <path d="M9.7 1.45c.05.07.06.1.06.16a.254.254 0 0 1-.12-.11l.02.27s.06-.08.1-.1c0 .18-.08.25-.14.26-.07 0-.13-.03-.14-.09-.01-.08.05-.13.12-.06.01-.16-.12-.16-.18-.09.07-.16.04-.26-.1-.36-.09.15-.05.24.06.37-.11-.05-.2.04-.11.16.02-.1.11-.08.13 0 .02.07-.05.16-.17.2-.17.05-.22-.06-.26-.15.04-.02.12-.02.22.05l-.08-.27c-.04.09-.09.13-.16.16 0-.08.05-.23.05-.23l-.33.13s.15.07.2.13c-.07.03-.13.04-.23 0l.13.25c.03-.11.08-.18.12-.19.03.09.07.21-.08.3-.11.06-.22.04-.26-.03s0-.15.09-.09c-.01-.15-.15-.15-.19-.04 0-.16-.04-.25-.21-.31-.04.16.01.25.17.33-.09 0-.19.08-.06.19 0-.1.08-.11.13-.04.03.05.03.12-.04.16-.05.03-.15.03-.29-.09.04-.02.08 0 .14 0l-.17-.21c0 .08 0 .13-.01.16-.04-.04-.05-.08-.07-.16l-.13.12c.12.08.27.19.45.44.46-.28.97-.48 1.5-.6-.04-.3-.02-.49.01-.63h-.18.03-.02Zm.38 1.59c-.16.13-.39 0-.49-.16.22-.09.49-.2.67-.31-.16.25-.05.37-.18.47m-.04 1.72c-.21.09-.38-.09-.42-.22-.04-.13-.07-.23-.03-.29.09-.09.12-.16.06-.27-.06-.13-.2-.07-.36-.03.07-.12.07-.21-.02-.2-.11 0-.11.19-.18.17-.06-.02-.03-.13-.03-.18 0-.08.05-.1.13-.14l.62-.23c.08-.03.13-.04.19 0 .04.04.14.09.11.15-.03.06-.16-.07-.25 0-.08.06 0 .12.13.16-.13.08-.27.13-.23.26.04.12.11.15.23.15.07 0 .12.1.17.22.06.12.08.34-.15.44M8.83 3.5c-.16 0-.16-.14-.46-.21.2-.04.47-.14.7-.23.04.19-.03.43-.24.45m3.44 5.51c.05-.12-.18-.27-.21-.45s0-.36-.21-.6c-.2-.23-.92-1-1.13-1.24.05 0 .18-.03.32.09.08.07.22.21.37.36.19-.48.42-.83.75-1.21.04-.05.08-.09.13-.14-.12.04-.32.06-.42.14 0-.2 0-.38-.13-.51.05-.3 0-.64-.65-1.08.34.08.53.39.78.15-.23 0-.23-.51-1.07-.93.32 0 .56.51.93.21-.35-.04-.46-.65-1.08-.85.21.02.44.13.62-.12-.21.05-.35-.15-.57-.16.09-.26.07-.44-.03-.63-.16 0-.33.06-.45.16-.02-.15-.17-.15-.32-.14 0 .06.04.15-.03.17-.11.02-.48.12-.76.23-.29.11-.61.32-.7.38-.06.04-.11-.05-.14-.1-.1.08-.2.19-.12.31-.16 0-.34.05-.48.17 0 .18.15.37.38.47-.39.39-.04.73-.38 1.07.48.02.4-.64.63-.73-.02.47-.29.55-.29 1.05 0 .26.16.56.02.73.4-.11.3-.99.54-1.25.04.15.02.3-.03.45-.14.41.02.98-.2 1.15.41-.04.46-.69.79-.93-.29.59-.58 1.83-1.01 2.46-.69.94-1.1 2.08-1.74 2.08-.29 0-.49-.17-.49-.53 0-1.06 1.82-1.79 1.82-2.92 0-.5-.41-.69-.67-.69-.17 0-.39.08-.56.23a.537.537 0 0 0-.21-.05c-.64 0-.47 1.16-1.04 1.15.22.12.61-.12.83-.44-.09.75-1.17.55-1.09 1.46.15-.7 1.87-.6 1.87-1.67a.42.42 0 0 0-.15-.31c.13-.08.25-.11.37-.11.2 0 .4.15.4.46 0 .95-1.81 1.75-1.81 2.91 0 .19.06.36.15.49-.12.05-.25.03-.37-.1-.01.3.42.49.69.34.06.02.12.03.18.04-.08.22-.36.29-.5.27.45.35 1.22-.11 1.18-.51.36-.29.58-.77.83-1.09-.02.07-.03.15-.04.22-.26.47-.5.9-.57 1.52-.06.52-.32.99-.68.99-.08 0-.21-.1-.27-.05-.11.1 0 .2 0 .3 0 .15-.29.3-.29.75 0 .2.12.45.07.59.11-.06.27-.25.34-.51.12.6-.25.58.02 1.11.03-.17.21-.25.32-.17.11.07.06.12-.02.2s-.15.48.21.46c-.07-.04-.07-.15.11-.19.25-.05.33.06.59.06.16 0 .21-.21.35-.21s.13.1.08.17c.21-.06.25-.17.25-.3s-.1-.19-.02-.23c.07-.05.32 0 .22.2.12-.02.19-.11.19-.26s-.17-.24-.35-.21c-.03-.1-.17-.15-.31-.15-.3 0-.25.23-.46.23-.33 0-.64-.43-.64-1.14 0-.39.41-.48.7-.6s.8-.44 1.11-.96c.24-.4.24-.85.21-1.36.41.23.46.57.46.82 0 .32-.16.45-.3.51-.11.05-.15.03-.16.09-.01.08.04.13.09.15.15.07.12.21.16.37s.18.4.41.57c.02-.09.02-.24 0-.45.32.15.06.79.67.79-.11-.06-.08-.23-.02-.25.06-.02.14.04.26.2s.09.15.38.15.16-.1.32-.1.14.17.06.31c.25-.08.34-.27.25-.48.22-.12.35.05.39.17.22-.22 0-.5-.17-.52 0-.08-.07-.17-.16-.17s-.18-.01-.29 0c-.1 0-.16.16-.29.16-.39 0-1.14-.69-1.14-1s.72-.49.72-.95c0-.61-.6-.81-1.11-1.21.18-.2.7-.25 1.01-.1.03-.17.14-.13.18-.42.1.25 0 .48.1.59.08-.12.31-.1.29-.43.07.2-.08.51.07.64.03-.16.12-.19.18-.19s.11.04.11.14c0 .24-.31.13-.31.41 0 .11.14.15.14.23s-.12.19-.26.09c.05.1.14.2.27.2s.27-.11.34-.24c.07.17.02.37-.11.4.13.06.45 0 .41-.4.17.03.27.15.16.37.14-.04.27-.11.27-.26 0-.12-.13-.15-.07-.32M24 11.94c0-.21.17-.38.39-.38s.38.17.38.38-.17.38-.38.38c-.2 0-.39-.17-.39-.38m-.13 0c0 .29.23.51.51.51s.51-.23.51-.51-.23-.51-.51-.51-.51.23-.51.51m-1.68.93c-.14-.03-.24-.13-.23-.24 0-.05.04-.09.07-.1.06-.04.14-.05.22-.04.13.02.23.12.23.21v.03c-.02.11-.15.17-.3.14m-.23-.46c-.07.05-.11.11-.12.19-.02.09.01.18.08.25.14.15.36.19.54.1.09-.05.14-.12.16-.21.03-.18-.12-.36-.34-.4-.12-.02-.23 0-.33.06m-2.85-6.88c0-.07.04-.14.11-.19.06-.04.13-.07.19-.06.03 0 .07.02.09.05.03.04.03.08.03.1 0 .06-.05.13-.1.17-.1.08-.23.08-.3 0a.114.114 0 0 1-.03-.08m.03-.3c-.16.12-.2.34-.1.47s.32.13.48.01c.09-.07.14-.16.15-.26 0-.07 0-.15-.05-.2a.274.274 0 0 0-.18-.1c-.1-.01-.2.02-.3.08Zm2.41 6.93s-.09-.03-.11-.05c-.05-.06-.08-.13-.08-.21s.03-.16.08-.21c.02-.02.06-.05.12-.05.11 0 .19.12.19.27 0 .08-.03.16-.08.21-.02.02-.06.05-.11.05m-.2-.58c-.08.07-.12.18-.12.31s.04.23.11.32c.06.06.13.09.2.09.08 0 .15-.03.21-.08.08-.07.12-.18.12-.31 0-.1-.03-.2-.08-.27a.321.321 0 0 0-.23-.13c-.08 0-.15.03-.21.09m-2.4-3.67c-.13-.06-.2-.19-.15-.3.02-.05.06-.07.1-.08.07-.02.15-.02.23.02s.13.1.16.16c.01.03.02.08 0 .13s-.06.07-.1.08c-.07.02-.15.02-.23-.02m-.1-.5c-.08.03-.14.08-.17.15-.08.16.02.38.21.47.11.05.23.06.34.03.08-.03.14-.08.17-.15s.03-.15 0-.22a.449.449 0 0 0-.55-.27"/>
    <path d="M22.61 9.74c-.08.12-.22.16-.32.09s-.1-.21-.02-.34.22-.16.32-.09c.09.06.1.21.02.34m-.6.96c-.08.12-.22.16-.33.09-.09-.06-.1-.21-.02-.34s.22-.16.32-.09.1.21.02.34m-2.07-5.21c.07-.22.2-.66.2-.66l.23.09c-.07.03-.15.09-.22.16.05.02.14.03.21-.02l-.09.23s-.09-.12-.15-.13c-.05.18.07.25.15.31.14.07.23.08.27.02.04-.08-.05-.19-.16-.14-.01-.12.05-.18.13-.18.06 0 .11.06.13.13 0-.19.08-.36.26-.41.07.19.01.33-.13.46.07-.03.16-.03.19.03.04.07.03.16-.08.21-.02-.13-.17-.14-.21-.05-.04.08.02.16.15.23.15.08.27.03.36-.1-.05-.02-.13 0-.21.04l.15-.29s.03.11.1.17c.02-.06.06-.18 0-.29l.34.19c-.11.01-.19.09-.23.15.08.03.15.01.19 0l-.17.27c0-.08-.02-.15-.07-.21-.07.13-.06.26.09.36.13.08.22.09.27.02.05-.08-.03-.2-.15-.16 0-.12.07-.18.14-.17.06 0 .11.08.12.16.05-.19.13-.31.34-.35.04.18-.05.35-.22.44.08-.02.15 0 .18.05.04.07.02.16-.09.21-.02-.13-.16-.15-.2-.07-.04.07.02.14.15.22.08.05.2.12.34-.02-.04-.05-.15-.06-.19-.06l.15-.19c0 .08.05.15.09.19.02-.1.04-.2.03-.27l.19.15s-.32.34-.47.51L19.92 5.5v-.03.02Zm2.5 2.85s.01-.08.05-.11c.04-.04.08-.04.12-.04.07 0 .15.04.21.1s.09.14.09.21c0 .03-.01.08-.05.11s-.08.04-.12.04c-.07 0-.15-.04-.2-.1a.288.288 0 0 1-.09-.21m.92 4.22c.01-.08.06-.15.13-.18.07-.05.15-.06.22-.05.03 0 .08.03.11.07s.03.09.02.12c-.01.08-.06.15-.13.18-.12.08-.27.07-.34-.02-.03-.04-.03-.08-.02-.12m-4.37-6.35c0 .07-.03.14-.08.18-.02.02-.05.04-.1.04-.08 0-.15-.1-.15-.22v-.02c0-.07.03-.14.08-.18.02-.02.05-.04.1-.04.04 0 .07.03.09.05.04.04.06.11.06.18m1.35-2.77c.07-.13 0-.35.25-.35.12 0 .23.12.38.17-.24.02-.46.07-.63.17m3.93 3.47c.16.46.5.62.75.51-.57-.06-.11-1.03-.83-1.03-.04 0-.08 0-.12.01-.12-.13-.26-.18-.47-.18-.31 0-.83.3-.83.91 0 1.32 1.54 1.44 1.54 2.61 0 .35-.25.55-.55.55-.25 0-.47-.29-.68-.74-.1-.21-.33-.51-.56-.81.07.05.15.08.22.08.08 0 .16-.02.21-.08.05-.05.09-.12.09-.2 0-.11-.04-.22-.12-.31s-.19-.14-.31-.14c-.08 0-.16.03-.21.08s-.09.12-.09.2c0 .06 0 .1.02.14-.33-.43-.64-.86-.64-1.09 0-.2.14-.39.32-.6l.06.03.05-.05c.06-.07.19-.2.46-.49l.02-.02.06-.07-.16-.13c.04-.1.08-.2.11-.33.05.21.16.35.31.31-.1-.22.1-.51-.03-1.05.12.2.31.32.44.27-.34-.31.1-.72-.35-1.37.14.05.24.02.31-.05-.41-.06-.22-.57-.93-.75.17-.03.29-.13.25-.22-.18.13-.35-.25-.97-.24-.04-.23-.25-.47-.49-.59.04.17 0 .34-.04.47L19.09.55C19.03.5 19 .48 18.99.5c-.02.02-.01.06.02.09l1.72 2.16c-.13.04-.25.1-.39.15-.08.03-.15.11-.15.22-.32.16-.6.36-.73.48-.1.09-.19.12-.1.34.04.08-.07.29.17.13.16-.1.53-.31.59-.17.03.07-.15.15-.27.2-.12.05-.26.14-.24.19s.12 0 .12.05c0 .06.05.11.1.11s.11-.1.15-.07c.04.03-.02.27-.06.33.19-.02.32-.21.33-.36 0-.14.04-.18.07-.2.03-.02.06.15.02.26.1-.02.21-.15.19-.41.05-.04.1-.07.14-.07.06 0 .19.18.38.18.34 0 .53-.27.55-.41.02-.1 0-.2-.05-.29.12.1.16.25.16.37 0 .48-.86.71-1.2 1.04-.01.01-.03.02-.04.04l-.4-.15-.03.09s0 .02-.02.07c-.04.13-.13.42-.18.59l-.02.06.04.02c-.23.32-.43.67-.47 1.03-.09-.1-.18-.18-.3-.26.04-.14.02-.28-.07-.4-.05-.05-.11-.09-.18-.09s-.14.02-.19.07c-.01.01-.02.02-.03.04-.01-.01-.03-.02-.04-.03-.13-.1-.3-.22-.4-.34-.04-.05-.08-.07-.17-.07h-.17s-.09.04-.16.1c-.03.03-.12.1-.22.18.05.05.1.1.14.15.02.03.05.06.07.09.03-.02.05-.04.07-.05.04-.03.1-.04.15-.04s.12.04.17.11c.04.05.36.48.63.77-.03 0-.06.02-.08.03-.11.05-.38.04-.49.03-.11 0-.14-.04-.21.08-.03.05-.07.1-.1.15-.04.05-.07.1.01.23.12.2.41.72.51.97.1.23.21.27.4.36s.51.25.54.31v-.18c-.04-.05-.22-.12-.29-.14-.07-.02-.08-.05 0-.05s.31.08.46.14c-.05-.18-.21-.38-.32-.48-.13-.04-.27-.04-.33 0 0 .04-.02.08-.07.08s-.09-.04-.07-.09.1-.07.08-.17c-.02-.1-.14-.12-.22-.13-.11-.16-.24-.41-.31-.51s-.02-.15.02-.18c.1-.08.31.04.71.07.14 0 .33.02.5.03.05.47.24.93.9 1.09.33.08.65.32.76.62-1.31-.02-1.52.49-1.52.98 0 .55.46.52.46.93 0 .36-1.1.51-1.44.56-.29.04-.45.1-.58.24-.13.13-.27.26-.52.51 0 0 .1.02.21.02l.18-.24c.05-.08.09-.15.13-.14.04 0 .01.07-.03.15l-.15.25c.65.04.69-.19.69-.3s-.16-.16-.07-.22.17-.02.24.07.1.16.27.09c0 0 1.42-.58 1.59-.66.16-.07.11-.14.02-.22-.1-.09-.12-.22-.12-.38 0-.43.25-.56.71-.55 0 .07-.01.14-.01.2 0 .67 1.01 1.32 1.28 1.32.12 0 .29-.09.3.32 0 .3.07.51.01.85-.05.35-.15.4-.36.54-.2.14-.4.6-.49.69.09.06.19.07.26-.15.06-.18.13-.32.21-.36-.08.2-.14.5-.17.58.25.04.67-.19.67-.38s-.14-.16-.14-.29c0-.05.06-.11.14-.11.1 0 .18.08.19.12.11-.06.18-.17.18-.44 0-.1 0-.21-.01-.33 0 .01.01.03.02.04.05.08.13.12.23.13.1 0 .2-.03.29-.08.1-.07.17-.16.19-.27v-.06c0-.06-.02-.11-.05-.16a.247.247 0 0 0-.19-.12.456.456 0 0 0-.51.31c-.02-.37-.05-.7-.04-.85.01-.2.02-.3-.05-.33s-.14.08-.24.08-.4-.27-.4-.56.32-.66.3-1.06c0-.12.07-.18.12-.07.06.13.15.32.29.47-.08.5.47.98.92.62-.22.03-.38-.16-.47-.37.04 0 .08.01.12.01h.07c.15.19.66.18.78-.31a.5.5 0 0 1-.4.16c.19-.14.29-.39.29-.64 0-1.26-1.53-1.41-1.53-2.56 0-.43.38-.7.63-.7.1 0 .17.03.23.07-.1.1-.15.25-.14.44.04.91 1.52.86 1.54 1.29.16-.65-.94-.45-.98-1.33M8.73 20.74c1.28 0 2.27.33 2.96.98.69.65 1.04 1.65 1.04 2.98 0 .7-.08 1.32-.23 1.86-.16.54-.4 1-.72 1.36s-.74.65-1.25.85c-.51.19-1.1.29-1.8.29H5.87v-8.33h2.86Zm.09 7.39c.12 0 .28 0 .47-.03s.38-.07.59-.14c.21-.07.42-.18.62-.32.21-.14.39-.33.55-.57.16-.24.3-.54.4-.9.1-.36.16-.8.16-1.31s-.05-.94-.15-1.34c-.1-.39-.26-.73-.48-1-.22-.28-.51-.49-.86-.63s-.78-.22-1.29-.22H6.96v6.46H8.8Zm9.19.55c-.45.34-1.02.51-1.7.51-.48 0-.9-.08-1.25-.23-.35-.16-.65-.37-.89-.65s-.42-.61-.54-1c-.12-.39-.19-.81-.2-1.27 0-.46.07-.88.21-1.26.14-.38.34-.71.59-.99.25-.28.55-.5.9-.65.35-.16.72-.23 1.14-.23.54 0 .98.11 1.33.33.35.22.64.5.85.85.21.34.36.72.44 1.12.08.4.11.79.1 1.15h-4.51c0 .26.02.51.09.75s.18.45.34.63c.16.18.35.33.59.44.24.11.52.16.85.16.42 0 .76-.1 1.03-.29.27-.19.44-.49.53-.89h.98c-.13.68-.42 1.19-.87 1.53Zm-.24-3.87c-.09-.21-.21-.39-.36-.54a1.702 1.702 0 0 0-1.22-.49c-.25 0-.49.04-.69.13-.21.09-.38.21-.53.37a1.868 1.868 0 0 0-.5 1.2h3.46c-.02-.23-.07-.45-.16-.66Zm3.07-1.78v.82h.02c.16-.33.42-.58.77-.73.35-.15.73-.23 1.15-.23.47 0 .87.09 1.22.26s.63.4.86.69.4.63.52 1.01.17.79.17 1.21-.06.83-.17 1.21c-.11.38-.28.71-.51 1-.23.28-.52.51-.86.67-.35.16-.75.24-1.21.24-.15 0-.31-.02-.5-.05-.18-.03-.36-.08-.54-.15a2.16 2.16 0 0 1-.51-.29c-.16-.12-.29-.27-.4-.45h-.02v3.1h-.99v-8.33h.99Zm3.56 2.14c-.07-.27-.19-.51-.34-.72-.15-.21-.35-.38-.58-.5s-.52-.19-.83-.19c-.33 0-.62.07-.85.2-.23.13-.42.31-.57.52-.15.21-.25.46-.32.73-.07.27-.1.55-.1.83 0 .3.04.58.1.86.07.28.18.52.33.73.15.21.35.38.59.51s.53.19.87.19.63-.07.86-.2c.23-.13.41-.31.55-.52.14-.22.24-.47.3-.75s.09-.57.09-.86c0-.28-.04-.55-.11-.82Zm7.41 3.87c-.17.1-.41.15-.71.15-.26 0-.46-.07-.61-.22-.15-.14-.23-.38-.23-.71-.27.33-.59.56-.95.71-.36.14-.75.22-1.17.22-.27 0-.53-.03-.78-.09-.24-.06-.46-.16-.64-.29-.18-.13-.32-.3-.43-.52s-.16-.47-.16-.78c0-.34.06-.62.17-.84.12-.22.27-.39.46-.53s.41-.24.65-.31c.24-.07.5-.13.75-.17.27-.05.53-.1.78-.12.25-.03.46-.07.65-.12.19-.05.33-.12.44-.22.11-.1.16-.24.16-.43 0-.22-.04-.39-.12-.52-.08-.13-.19-.23-.31-.3s-.27-.12-.43-.14c-.16-.02-.32-.03-.47-.03-.42 0-.77.08-1.05.24-.28.16-.43.46-.46.9h-.99c.02-.37.09-.69.23-.94.14-.26.33-.46.56-.62.23-.16.5-.27.8-.34.3-.07.62-.1.96-.1.27 0 .54.02.81.06.27.04.51.12.73.24.22.12.39.29.52.51.13.22.2.5.2.85v3.1c0 .23.01.4.04.51s.12.16.27.16c.09 0 .19-.02.3-.05v.77Zm-1.61-3.09c-.12.09-.29.16-.49.2-.2.04-.41.08-.64.1l-.67.09c-.23.03-.43.09-.61.17-.18.08-.32.19-.44.33-.11.14-.17.34-.17.59 0 .16.03.3.1.41s.15.2.26.27c.1.07.23.12.37.15.14.03.29.05.44.05.33 0 .61-.04.84-.13.23-.09.42-.2.57-.34.15-.14.26-.28.33-.44.07-.16.1-.31.1-.45v-1.01Zm3.25-2.92v1.27h.02c.24-.49.54-.85.89-1.08.35-.23.79-.34 1.33-.33v1.05c-.4 0-.73.05-1.01.16s-.51.27-.68.48c-.17.21-.3.46-.37.76-.08.3-.12.64-.12 1.03v2.68h-.99v-6.03h.93Zm5.69 0v.87h-1.2v3.74c0 .12 0 .21.03.28.02.07.06.12.11.16.05.04.13.06.23.08.1.01.22.02.38.02h.45v.88h-.76c-.26 0-.48-.02-.66-.05-.18-.04-.33-.1-.44-.19a.81.81 0 0 1-.25-.4c-.05-.17-.08-.4-.08-.68V23.9h-1.03v-.87h1.03v-1.81h.99v1.81h1.2Zm1.73 0v.89h.02c.45-.68 1.1-1.03 1.95-1.03.37 0 .71.08 1.01.23.3.16.52.42.64.79.2-.33.47-.58.8-.76s.69-.27 1.09-.27c.3 0 .58.03.82.1s.45.17.63.31c.17.14.31.32.41.54s.15.49.15.8v4.42h-.99V25.1c0-.19-.02-.36-.05-.52-.03-.16-.09-.3-.17-.43s-.2-.22-.36-.29c-.15-.07-.35-.1-.59-.1-.49 0-.87.14-1.15.42-.28.28-.42.65-.42 1.12v3.76h-.99v-3.95c0-.19-.02-.37-.05-.54-.04-.16-.1-.31-.18-.43s-.2-.21-.34-.28c-.14-.07-.33-.1-.55-.1-.29 0-.53.06-.74.17-.21.12-.37.26-.5.42-.13.16-.22.33-.28.51-.06.17-.09.32-.09.44v3.76h-.99v-6.03h.93Zm13.03 5.65c-.45.34-1.02.51-1.7.51-.48 0-.9-.08-1.25-.23-.35-.16-.65-.37-.89-.65s-.42-.61-.54-1c-.12-.39-.19-.81-.2-1.27 0-.46.07-.88.21-1.26.14-.38.34-.71.59-.99.25-.28.55-.5.9-.65.35-.16.72-.23 1.14-.23.54 0 .98.11 1.33.33.35.22.64.5.85.85.21.34.36.72.44 1.12.08.4.11.79.1 1.15h-4.51c0 .26.02.51.09.75s.18.45.34.63c.16.18.35.33.59.44.24.11.52.16.85.16.42 0 .76-.1 1.03-.29.27-.19.44-.49.53-.89h.98c-.13.68-.42 1.19-.88 1.53Zm-.24-3.87c-.09-.21-.21-.39-.36-.54a1.702 1.702 0 0 0-1.22-.49c-.25 0-.49.04-.69.13-.21.09-.38.21-.53.37a1.868 1.868 0 0 0-.5 1.2h3.46c-.02-.23-.07-.45-.16-.66Zm2.99-1.78v.96h.02c.41-.73 1.07-1.1 1.96-1.1.4 0 .73.05.99.16s.48.26.64.45c.16.19.28.43.34.69.07.27.1.57.1.89v3.97h-.99v-4.08c0-.37-.11-.67-.33-.89-.22-.22-.52-.33-.9-.33-.3 0-.57.05-.79.14s-.41.23-.55.4c-.15.17-.26.37-.33.6-.07.23-.11.48-.11.75v3.41h-.99v-6.03h.93Zm7.81 0v.87h-1.2v3.74c0 .12 0 .21.03.28.02.07.06.12.11.16.05.04.13.06.23.08.1.01.22.02.38.02h.46v.88h-.76c-.26 0-.48-.02-.66-.05-.18-.04-.33-.1-.44-.19a.81.81 0 0 1-.25-.4c-.05-.17-.08-.4-.08-.68V23.9h-1.03v-.87h1.03v-1.81h.99v1.81h1.2Zm3.25.88v-.87h1.01v-.9c0-.49.14-.86.43-1.11.28-.25.7-.38 1.24-.38a2.205 2.205 0 0 1 .64.09v.86c-.08-.03-.18-.05-.28-.06-.1-.01-.19-.02-.28-.02-.24 0-.43.05-.56.14s-.2.27-.2.54v.84h1.17v.87h-1.17v5.15h-.99v-5.15h-1.01Zm3.55.9c.12-.38.31-.72.56-1 .25-.28.56-.51.92-.67s.79-.24 1.26-.24.9.08 1.27.24c.36.16.67.39.92.67s.44.62.56 1 .19.8.19 1.24-.06.85-.19 1.24-.31.71-.56 1-.55.5-.92.67c-.36.16-.78.24-1.27.24s-.89-.08-1.26-.24c-.37-.16-.67-.38-.92-.67s-.44-.62-.56-1c-.12-.38-.19-.79-.19-1.24s.06-.86.19-1.24Zm1.01 2.22c.1.28.23.52.4.71.17.19.37.34.6.44.23.1.47.15.73.15s.5-.05.73-.15.43-.25.6-.44c.17-.19.31-.43.4-.71.1-.28.15-.61.15-.97s-.05-.69-.15-.97c-.1-.28-.23-.52-.4-.72s-.37-.34-.6-.44-.47-.15-.73-.15-.5.05-.73.15c-.23.1-.43.25-.6.44s-.31.43-.4.72c-.1.28-.15.61-.15.97s.05.69.15.97Zm6.5-4v1.27h.02c.24-.49.54-.85.89-1.08.35-.23.79-.34 1.33-.33v1.05c-.4 0-.73.05-1.01.16s-.5.27-.68.48c-.17.21-.3.46-.37.76-.08.3-.12.64-.12 1.03v2.68h-.99v-6.03h.93ZM10.04 34.12c-.37-.27-.84-.4-1.42-.4-.23 0-.46.02-.69.07-.23.05-.43.12-.6.23-.17.11-.31.25-.42.44s-.16.41-.16.68c0 .26.08.46.23.62.15.16.35.29.61.39.25.1.54.18.86.25.32.07.64.14.97.22.33.08.65.17.97.27.32.11.6.25.86.43s.46.4.61.68.23.61.23 1.03c0 .44-.1.82-.3 1.14-.2.31-.45.57-.76.77s-.66.34-1.04.43c-.38.09-.77.13-1.15.13-.47 0-.91-.06-1.32-.17s-.78-.29-1.1-.53-.56-.54-.75-.91-.27-.81-.27-1.31h1.05c0 .35.07.65.2.9.14.25.31.46.54.62.22.16.48.28.78.36.29.08.6.12.91.12.25 0 .5-.02.75-.07s.48-.13.68-.24c.2-.11.37-.27.49-.46s.19-.44.19-.75c0-.29-.08-.52-.23-.7-.15-.18-.35-.32-.61-.44-.25-.11-.54-.2-.86-.27-.32-.07-.64-.14-.97-.22-.33-.07-.66-.16-.97-.26-.32-.1-.6-.23-.86-.38-.25-.16-.46-.37-.61-.62-.15-.25-.23-.57-.23-.95 0-.42.09-.78.26-1.09.17-.31.4-.56.68-.76s.61-.35.97-.44a4.51 4.51 0 0 1 2.3 0c.37.1.69.26.96.48.28.22.49.49.65.82.16.33.25.72.26 1.18h-1.05c-.06-.6-.28-1.03-.65-1.3Zm6.6 2.21c-.25-.21-.58-.31-1-.31-.36 0-.66.07-.9.2s-.43.31-.58.52c-.14.22-.25.47-.31.75s-.09.58-.09.88c0 .28.03.55.1.82.07.26.17.5.31.71s.32.37.55.5c.23.12.49.19.8.19.49 0 .87-.13 1.15-.38.28-.26.44-.62.51-1.08h1.01c-.11.75-.39 1.32-.83 1.73-.45.4-1.06.61-1.83.61-.46 0-.86-.07-1.22-.22-.35-.15-.65-.36-.89-.63s-.42-.6-.54-.97-.18-.79-.18-1.24.06-.87.17-1.27.29-.73.53-1.03c.24-.29.53-.52.89-.69.36-.17.77-.25 1.25-.25.34 0 .66.04.96.12.3.08.56.21.79.38.23.17.42.39.57.65.15.26.24.57.28.93h-1.03c-.08-.38-.24-.68-.49-.89Zm2.46-2.13v-1.21h.99v1.21h-.99Zm.99 1.08v6.03h-.99v-6.03h.99Zm5.57 5.65c-.45.34-1.02.51-1.7.51-.48 0-.9-.08-1.25-.23-.35-.16-.65-.37-.89-.65s-.42-.61-.54-1c-.12-.39-.19-.81-.2-1.27 0-.46.07-.88.21-1.26.14-.38.34-.71.59-.99.25-.28.55-.5.9-.65.35-.16.72-.23 1.14-.23.54 0 .98.11 1.33.33.35.22.64.5.85.84.21.34.36.72.44 1.12s.11.79.1 1.15h-4.51c0 .26.02.51.09.75s.18.45.34.63c.16.18.35.33.59.44.24.11.52.16.85.16.42 0 .76-.1 1.03-.29.27-.19.44-.49.53-.89h.98c-.13.68-.42 1.19-.87 1.53Zm-.24-3.87c-.09-.21-.21-.39-.36-.54a1.702 1.702 0 0 0-1.22-.49c-.25 0-.49.04-.69.13-.21.09-.38.21-.53.37-.15.16-.26.34-.35.54-.09.21-.14.42-.15.66h3.46c-.02-.23-.07-.45-.16-.66Zm2.99-1.77v.96h.02c.41-.73 1.06-1.1 1.96-1.1.4 0 .73.05.99.16a1.599 1.599 0 0 1 .98 1.15c.07.27.1.57.1.89v3.96h-.99v-4.08c0-.37-.11-.67-.33-.89s-.52-.33-.9-.33c-.3 0-.57.05-.79.14a1.4 1.4 0 0 0-.55.4c-.15.17-.26.37-.33.6s-.11.48-.11.75v3.41h-.99v-6.03h.93Zm8.91 1.04c-.25-.21-.58-.31-1-.31-.36 0-.66.07-.9.2s-.43.31-.58.52c-.14.22-.25.47-.31.75s-.09.58-.09.88c0 .28.03.55.1.82.07.26.17.5.31.71s.32.37.55.5c.23.12.49.19.8.19.49 0 .87-.13 1.15-.38.28-.26.44-.62.51-1.08h1.01c-.11.75-.39 1.32-.83 1.73-.45.4-1.06.61-1.83.61-.46 0-.86-.07-1.22-.22-.35-.15-.65-.36-.89-.63s-.42-.6-.54-.97-.18-.79-.18-1.24.06-.87.17-1.27.29-.73.53-1.03c.24-.29.53-.52.89-.69.36-.17.77-.25 1.25-.25.34 0 .66.04.96.12.3.08.56.21.79.38.23.17.42.39.57.65.15.26.24.57.28.93h-1.03c-.08-.38-.24-.68-.49-.89Zm6.7 4.6c-.45.34-1.02.51-1.7.51-.48 0-.9-.08-1.25-.23-.35-.16-.65-.37-.89-.65s-.42-.61-.54-1c-.12-.39-.19-.81-.2-1.27 0-.46.07-.88.21-1.26.14-.38.34-.71.59-.99.25-.28.55-.5.9-.65.35-.16.72-.23 1.14-.23.54 0 .98.11 1.33.33.35.22.64.5.85.84.21.34.36.72.44 1.12s.11.79.1 1.15h-4.51c0 .26.02.51.09.75s.18.45.34.63c.16.18.35.33.59.44.24.11.52.16.85.16.42 0 .76-.1 1.03-.29.27-.19.44-.49.53-.89h.98c-.13.68-.42 1.19-.87 1.53Zm-.24-3.87c-.09-.21-.21-.39-.36-.54a1.702 1.702 0 0 0-1.22-.49c-.25 0-.49.04-.69.13-.21.09-.38.21-.53.37-.15.16-.26.34-.35.54-.09.21-.14.42-.15.66h3.46c-.02-.23-.07-.45-.16-.66Zm3.39 2.96v1.18c0 .44-.1.82-.3 1.14-.2.32-.53.54-.98.68v-.58c.13-.05.24-.11.33-.2.09-.09.16-.19.22-.29.05-.11.09-.21.11-.32.02-.11.03-.21.02-.3h-.69v-1.29h1.29Zm5.79-7.03v8.33h-1.11v-8.33h1.11Zm2.35 2.3v.96h.02c.41-.73 1.07-1.1 1.96-1.1.4 0 .73.05.99.16a1.599 1.599 0 0 1 .98 1.15c.07.27.1.57.1.89v3.96h-.99v-4.08c0-.37-.11-.67-.33-.89-.22-.22-.52-.33-.9-.33-.3
    0-.57.05-.79.14a1.4 1.4 0 0 0-.55.4c-.15.17-.26.37-.33.6s-.11.48-.11.75v3.41h-.99v-6.03h.93Zm6.22 0v.96h.02c.41-.73 1.07-1.1 1.96-1.1.4 0 .73.05.99.16s.48.26.64.46.28.43.34.69c.07.27.1.57.1.89v3.96h-.99v-4.08c0-.37-.11-.67-.33-.89-.22-.22-.52-.33-.9-.33-.3 0-.57.05-.79.14-.22.09-.41.23-.55.4s-.26.37-.33.6c-.07.23-.11.48-.11.75v3.41h-.99v-6.03h.93Zm5.15 1.77c.12-.38.31-.72.56-1 .25-.28.56-.51.92-.67s.79-.25 1.26-.25.9.08 1.27.25c.36.16.67.39.92.67s.44.62.56 1 .19.8.19 1.24-.06.86-.19 1.24-.31.71-.56 1-.55.5-.92.67c-.36.16-.78.24-1.27.24s-.89-.08-1.26-.24c-.37-.16-.67-.38-.92-.67s-.44-.62-.56-1c-.12-.38-.19-.79-.19-1.24s.06-.86.19-1.24Zm1.01 2.21c.1.28.23.52.4.71s.37.34.6.44c.23.1.47.15.73.15s.5-.05.73-.15c.23-.1.43-.25.6-.44s.31-.43.4-.71c.1-.28.15-.61.15-.97s-.05-.69-.15-.97c-.1-.28-.23-.52-.4-.72s-.37-.34-.6-.44c-.23-.1-.47-.15-.73-.15s-.5.05-.73.15c-.23.1-.43.25-.6.44s-.31.43-.4.72c-.1.28-.15.61-.15.97s.05.69.15.97Zm7 2.04-2.24-6.03h1.11l1.69 5.03h.02l1.64-5.03h1.04l-2.2 6.03h-1.06Zm9.07-.02c-.17.1-.41.15-.71.15-.26 0-.46-.07-.61-.22-.15-.14-.23-.38-.23-.71-.27.33-.59.56-.95.71-.36.14-.75.22-1.17.22-.27 0-.53-.03-.78-.09s-.46-.16-.64-.29c-.18-.13-.32-.3-.43-.52-.1-.21-.16-.47-.16-.78 0-.34.06-.62.17-.84s.27-.39.46-.53.41-.24.65-.31c.25-.07.5-.13.75-.17.27-.05.53-.09.78-.12.24-.03.46-.07.65-.12.19-.05.33-.12.44-.22.11-.1.16-.24.16-.43 0-.22-.04-.39-.12-.53a.837.837 0 0 0-.32-.3 1.21 1.21 0 0 0-.43-.14 3.89 3.89 0 0 0-.47-.04c-.42 0-.77.08-1.05.24-.28.16-.43.46-.45.9h-.99c.02-.37.09-.69.23-.94.14-.26.33-.46.56-.62.23-.16.5-.27.8-.34.3-.07.62-.11.96-.11.27 0 .54.02.81.06.27.04.51.12.73.24s.39.29.52.51c.13.22.2.5.2.85v3.1c0 .23.01.4.04.51s.12.16.27.16c.08 0 .19-.02.3-.05v.77Zm-1.61-3.09c-.12.09-.29.16-.49.2-.2.04-.41.08-.64.1s-.45.06-.67.09-.43.09-.61.17-.32.19-.44.33c-.11.14-.17.34-.17.59 0 .16.03.3.1.41s.15.2.26.27c.1.07.23.12.37.15.14.03.29.05.44.05.33 0 .61-.04.84-.13.23-.09.42-.2.57-.34.15-.14.26-.28.33-.44.07-.16.1-.31.1-.45v-1.01Zm4.82-2.91v.87h-1.2v3.74c0 .12 0 .21.03.28.02.07.06.12.11.16.05.04.13.06.23.08.1.01.22.02.38.02h.46v.88h-.76c-.26 0-.48-.02-.66-.05s-.33-.1-.44-.19a.81.81 0 0 1-.25-.4c-.05-.17-.08-.4-.08-.68v-3.84h-1.03v-.87h1.03v-1.81h.99v1.81h1.2Zm.84-1.09v-1.21h.99v1.21h-.99Zm.99 1.08v6.03h-.99v-6.03h.99Zm1.16 1.78c.12-.38.31-.72.56-1 .25-.28.56-.51.92-.67s.79-.25 1.26-.25.9.08 1.27.25c.36.16.67.39.92.67s.44.62.56 1 .19.8.19 1.24-.06.86-.19 1.24-.31.71-.56 1-.55.5-.92.67c-.36.16-.78.24-1.27.24s-.89-.08-1.26-.24c-.37-.16-.67-.38-.92-.67s-.44-.62-.56-1c-.12-.38-.19-.79-.19-1.24s.06-.86.19-1.24Zm1.01 2.21c.1.28.23.52.4.71s.37.34.6.44c.23.1.47.15.73.15s.5-.05.73-.15c.23-.1.43-.25.6-.44s.31-.43.4-.71c.1-.28.15-.61.15-.97s-.05-.69-.15-.97c-.1-.28-.23-.52-.4-.72s-.37-.34-.6-.44c-.23-.1-.47-.15-.73-.15s-.5.05-.73.15c-.23.1-.43.25-.6.44s-.31.43-.4.72c-.1.28-.15.61-.15.97s.05.69.15.97Zm6.52-3.98v.96h.02c.41-.73 1.07-1.1 1.96-1.1.4 0 .73.05.99.16s.48.26.64.46.28.43.34.69c.07.27.1.57.1.89v3.96h-.99v-4.08c0-.37-.11-.67-.33-.89-.22-.22-.52-.33-.9-.33-.3 0-.57.05-.79.14-.22.09-.41.23-.55.4s-.26.37-.33.6c-.07.23-.11.48-.11.75v3.41h-.99v-6.03h.93ZM9.28 53.4c-.43.19-.88.29-1.33.29-.56 0-1.01-.08-1.35-.26-.34-.17-.61-.38-.79-.62a1.88 1.88 0 0 1-.37-.75 2.94 2.94 0 0 1-.09-.64c0-.33.05-.61.16-.86.1-.25.25-.47.42-.67s.38-.38.62-.54c.24-.16.49-.31.75-.45-.12-.16-.23-.32-.34-.47s-.21-.3-.3-.45-.16-.31-.21-.48c-.05-.17-.08-.36-.08-.57 0-.23.04-.44.12-.65.08-.21.2-.39.36-.55.16-.16.36-.29.59-.38.23-.09.5-.14.8-.14.26 0 .51.04.75.11s.46.18.65.32.34.32.45.54c.11.21.17.46.17.74 0 .25-.04.48-.13.69s-.2.41-.35.59c-.15.18-.31.34-.5.48-.19.14-.38.27-.58.39l1.5 1.83c.16-.43.24-.87.27-1.29h.94a7.41 7.41 0 0 1-.18 1.12c-.04.15-.1.29-.16.44-.06.14-.14.31-.22.5l1.62 1.88h-1.29l-.89-1.04c-.25.39-.59.68-1.02.88Zm-1.99-3.52c-.17.12-.33.25-.46.4s-.24.31-.31.5-.12.4-.12.65c0 .21.04.4.13.58s.21.32.36.44.32.22.51.29c.19.07.39.11.59.11.38 0 .72-.09 1.02-.27s.55-.42.75-.72l-1.91-2.3c-.19.11-.38.22-.55.34Zm1.25-1.69c.13-.09.25-.2.36-.31.11-.12.2-.25.27-.39s.1-.3.1-.48c0-.24-.09-.45-.26-.62-.17-.17-.4-.26-.7-.26-.23 0-.45.07-.65.22-.2.14-.3.37-.3.67 0 .12.02.25.08.37.05.12.11.25.19.37s.16.24.26.36c.09.12.19.23.28.35.12-.08.24-.16.37-.26Zm6.54-2.02v-.93h6.66v.93h-2.78v7.39h-1.11v-7.39h-2.78Zm10.47 7.01c-.45.34-1.02.51-1.7.51-.48 0-.9-.08-1.25-.23-.35-.16-.65-.37-.89-.65s-.42-.61-.54-1c-.12-.39-.19-.81-.2-1.27 0-.46.07-.88.21-1.26.14-.38.34-.71.59-.99.25-.28.55-.5.9-.65.35-.16.72-.23 1.14-.23.54 0 .98.11 1.33.33.35.22.64.5.85.84.21.34.36.72.44 1.12s.11.79.1 1.15h-4.51c0 .26.02.51.09.75s.18.45.34.63c.16.18.35.33.59.44.24.11.52.16.85.16.42 0 .76-.1 1.03-.29.27-.19.44-.49.53-.89h.98c-.13.68-.42 1.19-.87 1.53Zm-.24-3.87c-.09-.21-.21-.39-.36-.54a1.702 1.702 0 0 0-1.22-.49c-.25 0-.49.04-.69.13-.21.09-.38.21-.53.37-.15.16-.26.34-.35.54-.09.21-.14.42-.15.66h3.46c-.02-.23-.07-.45-.16-.66Zm5.68-.73c-.25-.21-.58-.31-1-.31-.36 0-.66.07-.9.2s-.43.31-.58.52c-.14.22-.25.47-.31.75s-.09.58-.09.88c0 .28.03.55.1.82.07.26.17.5.31.71s.32.37.55.5c.23.12.49.19.8.19.49 0 .87-.13 1.15-.38.28-.26.44-.62.51-1.08h1.01c-.11.75-.39 1.32-.83 1.73-.45.4-1.06.61-1.83.61-.46 0-.86-.07-1.22-.22-.35-.15-.65-.36-.89-.63s-.42-.6-.54-.97-.18-.79-.18-1.24.06-.87.17-1.27.29-.73.53-1.03c.24-.29.53-.52.89-.69.36-.17.77-.25 1.25-.25.34 0 .66.04.96.12.3.08.56.21.79.38.23.17.42.39.57.65.15.26.24.57.28.93h-1.03c-.08-.38-.24-.68-.49-.89Zm3.41-3.34v3.18h.02c.08-.19.19-.34.33-.47.14-.13.3-.23.47-.32a2.718 2.718 0 0 1 1.1-.24c.4 0 .73.05.99.16a1.599 1.599 0 0 1 .98 1.15c.07.27.1.57.1.89v3.96h-.99v-4.08c0-.37-.11-.67-.33-.89s-.52-.33-.9-.33c-.3 0-.57.05-.79.14a1.4 1.4 0 0 0-.55.4c-.15.17-.26.37-.33.6s-.11.48-.11.75v3.41h-.99v-8.33h.99Zm6.16 2.3v.96h.02c.41-.73 1.06-1.1 1.96-1.1.4 0 .73.05.99.16a1.599 1.599 0 0 1 .98 1.15c.07.27.1.57.1.89v3.96h-.99v-4.08c0-.37-.11-.67-.33-.89s-.52-.33-.9-.33c-.3 0-.57.05-.79.14a1.4 1.4 0 0 0-.55.4c-.15.17-.26.37-.33.6s-.11.48-.11.75v3.41h-.99v-6.03h.93Zm5.15 1.77c.12-.38.31-.72.56-1 .25-.28.56-.51.92-.67.37-.16.79-.25 1.26-.25s.9.08 1.27.25c.36.16.67.39.92.67s.44.62.56 1 .19.8.19 1.24-.06.86-.19 1.24-.31.71-.56 1c-.25.28-.55.5-.92.67-.36.16-.78.24-1.27.24s-.89-.08-1.26-.24c-.37-.16-.67-.38-.92-.67s-.44-.62-.56-1c-.12-.38-.19-.79-.19-1.24s.06-.86.19-1.24Zm1.01 2.21c.1.28.23.52.4.71.17.19.37.34.6.44.23.1.47.15.73.15s.5-.05.73-.15c.23-.1.43-.25.6-.44.17-.19.3-.43.4-.71.1-.28.15-.61.15-.97s-.05-.69-.15-.97c-.1-.28-.23-.52-.4-.72-.17-.19-.37-.34-.6-.44-.23-.1-.47-.15-.73-.15s-.5.05-.73.15c-.23.1-.43.25-.6.44-.17.19-.31.43-.4.72-.1.28-.15.61-.15.97s.05.69.15.97Zm6.6-6.28v8.33h-.99v-8.33h.99Zm1.16 4.07c.12-.38.31-.72.56-1 .25-.28.56-.51.92-.67s.79-.25 1.26-.25.9.08 1.27.25c.36.16.67.39.92.67s.44.62.56 1 .19.8.19 1.24-.06.86-.19 1.24-.31.71-.56 1-.55.5-.92.67c-.36.16-.78.24-1.27.24s-.89-.08-1.26-.24c-.37-.16-.67-.38-.92-.67s-.44-.62-.56-1-.19-.79-.19-1.24.06-.86.19-1.24Zm1.01 2.21c.1.28.23.52.4.71s.37.34.6.44c.23.1.47.15.73.15s.5-.05.73-.15c.23-.1.43-.25.6-.44s.31-.43.4-.71c.1-.28.15-.61.15-.97s-.05-.69-.15-.97c-.1-.28-.23-.52-.4-.72s-.37-.34-.6-.44c-.23-.1-.47-.15-.73-.15s-.5.05-.73.15c-.23.1-.43.25-.6.44s-.31.43-.4.72c-.1.28-.15.61-.15.97s.05.69.15.97Zm10.12 3.75c-.45.49-1.16.74-2.12.74-.28 0-.57-.03-.86-.09-.29-.06-.56-.16-.79-.3-.24-.14-.43-.32-.59-.55-.16-.23-.24-.5-.26-.83h.99c0 .18.06.33.17.45.1.12.23.23.38.3.15.08.32.13.5.17s.35.05.51.05c.33 0 .6-.06.83-.17.22-.11.41-.27.56-.47.15-.2.25-.44.32-.72.07-.28.1-.59.1-.92v-.4h-.02c-.17.37-.43.65-.78.82-.35.17-.71.26-1.1.26-.45 0-.84-.08-1.18-.25s-.61-.38-.84-.66c-.23-.28-.39-.6-.51-.97s-.17-.76-.17-1.17c0-.36.05-.72.14-1.1.09-.38.25-.72.47-1.03.22-.31.5-.56.86-.76s.8-.3 1.32-.3c.38 0 .73.08 1.05.25.32.17.57.42.75.75h.01v-.86h.93v5.52c0 .99-.23 1.73-.68 2.21Zm-1.26-2.71c.23-.14.41-.31.55-.54s.24-.47.31-.75.1-.56.1-.84c0-.26-.03-.52-.09-.78s-.16-.49-.3-.69c-.14-.21-.31-.37-.53-.5-.22-.12-.48-.19-.79-.19s-.59.06-.82.18c-.23.12-.41.28-.55.48-.14.2-.25.43-.31.7s-.1.54-.1.83c0 .27.03.54.08.82.05.27.15.52.28.74.13.22.31.4.52.54s.49.2.82.2.6-.07.83-.2Zm5.57 1.81c-.12.29-.23.54-.34.75-.11.2-.24.37-.37.5-.14.13-.29.22-.46.28s-.36.09-.58.09c-.12 0-.23 0-.35-.02-.12-.02-.23-.04-.34-.08v-.91c.08.04.18.07.3.1s.21.04.29.04c.2 0 .37-.05.51-.15.14-.1.24-.24.31-.41l.41-1.01-2.39-5.99h1.12l1.76 4.93h.02l1.69-4.93h1.05l-2.62 6.83Z"/>
</svg>
