<svg class="ons-svg-logo" xmlns="http://www.w3.org/2000/svg" focusable="false" width="104" height="55" viewBox="0 0 104 55" aria-labelledby="beis-logo-mobile-alt">
    <title id="orr-logo-mobile-alt">Office of Rail and Road</title>
    <path fill="#005092" d="M0 0h.96v52.63H0z"/>
    <path d="M8.57 20.37c1.26 0 2.23.32 2.91.96.68.64 1.02 1.62 1.02 2.93 0 .69-.08 1.3-.23 1.83-.15.53-.39.98-.71 1.34-.32.36-.73.64-1.23.83-.5.19-1.08.29-1.76.29H5.76v-8.18h2.81Zm.09 7.26c.12 0 .27 0 .46-.03.18-.02.38-.06.58-.14.21-.07.41-.18.61-.31.2-.14.38-.32.54-.56.16-.24.29-.53.4-.89.1-.35.15-.78.15-1.29s-.05-.93-.14-1.31a2.6 2.6 0 0 0-.47-.99c-.22-.27-.5-.48-.84-.62-.34-.14-.77-.21-1.27-.21H6.85v6.34h1.81ZM17.67 28.17c-.44.34-1 .5-1.67.5-.47 0-.88-.08-1.23-.23a2.47 2.47 0 0 1-.88-.64c-.24-.27-.41-.6-.53-.98-.12-.38-.19-.8-.2-1.25 0-.45.07-.86.21-1.24.14-.37.33-.7.58-.97.25-.27.54-.49.88-.64.34-.15.71-.23 1.12-.23.53 0 .96.11 1.31.33.35.22.63.49.84.83.21.34.36.7.44 1.1.08.4.11.77.1 1.13h-4.43c0 .26.02.51.09.74.07.23.18.44.33.62.15.18.35.32.58.43a2 2 0 0 0 .84.16c.41 0 .75-.1 1.01-.29.26-.19.44-.48.52-.87h.96c-.13.66-.42 1.16-.86 1.5Zm-.23-3.8c-.09-.21-.21-.38-.35-.53s-.32-.27-.53-.35c-.2-.09-.43-.13-.67-.13s-.48.04-.68.13a1.612 1.612 0 0 0-.86.89c-.08.2-.13.42-.15.65h3.4c-.02-.23-.07-.45-.15-.65ZM20.43 22.63v.8h.02c.16-.33.41-.57.76-.72.34-.15.72-.22 1.13-.22.46 0 .86.08 1.2.25.34.17.62.4.85.68.23.29.4.62.51.99s.17.77.17 1.19-.06.82-.17 1.19c-.11.37-.28.7-.5.98-.23.28-.51.5-.85.66-.34.16-.73.24-1.19.24-.15 0-.31-.02-.49-.05-.18-.03-.36-.08-.53-.15a2.06 2.06 0 0 1-.5-.28c-.16-.12-.29-.27-.4-.44h-.02v3.05h-.97v-8.18h.97Zm3.5 2.1c-.07-.26-.18-.5-.33-.7-.15-.21-.34-.37-.57-.49-.23-.12-.51-.18-.82-.18s-.61.06-.84.19c-.23.13-.42.3-.56.51-.15.21-.25.45-.31.72-.06.27-.1.54-.1.81 0 .29.03.57.1.84s.18.51.33.72c.15.21.34.37.58.5.24.13.52.19.86.19s.62-.06.84-.19c.23-.13.41-.3.54-.52.14-.21.24-.46.3-.73.06-.27.09-.56.09-.85 0-.27-.04-.54-.11-.81ZM31.19 28.52c-.17.1-.4.15-.7.15-.25 0-.45-.07-.6-.21s-.22-.37-.22-.69c-.27.32-.58.55-.93.69s-.74.21-1.15.21c-.27 0-.52-.03-.76-.09s-.45-.16-.62-.29c-.18-.13-.31-.3-.42-.51-.1-.21-.15-.46-.15-.76 0-.34.06-.61.17-.82s.27-.39.45-.52c.19-.13.4-.23.64-.3.24-.07.49-.13.74-.17.27-.05.52-.09.76-.12s.45-.06.64-.11c.18-.05.33-.12.44-.22.11-.1.16-.23.16-.42 0-.21-.04-.39-.12-.52-.08-.13-.18-.23-.31-.3s-.27-.11-.42-.14c-.16-.02-.31-.03-.46-.03-.41 0-.76.08-1.03.23-.27.16-.42.45-.45.89h-.97c.02-.37.09-.68.23-.93s.32-.46.55-.61c.23-.16.49-.27.78-.34.29-.07.61-.1.94-.1.27 0 .53.02.8.06.26.04.5.12.72.23.21.12.39.28.52.5.13.21.19.49.19.83v3.04c0 .23.01.4.04.5.03.11.12.16.27.16.08 0 .18-.02.3-.05v.76Zm-1.58-3.03c-.12.09-.28.16-.48.2-.2.04-.41.08-.62.1l-.66.09c-.22.03-.42.09-.6.17-.18.08-.32.18-.43.32-.11.14-.17.33-.17.58 0 .16.03.29.1.4.06.11.15.2.25.27s.22.12.36.15c.14.03.28.05.44.05.32 0 .6-.04.82-.13.23-.09.42-.2.56-.33.15-.13.25-.28.32-.43s.1-.3.1-.44v-.99ZM32.78 22.63v1.25h.02c.24-.48.53-.84.87-1.07.34-.23.78-.34 1.31-.32v1.03c-.39 0-.72.05-1 .16-.27.11-.5.26-.66.47-.17.21-.29.46-.37.75-.08.29-.11.63-.11 1.01v2.63h-.97v-5.92h.92ZM38.38 22.63v.86H37.2v3.68c0 .11 0 .21.03.27.02.07.06.12.11.16.05.04.13.06.22.07.1.01.22.02.37.02h.45v.86h-.74c-.25 0-.47-.02-.65-.05a.983.983 0 0 1-.44-.19.851.851 0 0 1-.25-.39c-.05-.17-.08-.39-.08-.66v-3.77h-1.01v-.86h1.01v-1.78h.97v1.78h1.18ZM40.05 22.63v.87h.02c.44-.67 1.08-1.01 1.91-1.01.37 0 .7.08 1 .23.3.15.51.41.63.78.2-.32.46-.57.78-.74.32-.18.68-.26 1.07-.26.3 0 .57.03.81.1s.45.17.62.3c.17.14.31.31.4.53s.14.48.14.78v4.34h-.97v-3.88c0-.18-.02-.36-.05-.52-.03-.16-.09-.3-.17-.42a.823.823 0 0 0-.35-.28c-.15-.07-.34-.1-.58-.1-.48 0-.86.14-1.13.41-.27.27-.41.64-.41 1.1v3.69h-.97v-3.88c0-.19-.02-.37-.05-.53s-.09-.3-.18-.42a.761.761 0 0 0-.34-.27c-.14-.06-.32-.1-.54-.1-.28 0-.53.06-.73.17-.2.11-.37.25-.49.41-.13.16-.22.33-.27.5-.06.17-.09.31-.09.43v3.69h-.97v-5.92h.92ZM52.83 28.17c-.44.34-1 .5-1.67.5-.47 0-.88-.08-1.23-.23a2.47 2.47 0 0 1-.88-.64c-.24-.27-.41-.6-.53-.98-.12-.38-.19-.8-.2-1.25 0-.45.07-.86.21-1.24.14-.37.33-.7.58-.97.25-.27.54-.49.88-.64.34-.15.71-.23 1.12-.23.53 0 .96.11 1.31.33.35.22.63.49.84.83.21.34.36.7.44 1.1.08.4.11.77.1 1.13h-4.43c0 .26.02.51.09.74.07.23.18.44.33.62.15.18.35.32.58.43a2 2 0 0 0 .84.16c.41 0 .75-.1 1.01-.29.26-.19.44-.48.52-.87h.96c-.13.66-.42 1.16-.86 1.5Zm-.23-3.8c-.09-.21-.21-.38-.35-.53s-.32-.27-.53-.35c-.2-.09-.43-.13-.67-.13s-.48.04-.68.13a1.612 1.612 0 0 0-.86.89c-.08.2-.13.42-.15.65h3.4c-.02-.23-.07-.45-.15-.65ZM55.51 22.63v.94h.02c.4-.72 1.05-1.08 1.92-1.08.39 0 .71.05.97.16s.47.26.63.45c.16.19.27.42.34.68.06.26.1.56.1.88v3.89h-.97v-4.01c0-.37-.11-.66-.32-.87-.21-.21-.51-.32-.88-.32-.3 0-.56.05-.77.14-.22.09-.4.22-.54.39-.15.17-.25.36-.33.59-.07.23-.11.47-.11.74v3.34h-.97v-5.92h.92ZM63.17 22.63v.86h-1.18v3.68c0 .11 0 .21.03.27.02.07.06.12.11.16.05.04.13.06.22.07.1.01.22.02.37.02h.45v.86h-.74c-.25 0-.47-.02-.65-.05a.983.983 0 0 1-.44-.19.851.851 0 0 1-.25-.39c-.05-.17-.08-.39-.08-.66v-3.77H60v-.86h1.01v-1.78h.97v1.78h1.18ZM66.6 23.49v-.86h1v-.88c0-.48.14-.85.42-1.09.28-.25.69-.37 1.22-.37a2.052 2.052 0 0 1 .62.09v.85a1.18 1.18 0 0 0-.27-.06c-.1-.01-.19-.02-.27-.02-.24 0-.42.05-.55.14-.13.09-.19.27-.19.53v.82h1.15v.86h-1.15v5.06h-.97V23.5h-1ZM70.06 24.37c.12-.38.31-.71.55-.98.24-.28.55-.5.9-.66.36-.16.77-.24 1.24-.24s.89.08 1.24.24c.36.16.65.38.9.66.24.28.43.61.55.98.12.38.18.78.18 1.22s-.06.84-.18 1.21-.31.7-.55.98c-.24.28-.54.5-.9.65-.35.16-.77.23-1.24.23s-.88-.08-1.24-.23c-.36-.16-.66-.37-.9-.65s-.43-.61-.55-.98c-.12-.37-.18-.78-.18-1.21s.06-.84.18-1.22Zm.99 2.18c.1.28.23.51.4.7a1.753 1.753 0 0 0 1.31.58 1.753 1.753 0 0 0 1.31-.58c.17-.19.3-.42.4-.7.1-.28.14-.6.14-.96s-.05-.68-.14-.96c-.1-.28-.23-.51-.4-.7a1.692 1.692 0 0 0-1.31-.59c-.26 0-.49.05-.72.15-.23.1-.42.24-.59.44-.17.19-.3.43-.4.7-.1.28-.14.6-.14.96s.05.68.14.96ZM77.43 22.63v1.25h.02c.24-.48.53-.84.87-1.07.34-.23.78-.34 1.31-.32v1.03c-.39 0-.72.05-1 .16-.27.11-.5.26-.66.47-.17.21-.29.46-.37.75-.08.29-.11.63-.11 1.01v2.63h-.97v-5.92h.92ZM8.73 32.4h.57c.2 0 .4.02.6.03.2.02.38.05.56.09.17.04.32.1.44.17.27.16.49.38.68.66.19.28.28.63.28 1.04 0 .44-.1.81-.31 1.13-.21.32-.51.55-.9.7v.02c.5.11.89.34 1.16.69.27.35.4.78.4 1.28a2.29 2.29 0 0 1-.64 1.62c-.21.22-.47.39-.78.53-.31.13-.67.2-1.07.2H5.77v-8.18h2.97Zm.3 3.52c.62 0 1.06-.11 1.33-.33.27-.22.41-.54.41-.98 0-.29-.05-.52-.14-.69a.952.952 0 0 0-.38-.39c-.16-.09-.35-.15-.56-.18-.21-.03-.43-.04-.67-.04H6.84v2.6h2.18Zm.55 3.74c.48 0 .86-.13 1.13-.39.27-.26.41-.62.41-1.08 0-.27-.05-.49-.15-.66-.1-.18-.23-.31-.4-.42-.16-.1-.35-.18-.57-.22s-.44-.06-.66-.06H6.85v2.83h2.73ZM17.16 40.58v-.94h-.02c-.21.37-.47.64-.79.81-.32.17-.7.26-1.13.26-.39 0-.71-.05-.97-.15-.26-.1-.47-.25-.63-.44-.16-.19-.27-.42-.34-.68-.06-.26-.1-.56-.1-.88v-3.89h.97v4.01c0 .37.11.66.32.87.21.21.51.32.88.32.3 0 .56-.05.77-.14.22-.09.4-.22.54-.39s.25-.36.33-.59c.07-.23.11-.47.11-.74v-3.34h.97v5.92h-.92ZM20.07 39.25c.09.15.21.27.36.35.15.09.32.15.5.19.19.04.38.06.58.06.15 0 .31-.01.48-.03.17-.02.32-.06.46-.13.14-.06.26-.15.35-.27s.14-.27.14-.45c0-.25-.1-.44-.29-.57-.19-.13-.43-.23-.72-.31-.29-.08-.6-.15-.93-.22-.34-.06-.65-.16-.93-.27-.29-.12-.52-.28-.72-.5-.19-.21-.29-.51-.29-.89 0-.3.07-.55.2-.77.13-.21.31-.39.52-.52.21-.13.45-.23.71-.3s.52-.1.78-.1c.34 0 .65.03.93.09s.53.16.75.3c.22.14.39.33.52.57.13.24.21.54.23.9h-.97c-.02-.19-.06-.35-.15-.48a.837.837 0 0 0-.32-.3c-.13-.08-.27-.13-.43-.17a2.52 2.52 0 0 0-.48-.05c-.15 0-.29.01-.44.03-.15.02-.28.06-.41.12a.86.86 0 0 0-.3.23c-.08.1-.11.22-.11.37 0 .17.06.31.18.42.12.11.27.2.45.27s.39.13.62.18l.69.15c.24.05.48.12.72.19.23.08.44.18.62.3.18.13.32.28.44.48.11.19.17.43.17.71 0 .36-.07.66-.22.89-.15.24-.34.43-.58.57-.24.15-.51.25-.81.3-.3.06-.6.09-.9.09-.33 0-.64-.03-.94-.1-.3-.07-.56-.18-.79-.34-.23-.16-.41-.36-.55-.62-.14-.26-.21-.57-.23-.93h.97c0 .21.06.4.15.54ZM24.86 33.59V32.4h.97v1.19h-.97Zm.97 1.07v5.92h-.97v-5.92h.97ZM27.97 34.66v.94h.02c.4-.72 1.05-1.08 1.92-1.08.39 0 .71.05.97.16s.47.26.63.45c.16.19.27.42.34.68.06.26.1.56.1.88v3.89h-.97v-4.01c0-.37-.11-.66-.32-.87-.21-.21-.51-.32-.88-.32-.3 0-.56.05-.77.14-.22.09-.4.22-.54.39-.15.17-.25.36-.33.59-.07.23-.11.47-.11.74v3.34h-.97v-5.92h.92ZM37.34 40.2c-.44.34-1 .5-1.67.5-.47 0-.88-.08-1.23-.23a2.47 2.47 0 0 1-.88-.64c-.24-.27-.41-.6-.53-.98-.12-.38-.19-.8-.2-1.25 0-.45.07-.86.21-1.24.14-.37.33-.7.58-.97.25-.27.54-.49.88-.64.34-.15.71-.23 1.12-.23.53 0 .96.11 1.31.33.35.22.63.49.84.83.21.34.36.7.44 1.1.08.4.11.77.1 1.13h-4.43c0 .26.02.51.09.74.07.23.18.44.33.62.15.18.35.32.58.43a2 2 0 0 0 .84.16c.41 0 .75-.1 1.01-.29.26-.19.44-.48.52-.87h.96c-.13.66-.42 1.16-.86 1.5Zm-.23-3.8c-.09-.21-.21-.38-.35-.53s-.32-.27-.53-.35c-.2-.09-.43-.13-.67-.13s-.48.04-.68.13a1.612 1.612 0 0 0-.86.89c-.08.2-.13.42-.15.65h3.4c-.02-.23-.07-.45-.15-.65ZM39.88 39.25c.09.15.21.27.36.35.15.09.32.15.5.19.19.04.38.06.58.06.15 0 .31-.01.48-.03.17-.02.32-.06.46-.13.14-.06.26-.15.35-.27s.14-.27.14-.45c0-.25-.1-.44-.29-.57-.19-.13-.43-.23-.72-.31-.29-.08-.6-.15-.93-.22-.34-.06-.65-.16-.93-.27-.29-.12-.52-.28-.72-.5-.19-.21-.29-.51-.29-.89 0-.3.07-.55.2-.77.13-.21.31-.39.52-.52.21-.13.45-.23.71-.3s.52-.1.78-.1c.34 0 .65.03.93.09s.53.16.75.3c.22.14.39.33.52.57.13.24.21.54.23.9h-.97c-.02-.19-.06-.35-.15-.48a.837.837 0 0 0-.32-.3c-.13-.08-.27-.13-.43-.17a2.52 2.52 0 0 0-.48-.05c-.15 0-.29.01-.44.03-.15.02-.28.06-.41.12a.86.86 0 0 0-.3.23c-.08.1-.11.22-.11.37 0 .17.06.31.18.42.12.11.27.2.45.27s.39.13.62.18l.69.15c.24.05.48.12.72.19.23.08.44.18.62.3.18.13.32.28.44.48.11.19.17.43.17.71 0 .36-.07.66-.22.89-.15.24-.34.43-.58.57-.24.15-.51.25-.81.3-.3.06-.6.09-.9.09-.33 0-.64-.03-.94-.1-.3-.07-.56-.18-.79-.34-.23-.16-.41-.36-.55-.62-.14-.26-.21-.57-.23-.93h.97c0 .21.06.4.15.54ZM45.43 39.25c.09.15.21.27.36.35.15.09.32.15.5.19.19.04.38.06.58.06.15 0 .31-.01.48-.03.17-.02.32-.06.46-.13.14-.06.26-.15.35-.27s.14-.27.14-.45c0-.25-.1-.44-.29-.57-.19-.13-.43-.23-.72-.31-.29-.08-.6-.15-.93-.22-.34-.06-.65-.16-.93-.27-.29-.12-.52-.28-.72-.5-.19-.21-.29-.51-.29-.89 0-.3.07-.55.2-.77.13-.21.31-.39.52-.52.21-.13.45-.23.71-.3s.52-.1.78-.1c.34 0 .65.03.93.09s.53.16.75.3c.22.14.39.33.52.57.13.24.21.54.23.9h-.97c-.02-.19-.06-.35-.15-.48a.837.837 0 0 0-.32-.3c-.13-.08-.27-.13-.43-.17a2.52 2.52 0 0 0-.48-.05c-.15 0-.29.01-.44.03-.15.02-.28.06-.41.12a.86.86 0 0 0-.3.23c-.08.1-.11.22-.11.37 0 .17.06.31.18.42.12.11.27.2.45.27s.39.13.62.18l.69.15c.24.05.48.12.72.19.23.08.44.18.62.3.18.13.32.28.44.48.11.19.17.43.17.71 0 .36-.07.66-.22.89-.15.24-.34.43-.58.57-.24.15-.51.25-.81.3-.3.06-.6.09-.9.09-.33 0-.64-.03-.94-.1-.3-.07-.56-.18-.79-.34-.23-.16-.41-.36-.55-.62-.14-.26-.21-.57-.23-.93h.97c0 .21.06.4.15.54ZM51.61 39.31v1.16c0 .44-.1.81-.3 1.12-.2.31-.52.53-.96.66v-.57c.13-.05.24-.11.33-.2.09-.09.16-.18.21-.29.05-.1.09-.21.11-.31.02-.11.02-.21.02-.3h-.68v-1.27h1.27ZM62.06 32.4v.92H57.5v2.6h4.25v.92H57.5v2.83h4.59v.92h-5.68v-8.18h5.65ZM63.82 34.66v.94h.02c.4-.72 1.05-1.08 1.92-1.08.39 0 .71.05.97.16s.47.26.63.45c.16.19.27.42.34.68.06.26.1.56.1.88v3.89h-.97v-4.01c0-.37-.11-.66-.32-.87-.21-.21-.51-.32-.88-.32-.3 0-.56.05-.77.14-.22.09-.4.22-.54.39-.15.17-.25.36-.33.59-.07.23-.11.47-.11.74v3.34h-.97v-5.92h.92ZM73.19 40.2c-.44.34-1 .5-1.67.5-.47 0-.88-.08-1.23-.23a2.47 2.47 0 0 1-.88-.64c-.24-.27-.41-.6-.53-.98-.12-.38-.19-.8-.2-1.25 0-.45.07-.86.21-1.24.14-.37.33-.7.58-.97.25-.27.54-.49.88-.64.34-.15.71-.23 1.12-.23.53 0 .96.11 1.31.33.35.22.63.49.84.83.21.34.36.7.44 1.1.08.4.11.77.1 1.13h-4.43c0 .26.02.51.09.74.07.23.18.44.33.62.15.18.35.32.58.43a2 2 0 0 0 .84.16c.41 0 .75-.1 1.01-.29.26-.19.44-.48.52-.87h.96c-.13.66-.42 1.16-.86 1.5Zm-.23-3.8c-.09-.21-.21-.38-.35-.53s-.32-.27-.53-.35c-.2-.09-.43-.13-.67-.13s-.48.04-.68.13a1.612 1.612 0 0 0-.86.89c-.08.2-.13.42-.15.65h3.4c-.02-.23-.07-.45-.15-.65ZM75.86 34.66v1.25h.02c.24-.48.53-.84.87-1.07.34-.23.78-.34 1.31-.32v1.03c-.39 0-.72.05-1 .16-.27.11-.5.26-.66.47-.17.21-.29.46-.37.75-.08.29-.11.63-.11 1.01v2.63h-.97v-5.92h.92ZM82.96 42.25c-.44.48-1.14.72-2.08.72-.27 0-.56-.03-.84-.09-.29-.06-.55-.16-.78-.3-.23-.14-.43-.32-.58-.54-.15-.22-.24-.49-.25-.81h.97c0 .18.06.32.17.45.1.12.23.22.38.3.15.08.31.13.49.17.18.03.34.05.5.05.32 0 .59-.06.81-.17.22-.11.4-.26.55-.46.14-.19.25-.43.31-.7.06-.27.1-.58.1-.9v-.39h-.02c-.17.37-.42.64-.76.81-.34.17-.7.26-1.08.26-.44 0-.83-.08-1.16-.24-.33-.16-.6-.38-.82-.65-.22-.27-.39-.59-.5-.95a3.95 3.95 0 0 1-.17-1.15c0-.35.05-.71.14-1.08s.24-.71.46-1.01c.21-.3.5-.55.85-.74.35-.19.78-.29 1.29-.29.37 0 .72.08 1.03.25.31.16.56.41.73.74h.01v-.85h.92v5.42c0 .97-.22 1.69-.66 2.18Zm-1.24-2.66c.23-.13.41-.31.54-.53.14-.22.24-.46.3-.74.06-.27.1-.55.1-.82 0-.26-.03-.52-.09-.77s-.16-.48-.29-.68c-.13-.2-.31-.36-.52-.49-.21-.12-.47-.18-.78-.18s-.58.06-.8.18c-.22.12-.4.28-.54.48-.14.2-.24.43-.31.69-.06.26-.1.53-.1.81 0 .27.03.53.08.8s.14.51.27.73c.13.22.3.39.52.53.21.13.48.2.8.2s.59-.07.82-.2ZM87.17 41.37c-.11.29-.23.53-.34.73-.11.2-.23.36-.37.49-.13.13-.28.22-.45.27-.16.06-.35.09-.57.09-.11 0-.23 0-.34-.02-.11-.02-.23-.04-.33-.08v-.89a1.628 1.628 0 0 0 .57.14c.2 0 .36-.05.5-.14.13-.1.23-.23.3-.41l.4-1-2.35-5.89h1.1l1.73 4.84h.02l1.66-4.84h1.03l-2.58 6.71ZM9.11 52.45c-.42.19-.86.29-1.31.29-.55 0-.99-.08-1.33-.25-.34-.17-.6-.37-.78-.61-.18-.24-.3-.48-.36-.73s-.09-.46-.09-.63c0-.32.05-.6.15-.85.1-.24.24-.46.41-.66.17-.19.37-.37.61-.53.23-.16.48-.3.74-.44-.11-.16-.23-.31-.33-.46-.11-.15-.2-.29-.29-.44-.09-.15-.16-.31-.21-.47-.05-.16-.07-.35-.07-.56 0-.22.04-.43.12-.64s.2-.38.36-.54.35-.28.58-.37c.23-.09.49-.14.79-.14.25 0 .5.03.74.1s.45.17.64.31c.18.14.33.32.44.53.11.21.17.45.17.73 0 .24-.04.47-.13.68-.08.21-.2.4-.34.58-.15.18-.31.33-.49.48-.18.14-.37.27-.57.38l1.48 1.8c.15-.43.24-.85.26-1.27h.93c-.02.24-.05.45-.07.62-.03.17-.06.33-.1.48-.04.15-.09.29-.15.43s-.13.3-.22.49l1.59 1.84h-1.27l-.87-1.02c-.24.38-.58.67-1 .86Zm-1.96-3.46c-.17.11-.32.24-.45.39-.13.15-.23.31-.31.49-.08.18-.11.39-.11.64 0 .21.04.4.13.57.09.17.2.32.35.44.14.12.31.21.5.28.19.07.38.1.58.1.37 0 .71-.09 1-.26.29-.18.54-.41.74-.71L7.7 48.67c-.19.11-.37.22-.54.33Zm1.23-1.66c.13-.09.25-.19.36-.31.11-.11.19-.24.26-.38s.1-.3.1-.48c0-.24-.08-.44-.25-.61-.17-.17-.4-.26-.69-.26-.23 0-.44.07-.64.21-.2.14-.3.36-.3.66 0 .12.02.24.07.37.05.12.11.24.19.36s.16.23.25.35l.27.34c.11-.08.24-.16.37-.25ZM17.07 44.43v8.18h-1.09v-8.18h1.09ZM19.35 46.69v.94h.02c.4-.72 1.05-1.08 1.92-1.08.39 0 .71.05.97.16s.47.26.63.45c.16.19.27.42.34.68.06.26.1.56.1.88v3.89h-.97V48.6c0-.37-.11-.66-.32-.87-.21-.21-.51-.32-.88-.32-.3 0-.56.05-.77.14-.22.09-.4.22-.54.39-.15.17-.25.36-.33.59-.07.23-.11.47-.11.74v3.34h-.97v-5.92h.92ZM28.86 52.61v-.8h-.02c-.16.33-.41.57-.76.71-.34.15-.72.22-1.13.22-.46 0-.86-.08-1.2-.25-.34-.17-.62-.39-.85-.68-.23-.28-.4-.61-.51-.98s-.17-.77-.17-1.19.06-.82.17-1.19c.11-.37.28-.7.5-.98.23-.28.51-.5.85-.66a2.746 2.746 0 0 1 1.68-.2c.18.03.35.08.53.15.18.07.34.17.5.29.16.12.29.27.4.44h.02v-3.05h.97v8.18h-.97Zm-3.5-2.1c.07.26.18.5.33.7s.34.37.57.49c.23.12.51.18.82.18s.61-.06.84-.19c.23-.13.42-.3.56-.51.14-.21.25-.45.31-.72.06-.27.1-.54.1-.81 0-.29-.03-.57-.1-.84s-.18-.51-.33-.72-.34-.37-.58-.5c-.24-.13-.52-.19-.86-.19s-.61.06-.84.19c-.23.13-.41.3-.55.52-.14.21-.24.46-.3.73-.06.27-.09.56-.09.85 0 .27.04.54.11.81ZM35.03 52.61v-.94h-.02c-.21.37-.47.64-.79.81-.32.17-.7.26-1.13.26-.39 0-.71-.05-.97-.15-.26-.1-.47-.25-.63-.44-.16-.19-.27-.42-.34-.68-.06-.26-.1-.56-.1-.88V46.7h.97v4.01c0 .37.11.66.32.87.21.21.51.32.88.32.3 0 .56-.05.77-.14.22-.09.4-.22.54-.39s.25-.36.33-.59c.07-.23.11-.47.11-.74V46.7h.97v5.92h-.92ZM37.93 51.28c.09.15.21.27.36.35.15.09.32.15.5.19.19.04.38.06.58.06.15 0 .31-.01.48-.03.17-.02.32-.06.46-.13.14-.06.26-.15.35-.27s.14-.27.14-.45c0-.25-.1-.44-.29-.57-.19-.13-.43-.23-.72-.31-.29-.08-.6-.15-.93-.22-.34-.06-.65-.16-.93-.27-.29-.12-.52-.28-.72-.5-.19-.21-.29-.51-.29-.89 0-.3.07-.55.2-.77.13-.21.31-.39.52-.52.21-.13.45-.23.71-.3s.52-.1.78-.1c.34 0 .65.03.93.09s.53.16.75.3c.22.14.39.33.52.57.13.24.21.54.23.9h-.97c-.02-.19-.06-.35-.15-.48a.837.837 0 0 0-.32-.3c-.13-.08-.27-.13-.43-.17a2.52 2.52 0 0 0-.48-.05c-.15 0-.29.01-.44.03-.15.02-.28.06-.41.12a.86.86 0 0 0-.3.23c-.08.1-.11.22-.11.37 0 .17.06.31.18.42.12.11.27.2.45.27s.39.13.62.18l.69.15c.24.05.48.12.72.19.23.08.44.18.62.3.18.13.32.28.44.48.11.19.17.43.17.71 0 .36-.07.66-.22.89-.15.24-.34.43-.58.57-.24.15-.51.25-.81.3-.3.06-.6.09-.9.09-.33 0-.64-.03-.94-.1-.3-.07-.56-.18-.79-.34-.23-.16-.41-.36-.55-.62-.14-.26-.21-.57-.23-.93h.97c0 .21.06.4.15.54ZM45.18 46.69v.86H44v3.68c0 .11 0 .21.03.27.02.07.06.12.11.16.05.04.13.06.22.07.1.01.22.02.37.02h.45v.86h-.74c-.25 0-.47-.02-.65-.05a.983.983 0 0 1-.44-.19.851.851 0 0 1-.25-.39c-.05-.17-.08-.39-.08-.66v-3.77h-1.01v-.86h1.01v-1.77h.97v1.77h1.18ZM46.84 46.69v1.25h.02c.24-.48.53-.84.87-1.07.34-.23.78-.34 1.31-.32v1.03c-.39 0-.72.05-1 .16-.27.11-.5.26-.66.47-.17.21-.29.46-.37.75-.08.29-.11.63-.11 1.01v2.63h-.97v-5.92h.92ZM49.6 45.62v-1.19h.97v1.19h-.97Zm.97 1.07v5.92h-.97v-5.92h.97ZM57.07 52.58c-.17.1-.4.15-.7.15-.25 0-.45-.07-.6-.21s-.22-.37-.22-.69c-.27.32-.58.55-.93.69s-.74.21-1.15.21c-.27 0-.52-.03-.76-.09s-.45-.16-.62-.29c-.18-.13-.31-.3-.42-.51-.1-.21-.15-.46-.15-.76 0-.34.06-.61.17-.82s.27-.39.45-.52c.19-.13.4-.23.64-.3.24-.07.49-.13.74-.17.27-.05.52-.09.76-.12s.45-.06.64-.11c.18-.05.33-.12.44-.22.11-.1.16-.23.16-.42 0-.21-.04-.39-.12-.52-.08-.13-.18-.23-.31-.3s-.27-.11-.42-.14c-.16-.02-.31-.03-.46-.03-.41 0-.76.08-1.03.23-.27.16-.42.45-.45.89h-.97c.02-.37.09-.68.23-.93s.32-.46.55-.61c.23-.16.49-.27.78-.34.29-.07.61-.1.94-.1.27 0 .53.02.8.06.26.04.5.12.72.23.21.12.39.28.52.5.13.21.19.49.19.83v3.04c0 .23.01.4.04.5.03.11.12.16.27.16.08 0 .18-.02.3-.05v.76Zm-1.58-3.03c-.12.09-.28.16-.48.2-.2.04-.41.08-.62.1l-.66.09c-.22.03-.42.09-.6.17-.18.08-.32.18-.43.32-.11.14-.17.33-.17.58 0 .16.03.29.1.4.06.11.15.2.25.27s.22.12.36.15c.14.03.28.05.44.05.32 0 .6-.04.82-.13.23-.09.42-.2.56-.33.15-.13.25-.28.32-.43s.1-.3.1-.44v-.99ZM58.78 44.43v8.18h-.97v-8.18h.97ZM67.5 45.55c-.36-.26-.83-.4-1.39-.4-.23 0-.45.02-.68.07-.22.05-.42.12-.59.23-.17.11-.31.25-.41.43-.1.18-.15.4-.15.67 0 .25.07.46.22.61.15.16.35.28.6.38.25.1.53.18.84.25.31.06.63.14.96.21.32.08.64.17.96.27.31.1.59.24.84.42s.45.4.6.66.22.6.22 1.01c0 .44-.1.81-.29 1.12-.19.31-.44.56-.75.76-.31.19-.65.34-1.03.42-.38.09-.75.13-1.13.13-.46 0-.89-.06-1.3-.17-.41-.11-.77-.29-1.08-.52-.31-.23-.55-.53-.73-.89-.18-.36-.27-.79-.27-1.29h1.03c0 .34.07.64.2.89s.31.45.53.61c.22.16.47.28.76.36.29.08.59.11.89.11.24 0 .49-.02.74-.07s.47-.12.67-.23c.2-.11.36-.26.48-.45s.18-.44.18-.73c0-.28-.07-.51-.22-.69-.15-.18-.35-.32-.6-.43-.25-.11-.53-.2-.84-.27-.31-.07-.63-.14-.96-.21-.32-.07-.64-.16-.96-.25-.31-.1-.59-.22-.84-.38s-.45-.36-.6-.61-.22-.56-.22-.93c0-.41.08-.77.25-1.07.17-.3.39-.55.67-.74.28-.19.6-.34.95-.44.36-.1.72-.14 1.09-.14.42 0 .81.05 1.17.15.36.1.67.26.94.47.27.21.48.48.64.81.16.32.24.71.26 1.16h-1.03c-.06-.59-.27-1.01-.64-1.28ZM72.93 46.69v.86h-1.18v3.68c0 .11 0 .21.03.27.02.07.06.12.11.16.05.04.13.06.22.07.1.01.22.02.37.02h.45v.86h-.74c-.25 0-.47-.02-.65-.05a.983.983 0 0 1-.44-.19.851.851 0 0 1-.25-.39c-.05-.17-.08-.39-.08-.66v-3.77h-1.01v-.86h1.01v-1.77h.97v1.77h1.18ZM74.59 46.69v1.25h.02c.24-.48.53-.84.87-1.07.34-.23.78-.34 1.31-.32v1.03c-.39 0-.72.05-1 .16-.27.11-.5.26-.66.47-.17.21-.29.46-.37.75-.08.29-.11.63-.11 1.01v2.63h-.97v-5.92h.92ZM82.54 52.58c-.17.1-.4.15-.7.15-.25 0-.45-.07-.6-.21s-.22-.37-.22-.69c-.27.32-.58.55-.93.69s-.74.21-1.15.21c-.27 0-.52-.03-.76-.09s-.45-.16-.62-.29c-.18-.13-.31-.3-.42-.51-.1-.21-.15-.46-.15-.76 0-.34.06-.61.17-.82s.27-.39.45-.52c.19-.13.4-.23.64-.3.24-.07.49-.13.74-.17.27-.05.52-.09.76-.12s.45-.06.64-.11c.18-.05.33-.12.44-.22.11-.1.16-.23.16-.42 0-.21-.04-.39-.12-.52-.08-.13-.18-.23-.31-.3s-.27-.11-.42-.14c-.16-.02-.31-.03-.46-.03-.41 0-.76.08-1.03.23-.27.16-.42.45-.45.89h-.97c.02-.37.09-.68.23-.93s.32-.46.55-.61c.23-.16.49-.27.78-.34.29-.07.61-.1.94-.1.27 0 .53.02.8.06.26.04.5.12.72.23.21.12.39.28.52.5.13.21.19.49.19.83v3.04c0 .23.01.4.04.5.03.11.12.16.27.16.08 0 .18-.02.3-.05v.76Zm-1.58-3.03c-.12.09-.28.16-.48.2-.2.04-.41.08-.62.1l-.66.09c-.22.03-.42.09-.6.17-.18.08-.32.18-.43.32-.11.14-.17.33-.17.58 0 .16.03.29.1.4.06.11.15.2.25.27s.22.12.36.15c.14.03.28.05.44.05.32 0 .6-.04.82-.13.23-.09.42-.2.56-.33.15-.13.25-.28.32-.43s.1-.3.1-.44v-.99ZM85.67 46.69v.86h-1.18v3.68c0 .11 0 .21.03.27.02.07.06.12.11.16.05.04.13.06.22.07.1.01.22.02.37.02h.45v.86h-.74c-.25 0-.47-.02-.65-.05a.983.983 0 0 1-.44-.19.851.851 0 0 1-.25-.39c-.05-.17-.08-.39-.08-.66v-3.77H82.5v-.86h1.01v-1.77h.97v1.77h1.18ZM90.46 52.23c-.44.34-1 .5-1.67.5-.47 0-.88-.08-1.23-.23a2.47 2.47 0 0 1-.88-.64c-.24-.27-.41-.6-.53-.98-.12-.38-.19-.8-.2-1.25 0-.45.07-.86.21-1.24.14-.37.33-.7.58-.97.25-.27.54-.49.88-.64.34-.15.71-.23 1.12-.23.53 0 .96.11 1.31.33.35.22.63.49.84.83.21.34.36.7.44 1.1.08.4.11.77.1 1.13H87c0 .26.02.51.09.74.07.23.18.44.33.62.15.18.35.32.58.43a2 2 0 0 0 .84.16c.41 0 .75-.1 1.01-.29.26-.19.44-.48.52-.87h.96c-.13.66-.42 1.16-.86 1.5Zm-.23-3.8c-.09-.21-.21-.38-.35-.53s-.32-.27-.53-.35c-.2-.09-.43-.13-.67-.13s-.48.04-.68.13a1.612 1.612 0 0 0-.86.89c-.08.2-.13.42-.15.65h3.4c-.02-.23-.07-.45-.15-.65ZM96.7 54.28c-.44.48-1.14.72-2.08.72-.27 0-.56-.03-.84-.09-.29-.06-.55-.16-.78-.3-.23-.14-.43-.32-.58-.54-.15-.22-.24-.49-.25-.81h.97c0 .18.06.32.17.45.1.12.23.22.38.3.15.08.31.13.49.17.18.03.34.05.5.05.32 0 .59-.06.81-.17.22-.11.4-.26.55-.46.14-.19.25-.43.31-.7.06-.27.1-.58.1-.9v-.39h-.02c-.17.37-.42.64-.76.81-.34.17-.7.26-1.08.26-.44 0-.83-.08-1.16-.24-.33-.16-.6-.38-.82-.65-.22-.27-.39-.59-.5-.95a3.95 3.95 0 0 1-.17-1.15c0-.35.05-.71.14-1.08s.24-.71.46-1.01c.21-.3.5-.55.85-.74.35-.19.78-.29 1.29-.29.37 0 .72.08 1.03.25.31.16.56.41.73.74h.01v-.85h.92v5.42c0 .97-.22 1.69-.66 2.18Zm-1.24-2.66c.23-.13.41-.31.54-.53.14-.22.24-.46.3-.74.06-.27.1-.55.1-.82 0-.26-.03-.52-.09-.77s-.16-.48-.29-.68c-.13-.2-.31-.36-.52-.49-.21-.12-.47-.18-.78-.18s-.58.06-.8.18c-.22.12-.4.28-.54.48-.14.2-.24.43-.31.69-.06.26-.1.53-.1.81 0 .27.03.53.08.8s.14.51.27.73c.13.22.3.39.52.53.21.13.48.2.8.2s.59-.07.82-.2ZM100.91 53.4c-.11.29-.23.53-.34.73-.11.2-.23.36-.37.49-.13.13-.28.22-.45.27-.16.06-.35.09-.57.09-.11 0-.23 0-.34-.02-.11-.02-.23-.04-.33-.08v-.89a1.628 1.628 0 0 0 .57.14c.2 0 .36-.05.5-.14.13-.1.23-.23.3-.41l.4-1-2.35-5.89h1.1l1.73 4.84h.02l1.66-4.84h1.03l-2.58 6.71ZM13.42 2.7c-.09.18-.17.28-.16.42.01.14.16.24.23.38.06-.16.17-.28.15-.41-.01-.13-.19-.29-.22-.39M15.82 2.7c.09.18.17.28.16.42-.01.14-.16.24-.23.38-.06-.16-.17-.28-.15-.41.01-.13.19-.29.22-.39M12.04 2.6c.09 0 .16-.07.16-.16s-.07-.16-.16-.16-.16.07-.16.16.07.16.16.16M12.14 2.83c0-.09-.07-.16-.16-.16s-.16.07-.16.16.07.16.16.16.16-.07.16-.16M12.22 3.22c0-.09-.07-.16-.16-.16s-.16.07-.16.16.07.16.16.16.16-.07.16-.16M12.93 1.83c.09 0 .16-.07.16-.16s-.07-.16-.16-.16-.16.07-.16.16.07.16.16.16M12.53 1.95c.09 0 .16-.07.16-.16s-.07-.16-.16-.16-.16.07-.16.16.07.16.16.16M12.21 2.23c.09 0 .16-.07.16-.16s-.07-.16-.16-.16-.16.07-.16.16.07.16.16.16M13.36 1.87c.09 0 .16-.07.16-.16s-.07-.16-.16-.16-.16.07-.16.16.07.16.16.16M13.76 1.98c.09 0 .16-.07.16-.16s-.07-.16-.16-.16-.16.07-.16.16.07.16.16.16M14.14 2.16c.09 0 .16-.07.16-.16s-.07-.16-.16-.16-.16.07-.16.16.07.16.16.16M17.03 2.44c0 .09.07.16.16.16s.16-.07.16-.16-.07-.16-.16-.16-.16.07-.16.16M17.25 2.67c-.09 0-.16.07-.16.16s.07.16.16.16.16-.07.16-.16-.07-.16-.16-.16M17.17 3.06c-.09 0-.16.07-.16.16s.07.16.16.16.16-.07.16-.16-.07-.16-.16-.16M16.29 1.83c.09 0 .16-.07.16-.16s-.07-.16-.16-.16-.16.07-.16.16.07.16.16.16M16.7 1.95c.09 0 .16-.07.16-.16s-.07-.16-.16-.16-.16.07-.16.16.07.16.16.16M17.01 2.23c.09 0 .16-.07.16-.16s-.07-.16-.16-.16-.16.07-.16.16.07.16.16.16M15.87 1.87c.09 0 .16-.07.16-.16s-.07-.16-.16-.16-.16.07-.16.16.07.16.16.16M15.47 1.98c.09 0 .16-.07.16-.16s-.07-.16-.16-.16-.16.07-.16.16.07.16.16.16M14.93 2c0 .09.07.16.16.16s.16-.07.16-.16-.07-.16-.16-.16-.16.07-.16.16M14.34 2.87h.18v-.69c-.06 0-.13-.03-.18-.06v.75ZM14.89 2.12c-.06.03-.12.05-.18.06v.69h.18v-.75ZM14.51 1.36V.95c-.2.04-.36.21-.4.41h.4ZM14.72 1.36h.4a.488.488 0 0 0-.4-.41v.41Z"/>
    <path d="M14.12 1.56c.05.23.25.4.5.4s.45-.17.5-.4h-.99ZM14.89.88a.553.553 0 0 1-.22-.36c.13.02.28.12.37.23V.2c-.09.12-.24.21-.37.23.01-.14.1-.26.21-.4h-.54c.11.14.2.26.21.4a.666.666 0 0 1-.37-.23v.56c.09-.11.24-.21.37-.23-.02.14-.1.27-.22.36h.56ZM14.91 12.52c-.11 0-.2-.09-.2-.2s.09-.2.2-.2.2.09.2.2-.09.2-.2.2m-.96-.3c-.12 0-.22-.1-.22-.22s.1-.22.22-.22.22.1.22.22-.1.22-.22.22m-.33-.97-.05-.04c-.1-.07-.18-.07-.27 0l-.12.12-.06.06.04.03c.1.08.12.18.09.23-.01.02-.03.03-.05.04-.05.01-.12 0-.2-.05l-.04-.02-.02.04s-.01.02-.02.03c0 .01-.02.03-.03.04-.04.08-.07.14-.07.19v.04c.02.06.06.08.1.11h.02s.11.08.16.11a.28.28 0 0 1-.28.01c-.14-.07-.23-.23-.23-.31 0-.12.05-.27.15-.43l.02-.02v-.02s-.07-.1-.09-.14c.05 0 .11.02.16.03h.03l.02-.01c.06-.07.28-.28.48-.28.09 0 .18.05.25.13.05.06.08.13.09.19a.55.55 0 0 1-.09-.07m1.87.77c-.51-.13-1.12-.35-1.69-.6a.433.433 0 0 0-.12-.35c-.09-.1-.2-.16-.32-.16-.05 0-.1.01-.15.03-.08-.07-.16-.15-.23-.24-.21-.25-.38-.54-.5-.87a2.91 2.91 0 0 1-.15-.58c-.03.17-.21.38-.53.39 0-.03 0-.12-.03-.13-.08.09-.21.19-.5.09.04.23.11.45.19.66a3.895 3.895 0 0 0 1.06 1.56v.07c0 .12.12.31.28.39.14.07.28.05.42-.05.25.13.56.26.9.35.38.11.75.17 1.04.17.25 0 .58-.12.9-.32.13-.08.25-.17.34-.26.01-.01.02-.02.04-.03-.25.04-.63-.04-.95-.11M15.35 14.09c-.04-.07-.09-.11-.14-.11-.21 0-.13.55-.38.55-.11 0-.17-.07-.17-.15s.05-.1.05-.16-.05-.08-.1-.08-.1.02-.1.08.05.09.05.16-.06.15-.17.15c-.25 0-.17-.55-.37-.55-.05 0-.1.04-.14.11a.555.555 0 0 1-.07-.22c0-.1.08-.24.24-.24.28 0 .21.38.35.38.06 0 .1-.04.1-.09 0-.11-.19-.21-.19-.37s.14-.28.3-.41c.16.12.3.25.3.41s-.19.26-.19.37c0 .06.04.09.1.09.13 0 .07-.38.35-.38.16 0 .24.14.24.24 0 .06-.02.14-.06.22m-.73.77c-.07 0-.14-.06-.14-.14s.06-.14.14-.14.14.06.14.14-.06.14-.14.14m.55-1.33s-.07 0-.1.01v-.61c-.27 0-.58-.05-.89-.13v.75s-.07-.02-.11-.02c-.21 0-.35.18-.35.35 0 .16.09.3.17.39.04-.1.08-.17.13-.17.11 0 .06.53.37.54-.01.03-.02.05-.02.08 0 .13.11.24.24.24s.24-.11.24-.24c0-.03 0-.06-.02-.08.31-.01.26-.54.37-.54.05 0 .09.07.13.17.08-.09.17-.24.17-.39 0-.17-.13-.35-.35-.35"/>
    <path d="M22.34 14.26s-.05-.05-.08-.04c-.72.21-1.6-.38-2.46-.96-.72-.48-1.4-.94-1.99-.94-.22 0-.41.05-.57.14a.99.99 0 0 0-.45.53c-.1.24-.2.4-.29.53-.1.16-.17.27-.17.41 0 .12.05.22.15.32.08.08.2.16.37.26.04.02.07.04.11.05.14.07.23.12.25.2-.28.12-.65.23-1.06.3-.47.08-.98.12-1.53.12s-1.06-.04-1.53-.12c-.42-.07-.78-.18-1.07-.3.01-.12.1-.17.25-.24.04-.02.07-.03.11-.05.14-.08.28-.15.37-.23.1-.09.15-.18.15-.3 0-.14-.07-.25-.17-.41-.08-.13-.19-.29-.29-.53-.1-.24-.25-.42-.46-.53-.16-.09-.36-.14-.57-.14-.59 0-1.27.45-1.99.94-.86.57-1.75 1.16-2.46.95-.03 0-.07 0-.08.04-.01.03 0 .07.04.08.22.1.41.25.59.39.26.2.5.39.77.39.25 0 .53-.08.86-.25.29-.15.59-.35.88-.55.57-.39 1.15-.78 1.7-.83-.06.06-.11.11-.17.16-.16.15-.3.27-.3.53 0 .2.07.35.16.55.03.06.06.12.09.2.06.14.09.25.12.4.02.07.03.14.06.23.04.13.1.38.51.58.47.24 1.28.36 2.41.36s1.94-.12 2.41-.36c.41-.21.47-.45.51-.58.02-.09.04-.16.06-.23.04-.15.06-.26.12-.4.05-.1.09-.18.13-.25.08-.16.15-.28.15-.47 0-.26-.15-.39-.32-.54-.05-.05-.11-.1-.17-.16.55.04 1.14.44 1.7.83.29.2.59.4.88.55.33.17.61.25.86.25.27 0 .51-.19.77-.39.19-.14.38-.29.59-.39.03-.01.05-.05.04-.08M14.71 8.71V6.03c.28.01.55.08.81.21.28.14.53.33.74.58.21.25.38.54.5.87.12.32.18.67.18 1.02h-2.23Zm-.09-3.8c-.76 0-1.28.22-1.59.43-.18-.1-.25-.21-.25-.33 0-.43 1.22-.47 1.84-.47.62 0 1.84.04 1.84.47 0 .12-.08.22-.25.33-.3-.2-.83-.43-1.59-.43m-.04 3.8H12.3c0-.35.07-.7.18-1.02.12-.33.29-.62.5-.87a2.166 2.166 0 0 1 1.6-.79v2.69Zm3.47-.17a.88.88 0 0 1-.27-.32c-.08-.18-.44-.87-.5-.97a.4.4 0 0 1-.07-.21c0-.07.04-.13.08-.19.03-.04.1-.11.13-.16.02-.03.04-.06.06-.08-.13-.22-.26-.39-.43-.58-.21-.23-.44-.44-.69-.6.14-.09.27-.22.27-.43a.39.39 0 0 0-.14-.3c.14-.46.4-1.01.62-1.25l-.46-.19c.12.18.13.39.1.52a.618.618 0 0 1-.26-.35c-.02.14-.1.36-.17.5.13-.06.24-.09.37-.04-.08.1-.28.27-.58.19-.16-.04-.33-.13-.32-.25 0-.08.06-.17.16-.16.1.01.11.16.07.23.13-.07.27-.46.06-.52-.16-.04-.31.18-.36.35-.03-.21-.12-.4-.28-.39-.21.01-.14.4-.07.5.01-.14.09-.21.15-.2.06 0 .13.04.12.17-.01.12-.19.2-.39.2s-.53-.06-.57-.43c.13.02.32.12.41.24-.03-.23-.03-.39 0-.62-.1.15-.28.22-.4.24.04-.16.17-.33.33-.43h-.83c.16.1.3.27.33.43a.687.687 0 0 1-.4-.24c.03.23.03.4 0 .62.08-.12.27-.22.4-.24-.03.37-.37.43-.57.43-.2 0-.38-.08-.39-.2-.01-.12.06-.16.12-.17.06 0 .14.07.15.2.07-.1.14-.49-.07-.5-.16-.01-.25.19-.28.39-.05-.17-.2-.39-.36-.35-.21.06-.07.44.06.52-.03-.07-.03-.22.07-.23.1 0 .16.08.16.16 0 .13-.16.21-.32.25-.3.07-.5-.09-.58-.19.14-.06.24-.03.38.03-.07-.13-.15-.36-.17-.5-.04.15-.14.27-.26.35a.703.703 0 0 1 .1-.52l-.46.19c.22.24.48.8.62 1.26a.39.39 0 0 0-.14.3c0 .21.14.34.27.43-.25.16-.48.37-.69.6-.31.35-.56.76-.73 1.22.06.07.34.37.4.45.11.14.18.29.19.4 0 .21.05.29.16.43.03.04.08.21.09.31h2.28v2.48c-.09 0-.18.03-.26.12.26.11.51.2.77.28.02-.16.06-.26.14-.36 0 0-.33-.03-.51-.04V8.84h2.23c0 .34-.07.67-.18.98-.12.33-.29.62-.5.87-.21.25-.46.45-.74.58-.04.02-.04.05-.09.07-.04.04-.08.12-.11.2-.03.07-.04.13-.05.23.1.03.16.05.26.07.78.2.98.14 1.02.1.18-.14.34-.29.49-.46.31-.36.56-.77.73-1.23.18-.48.27-.98.27-1.5v-.22"/>
    <path d="M15.96 7.11s-.03.04-.02.06c0 .02.03.04.07.04-.02.02-.05.05-.05.09.04 0 .08 0 .1-.02 0 .04 0 .06.02.08.02.01.04.01.06 0 .17.27.28.59.33.91a.188.188 0 0 0-.08-.02c0 .05.02.08.05.1h-.56s-.01-.07-.04-.07c-.02 0-.05 0-.08.03 0-.03-.01-.07-.04-.1-.03.03-.04.07-.04.1-.03-.03-.05-.04-.08-.03-.02 0-.04.04-.04.07h-.48s.03-.05.03-.09c-.04 0-.07.01-.1.04v-.77s.07-.01.08-.04c0-.02 0-.05-.03-.08.03 0 .07-.01.1-.04a.143.143 0 0 0-.1-.04c.03-.03.03-.05.03-.08 0-.02-.04-.04-.08-.04v-.65s.05.03.08.03c0-.04 0-.07-.02-.09.15.05.29.12.43.21.16.11.31.24.44.41m.63 1.15s.03.09-.02.08c-.05-.4-.2-.8-.43-1.13.04-.02.08-.05.09-.12-.07 0-.12.02-.14.06-.02-.02-.03-.04-.05-.06-.14-.18-.3-.33-.48-.45-.17-.11-.35-.2-.54-.25 0-.04.06-.05.08-.01 0-.07-.05-.11-.09-.09-.02 0-.04.02-.04.06-.02-.03-.05-.05-.1-.05 0 .05.01.08.03.11-.03 0-.05.01-.06.03-.02.03 0 .1.08.1-.03-.03-.02-.08.02-.08v.87s-.1 0-.15.04c.05.05.1.05.15.04v.95s-.06-.06-.02-.08c-.07 0-.1.06-.09.1.01.02.03.04.07.03-.02.02-.04.06-.04.1.04 0 .08-.02.1-.04 0 .04.01.06.04.07.03.02.1-.01.1-.08-.03.04-.08.02-.08-.02h.66s0 .1.04.14c.05-.05.05-.1.04-.14h.73s-.05.06-.08.02c0 .07.07.1.1.08.02-.01.04-.03.03-.07.02.02.06.04.1.04 0-.04-.02-.08-.04-.1.04 0 .06-.01.07-.04.01-.03-.02-.1-.09-.1"/>
    <path d="M16.2 8.03s.05-.03.06-.06c-.03.01-.06 0-.06 0 .02-.01.05 0 .02-.04-.03-.04-.04-.04-.07-.01-.03.03-.2 0-.2-.14.01.02.04.04.06.05 0 0 .01 0 .02.01h.07s.07-.04.07-.07c0-.07-.06-.11-.14-.17l-.07-.07c-.03-.05 0-.1-.08-.2 0-.02 0-.05-.02-.08-.04.06-.05.18.04.28.07.08.23.16.23.23 0 .02-.02.03-.04.03h-.03c-.01 0-.02 0-.03-.02-.02 0-.03-.02-.06-.04-.06-.06-.12-.15-.16-.2-.07-.09-.04-.18-.03-.26.05-.07-.03-.22-.08-.25 0 0 .01-.03 0-.08h-.05c-.01-.03-.02-.03-.04-.04-.03 0-.03-.02-.03-.04-.02.02-.02.03-.04.03h-.05c-.02.01-.03.02-.05.02-.03 0-.03.02-.03.04 0 .01 0 .03.02.04l.02.03.02-.03s.05-.01.06.01c0 .02 0 .02-.02.03h-.06c-.02 0-.02.02-.02.04s.02.03.06.02c.04 0 .1-.02.1.01 0 .08-.09.08-.11.17-.02-.02-.04-.03-.06-.05a.437.437 0 0 0-.07-.08.435.435 0 0 0-.07-.06c-.03-.02-.03-.03-.03-.07 0-.03.01-.05.01-.08v-.02c0-.02-.03-.03-.04-.03 0 0 .02.01.02.03 0 0-.01.01-.01.02v.04c0-.02-.02-.05-.03-.05h-.01c0-.02-.02-.04-.05-.01h.02v.02c0 .02.01.03.04.03-.04-.02-.05 0-.05.02V7c-.01 0-.02.03 0 .04v-.02h.04c-.02.02-.02.04 0 .05-.01.03-.06.02-.05-.02-.03.05.02.08.06.07v.05c0 .01 0 .03.02.03v-.02c0 .01.02.02.02.03.02.04.06.13.16.17-.05.03-.08.07-.11.11-.03.03-.07.05-.09.04-.01 0-.01-.02-.03-.03h-.05c-.02 0-.04 0-.05.01h.03v.02c0 .01 0 .02.06.02 0 0-.01.01-.03 0-.02 0-.03-.02-.05 0l-.01.01c-.02 0-.04.04-.02.06 0 0 0-.02.01-.03l.01.01c.01.02.03.03.06-.02 0 .02-.02.06 0 .06h.01c0 .03.04.03.06.03 0 0-.03-.01-.03-.03h.01c.02-.02 0-.04 0-.05 0 .01.02.03.05.02.01 0 .02-.02.02-.03.03-.01.06-.02.09-.02 0-.02.02-.04.05-.05.04 0 .05 0 .06.01 0-.02.02-.04.04-.06 0 .14.18.14.23.22-.06-.02-.12-.04-.15-.03-.05 0-.13.05-.14.1 0 .04.04.12.08.15-.05.01-.07 0-.12 0-.04 0-.05-.07-.1-.05h-.01s-.05.02-.04.04c0 0 .02-.02.03-.02v.01s0 .02.02.02h.02c0 .02-.06-.01-.05.04v.01c0 .02.01.03.04.02 0 0-.02-.01-.01-.02h.01v.03c0 .02.03.04.05.02 0 0-.03 0-.03-.01h.01v-.02h.01c0 .01.02.02.04.02.01 0 .02 0 .02-.01 0 0 .02 0 .02.01 0-.02 0-.04.05 0l.03-.02s.04.02.06 0c.03-.02.01-.02.01-.05-.02-.04-.03-.04-.04-.08-.01-.07.08-.11.14-.1.01.04.07.16.18.19.06.02.09-.05.11-.04l.01.02v.08c0 .02-.04 0-.06 0-.01 0-.02 0-.02.01-.02 0-.04.02-.04.04 0 0 .02-.02.04-.02 0 .03.03.04.05.02-.02.01-.04.04-.02.05h.01c0 .02.01.03.03.04V8.1h.01c.02 0 .01-.03.03-.04v.05h.01c0 .02.02.03.05.01 0 0-.02 0-.02-.02 0 0 .01-.01.01-.02.01-.04-.02-.04-.02-.06 0-.02.04 0 .04-.05.02-.01.04-.02.04-.04h-.05ZM14.12 9.27h-.03s-.08.01-.08.06c0 .05.03.07.07.08h.02v.03c-.01.07-.03.18-.05.31l-.34-.49c.16-.06.29-.13.36-.13.05 0 .07.03.05.14m-.13.85-.54-.77c.06-.01.12-.03.17-.05l.4.58c-.01.08-.03.16-.04.24m-.06.35-.76-1.09h.19l.61.88c-.01.08-.03.16-.04.22m-.86-1.09.83 1.2c-.45-.17-.89-.57-.83-1.2m1.24-.09h-.04v-.04c0-.13-.07-.23-.22-.23-.13 0-.38.17-.72.17-.15 0-.32-.07-.43-.14l-.04.1v-.01c0-.05-.04-.09-.09-.09s-.09.04-.09.09.04.09.09.09c.03 0 .05-.01.07-.03l-.04.1s.03.01.05.02c-.05.53.34 1.2 1.02 1.4.1-.03.21-.01.21.1 0 .07-.03.1-.1.1-.04 0-.07-.02-.07-.05 0-.05.08-.02.09-.05.01-.04-.02-.06-.06-.06s-.12.03-.12.11c0 .1.07.15.16.15.08 0 .24-.04.21-.23.04 0 .08 0 .09-.04v-.11h-.03l.03-1.2h.03s.08-.01.09-.06c0-.05-.04-.07-.07-.07M13.71 6.74s0-.02.01-.02c0 0 .01 0 .02-.01 0-.01 0-.01-.01-.02 0 0 .01 0 0-.01h-.02v-.01h.01l.04.02v.02s0-.01-.01-.01v.02h-.02v.04s-.02.02-.03.02c-.02 0-.01-.02 0-.03m.05-.11s-.02.02-.03.01c-.01-.01 0-.01-.01-.04.01 0 .04.02.05.03m.03.02s.04.02.05.02c-.02 0-.02.02-.03.01-.02 0-.02-.02-.02-.04m.38.21c.16 0 .24-.05.24-.1 0-.18-.45-.07-.45-.18 0-.02.01-.03.03-.05.22-.02.23-.18.39-.21-.19-.03-.22.13-.3.13a.12.12 0 0 0 .06-.09c-.04.05-.13.06-.17.12 0 0-.01.02 0 .03-.03.02-.05.04-.05.07 0 .17.45.05.45.18 0 .04-.08.07-.2.07-.09 0-.16-.07-.33-.02 0-.03.06-.08.04-.11.02 0 .03-.02.03-.03 0 0-.02-.01-.03-.02v-.04s-.02-.02-.04-.03c-.02 0-.03 0-.04-.01h-.02c-.01 0-.02 0-.02.01 0 0-.02-.01-.03-.01v.05c-.02 0-.03.04-.05.04 0 .01.01.02.02.02-.01.02-.02.05-.03.05 0 0 0 .01.01.01-.01.04-.02.08-.02.1s-.02-.02-.04-.03c-.03-.02-.02-.03-.02-.05 0-.02.02-.04.02-.06v-.02c0-.01-.02-.03-.03-.02 0 0 .01 0 .01.02l-.01.01s-.01.02 0 .02v.01c0-.02 0-.04-.02-.04h-.01c0-.02-.02-.03-.04-.01h.02v.02c0 .02 0 .02.03.02-.03-.01-.05 0-.05.01v.01c-.01 0-.02.02 0 .03 0 0 0-.02.01-.02h.02c-.03.02-.02.04 0 .04 0 .04-.06.03-.05 0-.04.04.01.07.05.05 0 0 0 .01.01.01 0 0 0 .02.02.02v-.01l.04.06c-.04.02-.1.03-.1.03h-.08c-.03.01-.09.04-.11.01 0 0 0-.02-.01-.03 0 0-.01-.02-.02-.02h-.02a.03.03 0 0 0-.04 0s.02 0 .02.02v.01s0 .02.04.03h-.02c-.02-.01-.02-.03-.04-.02h-.01c-.02 0-.05.02-.03.04 0 0 0-.02.02-.02v.01c0 .02.01.04.05 0 0 .02-.04.04-.02.05h.01c0 .02.02.04.04.04 0 0-.02-.02-.01-.04h.01c.02 0 .01-.03.02-.04 0 0 0 .03.03.03.02 0 .03-.02.03-.03 0 0 .02.01.01.03 0 0 .01 0 .02-.02v.04s.03-.01.04-.04V7h.05v.02-.01s0 .02.01.04c0-.06.04-.04.08-.06 0 0 0 .01-.02.02.01 0 .05-.01.05-.04l.02-.02c.01 0 .04 0 .04-.02v.03c.04 0 .08-.04.1-.05.08-.02-.05-.08.12-.07.01 0 .04 0 .05-.02-.01.03-.01.08.01.08.01 0 .04.01.04.02h-.04c-.04.03-.04-.06-.09-.04h-.01c-.02 0-.04.02-.04.04 0 0 .01-.01.03-.02 0 0 0 .01.02.01h.02c0 .02-.05 0-.04.04v.01c0 .01 0 .03.03.02 0 0-.01 0-.01-.02h.01v.01c0 .02.02.03.05.02 0 0-.02 0-.02-.01h.01v-.02h.01c0 .01.02.02.03.01.03 0 0-.03.03-.04h.08c0-.01 0-.05-.02-.07-.01 0 0-.02-.01-.05.03.01.05.02.09.02.06 0 0 0 .03-.03.03-.02.07-.01.08 0 0 0 .02 0 .01.01v.05c0 .01-.03 0-.05 0h-.02c-.02 0-.03.02-.03.04 0 0 .02-.01.03-.01 0 .02.03.03.04.01-.01 0-.04.03-.02.04h.01c0 .01 0 .03.02.03v-.03h.01c.01 0 0-.03.02-.04v.04h.01c0 .01.02.02.04.01 0 0-.01 0-.02-.01 0 0 0-.01.01-.01 0-.03-.02-.03-.02-.05 0-.02.03 0 .03-.04 0 0 0-.02-.01-.02s.02 0 .02-.01c-.02 0-.02-.02-.02-.03 0 0 .01-.02.01-.04 0 .01-.04.02-.04 0 0 0 0-.02-.03-.01-.04 0-.06-.02-.14-.02M13.31 7.44s0-.02.02-.02c.01 0 .02 0 .02-.01s0-.02-.02-.03c.01 0 .02 0 .01-.01h-.02v-.01h.02l.05.02s.01 0 .01.01v.02s0-.02-.01-.02v.02c-.01 0-.02-.01-.03 0v.06c0 .01-.02.03-.04.02-.02-.01-.02-.03-.01-.04m.06-.13s-.03.03-.04.01c-.01-.01 0-.02-.01-.04.02.01.05.03.05.03m.04.02s.04.02.06.02c-.03 0-.02.02-.04.02s-.02-.02-.02-.04m1 .14s-.06-.08-.21-.08-.52.06-.52-.03c0-.04.07-.04.15-.04 0 0 .02.01.03.02.21.06.45-.05.57-.01-.15-.11-.27 0-.43-.03.09 0 .12-.03.13-.05-.07.05-.21-.02-.29.03l-.01.01c-.11 0-.2 0-.2.07 0 .16.43.07.56.07s.16.01.16.04c0 .04-.13.05-.21.05-.12 0-.47-.06-.68-.02.02-.03.06-.08.03-.1.02 0 .03-.02.03-.04a.076.076 0 0 0-.04-.02s0-.02-.01-.03c0 0 0-.02-.01-.03 0 0-.02-.02-.05-.03-.02-.01-.04-.01-.05-.01h-.03c-.01 0-.02 0-.03.01l-.04-.02c0 .02-.01.03 0 .06-.02 0-.04.05-.06.04 0 .01.01.02.02.02-.02.03-.02.06-.04.06.01.02.02.02.03.02v.06h-.03v-.01h-.01.01-.02s-.04-.05-.07-.07c-.03-.02-.03-.03-.03-.07 0-.03.02-.05.02-.08v-.02c0-.02-.03-.03-.04-.03 0 0 .02.01.02.03l-.01.01v.04c0-.02-.01-.05-.03-.05h-.01c0-.02-.02-.04-.05-.01h.02v.02c0 .02.01.03.03.03-.04-.02-.05 0-.05.02v.01c-.01 0-.02.03 0 .04v-.02h.03c-.03.02-.02.05 0 .05 0 .05-.06.04-.06 0-.04.05.02.09.07.07 0 0 0 .02.01.02l.01-.01c0 .01 0 .03.02.03v-.02l.06.06c.03.01.05.05.07.03 0 .03.02.07.02.07h-.11c-.03.02-.1.04-.13.01 0-.01 0-.02-.01-.04 0-.01-.02-.02-.02-.02h-.02c-.01-.01-.04-.01-.05 0 0 0 .02 0 .03.02v.01s0 .03.04.04h-.03c-.02-.01-.02-.03-.04-.02h-.01c-.02 0-.05.02-.04.05 0 0 .01-.02.03-.02v.02c0 .02.01.04.06 0-.01.02-.04.04-.02.06h.01c0 .03.03.05.04.05 0 0-.02-.02-.01-.04h.01c.02 0 .01-.04.03-.05 0 .01 0 .04.03.04s.04-.02.04-.04c0 0 .02.02.01.03 0 0 .02 0 .02-.02 0 .01 0 .03-.01.05.01 0 .04-.02.04-.05v.02h.06v.03s0-.01.01-.01c0 0 0 .03.02.04 0-.07.04-.04.09-.07 0 0 0 .02-.02.02.05.01.13-.06.14-.09h.05c.14.01.04-.13.27-.09.01 0 .04-.01.05-.03-.02.03-.02.09.01.1.01 0 .04.01.05.02-.02 0-.04 0-.04.01-.05.03-.05-.07-.1-.05h-.01c-.02 0-.05.02-.04.04 0 0 .02-.02.03-.02v.01s0 .02.02.02h.02c0 .02-.06-.01-.05.04v.02c0 .02.01.03.04.02 0 0-.02-.01-.01-.02h.01v.03c0 .02.03.04.05.02 0 0-.03 0-.03-.01h.01v-.02h.01c0 .01.02.02.04.02.03-.01 0-.04.03-.05H13.88c0-.01 0-.06-.03-.08-.02 0 0-.03-.01-.05.03.01.06.02.1.02.07 0 .09-.01.12-.03.04-.02.08 0 .09 0 0 0 .02 0 .01.02v.06c0 .01-.04 0-.06 0h-.02c-.02 0-.04.02-.04.04 0 0 .02-.02.03-.02 0 .03.03.03.05.02-.02.01-.04.04-.02.04h.01c0 .02.01.03.02.03v-.03h.01c.02 0 0-.03.03-.04v.05h.01c0 .01.02.03.04.01 0 0-.02 0-.02-.02 0 0 .01-.01.01-.02.01-.04-.02-.04-.02-.06 0-.02.04 0 .04-.05 0 0 0-.02-.02-.02s.02 0 .03-.01c-.03 0-.02-.02-.02-.04 0 0 .02-.02.01-.04 0 .01-.04.03-.05 0 0 0 0-.02-.03-.01-.05 0-.08 0-.17-.01.1 0 .26-.03.26-.09M13.13 8.15s0-.02.01-.02.02 0 .02-.01 0-.02-.02-.02c.01 0 .02 0 .01-.01h-.02v-.01h.02l.05.02v.03s0-.01-.01-.02v.02h-.03v.04c0 .01-.02.03-.03.02-.02-.01-.02-.03 0-.04m.06-.12s-.03.02-.04.01c-.01-.01 0-.02-.01-.04.02.01.04.03.05.03m.04.02s.04.02.06.02c-.03 0-.02.01-.04.01s-.02-.02-.02-.04m1.11.12s-.05-.08-.2-.08-.62.06-.62-.03c0-.05.16-.03.27-.03 0 0 .02.02.03.02.2.06.4-.08.54-.03-.11-.1-.25.01-.4-.02.09 0 .18-.02.18-.04-.07.04-.26-.03-.34.02l-.01.01c-.14 0-.32-.02-.32.07 0 .15.53.06.66.06s.15.01.15.04c0 .04-.13.04-.2.04-.12 0-.62-.06-.81 0 .01-.03.06-.08.04-.11.02 0 .03-.02.03-.04-.01-.01-.02-.02-.04-.02v-.03s0-.02-.01-.03c0 0-.02-.02-.05-.03-.02 0-.04 0-.05-.01h-.03c-.01 0-.02 0-.03.01 0 0-.02-.01-.03-.01 0 .02-.01.03 0 .05-.02 0-.04.05-.05.04 0 .01.01.02.02.02-.01.03-.02.06-.04.06l.02.02v.05h-.07c-.02 0-.04-.04-.08-.06-.03-.02-.03-.03-.03-.06s.01-.05.01-.07v-.02c0-.02-.03-.03-.04-.03 0 0 .01.01.02.03l-.01.01V8c0-.02-.02-.05-.03-.05h-.01c0-.02-.02-.03-.04-.01h.02v.02c0 .02.01.03.04.03-.03-.02-.05 0-.05.02v.01c-.01 0-.02.03 0 .04v-.02h.02c-.02.02-.02.04.01.05 0 .04-.06.03-.06 0-.03.05.02.09.07.06 0 0 0 .01.01.02 0 .01 0 .03.02.03v-.02s.04.06.1.09c.01 0 .03 0 .04-.02l.01.01c0 .03.02.06.01.06h-.13c-.03.02-.1.04-.12.01 0 0 0-.02-.01-.03 0-.01-.02-.02-.02-.02h-.02c-.01-.01-.04-.01-.05 0 0 0 .02 0 .03.02v.01c0 .01 0 .02.04.04h-.02c-.02-.01-.02-.03-.04-.02h-.01c-.02 0-.05.02-.04.05 0 0 0-.02.02-.02v.01c0 .02.01.04.06 0-.01.02-.04.04-.02.05h.01c0 .03.02.05.04.04 0 0-.02-.02-.01-.04h.01c.02 0 .01-.04.02-.04 0 0 0 .04.03.03.02 0 .04-.02.03-.04 0 0 .02.01.01.03 0 0 .01 0 .02-.02 0 .01 0 .03-.01.05 0 0 .04-.02.04-.04v.01h.05v.03s0-.01.01-.01c0 0 0 .03.01.04 0-.07.09-.03.13-.06 0 0 0 .02-.02.02.01 0 .04 0 .06-.02l.07-.03v-.02h.02c.04 0 .04-.03.06-.03.25.03.11-.11.4-.08.01 0 .02 0 .03-.02-.02.03-.02.08.01.08.01 0 .04.01.05.02-.02 0-.04 0-.04.01-.05.03-.05-.07-.09-.05h-.01c-.02 0-.05.02-.04.04 0 0 .02-.02.03-.02v.01s0 .02.02.02h.02c0 .02-.06 0-.05.04v.02c0 .01.01.03.04.02 0 0-.02-.01-.01-.02h.01v.03c0 .02.02.04.05.02 0 0-.02 0-.03-.01h.01v-.02h.01c0 .01.02.02.04.02.03-.01 0-.04.03-.05H13.83c0-.01 0-.06-.02-.07-.02 0 0-.03-.01-.05.03.01.06.02.1.02.07 0 .09-.01.12-.03.03-.02.07 0 .08 0 0 0 .02 0 .01.02v.06c0 .01-.04 0-.06 0-.01 0-.02 0-.02.01-.02 0-.04.02-.04.04 0 0 .02-.01.03-.02 0 .03.03.03.04.02-.01.01-.04.04-.02.04h.01c0 .01.01.03.02.03v-.03h.01c.02 0 0-.03.03-.04v.04h.01c0 .01.02.02.04.01 0 0-.02 0-.02-.01 0 0 .01-.01.01-.02.01-.04-.02-.04-.02-.05 0-.02.04 0 .04-.04 0 0 0-.02-.02-.02s.02 0 .03-.01c-.03 0-.02-.02-.02-.04 0 0 .01-.02.01-.04 0 .01-.04.03-.04 0 0 0 0-.02-.03-.01-.05 0-.08 0-.17-.01.09 0 .25-.02.25-.08M15.26 9.09Zm.04.07s.01-.02.02-.02.02 0 .02-.01 0-.02-.02-.02c.01 0 .02 0 .01-.01h-.02v-.01h.02l.05.02v.03s0-.01-.01-.02v.02c-.01 0-.02-.01-.03 0v.05s-.02.02-.03.02c-.02 0-.02-.03-.01-.04m.06-.12s-.02.03-.04.01c-.01-.01 0-.02-.01-.04.02 0 .04.03.05.03m.04.02s.04.02.06.02c-.03 0-.02.02-.04.02s-.02-.02-.02-.04m1.09.28s.02-.02.02-.04c0 .01-.04.03-.04 0 0 0 0-.02-.03-.01-.05 0-.09 0-.18-.01.09 0 .25-.02.25-.08 0-.05-.05-.08-.2-.08s-.62.06-.62-.03c0-.05.16-.03.27-.03 0 0 .02.02.03.02.2.06.42-.09.54-.06-.15-.05-.25.04-.4 0 .09 0 .18-.02.18-.04-.07.04-.26-.03-.34.02l-.01.01c-.14 0-.32-.02-.32.07 0 .15.53.06.66.06s.16.01.16.04c0 .04-.13.05-.2.05-.12 0-.62-.07-.81 0 .01-.03.06-.08.04-.11.02 0 .03-.02.03-.04-.01-.01-.02-.02-.04-.02v-.03s0-.02-.01-.03c0 0-.02-.02-.04-.03-.02-.01-.04 0-.05-.01h-.03c-.01 0-.02 0-.03.01l-.04-.02c0 .02-.01.03 0 .05-.02 0-.04.05-.05.04 0 .01.01.02.02.02-.01.03-.02.06-.04.06.01.01.02.02.03.02v.04h-.07c-.02 0-.04-.04-.08-.06-.03-.02-.03-.03-.03-.06s.01-.05.01-.07v-.02c0-.02-.03-.03-.04-.03 0 0 .01.01.02.03l-.01.01v.04c0-.02-.02-.05-.03-.05H15c0-.02-.02-.03-.04-.01h.02v.02c0 .02.01.03.03.03-.03-.02-.05 0-.05.02v.01c-.01 0-.01.03 0 .04v-.02h.02c-.02.02-.02.05.01.05 0 .04-.06.03-.06 0-.03.05.02.09.07.06 0 0 0 .02.01.02 0 .01 0 .03.02.03v-.02s.04.06.1.1c0 0 .02-.02.04-.02 0 .01 0 .02.02.03h.01s.03.05.02.05h-.09c-.03.02-.1.04-.12.01 0-.01 0-.02-.01-.04 0-.01-.02-.02-.02-.02h-.02c-.01-.01-.04-.01-.05 0 0 0 .02 0 .03.02v.01s0 .02.04.04h-.02c-.02-.01-.02-.03-.04-.02h-.01c-.02 0-.05.02-.04.05 0 0 0-.02.02-.02v.01c0 .02.01.04.06.01-.01.02-.04.04-.02.05 0 .03.02.05.04.04 0 0-.02-.02-.02-.04h.01c.02 0 .01-.04.02-.04 0 .01 0 .04.03.03.02 0 .04-.02.03-.04 0 0 .02.02.01.03l.02-.02c0 .01 0 .03-.01.05.01 0 .04-.02.04-.05v.01h.05v.03s0-.01.01-.01c0 0 0 .03.02.04 0-.07.04-.04.08-.07 0 0 0 .02-.02.02.02.01.08-.03.08-.05 0 0 .02 0 .04-.01.04 0 .04-.03.05-.03.25.03.11-.11.4-.08.01 0 .02-.02.03-.03-.02.03-.02.09.01.09.01 0 .04.01.05.02-.02 0-.04 0-.04.01-.04.03-.05-.07-.09-.05 0 0-.01 0-.01.01-.02 0-.05.02-.04.04 0 0 .02-.02.03-.02s0 .03.02.03h.02c0 .02-.06 0-.05.04v.02c0 .01 0 .03.04.02 0 0-.01-.01-.01-.02h.01v.03c0 .02.02.04.05.02 0 0-.02 0-.03-.01h.01v-.02h.01c0 .01.02.02.04.02.03-.01 0-.04.03-.04H15.98c0-.01 0-.06-.02-.07-.02 0 0-.03-.01-.05.03.01.06.02.09.02.07 0 .09 0 .12-.03.04-.02.07-.01.09 0 0 0 .01 0 .01.02-.01.04 0 .04 0 .06 0 .01-.04 0-.06 0h-.02c-.02 0-.04.02-.04.04 0 0 .02-.01.03-.02s.03.04.04.02c-.02.01-.04.03-.02.04h.01c0 .02 0 .03.02.03v-.03h.01s.01-.03.03-.04c0 .02-.01.04 0 .04h.01c0 .01.02.02.04.01 0 0-.02 0-.02-.01 0 0 .01-.01.01-.02.01-.04-.02-.04-.02-.05 0-.02.04 0 .04-.04 0 0 0-.02-.01-.02s.02 0 .03-.01c-.03 0-.02-.02-.02-.04M15.39 9.77s-.02-.02-.02-.04c0 0 .04.02.06.02-.03 0-.02.02-.04.02m-.02.03s0-.01-.01-.02v.02h-.03v.04c0 .01-.02.02-.03.02-.02 0-.01-.03 0-.04 0-.01 0-.02.01-.02s.02 0 .02-.01 0-.02-.02-.02c.01 0 .02 0 .01-.01h-.02v-.01h.01l.05.02v.03m-.03-.09s-.02.02-.04.01c-.01-.01 0-.02-.01-.04.01.01.04.03.05.03m.47 0s.01.02.03.02c.19.05.4-.09.51-.05-.15-.05-.24.04-.38 0 .08 0 .17-.02.17-.04-.06.04-.25-.03-.32.02h-.01c-.1 0-.19 0-.19.06 0 .14.39.06.51.06s.11.01.11.04-.14.04-.21.04c-.1 0-.42-.05-.61-.02.02-.03.05-.07.03-.09.02 0 .03-.02.03-.04-.01 0-.02-.01-.04-.02v-.03s0-.02-.01-.02c0 0-.02-.02-.04-.03-.02-.01-.03-.01-.04-.01h-.03c-.01 0-.02 0-.02.01 0 0-.02-.01-.03-.01 0 .02-.01.03 0 .05-.02 0-.03.05-.05.04 0 .01.01.02.02.02-.01.03-.02.06-.04.06 0 0 0 .01.01.02v.05h-.02c-.02 0-.04 0-.08-.02-.03-.02-.03-.03-.03-.06s.01-.05.01-.07v-.02c0-.02-.03-.03-.04-.02l.02.02-.01.01v.04c0-.02-.01-.04-.03-.04h-.01c0-.02-.02-.03-.04-.01h.02v.02c0 .02.01.03.03.03-.03-.01-.05 0-.05.02v.01c-.01 0-.02.03 0 .04v-.02H15c-.02.02-.02.04 0 .05 0 .04-.06.03-.05 0-.03.05.02.08.06.06 0 0 0 .01.01.02 0 0 0 .02.02.03v-.02s0-.02.06 0c0 0 0 .01.02.02h.04v.06h-.08c-.03.01-.09.04-.11.01 0 0 0-.02-.01-.03l-.02-.02h-.02s-.04-.01-.05 0c0 0 .02 0 .03.02v.01s0 .02.04.04h-.02c-.02-.01-.02-.03-.04-.02h-.01c-.02 0-.05.02-.03.04 0 0 0-.02.02-.02v.01c0 .02.01.04.06 0-.01.02-.04.04-.02.05 0 .02.02.04.04.04 0 0-.02-.02-.01-.04h.01c.02 0 .01-.03.02-.04 0 .01 0 .03.03.03.02 0 .04-.02.03-.04 0 0 .01.01.01.03 0 0 .01 0 .02-.02 0 .01 0 .03-.01.04.01 0 .04-.02.04-.04v.01h.05v.03s0-.01.01-.01c0 0 0 .03.01.04 0-.06.06-.05.1-.07 0 0 0 .02-.02.02.04.03.09-.03.1-.06l.01-.01v.02c.04 0 .04-.03.05-.03.13.01.03-.11.23-.07.01 0 .04-.01.05-.02-.01.03-.02.08.01.09.01 0 .04.01.05.02-.02 0-.03 0-.04.01-.04.03-.04-.06-.09-.05h-.01c-.02 0-.04.02-.04.04 0 0 .02-.01.03-.02v.01s0 .01.02.01h.02c0 .02-.06 0-.05.04v.01c0 .01.01.03.04.02 0 0-.01-.01-.01-.02h.01v.02c0 .02.02.04.05.02 0 0-.02 0-.03-.01h.01v-.02h.01c0 .01.02.02.04.02.03-.01 0-.04.03-.04H15.81c0-.01 0-.06-.02-.07-.02 0 0-.03-.01-.05.03.01.05.02.09.02.07 0 .1 0 .13-.03.04-.02.07-.01.08 0 0 0 .01 0 0 .02-.02.03 0 .04-.02.05-.01.01-.04 0-.06 0h-.02c-.02 0-.04.02-.04.04 0 0 .02-.01.03-.02 0 .02.02.03.04.01-.02.01-.05.03-.03.04h.01c0 .01 0 .03.01.03v-.03h.01c.01 0 .02-.03.03-.04-.01.02-.02.04 0 .04h.01c0 .01.02.02.04.01 0 0-.01 0-.01-.01 0 0 .01-.01.01-.02.02-.04-.01-.04 0-.05 0-.02.04 0 .05-.04v-.02s.02 0 .03-.01c-.03 0-.01-.02-.01-.03.01 0 .02-.02.02-.04-.01.01-.04.03-.04 0 0 0 0-.02-.02-.01-.04 0-.11 0-.19-.01.08 0 .25-.02.25-.07 0-.04 0-.07-.15-.07s-.47.05-.47-.03c0-.04.06-.04.14-.03M15.22 10.5s0-.02.01-.02c0 0 .01 0 .02-.01 0-.01 0-.02-.02-.02.01 0 .02 0 .01-.01h-.02v-.01h.01l.04.02v.02s0-.01-.01-.01v.01h-.02v.04s-.02.02-.03.02c-.02 0-.01-.03 0-.03m.05-.11s-.02.02-.03.01c-.01-.01 0-.01-.01-.04.01 0 .04.02.05.03m.03.02s.04.02.05.02c-.02 0-.02.01-.03.01-.02 0-.02-.02-.02-.04m.35-.02s.01.02.03.02c.19.05.4-.09.51-.06-.15-.05-.24.04-.38 0 .08 0 .17-.02.17-.04-.06.04-.24-.03-.32.02 0 0-.01 0-.01.01-.06.01-.11.04-.11.09 0 .12.48.03.48.07 0 .03-.09.06-.22.06-.1 0-.26-.06-.47-.01s.06-.09.04-.11c.02 0 .03-.02.03-.03 0-.01-.02-.01-.03-.02v-.05s-.02-.02-.04-.03c-.02 0-.03 0-.04-.01h-.04s-.02-.01-.03-.01c0 .02-.01.03 0 .05-.02 0-.03.04-.05.04 0 .01.01.02.02.02-.01.03-.02.05-.04.06l.02.02c0 .04-.01.08 0 .12-.03-.03-.07-.1-.1-.12-.03-.02-.03-.03-.03-.06 0-.02.01-.04 0-.07v-.02c0-.02-.02-.03-.04-.02l.02.02-.01.01v.03c0-.02-.01-.04-.03-.04h-.01c0-.02-.02-.03-.04 0h.02v.02c0 .02.01.02.03.02-.03-.01-.05 0-.05.01v.01c-.01 0-.01.02 0 .04v-.02h.02c-.02.02-.02.04 0 .05 0 .04-.05.03-.05 0-.03.04.02.08.06.06 0 0 0 .01.01.01 0 0 0 .02.02.03v-.02s0 .06.05.09c0 .03.04.05.07.05 0 .02.02.04.02.04h-.09c-.01 0-.04.02-.06.02-.02 0-.04 0-.05-.01 0 0 0-.02-.01-.03 0 0-.01-.02-.02-.02h-.02s-.03-.01-.04 0c0 0 .02 0 .02.02v.01s0 .02.04.04h-.02c-.02-.01-.02-.03-.04-.02h-.01c-.02 0-.04.02-.03.04 0 0 0-.02.02-.02v.01c0 .02.01.04.05 0 0 .02-.04.03-.02.05 0 .02.02.04.03.04 0 0-.02-.02-.01-.04h.01c.02 0 0-.03.02-.04 0 0 0 .03.03.03.02 0 .03-.02.03-.03 0 0 .02.01.01.03 0 0 .01 0 .02-.02v.04s.03-.01.04-.04v.01h.05v.02s0-.01.01-.01c0 0 0 .02.01.04 0-.06.04-.04.08-.06 0 0 0 .01-.02.02.01 0 .06-.02.06-.04 0 0 .03-.03.04-.1h.02c.05 0 .07-.04.12-.04-.01.01-.02.05-.02.07 0 .03.04.06.05.07h-.04c-.04.03-.04-.06-.09-.05h-.01c-.02 0-.04.02-.04.04 0 0 .01-.01.03-.02s0 .02.02.02h.02c0 .02-.05 0-.04.04v.01c0 .01.01.03.03.02 0 0-.01 0-.01-.02h.01v.01c0 .02.02.03.05.02 0 0-.02 0-.02-.01h.01v-.02h.01s.02.02.03.01c.03 0 0-.03.03-.04h.02c.02 0 .04.01.05 0 0-.01 0-.05-.02-.07-.01 0 .02-.1-.05-.14.03 0 .14.02.16 0 .03 0 .07.03.07.04v.02c-.03.02-.02.03-.04.03s-.02-.02-.03-.03h-.02c-.02 0-.04 0-.04.02h.03v.01c-.02 0-.05 0-.04.01v.01c-.01 0-.01.03 0 .04 0 0 0-.01.02-.02 0 0 .03-.02.04 0-.02 0-.03.02-.02.03v.01c0 .01 0 .03.02.04v-.02h.02c.03-.02.01-.04.02-.05.01-.01.03.02.05 0v-.02s.01.02.02 0c-.02-.02 0-.02 0-.04 0 0 .02 0 .03-.02-.01 0-.05-.02-.03-.03.03-.01.04-.03.02-.05-.03-.03-.08-.04-.08-.07h.05c.16 0 .26-.04.26-.1 0-.11-.49 0-.49-.07 0-.02.03-.04.07-.05M7.86 2.01c0-.06-.05-.12-.12-.12s-.12.05-.12.12.05.12.12.12.12-.05.12-.12M7.82 1.7c0-.06-.05-.12-.12-.12s-.12.05-.12.12.05.12.12.12.12-.05.12-.12M7.89 1.56c.06 0 .12-.05.12-.12s-.05-.12-.12-.12-.12.05-.12.12.05.12.12.12M8.2 1.54c.06 0 .12-.05.12-.12s-.05-.12-.12-.12-.12.05-.12.12.05.12.12.12M9.52 1.32s.12.05.16 0c.04-.04.04-.12 0-.16-.05-.05-.12-.05-.16 0-.05.05-.05.12 0 .17M9.5 1.08s.05-.12 0-.16c-.05-.05-.12-.05-.16 0-.05.04-.05.12 0 .16.05.05.12.05.16 0M9.19 1.02s.05-.12 0-.16a.115.115 0 0 0-.17 0c-.05.05-.05.12 0 .17.05.05.12.05.16 0M8.93 1.22s.05-.12 0-.16a.115.115 0 0 0-.17 0c-.05.05-.05.12 0 .17.05.04.12.04.16 0M8.18 1.06l.09.2.12-.14h.01c.01.07.01.19.01.25 0 .08.07.15.15.15s.15-.07.15-.15c0-.06-.03-.11-.08-.13a.768.768 0 0 1-.16-.15v-.02l.2.02-.08-.21-.15.13V.79l-.21.08.14.16v.02l-.18.02Z"/>
    <path d="M9.53 1.42c.05.07.06.1.06.16a.289.289 0 0 1-.12-.11l.02.27s.06-.08.1-.1c0 .18-.08.25-.14.26-.07.01-.13-.03-.14-.09-.01-.08.05-.13.12-.06.01-.16-.12-.16-.18-.09.07-.16.04-.26-.1-.35-.09.15-.05.24.06.36-.11-.05-.2.04-.11.16.02-.1.11-.08.13 0 .02.07-.05.16-.17.2-.17.05-.22-.06-.26-.15.04-.02.12-.02.22.05l-.08-.27c-.04.09-.09.13-.16.16 0-.08.05-.23.05-.23l-.32.13s.15.07.2.13c-.07.03-.13.04-.23 0l.13.25c.03-.11.08-.18.12-.19.03.09.07.21-.08.29-.11.06-.22.04-.26-.03-.04-.07 0-.15.09-.09-.01-.15-.15-.15-.19-.04 0-.16-.04-.25-.21-.3-.04.16.01.25.17.32-.09-.01-.19.08-.06.19 0-.1.08-.11.13-.04.03.05.03.12-.04.16-.05.03-.15.03-.28-.09.04-.02.08 0 .14 0l-.17-.21c0 .08 0 .13-.01.16-.04-.04-.05-.08-.07-.16l-.13.12c.12.08.27.19.44.43a5.153 5.153 0 0 1 1.47-.59c-.04-.29-.02-.48.01-.62H9.5ZM9.9 2.97c-.16.13-.38.01-.48-.16.22-.09.48-.2.66-.3-.16.25-.05.36-.18.46m-.04 1.69c-.21.09-.37-.09-.41-.22-.04-.13-.07-.23-.03-.28.09-.09.12-.16.06-.27-.06-.13-.2-.07-.35-.03.07-.12.07-.21-.02-.2-.11.01-.11.19-.18.17-.06-.02-.03-.13-.03-.18 0-.08.05-.1.13-.14l.61-.23c.08-.03.13-.04.19.01.04.04.14.09.11.15-.03.06-.16-.07-.25 0-.08.06 0 .12.13.16-.13.08-.27.13-.23.26.04.12.11.15.23.15.07 0 .12.1.17.22.06.12.08.33-.15.43M8.68 3.43c-.16.01-.16-.14-.45-.21.2-.04.46-.14.69-.23.04.19-.03.42-.24.44m3.38 5.41c.05-.12-.18-.27-.21-.44-.03-.18 0-.35-.21-.59-.2-.23-.9-.98-1.11-1.22.05 0 .18-.03.31.09.08.07.22.21.36.35.19-.47.41-.82.74-1.19.04-.05.08-.09.13-.14-.12.04-.31.06-.41.14 0-.2 0-.37-.13-.5.05-.29 0-.63-.64-1.06.33.08.52.38.77.15-.23 0-.23-.5-1.05-.91.31 0 .55.5.91.21-.34-.04-.45-.64-1.06-.83.21.02.43.13.61-.12-.21.05-.34-.15-.56-.16.09-.26.07-.43-.03-.62-.16.01-.32.06-.44.16-.02-.15-.17-.15-.31-.14 0 .06.04.15-.03.17-.11.02-.47.12-.75.23-.28.11-.6.31-.69.37-.06.04-.11-.05-.14-.1-.1.08-.2.19-.12.3-.16.01-.33.05-.47.17 0 .18.15.36.37.46-.38.38-.04.72-.37 1.05.47.02.39-.63.62-.72-.02.46-.28.54-.28 1.03 0 .26.16.55.02.72.39-.11.29-.97.53-1.23.04.15.02.29-.03.44-.14.4.02.96-.2 1.13.4-.04.45-.68.78-.91-.28.58-.57 1.8-.99 2.42-.68.92-1.08 2.04-1.71 2.04-.28 0-.48-.17-.48-.52 0-1.04 1.79-1.76 1.79-2.87 0-.49-.4-.68-.66-.68-.17 0-.38.08-.55.23a.581.581 0 0 0-.21-.05c-.63 0-.46 1.14-1.02 1.13.22.12.6-.12.82-.43-.09.74-1.15.54-1.07 1.43.15-.69 1.84-.59 1.84-1.64a.4.4 0 0 0-.15-.3c.13-.08.25-.11.36-.11.2 0 .39.15.39.45 0 .93-1.78 1.72-1.78 2.86 0 .19.06.35.15.48-.12.05-.25.03-.36-.1-.01.29.41.48.68.33.06.02.12.03.18.04-.08.22-.35.28-.49.27.44.34 1.2-.11 1.16-.5.35-.28.57-.76.82-1.07-.02.07-.03.15-.04.22-.26.46-.49.88-.56 1.49-.06.51-.31.97-.67.97-.08 0-.21-.1-.27-.05-.11.1 0 .2 0 .29 0 .15-.28.29-.28.74 0 .2.12.44.07.58.11-.06.27-.25.33-.5.12.59-.25.57.02 1.09.03-.17.21-.25.31-.17.11.07.06.12-.02.2-.08.08-.15.47.21.45-.07-.04-.07-.15.11-.19.25-.05.32.06.58.06.16 0 .21-.21.34-.21s.13.1.08.17c.21-.06.25-.17.25-.29s-.1-.19-.02-.23c.07-.05.31 0 .22.2.12-.02.19-.11.19-.26s-.17-.24-.34-.21c-.03-.1-.17-.15-.3-.15-.29 0-.25.23-.45.23-.32 0-.63-.42-.63-1.12 0-.38.4-.47.69-.59.29-.12.79-.43 1.09-.94.24-.39.24-.83.21-1.34.4.23.45.56.45.81 0 .31-.16.44-.29.5-.11.05-.15.03-.16.09-.01.08.04.13.09.15.15.07.12.21.16.36.04.15.18.39.4.56.02-.09.02-.24 0-.44.31.15.06.78.66.78-.11-.06-.08-.23-.02-.25.06-.02.14.04.26.2s.09.15.37.15.16-.1.31-.1.14.17.06.3c.25-.08.33-.27.25-.47.22-.12.34.05.38.17.22-.22 0-.49-.17-.51 0-.08-.07-.17-.16-.17s-.18-.01-.28 0c-.1 0-.16.16-.28.16-.38 0-1.12-.68-1.12-.98s.71-.48.71-.93c0-.6-.59-.8-1.09-1.19.18-.2.69-.25.99-.1.03-.17.14-.13.18-.41.1.25 0 .47.1.58.08-.12.3-.1.28-.42.07.2-.08.5.07.63.03-.16.12-.19.18-.19s.11.04.11.14c0 .24-.3.13-.3.4 0 .11.14.15.14.23s-.12.19-.26.09c.05.1.14.2.27.2s.27-.11.33-.24c.07.17.02.36-.11.39.13.06.44 0 .4-.39.17.03.27.15.16.36.14-.04.27-.11.27-.26 0-.12-.13-.15-.07-.31M23.63 11.72c0-.21.17-.37.38-.37a.37.37 0 1 1 0 .74c-.2 0-.38-.17-.38-.37m-.13 0c0 .28.23.5.5.5s.5-.23.5-.5-.23-.5-.5-.5-.5.23-.5.5M21.85 12.63c-.14-.03-.24-.13-.23-.24 0-.05.04-.09.07-.1.06-.04.14-.05.22-.04.13.02.23.12.23.21v.03c-.02.11-.15.17-.29.14m-.23-.45c-.07.05-.11.11-.12.19-.02.09.01.18.08.25a.445.445 0 0 0 .53.1c.09-.05.14-.12.16-.21.03-.18-.12-.35-.33-.39-.12-.02-.23 0-.32.06M18.82 5.42c0-.07.04-.14.11-.19.06-.04.13-.07.19-.06.03 0 .07.02.09.05.03.04.03.08.03.1 0 .06-.05.13-.1.17-.1.08-.23.08-.29 0a.114.114 0 0 1-.03-.08m.03-.29c-.16.12-.2.33-.1.46s.31.13.47.01c.09-.07.14-.16.15-.26 0-.07 0-.15-.05-.2a.27.27 0 0 0-.18-.1c-.1-.01-.2.02-.29.08M21.22 12.05Zm0-.13c-.05 0-.09-.03-.11-.05a.304.304 0 0 1-.08-.21c0-.08.03-.16.08-.21.02-.02.06-.05.12-.05.11 0 .19.12.19.27 0 .08-.03.16-.08.21-.02.02-.06.05-.11.05m-.2-.57c-.08.07-.12.18-.12.3s.04.23.11.31c.06.06.13.09.2.09.08 0 .15-.03.21-.08.08-.07.12-.18.12-.3 0-.1-.03-.2-.08-.27a.321.321 0 0 0-.23-.13c-.08 0-.15.03-.21.09M18.67 7.77c-.13-.06-.2-.19-.15-.29.02-.05.06-.07.1-.08.07-.02.15-.02.23.02.08.04.13.1.16.16.01.03.02.08 0 .13s-.06.07-.1.08c-.07.02-.15.02-.23-.02m-.1-.49c-.08.03-.14.08-.17.15-.08.16.02.37.21.46.11.05.23.06.33.03.08-.03.14-.08.17-.15a.28.28 0 0 0 0-.22.452.452 0 0 0-.54-.27"/>
    <path d="M22.21 9.57c-.08.12-.22.16-.31.09s-.1-.21-.02-.33c.08-.12.22-.16.31-.09.09.06.1.21.02.33m-.59.94c-.08.12-.22.16-.32.09-.09-.06-.1-.21-.02-.33.08-.12.22-.16.31-.09s.1.21.02.33m-2.03-5.12c.07-.22.2-.65.2-.65l.23.09c-.07.03-.15.09-.22.16.05.02.14.03.21-.02l-.09.23s-.09-.12-.15-.13c-.05.18.07.25.15.3.14.07.23.08.27.02.04-.08-.05-.19-.16-.14-.01-.12.05-.18.13-.18.06 0 .11.06.13.13 0-.19.08-.35.26-.4.07.19.01.32-.13.45.07-.03.16-.03.19.03.04.07.03.16-.08.21-.02-.13-.17-.14-.21-.05-.04.08.02.16.15.23.15.08.27.03.35-.1-.05-.02-.13 0-.21.04l.15-.28s.03.11.1.17c.02-.06.06-.18 0-.28l.33.19c-.11.01-.19.09-.23.15.08.03.15.01.19 0l-.17.27a.31.31 0 0 0-.07-.21c-.07.13-.06.26.09.35.13.08.22.09.27.02.05-.08-.03-.2-.15-.16 0-.12.07-.18.14-.17.06 0 .11.08.12.16.05-.19.13-.3.33-.34.04.18-.05.34-.22.43.08-.02.15 0 .18.05.04.07.02.16-.09.21-.02-.13-.16-.15-.2-.07-.04.07.02.14.15.22.08.05.2.12.33-.02-.04-.05-.15-.06-.19-.06l.15-.19c0 .08.05.15.09.19.02-.1.04-.2.03-.27l.19.15s-.31.33-.46.5l-2.08-1.2Zm2.46 2.8s.01-.08.05-.11c.04-.04.08-.04.12-.04.07 0 .15.04.21.1.06.06.09.14.09.21 0 .03-.01.08-.05.11s-.08.04-.12.04c-.07 0-.15-.04-.2-.1a.305.305 0 0 1-.09-.21m.9 4.14a.26.26 0 0 1 .13-.18c.07-.05.15-.06.22-.05.03 0 .08.03.11.07s.03.09.02.12a.26.26 0 0 1-.13.18c-.12.08-.27.07-.33-.02a.136.136 0 0 1-.02-.12m-4.29-6.24c0 .07-.03.14-.08.18-.02.02-.05.04-.1.04-.08 0-.15-.1-.15-.22v-.02c0-.07.03-.14.08-.18.02-.02.05-.04.1-.04.04 0 .07.03.09.05.04.04.06.11.06.18m1.33-2.72c.07-.13 0-.34.25-.34.12 0 .23.12.37.17-.24.02-.45.07-.62.17m3.86 3.41c.16.45.49.61.74.5-.56-.06-.11-1.01-.82-1.01-.04 0-.08 0-.12.01-.12-.13-.26-.18-.46-.18-.3 0-.82.29-.82.89 0 1.3 1.51 1.41 1.51 2.56 0 .34-.25.54-.54.54-.25 0-.46-.28-.67-.73-.1-.21-.32-.5-.55-.8.07.05.15.08.22.08.08 0 .16-.02.21-.08.05-.05.09-.12.09-.2 0-.11-.04-.22-.12-.3a.405.405 0 0 0-.3-.14c-.08 0-.16.03-.21.08-.05.05-.09.12-.09.2 0 .06 0 .1.02.14-.32-.42-.63-.84-.63-1.07 0-.2.14-.38.31-.59l.06.03.05-.05c.06-.07.19-.2.45-.48l.02-.02.06-.07-.16-.13c.04-.1.08-.2.11-.32.05.21.16.34.3.3-.1-.22.1-.5-.03-1.03.12.2.3.31.43.27-.33-.3.1-.71-.34-1.35.14.05.24.02.3-.05-.4-.06-.22-.56-.91-.74.17-.03.28-.13.25-.22-.18.13-.34-.25-.95-.24-.04-.23-.25-.46-.48-.58.04.17 0 .33-.04.46L18.77.52c-.06-.05-.09-.07-.1-.05-.02.02-.01.06.02.09l1.69 2.12c-.13.04-.25.1-.38.15-.08.03-.15.11-.15.22-.31.16-.59.35-.72.47-.1.09-.19.12-.1.33.04.08-.07.28.17.13.16-.1.52-.3.58-.17.03.07-.15.15-.27.2-.12.05-.26.14-.24.19.02.05.12 0 .12.05 0 .06.05.11.1.11s.11-.1.15-.07c.04.03-.02.27-.06.32.19-.02.31-.21.32-.35 0-.14.04-.18.07-.2.03-.02.06.15.02.26.1-.02.21-.15.19-.4.05-.04.1-.07.14-.07.06 0 .19.18.37.18.33 0 .52-.27.54-.4.02-.1 0-.2-.05-.28.12.1.16.25.16.36 0 .47-.84.7-1.18 1.02-.01.01-.03.02-.04.04l-.39-.15-.03.09s0 .02-.02.07c-.04.13-.13.41-.18.58l-.02.06.04.02c-.23.31-.42.66-.46 1.01-.09-.1-.18-.18-.29-.26a.428.428 0 0 0-.07-.39c-.05-.05-.11-.09-.18-.09-.07 0-.14.02-.19.07-.01.01-.02.02-.03.04-.01-.01-.03-.02-.04-.03-.13-.1-.29-.22-.39-.33-.04-.05-.08-.07-.17-.07h-.17c-.05 0-.09.04-.16.1-.03.03-.12.1-.22.18.05.05.1.1.14.15.02.03.05.06.07.09.03-.02.05-.04.07-.05.04-.03.1-.04.15-.04s.12.04.17.11c.04.05.35.47.62.76-.03 0-.06.02-.08.03-.11.05-.37.04-.48.03-.11 0-.14-.04-.21.08-.03.05-.07.1-.1.15-.04.05-.07.1.01.23.12.2.4.71.5.95.1.23.21.27.39.35.18.08.5.25.53.3v-.18c-.04-.05-.22-.12-.28-.14-.07-.02-.08-.05 0-.05s.3.08.45.14c-.05-.18-.21-.37-.31-.47-.13-.04-.27-.04-.32 0 0 .04-.02.08-.07.08s-.09-.04-.07-.09c.02-.05.1-.07.08-.17-.02-.1-.14-.12-.22-.13-.11-.16-.24-.4-.3-.5-.06-.1-.02-.15.02-.18.1-.08.3.04.7.07.14 0 .32.02.49.03.05.46.24.91.88 1.07.32.08.64.31.75.61-1.29-.02-1.49.48-1.49.96 0 .54.45.51.45.91 0 .35-1.08.5-1.41.55-.28.04-.44.1-.57.24-.13.13-.27.26-.51.5 0 0 .1.02.21.02l.18-.24c.05-.08.09-.15.13-.14.04 0 .01.07-.03.15l-.15.25c.64.04.68-.19.68-.29s-.16-.16-.07-.22.17-.02.24.07c.07.09.1.16.27.09 0 0 1.39-.57 1.56-.65.16-.07.11-.14.02-.22-.1-.09-.12-.22-.12-.37 0-.42.25-.55.7-.54 0 .07-.01.14-.01.2 0 .66.99 1.3 1.26 1.3.12 0 .28-.09.29.31 0 .29.07.5.01.83-.05.34-.15.39-.35.53-.2.14-.39.59-.48.68.09.06.19.07.26-.15.06-.18.13-.31.21-.35-.08.2-.14.49-.17.57.25.04.66-.19.66-.37s-.14-.16-.14-.28c0-.05.06-.11.14-.11.1 0 .18.08.19.12.11-.06.18-.17.18-.43 0-.1 0-.21-.01-.32 0 .01.01.03.02.04.05.08.13.12.23.13a.5.5 0 0 0 .28-.08c.1-.07.17-.16.19-.27v-.06c0-.06-.02-.11-.05-.16a.276.276 0 0 0-.19-.12c-.1-.02-.22 0-.32.07-.09.06-.16.15-.18.24-.02-.36-.05-.69-.04-.83.01-.2.02-.29-.05-.32-.07-.03-.14.08-.24.08s-.39-.27-.39-.55.31-.65.29-1.04c0-.12.07-.18.12-.07.06.13.15.31.28.46-.08.49.46.96.9.61-.22.03-.37-.16-.46-.36.04 0 .08.01.12.01h.07c.15.19.65.18.77-.3-.09.1-.26.18-.39.16.19-.14.28-.38.28-.63 0-1.24-1.5-1.38-1.5-2.51 0-.42.37-.69.62-.69.1 0 .17.03.23.07-.1.1-.15.25-.14.43.04.89 1.49.84 1.51 1.27.16-.64-.92-.44-.96-1.31"/>
</svg>
