<svg class="ons-svg-logo" xmlns="http://www.w3.org/2000/svg" focusable="false" width="50" height="35" viewBox="0 0 50 35" aria-labelledby="orr-logo-mobile-alt">
    <title id="orr-logo-mobile-alt">Office of Rail and Road logo</title>
    <path d="m43.57 12.61.28-.1c.99-.39 1.83-1.02 2.5-1.86.89-1.13 1.35-2.5 1.35-4.06 0-2.01-.72-3.65-2.16-4.88C44.24.6 42.23.06 39.4.06h-6.76c1.41.94 2.49 2.34 3.07 3.98h4.24c3.29 0 3.67 1.47 3.67 2.58 0 1.2-.4 2.79-3.79 2.79h-4.15a8.159 8.159 0 0 1-2.86 3.78h6.33s5.65 8.15 5.78 8.34h5.08l-6.43-8.91Z" fill="#223367"/>
    <path d="m30.44 12.61.28-.1c.99-.39 1.83-1.02 2.5-1.86.89-1.13 1.35-2.5 1.35-4.06 0-2.01-.72-3.65-2.16-4.88C31.11.6 29.1.06 26.27.06h-9.39c1.68.98 3.1 2.35 4.15 3.98h5.8c3.29 0 3.67 1.47 3.67 2.58 0 1.2-.4 2.79-3.79 2.79h-3.77c.05.45.08.9.08 1.36 0 .82-.09 1.64-.23 2.42h3.23s5.71 8.24 5.84 8.43h5.08l-6.5-9Z" fill="#223367"/>
    <path d="M0 10.8c0 5.96 4.81 10.8 10.73 10.8s10.73-4.84 10.73-10.8S16.64 0 10.73 0 0 4.85 0 10.8Zm3.96 0c0-3.76 3.04-6.82 6.77-6.82s6.77 3.06 6.77 6.82-3.04 6.82-6.77 6.82-6.77-3.06-6.77-6.82Z" fill="#223367"/>
    <path d="M35.99 24.1v.99h14v-.99h-14Zm0 4.11h14v-2.1h-14v2.1ZM15.35 11.66l-.21-.12s.92-1.59-.08-2.52c-.84-.79-2.13-.23-2.68.02-.05.02-.09.04-.13.05-.45.18-.85.19-.87.19v-.24s.38 0 .77-.17c.03-.02.08-.03.12-.05.54-.23 1.99-.87 2.94.03 1.15 1.07.14 2.81.13 2.82ZM6.02 11.67S5 9.92 6.14 8.85c.95-.89 2.39-.27 2.94-.03.05.02.09.03.13.05.4.16.72.17.72.17v.24s-.38 0-.83-.19c-.03-.02-.08-.03-.13-.05-.55-.24-1.84-.8-2.68-.02-1.01.94-.09 2.5-.08 2.52l-.21.12ZM5.83 8.88c0 .15-.12.27-.27.27s-.27-.12-.27-.27.12-.27.27-.27.27.12.27.27M5.48 9.71c0 .15-.12.27-.27.27s-.27-.12-.27-.27.12-.27.27-.27.27.12.27.27M5.49 10.56c0 .15-.12.27-.27.27s-.27-.12-.27-.27.12-.27.27-.27.27.12.27.27M5.72 11.4c0 .15-.12.27-.27.27s-.27-.12-.27-.27.12-.27.27-.27.27.12.27.27M6.52 8.24c0 .15-.12.27-.27.27s-.27-.12-.27-.27.12-.27.27-.27.27.11.27.27M7.39 7.98c0 .15-.12.27-.27.27s-.27-.12-.27-.27.12-.27.27-.27.27.12.27.27" fill="#a6b0d3"/>
    <path d="M8.24 8.04c0 .15-.12.27-.27.27s-.27-.12-.27-.27.12-.27.27-.27.27.12.27.27M9.02 8.27c0 .15-.12.27-.27.27s-.27-.12-.27-.27S8.6 8 8.75 8s.27.12.27.27M9.87 8.6c0 .15-.12.27-.27.27s-.27-.12-.27-.27.12-.27.27-.27.27.12.27.27M15.55 8.86c0 .15.12.27.27.27s.27-.12.27-.27-.12-.27-.27-.27-.27.12-.27.27M15.89 9.71c0 .15.12.27.27.27s.27-.12.27-.27-.12-.27-.27-.27-.27.12-.27.27M15.9 10.57c0 .15.12.27.27.27s.27-.12.27-.27-.12-.27-.27-.27-.27.12-.27.27M15.65 11.44c0 .15.12.27.27.27s.27-.12.27-.27-.12-.27-.27-.27-.27.12-.27.27M14.84 8.24c0 .15.12.27.27.27s.27-.12.27-.27-.12-.27-.27-.27-.27.11-.27.27M13.97 7.98c0 .15.12.27.27.27s.27-.12.27-.27-.12-.27-.27-.27-.27.12-.27.27M13.11 8.04c0 .15.12.27.27.27s.27-.12.27-.27-.12-.27-.27-.27-.27.12-.27.27M12.33 8.27c0 .15.12.27.27.27s.27-.12.27-.27S12.75 8 12.6 8s-.27.12-.27.27M11.48 8.6c0 .15.12.27.27.27s.27-.12.27-.27-.12-.27-.27-.27-.27.12-.27.27M14.76 15.02l-.33-.22-.22-.15.22-.15.33-.22c.06 0 .11.02.16.04l.04-.18H6.42l.03.17s.09-.03.15-.03l.33.22.22.15-.22.15-.32.22.04.17h8.09l.03-.17ZM8.56 15c-.29 0-.52-.16-.52-.35s.23-.35.52-.35.52.16.52.35-.23.35-.52.35Zm2.88-.08H9.96v-.53h1.48v.53Zm1.37.08c-.29 0-.52-.16-.52-.35s.23-.35.52-.35.52.16.52.35-.23.35-.52.35Z" fill="#a6b0d3"/>
    <path d="M10.44 13.4h.01M10.92 13.4h-.01"  class="cls-3"/>
    <path d="M10.68 11.47h-.59c.26.2.43.5.46.85-.34-.03-.64-.21-.84-.47v1.17c.2-.25.5-.43.84-.46h.25c.34.03.64.21.83.46v-1.17c-.2.25-.5.42-.83.47.03-.35.21-.64.46-.85h-.58" fill="#a6b0d3"/>
    <path d="M10.8 12.54c.05.63.58 1.13 1.21 1.13.34 0 .64-.14.85-.36h.41c.22.22.52.36.85.36.28 0 .54-.1.75-.26l.03-.02c.25-.2.4-.5.43-.84-.34.03-.65.21-.86.47v-1.17c.21.26.51.43.86.46a1.27 1.27 0 0 0-.41-.81l-.03-.03h-.02.74l-.54 2.41v.04H6.29l-.53-2.44h.72-.02l-.03.03c-.23.2-.38.49-.41.81.34-.03.65-.21.86-.46v1.17a1.28 1.28 0 0 0-.86-.47c.03.34.18.64.44.84l.03.02c.21.16.46.26.75.26.34 0 .64-.14.85-.36h.41c.22.22.52.36.86.36.64 0 1.17-.49 1.21-1.13" fill="#a6b0d3"/>
    <path d="M7.84 12.25c-.08-.03-.17-.05-.28-.03-.21.05-.24.23-.24.32v.03c0 .1.07.21.11.29.03.06.06.11.07.16v.03c0 .05-.02.1-.03.16.04 0 .09-.03.13-.09.02-.03.03-.06.03-.1 0-.03 0-.05-.02-.07a.193.193 0 0 1-.03-.1c0-.04 0-.08.03-.11.04-.05.1-.07.18-.04.14.04.23.24.28.36v-.05c-.06-.19-.17-.5-.23-.77Zm1.13-.03c-.1-.03-.2-.02-.28.03-.06.27-.16.58-.23.76v.05c.04-.11.14-.31.28-.36.08-.03.14 0 .18.04.03.03.03.07.03.11 0 .03 0 .07-.03.1 0 .02-.02.04-.02.07 0 .03 0 .07.03.1.03.05.09.08.13.09a.377.377 0 0 1-.04-.16v-.03s.03-.1.07-.16c.05-.09.1-.2.11-.29v-.03c.03-.1 0-.27-.22-.32ZM8.22 11.46c-.09.08-.25.2-.31.35 0 .03-.02.07-.02.11 0 .29.22.9.32 1.18h.14c.1-.28.32-.89.32-1.18 0-.04 0-.09-.02-.11-.07-.15-.22-.27-.31-.35a.274.274 0 0 1-.05-.04c-.03 0-.04.02-.07.04ZM15.14 12.41c0 .15.12.27.27.27s.27-.12.27-.27-.12-.27-.27-.27-.27.11-.27.27M6.24 12.43c0 .15-.12.27-.27.27s-.27-.12-.27-.27.12-.27.27-.27.27.12.27.27M10.95 12.43c0 .15-.12.27-.27.27s-.27-.12-.27-.27.12-.27.27-.27.27.12.27.27M11.53 8H9.84c.08.19.22.36.39.46h-.15v2.9h1.21v-2.9h-.15c.18-.1.32-.27.4-.46Zm-.84 3.34c-.15 0-.27-.12-.27-.27s.12-.27.27-.27.27.12.27.27-.12.27-.27.27Zm0-.65c-.15 0-.27-.12-.27-.27s.12-.27.27-.27.27.12.27.27-.12.27-.27.27Zm0-.65c-.15 0-.27-.12-.27-.27s.12-.27.27-.27.27.12.27.27-.12.27-.27.27Zm0-.64c-.15 0-.27-.12-.27-.27s.12-.27.27-.27.27.12.27.27-.12.27-.27.27Zm0-.65c-.15 0-.27-.12-.27-.27s.12-.27.27-.27.27.12.27.27-.12.27-.27.27ZM7.94 13.14h.67v.36h-.67zM12.76 13.14h.67v.36h-.67zM10.55 5.85s.09-.03.13-.03.09.02.13.03c.05-.27.2-.49.4-.66h-1.07c.21.16.35.4.4.66Zm.65 1.07-.18.48h.53c-.07-.2-.19-.36-.35-.48Zm-.52-.62c-.05 0-.09-.02-.13-.03-.03.22-.14.42-.29.57l.22.55h.41l.22-.55c-.15-.16-.26-.36-.29-.57a.25.25 0 0 1-.13.03Zm.24-.24c0 .05-.02.1-.03.13.27.05.5.2.66.4V5.54c-.16.21-.4.35-.65.4.02.03.03.08.03.12ZM9.84 8h1.69s0-.03.02-.05H9.82s.02.03.03.05Zm1.74-.49H9.79c0 .05-.02.1-.02.16s0 .11.02.16h1.78c0-.05.02-.11.02-.16v-.16Zm-1.09-1.32s-.03-.08-.03-.13c0-.04 0-.08.03-.11-.27-.05-.5-.19-.65-.4V6.6c.15-.22.4-.36.66-.41Zm-.31.73c-.17.11-.29.29-.36.48h.54l-.18-.48ZM12.66 12.24c-.08-.03-.17-.05-.28-.03-.21.05-.24.23-.24.32v.03c0 .1.07.21.11.29.03.06.06.11.07.16v.03c0 .05-.02.1-.03.16.04 0 .09-.03.13-.09.02-.03.03-.06.03-.1 0-.03 0-.05-.02-.07a.193.193 0 0 1-.03-.1c0-.04 0-.08.03-.11.04-.05.1-.07.18-.04.14.04.23.24.27.36V13c-.05-.18-.16-.49-.22-.77Zm1.13-.02c-.1-.03-.2-.02-.28.03-.06.27-.16.58-.23.76v.05c.04-.11.14-.31.27-.36.08-.03.14 0 .18.04.03.03.03.07.03.11 0 .03 0 .07-.03.1 0 .02-.02.04-.02.07 0 .03 0 .07.03.1.03.05.09.08.13.09a.377.377 0 0 1-.04-.16v-.03s.03-.1.07-.16c.05-.09.1-.2.12-.29v-.03c.02-.1 0-.27-.22-.32ZM13.04 11.45c-.09.08-.25.2-.31.35 0 .03-.02.07-.02.11 0 .29.22.9.32 1.18h.14c.1-.28.32-.89.32-1.18 0-.04 0-.09-.02-.11-.07-.15-.22-.27-.31-.35a.274.274 0 0 1-.05-.04c-.03 0-.05.03-.07.04Z" fill="#a6b0d3"/>
    <path d="M1.34 30.89h1.8c.39 0 .71.11.95.34s.36.5.36.82c0 .45-.23.78-.69 1 .2.1.4.35.58.75.18.4.36.79.52 1.15h-1.1c-.07-.13-.18-.39-.34-.76s-.3-.62-.42-.72-.24-.16-.37-.16h-.29v1.65h-1V30.9Zm1.01.75v.93h.53c.17 0 .3-.04.4-.12s.15-.19.15-.35c0-.3-.19-.46-.58-.46h-.51ZM7.7 30.89l1.79 4.05H8.41l-.34-.8H6.26l-.3.8H4.89l1.63-4.05h1.17Zm.08 2.55-.65-1.58-.58 1.58h1.24ZM10.98 30.89v4.05H9.97v-4.05h1.01ZM14.98 34.2v.75h-3.07V30.9h1.01v3.31h2.06ZM18.95 30.89l1.79 4.05h-1.08l-.34-.8h-1.81l-.3.8h-1.07l1.63-4.05h1.17Zm.09 2.55-.65-1.58-.59 1.58h1.25ZM25.28 30.89v4.05h-.85l-2.22-2.6v2.6H21.2v-4.05h.92l2.15 2.48v-2.48h1.01ZM26.18 30.89h1.77c.69 0 1.23.19 1.63.56s.6.87.6 1.46-.21 1.13-.6 1.48c-.4.36-.98.54-1.73.54h-1.66v-4.05Zm1 .75v2.56h.65c.42 0 .75-.12.97-.36.22-.23.34-.55.34-.93s-.11-.71-.34-.94c-.22-.23-.56-.35-.98-.35h-.64ZM32.56 30.89h1.8c.39 0 .71.11.95.34s.37.5.37.82c0 .45-.23.78-.69 1 .21.1.4.35.58.75.18.41.36.79.52 1.15h-1.1c-.07-.13-.18-.39-.34-.76s-.3-.62-.42-.72-.24-.16-.37-.16h-.29v1.65h-1.01V30.9Zm1.01.75v.93h.53c.17 0 .3-.04.4-.12.09-.08.15-.19.15-.35 0-.3-.19-.46-.58-.46h-.51ZM38.59 30.84c.69 0 1.24.21 1.67.62s.64.9.64 1.46-.22 1.05-.65 1.46-.98.62-1.66.62-1.24-.21-1.67-.62-.65-.9-.65-1.46.22-1.04.64-1.46c.44-.42.99-.62 1.68-.62Zm0 3.32c.38 0 .69-.11.92-.34s.34-.53.34-.89-.12-.67-.34-.9c-.23-.23-.54-.34-.92-.34s-.69.11-.92.34-.35.53-.35.9.12.67.35.89c.23.23.54.34.92.34ZM43.75 30.89l1.79 4.05h-1.08l-.34-.8h-1.81l-.3.8h-1.07l1.63-4.05h1.17Zm.09 2.55-.65-1.58-.59 1.58h1.25ZM45.99 30.89h1.77c.69 0 1.23.19 1.63.56.4.38.6.87.6 1.46s-.2 1.13-.6 1.48-.98.54-1.73.54H46v-4.05Zm1.01.75v2.56h.65c.42 0 .75-.12.97-.36s.34-.55.34-.93-.11-.71-.34-.94c-.23-.23-.56-.35-.98-.35H47ZM3.58 24.1c.69 0 1.24.21 1.67.62.42.42.64.9.64 1.46s-.22 1.05-.65 1.46-.98.62-1.66.62-1.24-.21-1.67-.62-.65-.9-.65-1.46.22-1.04.64-1.46c.43-.42.99-.62 1.68-.62Zm0 3.32c.38 0 .69-.11.92-.34s.34-.53.34-.89-.11-.67-.34-.9c-.23-.23-.54-.34-.92-.34s-.69.11-.92.34-.35.53-.35.9.12.67.35.89.53.34.92.34ZM9.38 24.15v.75H7.61v.91h1.77v.75H7.61v1.66h-1v-4.05h2.77ZM12.94 24.15v.75h-1.77v.91h1.77v.75h-1.77v1.66h-1.01v-4.05h2.78ZM14.77 24.15v4.05h-1.01v-4.05h1.01ZM19.45 26.97v.88c-.51.27-1.03.4-1.58.4-.71 0-1.28-.2-1.7-.6s-.64-.88-.64-1.47.22-1.07.67-1.48 1.03-.61 1.75-.61c.58 0 1.06.12 1.45.36v.9c-.49-.28-.95-.42-1.38-.42s-.78.11-1.05.35-.4.53-.4.88.14.66.4.89.61.35 1.03.35c.21 0 .4-.03.6-.09.18-.03.46-.16.85-.35ZM23.22 27.46v.75h-2.97v-4.05h2.92v.75h-1.93v.85h1.83v.75h-1.83v.97h1.97ZM27.77 24.1c.69 0 1.24.21 1.67.62.42.42.64.9.64 1.46s-.22 1.05-.65 1.46-.98.62-1.66.62-1.24-.21-1.67-.62-.65-.9-.65-1.46.22-1.04.64-1.46.99-.62 1.68-.62Zm0 3.32c.38 0 .69-.11.92-.34s.34-.53.34-.89-.12-.67-.34-.9c-.23-.23-.54-.34-.92-.34s-.69.11-.92.34-.35.53-.35.9.12.67.35.89c.22.23.53.34.92.34ZM33.56 24.15v.75h-1.77v.91h1.77v.75h-1.77v1.66h-1v-4.05h2.77Z" fill="#223367"/>
</svg>
