<svg class="ons-svg-logo" xmlns="http://www.w3.org/2000/svg" focusable="false" width="80" height="56" viewBox="0 0 80 56" aria-labelledby="orr-logo-alt">
    <title id="orr-logo-alt">Office of Rail and Road logo</title>
    <path d="m70.21 20.18.44-.17c1.59-.62 2.95-1.64 4.03-2.98 1.44-1.82 2.18-3.99 2.18-6.5 0-3.22-1.16-5.84-3.48-7.8C71.29.96 68.04.1 63.48.1h-10.9c2.27 1.51 4.02 3.74 4.95 6.36h6.83c5.31 0 5.92 2.36 5.92 4.13 0 1.91-.64 4.46-6.11 4.46h-6.7c-.9 2.45-2.52 4.55-4.62 6.04h10.2s9.11 13.04 9.31 13.35h8.19c-.79-1.08-10.37-14.26-10.37-14.26Z" fill="#223367"/>
    <path d="m49.06 20.18.44-.17c1.59-.62 2.95-1.64 4.03-2.98 1.44-1.82 2.18-3.99 2.18-6.5 0-3.22-1.16-5.84-3.48-7.8C50.14.96 46.89.1 42.33.1H27.19a20.18 20.18 0 0 1 6.7 6.36h9.34c5.31 0 5.92 2.36 5.92 4.13 0 1.91-.64 4.46-6.11 4.46h-6.07c.08.72.12 1.44.12 2.18 0 1.32-.14 2.62-.37 3.87h5.21s9.2 13.18 9.41 13.49h8.19c-.79-1.08-10.48-14.4-10.48-14.4Z" fill="#223367"/>
    <path d="M0 17.29c0 9.54 7.75 17.29 17.29 17.29s17.29-7.75 17.29-17.29S26.81 0 17.29 0 0 7.76 0 17.29Zm6.38 0c0-6.02 4.89-10.91 10.91-10.91S28.2 11.27 28.2 17.29 23.31 28.2 17.29 28.2 6.38 23.31 6.38 17.29Z" fill="#223367"/>
    <path d="M58 38.56v1.58h22.57v-1.58H58Zm0 6.57h22.57v-3.35H58v3.35ZM24.74 18.66l-.33-.19s1.48-2.54-.12-4.03c-1.36-1.26-3.44-.36-4.32.03-.08.03-.15.07-.21.08-.72.29-1.37.3-1.4.3v-.39s.61-.01 1.25-.28c.06-.03.12-.06.19-.08.87-.37 3.2-1.39 4.74.04 1.86 1.72.22 4.49.21 4.52ZM9.7 18.67s-1.65-2.8.19-4.52c1.54-1.43 3.85-.43 4.74-.04.08.03.15.06.21.08.65.26 1.16.28 1.16.28v.39s-.61-.01-1.33-.3a.839.839 0 0 0-.21-.08c-.89-.39-2.97-1.28-4.31-.03-1.62 1.5-.14 4.01-.12 4.03l-.33.19ZM9.4 14.21c0 .24-.19.43-.43.43s-.43-.19-.43-.43.19-.43.43-.43.43.19.43.43M8.83 15.54c0 .24-.19.43-.43.43s-.43-.19-.43-.43.19-.43.43-.43.43.19.43.43M8.84 16.9c0 .24-.19.43-.43.43s-.43-.19-.43-.43.19-.43.43-.43.43.19.43.43M9.22 18.24c0 .24-.19.43-.43.43s-.43-.19-.43-.43.19-.43.43-.43.43.19.43.43M10.51 13.18c0 .24-.19.43-.43.43s-.43-.19-.43-.43.19-.43.43-.43.43.18.43.43M11.91 12.77c0 .24-.19.43-.43.43s-.43-.19-.43-.43.19-.43.43-.43.43.19.43.43" fill="#a6b0d3"/>
    <path d="M13.28 12.86c0 .24-.19.43-.43.43s-.43-.19-.43-.43.19-.43.43-.43.43.19.43.43M14.54 13.24c0 .24-.19.43-.43.43s-.43-.19-.43-.43.19-.43.43-.43.43.19.43.43M15.91 13.76c0 .24-.19.43-.43.43s-.43-.19-.43-.43.19-.43.43-.43.43.19.43.43M25.06 14.18c0 .24.19.43.43.43s.43-.19.43-.43-.19-.43-.43-.43-.43.19-.43.43M25.6 15.54c0 .24.19.43.43.43s.43-.19.43-.43-.19-.43-.43-.43-.43.19-.43.43M25.63 16.91c0 .24.19.43.43.43s.43-.19.43-.43-.19-.43-.43-.43-.43.19-.43.43M25.21 18.3c0 .24.19.43.43.43s.43-.19.43-.43-.19-.43-.43-.43-.43.19-.43.43M23.91 13.18c0 .24.19.43.43.43s.43-.19.43-.43-.19-.43-.43-.43-.43.18-.43.43M22.51 12.77c0 .24.19.43.43.43s.43-.19.43-.43-.19-.43-.43-.43-.43.19-.43.43M21.12 12.86c0 .24.19.43.43.43s.43-.19.43-.43-.19-.43-.43-.43-.43.19-.43.43M19.88 13.24c0 .24.19.43.43.43s.43-.19.43-.43-.19-.43-.43-.43-.43.19-.43.43M18.5 13.76c0 .24.19.43.43.43s.43-.19.43-.43-.19-.43-.43-.43-.43.19-.43.43M23.79 24.04l-.53-.35-.36-.24.36-.24.53-.35c.1 0 .18.03.26.07l.07-.29H10.34l.06.28c.07-.03.15-.06.24-.06l.53.35.36.24-.36.24-.51.35.07.28h13.03l.06-.28h-.01Zm-9.99-.03c-.47 0-.85-.25-.85-.55s.37-.55.85-.55.85.25.85.55-.37.55-.85.55Zm4.64-.12h-2.38v-.85h2.38v.85Zm2.2.12c-.47 0-.85-.25-.85-.55s.37-.55.85-.55.85.25.85.55-.37.55-.85.55Z" fill="#a6b0d3"/>
    <path d="M16.83 21.44h.01M17.6 21.44h-.02" class="cls-3"/>
    <path d="M17.22 18.35h-.96c.42.32.69.8.75 1.36-.54-.06-1.03-.33-1.36-.75v1.87c.32-.4.8-.69 1.36-.73h.4c.54.06 1.03.33 1.34.73v-1.87c-.32.4-.8.68-1.34.75.06-.55.33-1.03.75-1.36h-.94" fill="#a6b0d3"/>
    <path d="M17.41 20.07c.08 1.01.93 1.8 1.95 1.8.54 0 1.03-.22 1.37-.57h.67c.36.35.85.57 1.37.57.46 0 .87-.15 1.21-.42l.06-.03c.4-.32.65-.8.69-1.34-.55.04-1.05.33-1.39.75v-1.87c.33.42.82.69 1.39.73-.06-.51-.3-.97-.67-1.29 0 0-.01 0-.01-.01l-.04-.04s-.01-.01-.03-.01h1.19l-.87 3.85v.07H10.13l-.86-3.91h1.16s-.01.01-.03.01l-.04.04s-.01 0-.01.01c-.37.32-.61.78-.67 1.29.55-.04 1.05-.33 1.39-.73v1.87a2.01 2.01 0 0 0-1.39-.75c.06.54.29 1.03.71 1.34l.04.03c.33.26.75.42 1.21.42.54 0 1.03-.22 1.37-.57h.67c.36.35.85.57 1.39.57 1.03 0 1.89-.79 1.95-1.8" fill="#a6b0d3"/>
    <path d="M12.64 19.6a.648.648 0 0 0-.44-.04c-.33.08-.39.36-.39.51v.06c.01.15.11.33.18.47.06.1.1.18.11.26 0 .01.01.04.01.06 0 .08-.03.17-.06.25.07-.01.15-.06.21-.14.03-.04.04-.1.04-.15 0-.04-.01-.08-.03-.11a.353.353 0 0 1-.04-.17c0-.07.01-.12.06-.18.07-.08.17-.11.29-.07.22.07.37.39.44.57 0-.01 0-.04-.01-.08-.1-.3-.28-.8-.37-1.23Zm1.82-.04c-.17-.04-.32-.03-.44.04-.1.43-.26.93-.37 1.22 0 .03 0 .06-.01.08.07-.18.22-.5.44-.57.12-.04.22-.01.29.07a.3.3 0 0 1 .06.18c0 .06-.01.11-.04.17-.01.03-.03.07-.03.11 0 .06.01.11.04.15.06.08.14.12.21.14a.717.717 0 0 1-.07-.25v-.06c.01-.07.06-.15.11-.25.08-.14.17-.32.18-.47v-.06c.04-.17-.01-.43-.36-.51ZM13.25 18.34c-.15.12-.4.32-.5.55-.01.04-.03.11-.03.18 0 .47.35 1.44.51 1.89h.22c.17-.44.51-1.43.51-1.89a.45.45 0 0 0-.03-.18c-.11-.24-.36-.43-.5-.55a.75.75 0 0 1-.08-.07c-.04.01-.07.03-.11.07ZM24.4 19.85c0 .24.19.43.43.43s.43-.19.43-.43-.19-.43-.43-.43-.43.18-.43.43M10.06 19.89c0 .24-.19.43-.43.43s-.43-.19-.43-.43.19-.43.43-.43.43.19.43.43M17.65 19.89c0 .24-.19.43-.43.43s-.43-.19-.43-.43.19-.43.43-.43.43.19.43.43M18.57 12.79h-2.73c.12.3.35.57.62.73h-.25v4.64h1.95v-4.64h-.24c.29-.17.51-.43.64-.73Zm-1.36 5.35c-.24 0-.43-.19-.43-.43s.19-.43.43-.43.43.19.43.43-.19.43-.43.43Zm0-1.04c-.24 0-.43-.19-.43-.43s.19-.43.43-.43.43.19.43.43-.19.43-.43.43Zm0-1.04c-.24 0-.43-.19-.43-.43s.19-.43.43-.43.43.19.43.43-.19.43-.43.43Zm0-1.03c-.24 0-.43-.19-.43-.43s.19-.43.43-.43.43.19.43.43-.19.43-.43.43Zm0-1.04c-.24 0-.43-.19-.43-.43s.19-.43.43-.43.43.19.43.43-.19.43-.43.43ZM12.79 21.03h1.08v.57h-1.08zM20.56 21.03h1.08v.57h-1.08zM17.01 9.36c.06-.04.14-.06.21-.06s.15.03.21.06c.08-.43.32-.79.65-1.05h-1.72c.33.26.57.64.65 1.05Zm1.04 1.7-.29.76h.86c-.11-.32-.3-.58-.57-.76Zm-.83-.98c-.08 0-.15-.03-.21-.06-.06.35-.22.67-.47.91l.35.89h.67l.35-.89c-.24-.25-.42-.57-.47-.91-.06.03-.12.06-.21.06Zm.39-.39c0 .08-.03.15-.06.21.43.08.8.32 1.07.64V8.86c-.26.33-.64.55-1.05.64.03.06.06.12.04.19Zm-1.75 3.1h2.72s.01-.06.03-.08h-2.79l.04.08Zm2.8-.79h-2.88c-.01.08-.03.17-.03.26s.01.18.03.26h2.87c.01-.08.03-.18.03-.26s0-.18-.01-.26ZM16.9 9.89a.348.348 0 0 1-.06-.21c0-.07.01-.12.04-.18-.43-.08-.8-.3-1.05-.64v1.68c.25-.35.64-.58 1.07-.65Zm-.5 1.16c-.28.18-.47.46-.58.76h.87l-.29-.76ZM20.4 19.59a.648.648 0 0 0-.44-.04c-.33.08-.39.36-.39.51v.06c.01.15.11.33.18.47.06.1.1.18.11.26 0 .01.01.04.01.06 0 .08-.03.17-.06.25.07-.01.15-.06.21-.14.03-.04.04-.1.04-.15 0-.04-.01-.08-.03-.11a.353.353 0 0 1-.04-.17c0-.07.01-.12.06-.18.07-.08.17-.11.29-.07.22.07.37.39.43.57 0-.01 0-.04-.01-.08-.08-.29-.26-.79-.36-1.23Zm1.82-.03c-.17-.04-.32-.03-.44.04-.1.43-.26.93-.37 1.22 0 .03 0 .06-.01.08.07-.18.22-.5.43-.57.12-.04.22-.01.29.07a.3.3 0 0 1 .06.18c0 .06-.01.11-.04.17-.01.03-.03.07-.03.11 0 .06.01.11.04.15.06.08.14.12.21.14a.717.717 0 0 1-.07-.25v-.06c.01-.07.06-.15.11-.25.08-.14.17-.32.19-.47v-.06c.03-.17-.01-.43-.36-.51ZM21.01 18.32c-.15.12-.4.32-.5.55-.01.04-.03.11-.03.18 0 .47.35 1.44.51 1.89h.22c.17-.44.51-1.43.51-1.89a.45.45 0 0 0-.03-.18c-.11-.24-.36-.43-.5-.55a.75.75 0 0 1-.08-.07c-.06.01-.08.04-.11.07Z" fill="#a6b0d3"/>
    <path d="M2.16 49.43h2.9c.62 0 1.14.18 1.54.54s.58.8.58 1.32c0 .72-.37 1.25-1.11 1.59.32.15.64.55.93 1.19.29.64.58 1.26.85 1.84H6.08c-.11-.21-.29-.62-.55-1.22s-.49-.98-.68-1.15-.39-.25-.6-.25h-.47v2.63H2.17v-6.5Zm1.62 1.19v1.48h.86c.28 0 .49-.07.65-.19s.24-.3.24-.55c0-.49-.3-.73-.93-.73h-.82ZM12.41 49.43l2.88 6.49h-1.73l-.54-1.28h-2.91l-.49 1.28H7.9l2.62-6.49h1.89Zm.12 4.08-1.05-2.52-.94 2.52h2ZM17.7 49.43v6.49h-1.62v-6.49h1.62ZM24.15 54.72v1.19H19.2v-6.49h1.62v5.3h3.33ZM30.54 49.43l2.88 6.49h-1.73l-.54-1.28h-2.91l-.49 1.28h-1.72l2.62-6.49h1.89Zm.14 4.08-1.05-2.52-.96 2.52h2.01ZM40.74 49.43v6.49h-1.37l-3.58-4.16v4.16h-1.62v-6.49h1.48l3.47 3.96v-3.96h1.62ZM42.19 49.43h2.86c1.11 0 1.98.3 2.62.9s.97 1.39.97 2.34-.33 1.8-.97 2.37c-.65.57-1.58.86-2.79.86H42.2v-6.47h-.01Zm1.61 1.19v4.1h1.05c.68 0 1.21-.19 1.57-.57.36-.37.54-.87.54-1.48s-.18-1.14-.55-1.51c-.36-.36-.9-.55-1.58-.55H43.8ZM52.47 49.43h2.9c.62 0 1.14.18 1.54.54s.6.8.6 1.32c0 .72-.37 1.25-1.11 1.59.33.15.64.55.93 1.19.29.65.58 1.26.85 1.84h-1.77c-.11-.21-.29-.62-.55-1.22s-.49-.98-.68-1.15-.39-.25-.6-.25h-.47v2.63h-1.62v-6.5Zm1.62 1.19v1.48h.86c.28 0 .49-.07.65-.19.15-.12.24-.3.24-.55 0-.49-.3-.73-.93-.73h-.82ZM62.2 49.35c1.11 0 2 .33 2.69 1s1.03 1.44 1.03 2.33-.35 1.68-1.04 2.34-1.58.98-2.68.98-2-.33-2.69-.98-1.04-1.44-1.04-2.34.35-1.66 1.03-2.33c.71-.67 1.59-1 2.7-1Zm0 5.31c.61 0 1.11-.18 1.48-.54s.55-.85.55-1.43-.19-1.07-.55-1.44c-.37-.36-.87-.54-1.48-.54s-1.11.18-1.48.54-.57.85-.57 1.44.19 1.07.57 1.43c.37.36.87.54 1.48.54ZM70.5 49.43l2.88 6.49h-1.73l-.54-1.28H68.2l-.49 1.28h-1.72l2.62-6.49h1.89Zm.14 4.08-1.05-2.52-.96 2.52h2.01ZM74.12 49.43h2.86c1.11 0 1.98.3 2.62.9.64.61.97 1.39.97 2.34s-.32 1.8-.97 2.37-1.58.86-2.79.86h-2.68v-6.47h-.01Zm1.62 1.19v4.1h1.05c.68 0 1.21-.19 1.57-.57s.54-.87.54-1.48-.18-1.14-.55-1.51c-.37-.36-.9-.55-1.58-.55h-1.03ZM5.77 38.56c1.11 0 2 .33 2.69 1 .68.67 1.03 1.44 1.03 2.33s-.35 1.68-1.04 2.34-1.58.98-2.68.98-2-.33-2.69-.98-1.04-1.44-1.04-2.34.35-1.66 1.03-2.33c.69-.67 1.59-1 2.7-1Zm0 5.31c.61 0 1.11-.18 1.48-.54s.55-.85.55-1.43-.18-1.07-.55-1.44c-.37-.36-.87-.54-1.48-.54s-1.11.18-1.48.54-.57.85-.57 1.44.19 1.07.57 1.43.86.54 1.48.54ZM15.11 38.65v1.19h-2.86v1.46h2.86v1.19h-2.86v2.66h-1.61v-6.49h4.46ZM20.85 38.65v1.19h-2.86v1.46h2.86v1.19h-2.86v2.66h-1.62v-6.49h4.48ZM23.8 38.65v6.49h-1.62v-6.49h1.62ZM31.34 43.15v1.41c-.82.43-1.66.64-2.55.64-1.15 0-2.07-.32-2.74-.96s-1.03-1.41-1.03-2.36.36-1.72 1.08-2.37 1.66-.97 2.81-.97c.93 0 1.7.19 2.34.57v1.44c-.79-.44-1.52-.67-2.23-.67s-1.26.18-1.69.55-.65.85-.65 1.41.22 1.05.65 1.43.98.55 1.66.55c.33 0 .65-.04.97-.14.29-.06.75-.25 1.37-.55ZM37.43 43.94v1.19h-4.78v-6.49h4.71v1.19h-3.1v1.36h2.95v1.19h-2.95v1.55h3.17ZM44.74 38.56c1.11 0 2 .33 2.69 1 .68.67 1.03 1.44 1.03 2.33s-.35 1.68-1.04 2.34-1.58.98-2.68.98-2-.33-2.69-.98-1.04-1.44-1.04-2.34.35-1.66 1.03-2.33 1.59-1 2.7-1Zm0 5.31c.61 0 1.11-.18 1.48-.54s.55-.85.55-1.43-.19-1.07-.55-1.44c-.37-.36-.87-.54-1.48-.54s-1.11.18-1.48.54-.57.85-.57 1.44.19 1.07.57 1.43c.36.36.86.54 1.48.54ZM54.09 38.65v1.19h-2.86v1.46h2.86v1.19h-2.86v2.66h-1.61v-6.49h4.46Z" fill="#223367"/>
</svg>
