<?xml version="1.0" encoding="utf-8"?>
<!-- Generator: Adobe Illustrator 27.1.1, SVG Export Plug-In . SVG Version: 6.00 Build 0)  -->
<svg version="1.1" id="Layer_1" xmlns="http://www.w3.org/2000/svg" xmlns:xlink="http://www.w3.org/1999/xlink" x="0px" y="0px"
	 viewBox="0 0 606 432.1" style="enable-background:new 0 0 606 432.1;" xml:space="preserve">
<style type="text/css">
	.st0{fill:#223367;}
	.st1{fill:#A6B0D3;}
	.st2{fill:none;stroke:#FFFFFF;stroke-width:1.06;}
</style>
<g>
	<path class="st0" d="M1761.2,162.2l3.2-1.2c11.5-4.5,21.3-11.8,29.1-21.5c10.4-13.1,15.7-28.8,15.7-46.9c0-23.2-8.4-42.1-25.1-56.3
		c-15.1-12.8-38.5-19-71.4-19h-78.6c16.4,10.9,29,27,35.7,45.9h49.3c38.3,0,42.7,17,42.7,29.8c0,13.8-4.6,32.2-44.1,32.2h-48.3
		c-6.4,17.7-18.2,32.8-33.3,43.6h73.4c0,0,65.7,94.1,67.2,96.3h59.1C1830.3,257.3,1761.2,162.2,1761.2,162.2L1761.2,162.2z"/>
	<path class="st0" d="M1608.6,162.2l3.2-1.2c11.5-4.5,21.3-11.8,29.1-21.5c10.4-13.1,15.7-28.8,15.7-46.9c0-23.2-8.4-42.1-25.1-56.3
		c-15.1-12.8-38.5-19-71.4-19h-109.2c19.5,11.3,36,27.1,48.3,45.9h67.4c38.3,0,42.7,17,42.7,29.8c0,13.8-4.6,32.2-44.1,32.2h-43.8
		c0.6,5.2,0.9,10.4,0.9,15.7c0,9.5-0.9,18.9-2.7,27.9h37.6c0,0,66.4,95.1,67.9,97.3h59.1C1678.4,258.3,1608.6,162.2,1608.6,162.2
		L1608.6,162.2z"/>
	<path class="st0" d="M1254.7,141.3c0,68.7,55.9,124.7,124.7,124.7s124.7-55.9,124.7-124.7s-56-124.7-124.7-124.7
		S1254.7,72.6,1254.7,141.3L1254.7,141.3z M1300.7,141.3c0-43.4,35.3-78.7,78.7-78.7s78.7,35.3,78.7,78.7s-35.3,78.7-78.7,78.7
		S1300.7,184.7,1300.7,141.3z"/>
	<g>
		<path class="st1" d="M1433.2,151.2l-2.4-1.4c0.1-0.2,10.7-18.3-0.9-29.1c-9.8-9.1-24.8-2.6-31.2,0.2c-0.6,0.2-1.1,0.5-1.5,0.6
			c-5.2,2.1-9.9,2.2-10.2,2.2l-0.1-2.8c0,0,4.5-0.1,9.2-2c0.4-0.2,0.9-0.4,1.4-0.6c6.3-2.7,23.1-10,34.2,0.3
			C1445.1,131,1433.3,151,1433.2,151.2L1433.2,151.2z"/>
		<path class="st1" d="M1324.7,151.3c-0.1-0.2-11.9-20.2,1.4-32.6c11.1-10.3,27.8-3.1,34.2-0.3c0.6,0.2,1.1,0.4,1.5,0.6
			c4.7,1.9,8.4,2,8.4,2l-0.1,2.8c-0.2,0-4.3-0.1-9.5-2.2c-0.4-0.2-0.9-0.4-1.5-0.6c-6.4-2.8-21.4-9.2-31.1-0.2
			c-11.7,10.8-1,28.9-0.9,29.1L1324.7,151.3L1324.7,151.3z"/>
		<path class="st1" d="M1322.4,119.1c0,1.7-1.4,3.1-3.1,3.1s-3.1-1.4-3.1-3.1s1.4-3.1,3.1-3.1S1322.4,117.4,1322.4,119.1"/>
		<path class="st1" d="M1318.4,128.7c0,1.7-1.4,3.1-3.1,3.1s-3.1-1.4-3.1-3.1c0-1.7,1.4-3.1,3.1-3.1S1318.4,127,1318.4,128.7"/>
		<path class="st1" d="M1318.5,138.5c0,1.7-1.4,3.1-3.1,3.1s-3.1-1.4-3.1-3.1s1.4-3.1,3.1-3.1S1318.5,136.8,1318.5,138.5"/>
		<path class="st1" d="M1321.2,148.3c0,1.7-1.4,3.1-3.1,3.1s-3.1-1.4-3.1-3.1s1.4-3.1,3.1-3.1S1321.2,146.5,1321.2,148.3"/>
		<path class="st1" d="M1330.5,111.7c0,1.7-1.4,3.1-3.1,3.1s-3.1-1.4-3.1-3.1s1.4-3.1,3.1-3.1S1330.5,109.9,1330.5,111.7"/>
		<path class="st1" d="M1340.6,108.8c0,1.7-1.4,3.1-3.1,3.1s-3.1-1.4-3.1-3.1s1.4-3.1,3.1-3.1S1340.6,107,1340.6,108.8"/>
		<path class="st1" d="M1350.5,109.4c0,1.7-1.4,3.1-3.1,3.1s-3.1-1.4-3.1-3.1s1.4-3.1,3.1-3.1S1350.5,107.7,1350.5,109.4"/>
		<path class="st1" d="M1359.6,112.1c0,1.7-1.4,3.1-3.1,3.1s-3.1-1.4-3.1-3.1s1.4-3.1,3.1-3.1S1359.6,110.4,1359.6,112.1"/>
		<path class="st1" d="M1369.5,116c0,1.7-1.4,3.1-3.1,3.1s-3.1-1.4-3.1-3.1s1.4-3.1,3.1-3.1S1369.5,114.2,1369.5,116"/>
		<path class="st1" d="M1435.4,118.9c0,1.7,1.4,3.1,3.1,3.1s3.1-1.4,3.1-3.1s-1.4-3.1-3.1-3.1S1435.4,117.2,1435.4,118.9"/>
		<path class="st1" d="M1439.3,128.7c0,1.7,1.4,3.1,3.1,3.1s3.1-1.4,3.1-3.1c0-1.7-1.4-3.1-3.1-3.1S1439.3,127,1439.3,128.7"/>
		<path class="st1" d="M1439.6,138.6c0,1.7,1.4,3.1,3.1,3.1s3.1-1.4,3.1-3.1s-1.4-3.1-3.1-3.1S1439.6,136.9,1439.6,138.6"/>
		<path class="st1" d="M1436.6,148.6c0,1.7,1.4,3.1,3.1,3.1s3.1-1.4,3.1-3.1s-1.4-3.1-3.1-3.1S1436.6,146.9,1436.6,148.6"/>
		<path class="st1" d="M1427.1,111.7c0,1.7,1.4,3.1,3.1,3.1s3.1-1.4,3.1-3.1s-1.4-3.1-3.1-3.1S1427.1,109.9,1427.1,111.7"/>
		<path class="st1" d="M1417.1,108.8c0,1.7,1.4,3.1,3.1,3.1s3.1-1.4,3.1-3.1s-1.4-3.1-3.1-3.1S1417.1,107,1417.1,108.8"/>
		<path class="st1" d="M1407.1,109.4c0,1.7,1.4,3.1,3.1,3.1s3.1-1.4,3.1-3.1s-1.4-3.1-3.1-3.1S1407.1,107.7,1407.1,109.4"/>
		<path class="st1" d="M1398.1,112.1c0,1.7,1.4,3.1,3.1,3.1s3.1-1.4,3.1-3.1s-1.4-3.1-3.1-3.1S1398.1,110.4,1398.1,112.1"/>
		<path class="st1" d="M1388.2,116c0,1.7,1.4,3.1,3.1,3.1s3.1-1.4,3.1-3.1s-1.4-3.1-3.1-3.1S1388.2,114.2,1388.2,116"/>
		<path class="st1" d="M1426.3,190l-3.8-2.5l-2.6-1.7l2.6-1.7l3.8-2.5c0.7,0,1.3,0.2,1.9,0.5l0.5-2.1h-99.4l0.4,1.9
			c0.5-0.2,1.1-0.4,1.7-0.4l3.8,2.5l2.6,1.7l-2.6,1.7l-3.7,2.5l0.5,2h94l0.4-2C1426.4,190,1426.3,190,1426.3,190L1426.3,190z
			 M1354.2,189.8c-3.4,0-6.1-1.8-6.1-4s2.7-4,6.1-4s6.1,1.8,6.1,4S1357.6,189.8,1354.2,189.8z M1387.6,188.9h-17.2v-6.1h17.2V188.9z
			 M1403.6,189.8c-3.4,0-6.1-1.8-6.1-4s2.7-4,6.1-4s6.1,1.8,6.1,4S1406.9,189.8,1403.6,189.8z"/>
		<line class="st2" x1="1376.1" y1="171.3" x2="1376.2" y2="171.3"/>
		<line class="st2" x1="1381.7" y1="171.3" x2="1381.5" y2="171.3"/>
		<path class="st1" d="M1378.8,149h-6.9c3,2.3,5,5.8,5.4,9.8c-3.9-0.4-7.4-2.4-9.8-5.4v13.5c2.3-2.9,5.8-5,9.8-5.3h2.9
			c3.9,0.4,7.4,2.4,9.7,5.3v-13.5c-2.3,2.9-5.8,4.9-9.7,5.4c0.4-4,2.4-7.4,5.4-9.8H1378.8L1378.8,149"/>
		<path class="st1" d="M1380.3,161.4c0.6,7.3,6.7,13,14.2,13c3.9,0,7.4-1.6,9.9-4.1l4.8,0c2.6,2.5,6.1,4.1,9.9,4.1
			c3.3,0,6.3-1.1,8.7-3l0.4-0.2c2.9-2.3,4.7-5.8,5-9.7c-4,0.3-7.6,2.4-10,5.4v-13.5c2.4,3,5.9,5,10,5.3c-0.4-3.7-2.2-7-4.8-9.3
			c0,0-0.1,0-0.1-0.1c-0.1-0.1-0.2-0.2-0.3-0.3c-0.1-0.1-0.1-0.1-0.2-0.1l8.6,0l-6.3,27.8l-0.1,0.5h-102.2l-6.2-28.2h8.4
			c-0.1,0-0.1,0.1-0.2,0.1c-0.1,0.1-0.2,0.2-0.3,0.3c0,0-0.1,0-0.1,0.1c-2.7,2.3-4.4,5.6-4.8,9.3c4-0.3,7.6-2.4,10-5.3v13.5
			c-2.4-3-5.9-5-10-5.4c0.4,3.9,2.1,7.4,5.1,9.7l0.3,0.2c2.4,1.9,5.4,3,8.7,3c3.9,0,7.4-1.6,9.9-4.1l4.8,0c2.6,2.5,6.1,4.1,10,4.1
			c7.4,0,13.6-5.7,14.1-13"/>
		<g>
			<path class="st1" d="M1345.9,158c-0.9-0.4-2-0.6-3.2-0.3l0,0c-2.4,0.6-2.8,2.6-2.8,3.7c0,0.1,0,0.3,0,0.4
				c0.1,1.1,0.8,2.4,1.3,3.4c0.4,0.7,0.7,1.3,0.8,1.9c0,0.1,0.1,0.3,0.1,0.4c0,0.6-0.2,1.2-0.4,1.8c0.5-0.1,1.1-0.4,1.5-1
				c0.2-0.3,0.3-0.7,0.3-1.1c0-0.3-0.1-0.6-0.2-0.8c-0.2-0.4-0.3-0.8-0.3-1.2c0-0.5,0.1-0.9,0.4-1.3c0.5-0.6,1.2-0.8,2.1-0.5
				c1.6,0.5,2.7,2.8,3.2,4.1c0-0.1,0-0.3-0.1-0.6C1347.9,164.7,1346.6,161.1,1345.9,158L1345.9,158z M1359,157.7
				c-1.2-0.3-2.3-0.2-3.2,0.3c-0.7,3.1-1.9,6.7-2.7,8.8c0,0.2,0,0.4-0.1,0.6c0.5-1.3,1.6-3.6,3.2-4.1c0.9-0.3,1.6-0.1,2.1,0.5
				c0.3,0.4,0.4,0.8,0.4,1.3c0,0.4-0.1,0.8-0.3,1.2c-0.1,0.2-0.2,0.5-0.2,0.8c0,0.4,0.1,0.8,0.3,1.1c0.4,0.6,1,0.9,1.5,1
				c-0.2-0.5-0.5-1.2-0.5-1.8c0-0.1,0-0.3,0-0.4c0.1-0.5,0.4-1.1,0.8-1.8c0.6-1,1.2-2.3,1.3-3.4c0-0.1,0-0.3,0-0.4
				C1361.8,160.2,1361.5,158.3,1359,157.7L1359,157.7z"/>
			<path class="st1" d="M1350.2,148.9c-1.1,0.9-2.9,2.3-3.6,4c-0.1,0.3-0.2,0.8-0.2,1.3c0,3.4,2.5,10.4,3.7,13.6h1.6
				c1.2-3.2,3.7-10.3,3.7-13.6c0-0.5-0.1-1-0.2-1.3c-0.8-1.7-2.6-3.1-3.6-4c-0.3-0.2-0.5-0.4-0.6-0.5
				C1350.7,148.5,1350.5,148.6,1350.2,148.9L1350.2,148.9z"/>
		</g>
		<path class="st1" d="M1430.7,159.8c0,1.7,1.4,3.1,3.1,3.1s3.1-1.4,3.1-3.1s-1.4-3.1-3.1-3.1S1430.7,158.1,1430.7,159.8"/>
		<path class="st1" d="M1327.3,160.1c0,1.7-1.4,3.1-3.1,3.1s-3.1-1.4-3.1-3.1s1.4-3.1,3.1-3.1S1327.3,158.4,1327.3,160.1"/>
		<path class="st1" d="M1382,160.1c0,1.7-1.4,3.1-3.1,3.1s-3.1-1.4-3.1-3.1s1.4-3.1,3.1-3.1S1382,158.4,1382,160.1"/>
		<path class="st1" d="M1388.7,108.9H1369c0.9,2.2,2.5,4.1,4.5,5.3h-1.8v33.5h14.1v-33.5h-1.7C1386.2,113,1387.8,111.2,1388.7,108.9
			L1388.7,108.9z M1378.9,147.5c-1.7,0-3.1-1.4-3.1-3.1s1.4-3.1,3.1-3.1s3.1,1.4,3.1,3.1S1380.6,147.5,1378.9,147.5z M1378.9,140
			c-1.7,0-3.1-1.4-3.1-3.1s1.4-3.1,3.1-3.1s3.1,1.4,3.1,3.1S1380.6,140,1378.9,140z M1378.9,132.6c-1.7,0-3.1-1.4-3.1-3.1
			c0-1.7,1.4-3.1,3.1-3.1s3.1,1.4,3.1,3.1S1380.6,132.6,1378.9,132.6z M1378.9,125.1c-1.7,0-3.1-1.4-3.1-3.1s1.4-3.1,3.1-3.1
			s3.1,1.4,3.1,3.1S1380.6,125.1,1378.9,125.1z M1378.9,117.6c-1.7,0-3.1-1.4-3.1-3.1s1.4-3.1,3.1-3.1s3.1,1.4,3.1,3.1
			S1380.6,117.6,1378.9,117.6z"/>
		<rect x="1347" y="168.3" class="st1" width="7.8" height="4.1"/>
		<rect x="1403" y="168.3" class="st1" width="7.8" height="4.1"/>
		<path class="st1" d="M1377.4,84.1c0.4-0.3,1-0.4,1.5-0.4s1.1,0.2,1.5,0.4c0.6-3.1,2.3-5.7,4.7-7.6h-12.4
			C1375.1,78.4,1376.8,81.1,1377.4,84.1L1377.4,84.1z M1384.8,96.4l-2.1,5.5h6.2C1388.2,99.7,1386.8,97.7,1384.8,96.4L1384.8,96.4z
			 M1378.9,89.3c-0.6,0-1.1-0.2-1.5-0.4c-0.4,2.5-1.7,4.8-3.4,6.6l2.5,6.4h4.8l2.5-6.4c-1.7-1.8-3-4.1-3.4-6.6
			C1379.9,89.1,1379.4,89.3,1378.9,89.3L1378.9,89.3z M1381.7,86.5c0,0.6-0.2,1.1-0.4,1.5c3.1,0.6,5.8,2.3,7.7,4.6V80.5
			c-1.9,2.4-4.6,4-7.6,4.6C1381.6,85.5,1381.7,86,1381.7,86.5L1381.7,86.5z M1369,108.9h19.7c0.1-0.2,0.1-0.4,0.2-0.6h-20.1
			C1368.9,108.5,1369,108.7,1369,108.9L1369,108.9z M1389.2,103.2h-20.8c-0.1,0.6-0.2,1.2-0.2,1.9s0.1,1.3,0.2,1.9h20.7
			c0.1-0.6,0.2-1.3,0.2-1.9S1389.4,103.8,1389.2,103.2z M1376.5,88c-0.3-0.4-0.4-0.9-0.4-1.5c0-0.5,0.1-0.9,0.3-1.3
			c-3.1-0.6-5.8-2.2-7.6-4.6v12.1C1370.7,90.2,1373.4,88.6,1376.5,88L1376.5,88z M1373,96.4c-2,1.3-3.4,3.3-4.2,5.5h6.3L1373,96.4
			L1373,96.4z"/>
		<g>
			<path class="st1" d="M1401.9,158c-0.9-0.4-2-0.6-3.2-0.3l0,0c-2.4,0.6-2.8,2.6-2.8,3.7c0,0.1,0,0.3,0,0.4
				c0.1,1.1,0.8,2.4,1.3,3.4c0.4,0.7,0.7,1.3,0.8,1.9c0,0.1,0.1,0.3,0.1,0.4c0,0.6-0.2,1.2-0.4,1.8c0.5-0.1,1.1-0.4,1.5-1
				c0.2-0.3,0.3-0.7,0.3-1.1c0-0.3-0.1-0.6-0.2-0.8c-0.2-0.4-0.3-0.8-0.3-1.2c0-0.5,0.1-0.9,0.4-1.3c0.5-0.6,1.2-0.8,2.1-0.5
				c1.6,0.5,2.7,2.8,3.2,4.1c0-0.1,0-0.3-0.1-0.6C1403.8,164.7,1402.6,161.1,1401.9,158L1401.9,158z M1415,157.7
				c-1.2-0.3-2.3-0.2-3.2,0.3c-0.7,3.1-1.9,6.7-2.7,8.8c0,0.2,0,0.4-0.1,0.6c0.5-1.3,1.6-3.6,3.2-4.1c0.9-0.3,1.6-0.1,2.1,0.5
				c0.3,0.4,0.4,0.8,0.4,1.3c0,0.4-0.1,0.8-0.3,1.2c-0.1,0.2-0.2,0.5-0.2,0.8c0,0.4,0.1,0.8,0.3,1.1c0.4,0.6,1,0.9,1.5,1
				c-0.2-0.5-0.5-1.2-0.5-1.8c0-0.1,0-0.3,0-0.4c0.1-0.5,0.4-1.1,0.8-1.8c0.6-1,1.2-2.3,1.3-3.4c0-0.1,0-0.3,0-0.4
				C1417.8,160.2,1417.4,158.3,1415,157.7L1415,157.7z"/>
			<path class="st1" d="M1406.2,148.8c-1.1,0.9-2.9,2.3-3.6,4c-0.1,0.3-0.2,0.8-0.2,1.3c0,3.4,2.5,10.4,3.7,13.6h1.6
				c1.2-3.2,3.7-10.3,3.7-13.6c0-0.5-0.1-1-0.2-1.3c-0.8-1.7-2.6-3.1-3.6-4c-0.3-0.2-0.5-0.4-0.6-0.5
				C1406.7,148.4,1406.5,148.6,1406.2,148.8L1406.2,148.8z"/>
		</g>
	</g>
</g>
<g>
	<path class="st0" d="M518.5,161.2l3.2-1.2c11.5-4.5,21.3-11.8,29.1-21.5c10.4-13.1,15.7-28.8,15.7-46.9c0-23.2-8.4-42.1-25.1-56.3
		c-15.1-12.8-38.5-19-71.4-19h-78.6c16.4,10.9,29,27,35.7,45.9h49.3c38.3,0,42.7,17,42.7,29.8c0,13.8-4.6,32.2-44.1,32.2h-48.3
		c-6.5,17.7-18.2,32.8-33.3,43.6H467c0,0,65.7,94.1,67.2,96.3h59.1C587.6,256.3,518.5,161.2,518.5,161.2L518.5,161.2z"/>
	<path class="st0" d="M365.9,161.2l3.2-1.2c11.5-4.5,21.3-11.8,29.1-21.5c10.4-13.1,15.7-28.8,15.7-46.9c0-23.2-8.4-42.1-25.1-56.3
		c-15.1-12.8-38.5-19-71.4-19H208.2c19.5,11.3,36,27.1,48.3,45.9h67.4c38.3,0,42.7,17,42.7,29.8c0,13.8-4.6,32.2-44.1,32.2h-43.8
		c0.6,5.2,0.9,10.4,0.9,15.7c0,9.5-1,18.9-2.7,27.9h37.6c0,0,66.4,95.1,67.9,97.3h59.1C435.8,257.3,365.9,161.2,365.9,161.2
		L365.9,161.2z"/>
	<path class="st0" d="M12,140.3C12,209.1,67.9,265,136.7,265s124.7-55.9,124.7-124.7S205.4,15.6,136.7,15.6S12,71.6,12,140.3z
		 M58,140.3c0-43.4,35.3-78.7,78.7-78.7s78.7,35.3,78.7,78.7S180.1,219,136.7,219S58,183.7,58,140.3z"/>
	<path class="st1" d="M430.4,293.8v11.4h162.8v-11.4H430.4z M430.4,341.2h162.8v-24.2H430.4V341.2z"/>
	<g>
		<path class="st1" d="M190.5,150.2l-2.4-1.4c0.1-0.2,10.7-18.3-0.9-29.1c-9.8-9.1-24.8-2.6-31.2,0.2c-0.6,0.2-1.1,0.5-1.5,0.6
			c-5.2,2.1-9.9,2.2-10.1,2.2l-0.1-2.8c0,0,4.5-0.1,9.1-2c0.4-0.2,0.9-0.4,1.4-0.6c6.3-2.7,23.1-10,34.2,0.3
			C202.4,130,190.6,150,190.5,150.2L190.5,150.2z"/>
		<path class="st1" d="M82,150.3c-0.1-0.2-11.9-20.2,1.4-32.6c11.1-10.3,27.8-3.1,34.2-0.3c0.6,0.2,1.1,0.4,1.5,0.6
			c4.7,1.9,8.4,2,8.4,2l-0.1,2.8c-0.2,0-4.3-0.1-9.5-2.2c-0.4-0.2-0.9-0.4-1.5-0.6c-6.4-2.8-21.4-9.2-31.1-0.2
			c-11.7,10.8-1,28.9-0.9,29.1L82,150.3L82,150.3z"/>
		<path class="st1" d="M79.8,118.1c0,1.7-1.4,3.1-3.1,3.1s-3.1-1.4-3.1-3.1s1.4-3.1,3.1-3.1S79.8,116.4,79.8,118.1"/>
		<path class="st1" d="M75.7,127.7c0,1.7-1.4,3.1-3.1,3.1s-3.1-1.4-3.1-3.1c0-1.7,1.4-3.1,3.1-3.1S75.7,126,75.7,127.7"/>
		<path class="st1" d="M75.8,137.5c0,1.7-1.4,3.1-3.1,3.1s-3.1-1.4-3.1-3.1s1.4-3.1,3.1-3.1S75.8,135.8,75.8,137.5"/>
		<path class="st1" d="M78.5,147.2c0,1.7-1.4,3.1-3.1,3.1s-3.1-1.4-3.1-3.1s1.4-3.1,3.1-3.1S78.5,145.5,78.5,147.2"/>
		<path class="st1" d="M87.8,110.7c0,1.7-1.4,3.1-3.1,3.1s-3.1-1.4-3.1-3.1s1.4-3.1,3.1-3.1S87.8,108.9,87.8,110.7"/>
		<path class="st1" d="M97.9,107.7c0,1.7-1.4,3.1-3.1,3.1s-3.1-1.4-3.1-3.1s1.4-3.1,3.1-3.1S97.9,106,97.9,107.7"/>
		<path class="st1" d="M107.8,108.4c0,1.7-1.4,3.1-3.1,3.1s-3.1-1.4-3.1-3.1s1.4-3.1,3.1-3.1S107.8,106.7,107.8,108.4"/>
		<path class="st1" d="M116.9,111.1c0,1.7-1.4,3.1-3.1,3.1s-3.1-1.4-3.1-3.1s1.4-3.1,3.1-3.1S116.9,109.4,116.9,111.1"/>
		<path class="st1" d="M126.8,114.9c0,1.7-1.4,3.1-3.1,3.1s-3.1-1.4-3.1-3.1s1.4-3.1,3.1-3.1S126.8,113.2,126.8,114.9"/>
		<path class="st1" d="M192.8,117.9c0,1.7,1.4,3.1,3.1,3.1s3.1-1.4,3.1-3.1s-1.4-3.1-3.1-3.1S192.8,116.2,192.8,117.9"/>
		<path class="st1" d="M196.7,127.7c0,1.7,1.4,3.1,3.1,3.1s3.1-1.4,3.1-3.1c0-1.7-1.4-3.1-3.1-3.1S196.7,126,196.7,127.7"/>
		<path class="st1" d="M196.9,137.6c0,1.7,1.4,3.1,3.1,3.1s3.1-1.4,3.1-3.1s-1.4-3.1-3.1-3.1S196.9,135.9,196.9,137.6"/>
		<path class="st1" d="M193.9,147.6c0,1.7,1.4,3.1,3.1,3.1s3.1-1.4,3.1-3.1s-1.4-3.1-3.1-3.1S193.9,145.9,193.9,147.6"/>
		<path class="st1" d="M184.5,110.7c0,1.7,1.4,3.1,3.1,3.1s3.1-1.4,3.1-3.1s-1.4-3.1-3.1-3.1S184.5,108.9,184.5,110.7"/>
		<path class="st1" d="M174.4,107.7c0,1.7,1.4,3.1,3.1,3.1s3.1-1.4,3.1-3.1s-1.4-3.1-3.1-3.1S174.4,106,174.4,107.7"/>
		<path class="st1" d="M164.4,108.4c0,1.7,1.4,3.1,3.1,3.1s3.1-1.4,3.1-3.1s-1.4-3.1-3.1-3.1S164.4,106.7,164.4,108.4"/>
		<path class="st1" d="M155.4,111.1c0,1.7,1.4,3.1,3.1,3.1s3.1-1.4,3.1-3.1s-1.4-3.1-3.1-3.1S155.4,109.4,155.4,111.1"/>
		<path class="st1" d="M145.5,114.9c0,1.7,1.4,3.1,3.1,3.1s3.1-1.4,3.1-3.1s-1.4-3.1-3.1-3.1S145.5,113.2,145.5,114.9"/>
		<path class="st1" d="M183.6,189l-3.8-2.5l-2.6-1.7l2.6-1.7l3.8-2.5c0.7,0,1.3,0.2,1.9,0.5l0.5-2.1H86.6L87,181
			c0.5-0.2,1.1-0.4,1.7-0.4l3.8,2.5l2.6,1.7l-2.6,1.7l-3.7,2.5l0.5,2h94l0.4-2C183.7,189,183.6,189,183.6,189L183.6,189z
			 M111.5,188.8c-3.4,0-6.1-1.8-6.1-4s2.7-4,6.1-4s6.1,1.8,6.1,4S114.9,188.8,111.5,188.8z M145,187.9h-17.2v-6.1H145V187.9z
			 M160.9,188.8c-3.4,0-6.1-1.8-6.1-4s2.7-4,6.1-4s6.1,1.8,6.1,4S164.3,188.8,160.9,188.8z"/>
		<line class="st2" x1="133.4" y1="170.3" x2="133.5" y2="170.3"/>
		<line class="st2" x1="139" y1="170.3" x2="138.8" y2="170.3"/>
		<path class="st1" d="M136.2,148h-6.9c3,2.3,5,5.8,5.4,9.8c-3.9-0.4-7.4-2.4-9.8-5.4v13.5c2.3-2.9,5.8-5,9.8-5.3h2.9
			c3.9,0.4,7.4,2.4,9.7,5.3v-13.5c-2.3,2.9-5.8,4.9-9.7,5.4c0.4-4,2.4-7.4,5.4-9.8H136.2L136.2,148"/>
		<path class="st1" d="M137.6,160.4c0.6,7.3,6.7,13,14.1,13c3.9,0,7.4-1.6,9.9-4.1l4.8,0c2.6,2.5,6.1,4.1,9.9,4.1
			c3.3,0,6.3-1.1,8.7-3l0.4-0.2c2.9-2.3,4.7-5.8,5-9.7c-4,0.3-7.6,2.4-10,5.4v-13.5c2.4,3,5.9,5,10,5.3c-0.4-3.7-2.2-7-4.8-9.3
			c0,0-0.1,0-0.1-0.1c-0.1-0.1-0.2-0.2-0.3-0.3c-0.1-0.1-0.1-0.1-0.2-0.1l8.6,0l-6.3,27.8l-0.1,0.5H85.1L78.9,148h8.4
			c-0.1,0-0.1,0.1-0.2,0.1c-0.1,0.1-0.2,0.2-0.3,0.3c0,0-0.1,0-0.1,0.1c-2.7,2.3-4.4,5.6-4.8,9.3c4-0.3,7.6-2.4,10-5.3v13.5
			c-2.4-3-5.9-5-10-5.4c0.4,3.9,2.1,7.4,5.1,9.7l0.3,0.2c2.4,1.9,5.4,3,8.7,3c3.9,0,7.4-1.6,9.9-4.1l4.8,0c2.6,2.5,6.1,4.1,10,4.1
			c7.4,0,13.6-5.7,14.1-13"/>
		<g>
			<path class="st1" d="M103.2,157c-0.9-0.4-2-0.6-3.2-0.3l0,0c-2.4,0.6-2.8,2.6-2.8,3.7c0,0.1,0,0.3,0,0.4c0.1,1.1,0.8,2.4,1.3,3.4
				c0.4,0.7,0.7,1.3,0.8,1.9c0,0.1,0.1,0.3,0.1,0.4c0,0.6-0.2,1.2-0.4,1.8c0.5-0.1,1.1-0.4,1.5-1c0.2-0.3,0.3-0.7,0.3-1.1
				c0-0.3-0.1-0.6-0.2-0.8c-0.2-0.4-0.3-0.8-0.3-1.2c0-0.5,0.1-0.9,0.4-1.3c0.5-0.6,1.2-0.8,2.1-0.5c1.6,0.5,2.7,2.8,3.2,4.1
				c0-0.1,0-0.3-0.1-0.6C105.2,163.7,103.9,160.1,103.2,157L103.2,157z M116.3,156.7c-1.2-0.3-2.3-0.2-3.2,0.3
				c-0.7,3.1-1.9,6.7-2.7,8.8c0,0.2,0,0.4-0.1,0.6c0.5-1.3,1.6-3.6,3.2-4.1c0.9-0.3,1.6-0.1,2.1,0.5c0.3,0.4,0.4,0.8,0.4,1.3
				c0,0.4-0.1,0.8-0.3,1.2c-0.1,0.2-0.2,0.5-0.2,0.8c0,0.4,0.1,0.8,0.3,1.1c0.4,0.6,1,0.9,1.5,1c-0.2-0.5-0.5-1.2-0.5-1.8
				c0-0.1,0-0.3,0-0.4c0.1-0.5,0.4-1.1,0.8-1.8c0.6-1,1.2-2.3,1.3-3.4c0-0.1,0-0.3,0-0.4C119.2,159.2,118.8,157.3,116.3,156.7
				L116.3,156.7z"/>
			<path class="st1" d="M107.6,147.9c-1.1,0.9-2.9,2.3-3.6,4c-0.1,0.3-0.2,0.8-0.2,1.3c0,3.4,2.5,10.4,3.7,13.6h1.6
				c1.2-3.2,3.7-10.3,3.7-13.6c0-0.5-0.1-1-0.2-1.3c-0.8-1.7-2.6-3.1-3.6-4c-0.3-0.2-0.5-0.4-0.6-0.5
				C108.1,147.5,107.9,147.6,107.6,147.9L107.6,147.9z"/>
		</g>
		<path class="st1" d="M188,158.8c0,1.7,1.4,3.1,3.1,3.1s3.1-1.4,3.1-3.1s-1.4-3.1-3.1-3.1S188,157,188,158.8"/>
		<path class="st1" d="M84.6,159.1c0,1.7-1.4,3.1-3.1,3.1s-3.1-1.4-3.1-3.1s1.4-3.1,3.1-3.1S84.6,157.4,84.6,159.1"/>
		<path class="st1" d="M139.3,159.1c0,1.7-1.4,3.1-3.1,3.1s-3.1-1.4-3.1-3.1s1.4-3.1,3.1-3.1S139.3,157.4,139.3,159.1"/>
		<path class="st1" d="M146,107.9h-19.7c0.9,2.2,2.5,4.1,4.5,5.3h-1.8v33.5h14.1v-33.5h-1.7C143.5,112,145.1,110.1,146,107.9
			L146,107.9z M136.2,146.5c-1.7,0-3.1-1.4-3.1-3.1s1.4-3.1,3.1-3.1s3.1,1.4,3.1,3.1S137.9,146.5,136.2,146.5z M136.2,139
			c-1.7,0-3.1-1.4-3.1-3.1s1.4-3.1,3.1-3.1s3.1,1.4,3.1,3.1S137.9,139,136.2,139z M136.2,131.5c-1.7,0-3.1-1.4-3.1-3.1
			c0-1.7,1.4-3.1,3.1-3.1s3.1,1.4,3.1,3.1S137.9,131.5,136.2,131.5z M136.2,124.1c-1.7,0-3.1-1.4-3.1-3.1s1.4-3.1,3.1-3.1
			s3.1,1.4,3.1,3.1S137.9,124.1,136.2,124.1z M136.2,116.6c-1.7,0-3.1-1.4-3.1-3.1s1.4-3.1,3.1-3.1s3.1,1.4,3.1,3.1
			S137.9,116.6,136.2,116.6z"/>
		<rect x="104.3" y="167.3" class="st1" width="7.8" height="4.1"/>
		<rect x="160.3" y="167.3" class="st1" width="7.8" height="4.1"/>
		<path class="st1" d="M134.7,83.1c0.4-0.3,1-0.4,1.5-0.4s1.1,0.2,1.5,0.4c0.6-3.1,2.3-5.7,4.7-7.6H130
			C132.4,77.4,134.1,80.1,134.7,83.1L134.7,83.1z M142.2,95.4l-2.1,5.5h6.2C145.5,98.6,144.1,96.7,142.2,95.4L142.2,95.4z
			 M136.2,88.3c-0.6,0-1.1-0.2-1.5-0.4c-0.4,2.5-1.6,4.8-3.4,6.6l2.5,6.4h4.8l2.5-6.4c-1.7-1.8-3-4.1-3.4-6.6
			C137.3,88.1,136.8,88.3,136.2,88.3L136.2,88.3z M139,85.5c0,0.6-0.2,1.1-0.4,1.5c3.1,0.6,5.8,2.3,7.7,4.6V79.5
			c-1.9,2.4-4.6,4-7.6,4.6C138.9,84.5,139.1,85,139,85.5L139,85.5z M126.4,107.9H146c0.1-0.2,0.1-0.4,0.2-0.6h-20.1
			C126.2,107.5,126.3,107.7,126.4,107.9z M146.6,102.2h-20.8c-0.1,0.6-0.2,1.2-0.2,1.9s0.1,1.3,0.2,1.9h20.7
			c0.1-0.6,0.2-1.3,0.2-1.9S146.7,102.8,146.6,102.2z M133.9,87c-0.3-0.4-0.4-0.9-0.4-1.5c0-0.5,0.1-0.9,0.3-1.3
			c-3.1-0.6-5.8-2.2-7.6-4.6v12.1C128,89.2,130.8,87.5,133.9,87L133.9,87z M130.3,95.4c-2,1.3-3.4,3.3-4.2,5.5h6.3L130.3,95.4z"/>
		<g>
			<path class="st1" d="M159.2,156.9c-0.9-0.4-2-0.6-3.2-0.3l0,0c-2.4,0.6-2.8,2.6-2.8,3.7c0,0.1,0,0.3,0,0.4
				c0.1,1.1,0.8,2.4,1.3,3.4c0.4,0.7,0.7,1.3,0.8,1.9c0,0.1,0.1,0.3,0.1,0.4c0,0.6-0.2,1.2-0.4,1.8c0.5-0.1,1.1-0.4,1.5-1
				c0.2-0.3,0.3-0.7,0.3-1.1c0-0.3-0.1-0.6-0.2-0.8c-0.2-0.4-0.3-0.8-0.3-1.2c0-0.5,0.1-0.9,0.4-1.3c0.5-0.6,1.2-0.8,2.1-0.5
				c1.6,0.5,2.7,2.8,3.1,4.1c0-0.1,0-0.3-0.1-0.6C161.2,163.7,159.9,160.1,159.2,156.9L159.2,156.9z M172.3,156.7
				c-1.2-0.3-2.3-0.2-3.2,0.3c-0.7,3.1-1.9,6.7-2.7,8.8c0,0.2,0,0.4-0.1,0.6c0.5-1.3,1.6-3.6,3.1-4.1c0.9-0.3,1.6-0.1,2.1,0.5
				c0.3,0.4,0.4,0.8,0.4,1.3c0,0.4-0.1,0.8-0.3,1.2c-0.1,0.2-0.2,0.5-0.2,0.8c0,0.4,0.1,0.8,0.3,1.1c0.4,0.6,1,0.9,1.5,1
				c-0.2-0.5-0.5-1.2-0.5-1.8c0-0.1,0-0.3,0-0.4c0.1-0.5,0.4-1.1,0.8-1.8c0.6-1,1.2-2.3,1.4-3.4c0-0.1,0-0.3,0-0.4
				C175.1,159.2,174.8,157.3,172.3,156.7L172.3,156.7z"/>
			<path class="st1" d="M163.6,147.8c-1.1,0.9-2.9,2.3-3.6,4c-0.1,0.3-0.2,0.8-0.2,1.3c0,3.4,2.5,10.4,3.7,13.6h1.6
				c1.2-3.2,3.7-10.3,3.7-13.6c0-0.5-0.1-1-0.2-1.3c-0.8-1.7-2.6-3.1-3.6-4c-0.3-0.2-0.5-0.4-0.6-0.5
				C164,147.4,163.8,147.6,163.6,147.8L163.6,147.8z"/>
		</g>
	</g>
	<g>
		<path class="st0" d="M27.6,372.2h20.9c4.5,0,8.2,1.3,11.1,3.9s4.2,5.8,4.2,9.5c0,5.2-2.7,9-8,11.5c2.3,1.1,4.6,4,6.7,8.6
			s4.2,9.1,6.1,13.3H55.8c-0.8-1.5-2.1-4.5-4-8.8c-1.9-4.3-3.5-7.1-4.9-8.3s-2.8-1.8-4.3-1.8h-3.4v19H27.6L27.6,372.2L27.6,372.2z
			 M39.3,380.8v10.7h6.2c2,0,3.5-0.5,4.7-1.4c1.2-0.9,1.7-2.2,1.7-4c0-3.5-2.2-5.3-6.7-5.3L39.3,380.8L39.3,380.8z"/>
		<path class="st0" d="M101.5,372.2l20.8,46.8h-12.5l-3.9-9.2h-21l-3.5,9.2H69l18.9-46.8H101.5L101.5,372.2z M102.4,401.6l-7.6-18.2
			L88,401.6H102.4L102.4,401.6z"/>
		<path class="st0" d="M139.7,372.2V419h-11.7v-46.8C128.1,372.2,139.7,372.2,139.7,372.2z"/>
		<path class="st0" d="M186.2,410.4v8.6h-35.7v-46.8h11.7v38.2H186.2L186.2,410.4z"/>
		<path class="st0" d="M232.3,372.2l20.8,46.8h-12.5l-3.9-9.2h-21l-3.5,9.2h-12.4l18.9-46.8H232.3L232.3,372.2z M233.3,401.6
			l-7.6-18.2l-6.9,18.2H233.3L233.3,401.6z"/>
		<path class="st0" d="M305.9,372.2V419H296l-25.8-30v30h-11.7v-46.8h10.7l25,28.6v-28.6H305.9L305.9,372.2z"/>
		<path class="st0" d="M316.4,372.2H337c8,0,14.3,2.2,18.9,6.5s7,10,7,16.9s-2.4,13-7,17.1c-4.7,4.1-11.4,6.2-20.1,6.2h-19.3
			L316.4,372.2L316.4,372.2z M328,380.8v29.6h7.6c4.9,0,8.7-1.4,11.3-4.1c2.6-2.7,3.9-6.3,3.9-10.7s-1.3-8.2-4-10.9
			c-2.6-2.6-6.5-4-11.4-4H328z"/>
		<path class="st0" d="M390.5,372.2h20.9c4.5,0,8.2,1.3,11.1,3.9s4.3,5.8,4.3,9.5c0,5.2-2.7,9-8,11.5c2.4,1.1,4.6,4,6.7,8.6
			c2.1,4.7,4.2,9.1,6.1,13.3h-12.8c-0.8-1.5-2.1-4.5-4-8.8s-3.5-7.1-4.9-8.3s-2.8-1.8-4.3-1.8h-3.4v19h-11.7L390.5,372.2
			L390.5,372.2z M402.2,380.8v10.7h6.2c2,0,3.5-0.5,4.7-1.4c1.1-0.9,1.7-2.2,1.7-4c0-3.5-2.2-5.3-6.7-5.3L402.2,380.8L402.2,380.8z"
			/>
		<path class="st0" d="M460.7,371.6c8,0,14.4,2.4,19.4,7.2s7.4,10.4,7.4,16.8s-2.5,12.1-7.5,16.9c-5,4.8-11.4,7.1-19.3,7.1
			s-14.4-2.4-19.4-7.1c-5-4.7-7.5-10.4-7.5-16.9s2.5-12,7.4-16.8C446.3,374,452.7,371.6,460.7,371.6L460.7,371.6z M460.7,409.9
			c4.4,0,8-1.3,10.7-3.9c2.7-2.6,4-6.1,4-10.3s-1.4-7.7-4-10.4c-2.7-2.6-6.3-3.9-10.7-3.9s-8,1.3-10.7,3.9
			c-2.7,2.6-4.1,6.1-4.1,10.4s1.4,7.7,4.1,10.3C452.7,408.6,456.3,409.9,460.7,409.9z"/>
		<path class="st0" d="M520.6,372.2l20.8,46.8h-12.5l-3.9-9.2h-21l-3.5,9.2h-12.4l18.9-46.8H520.6L520.6,372.2z M521.6,401.6
			l-7.6-18.2l-6.9,18.2H521.6L521.6,401.6z"/>
		<path class="st0" d="M546.7,372.2h20.6c8,0,14.3,2.2,18.9,6.5c4.6,4.4,7,10,7,16.9s-2.3,13-7,17.1c-4.7,4.1-11.4,6.2-20.1,6.2
			h-19.3V372.2L546.7,372.2z M558.4,380.8v29.6h7.6c4.9,0,8.7-1.4,11.3-4.1c2.6-2.7,3.9-6.3,3.9-10.7s-1.3-8.2-4-10.9
			c-2.7-2.6-6.5-4-11.4-4H558.4L558.4,380.8z"/>
	</g>
	<g>
		<path class="st0" d="M53.6,293.8c8,0,14.4,2.4,19.4,7.2c4.9,4.8,7.4,10.4,7.4,16.8s-2.5,12.1-7.5,16.9s-11.4,7.1-19.3,7.1
			s-14.4-2.4-19.4-7.1s-7.5-10.4-7.5-16.9s2.5-12,7.4-16.8C39.1,296.2,45.6,293.8,53.6,293.8L53.6,293.8z M53.6,332.1
			c4.4,0,8-1.3,10.7-3.9c2.7-2.6,4-6.1,4-10.3s-1.3-7.7-4-10.4c-2.7-2.6-6.3-3.9-10.7-3.9s-8,1.3-10.7,3.9
			c-2.7,2.6-4.1,6.1-4.1,10.4s1.4,7.7,4.1,10.3S49.1,332.1,53.6,332.1z"/>
		<path class="st0" d="M121,294.4v8.6h-20.6v10.5H121v8.6h-20.6v19.2H88.8v-46.8L121,294.4L121,294.4z"/>
		<path class="st0" d="M162.4,294.4v8.6h-20.6v10.5h20.6v8.6h-20.6v19.2h-11.7v-46.8L162.4,294.4L162.4,294.4z"/>
		<path class="st0" d="M183.7,294.4v46.8H172v-46.8H183.7z"/>
		<path class="st0" d="M238.1,326.9v10.2c-5.9,3.1-12,4.6-18.4,4.6c-8.3,0-14.9-2.3-19.8-6.9s-7.4-10.2-7.4-17s2.6-12.4,7.8-17.1
			c5.2-4.7,12-7,20.3-7c6.7,0,12.3,1.4,16.9,4.1v10.4c-5.7-3.2-11-4.8-16.1-4.8s-9.1,1.3-12.2,4s-4.7,6.1-4.7,10.2s1.6,7.6,4.7,10.3
			s7.1,4,12,4c2.4,0,4.7-0.3,7-1C230.3,330.5,233.6,329.1,238.1,326.9L238.1,326.9z"/>
		<path class="st0" d="M282,332.6v8.6h-34.5v-46.8h34v8.6h-22.4v9.8h21.3v8.6h-21.3v11.2L282,332.6L282,332.6z"/>
		<path class="st0" d="M334.8,293.8c8,0,14.4,2.4,19.4,7.2c4.9,4.8,7.4,10.4,7.4,16.8s-2.5,12.1-7.5,16.9s-11.4,7.1-19.3,7.1
			s-14.4-2.4-19.4-7.1s-7.5-10.4-7.5-16.9s2.5-12,7.4-16.8S326.8,293.8,334.8,293.8L334.8,293.8z M334.8,332.1c4.4,0,8-1.3,10.7-3.9
			c2.7-2.6,4-6.1,4-10.3s-1.4-7.7-4-10.4c-2.7-2.6-6.3-3.9-10.7-3.9s-8,1.3-10.7,3.9c-2.7,2.6-4.1,6.1-4.1,10.4s1.4,7.7,4.1,10.3
			C326.7,330.8,330.3,332.1,334.8,332.1z"/>
		<path class="st0" d="M402.2,294.4v8.6h-20.6v10.5h20.6v8.6h-20.6v19.2H370v-46.8L402.2,294.4L402.2,294.4z"/>
	</g>
</g>
</svg>
