<svg class="ons-u-di" xmlns="http://www.w3.org/2000/svg" focusable="false" width="76" height="56" viewBox="16 2 96 96" aria-labelledby="ukhsa-logo-alt">
  <title id="ukhsa-logo-alt">UK Health Security Agency</title>
  <g class="ons-svg-logo__group">
    <line x1="0.5" y1="1.5" x2="0.5" y2="97" id="Line" stroke="#00AE92" stroke-linecap="square"/>
    <path d="M28.59,11.99c-0.14,0.27-0.27,0.44-0.25,0.65c0.03,0.22,0.25,0.37,0.36,0.59c0.1-0.25,0.25-0.44,0.24-0.64
              C28.92,12.4,28.64,12.13,28.59,11.99"/>
    <path d="M32.35,11.99c0.14,0.27,0.27,0.44,0.25,0.65c-0.02,0.22-0.25,0.37-0.35,0.59c-0.09-0.25-0.26-0.44-0.24-0.64
              C32.02,12.4,32.3,12.13,32.35,11.99"/>
    <path d="M26.44,11.83c0.14,0,0.25-0.12,0.25-0.26c0-0.14-0.11-0.26-0.25-0.26c-0.14,0-0.25,0.12-0.25,0.26
              C26.18,11.71,26.3,11.83,26.44,11.83"/>
    <path d="M26.61,12.18c0-0.14-0.12-0.25-0.26-0.25c-0.14,0-0.25,0.11-0.25,0.25c0,0.15,0.11,0.25,0.25,0.25
              C26.49,12.43,26.61,12.33,26.61,12.18"/>
    <path d="M26.74,12.8c0-0.15-0.12-0.26-0.26-0.26c-0.14,0-0.25,0.11-0.25,0.26c0,0.13,0.12,0.25,0.25,0.25
              C26.62,13.05,26.74,12.94,26.74,12.8"/>
    <path d="M27.84,10.62c0.13,0,0.25-0.12,0.25-0.26c0-0.13-0.12-0.25-0.25-0.25c-0.15,0-0.26,0.12-0.26,0.25
              C27.59,10.5,27.7,10.62,27.84,10.62"/>
    <path d="M27.21,10.81c0.14,0,0.26-0.11,0.26-0.25c0-0.14-0.11-0.25-0.26-0.25c-0.13,0-0.25,0.11-0.25,0.25
              C26.95,10.7,27.07,10.81,27.21,10.81"/>
    <path d="M26.72,11.24c0.13,0,0.25-0.11,0.25-0.25c0-0.14-0.12-0.25-0.25-0.25c-0.14,0-0.26,0.11-0.26,0.25
              C26.46,11.14,26.58,11.24,26.72,11.24"/>
    <path d="M28.5,10.68c0.14,0,0.26-0.12,0.26-0.26c0-0.13-0.12-0.24-0.26-0.24c-0.13,0-0.25,0.11-0.25,0.24
              C28.25,10.56,28.37,10.68,28.5,10.68"/>
    <path d="M29.12,10.86c0.15,0,0.26-0.11,0.26-0.24c0-0.15-0.11-0.26-0.26-0.26c-0.14,0-0.25,0.11-0.25,0.26
              C28.88,10.75,28.98,10.86,29.12,10.86"/>
    <path d="M29.71,11.14c0.15,0,0.26-0.12,0.26-0.26c0-0.14-0.11-0.24-0.26-0.24c-0.13,0-0.25,0.1-0.25,0.24
              C29.47,11.02,29.59,11.14,29.71,11.14"/>
    <path d="M34.24,11.57c0,0.14,0.11,0.26,0.25,0.26c0.14,0,0.25-0.12,0.25-0.26c0-0.14-0.11-0.26-0.25-0.26
              C34.35,11.31,34.24,11.43,34.24,11.57"/>
    <path d="M34.58,11.94c-0.13,0-0.26,0.11-0.26,0.25c0,0.15,0.12,0.25,0.26,0.25c0.14,0,0.25-0.1,0.25-0.25
              C34.83,12.05,34.72,11.94,34.58,11.94"/>
    <path d="M34.46,12.54c-0.14,0-0.26,0.11-0.26,0.26c0,0.13,0.12,0.25,0.26,0.25c0.14,0,0.25-0.11,0.25-0.25
              C34.7,12.66,34.59,12.54,34.46,12.54"/>
    <path d="M33.1,10.62c0.13,0,0.25-0.12,0.25-0.26c0-0.13-0.12-0.25-0.25-0.25c-0.15,0-0.25,0.12-0.25,0.25
              C32.84,10.5,32.95,10.62,33.1,10.62"/>
    <path d="M33.72,10.81c0.14,0,0.25-0.11,0.25-0.25c0-0.14-0.12-0.25-0.25-0.25c-0.15,0-0.26,0.11-0.26,0.25
              C33.47,10.7,33.58,10.81,33.72,10.81"/>
    <path d="M34.22,11.24c0.13,0,0.25-0.11,0.25-0.25c0-0.14-0.12-0.25-0.25-0.25c-0.14,0-0.26,0.11-0.26,0.25
              C33.96,11.14,34.08,11.24,34.22,11.24"/>
    <path d="M32.43,10.68c0.14,0,0.25-0.12,0.25-0.26c0-0.13-0.11-0.24-0.25-0.24c-0.14,0-0.25,0.11-0.25,0.24
              C32.18,10.56,32.29,10.68,32.43,10.68"/>
    <path d="M31.8,10.86c0.14,0,0.26-0.11,0.26-0.24c0-0.15-0.12-0.26-0.26-0.26c-0.13,0-0.25,0.11-0.25,0.26
              C31.55,10.75,31.67,10.86,31.8,10.86"/>
    <path d="M30.96,10.88c0,0.14,0.11,0.26,0.25,0.26c0.14,0,0.26-0.12,0.26-0.26c0-0.14-0.12-0.24-0.26-0.24
              C31.07,10.64,30.96,10.74,30.96,10.88"/>
    <path d="M30.03,12.25h0.29v-1.08c-0.1-0.02-0.2-0.05-0.29-0.08V12.25"/>
    <path d="M30.9,11.08c-0.09,0.04-0.19,0.07-0.29,0.08v1.08h0.29V11.08"/>
    <path d="M30.3,9.88V9.24c-0.32,0.07-0.56,0.32-0.63,0.64H30.3"/>
    <path d="M30.63,9.88h0.62c-0.06-0.32-0.31-0.57-0.62-0.64V9.88"/>
    <path d="M29.69,10.2c0.08,0.35,0.4,0.61,0.78,0.61c0.38,0,0.7-0.26,0.78-0.61H29.69"/>
    <path d="M30.9,9.13C30.72,9,30.58,8.8,30.56,8.58C30.77,8.6,31,8.76,31.13,8.95V8.07C31,8.25,30.76,8.4,30.56,8.44
              c0.02-0.23,0.16-0.41,0.33-0.64h-0.85c0.17,0.23,0.31,0.41,0.34,0.64c-0.2-0.04-0.44-0.2-0.58-0.37v0.88
              c0.14-0.19,0.37-0.35,0.58-0.38C30.35,8.8,30.2,9,30.03,9.13H30.9"/>
    <path d="M30.92,27.32c-0.17,0-0.31-0.14-0.31-0.32c0-0.17,0.14-0.31,0.31-0.31c0.18,0,0.32,0.14,0.32,0.31
              C31.24,27.18,31.1,27.32,30.92,27.32 M29.43,26.86c-0.19,0-0.34-0.15-0.34-0.34c0-0.19,0.16-0.34,0.34-0.34
              c0.19,0,0.34,0.15,0.34,0.34C29.77,26.71,29.62,26.86,29.43,26.86 M28.92,25.34l-0.08-0.06c-0.16-0.12-0.29-0.12-0.43,0
              c-0.06,0.06-0.13,0.13-0.18,0.2l-0.09,0.1l0.07,0.04c0.16,0.13,0.18,0.28,0.13,0.36c-0.01,0.03-0.04,0.06-0.08,0.07
              c-0.08,0.02-0.19-0.01-0.31-0.08l-0.07-0.03l-0.03,0.06c-0.02,0.02-0.02,0.03-0.03,0.04c-0.02,0.02-0.03,0.04-0.05,0.07
              c-0.07,0.12-0.1,0.21-0.1,0.29c0,0.03,0.01,0.04,0.01,0.07c0.03,0.09,0.09,0.13,0.16,0.16l0.04,0.02
              c0.08,0.05,0.18,0.11,0.26,0.16c-0.15,0.08-0.29,0.09-0.43,0.02c-0.22-0.1-0.36-0.36-0.36-0.48c0-0.19,0.09-0.44,0.25-0.68
              l0.02-0.03l-0.02-0.04c-0.04-0.08-0.07-0.15-0.11-0.22c0.08,0.01,0.16,0.03,0.25,0.05l0.04,0l0.03-0.03
              c0.1-0.1,0.43-0.44,0.74-0.44c0.14,0,0.29,0.07,0.39,0.19c0.08,0.09,0.13,0.2,0.14,0.31C29.01,25.42,28.96,25.38,28.92,25.34
                  M31.83,26.54c-0.79-0.2-1.75-0.55-2.63-0.94v-0.02c0.03-0.18-0.04-0.38-0.18-0.54c-0.14-0.15-0.32-0.24-0.5-0.24
              c-0.08,0-0.16,0.02-0.24,0.05c-0.13-0.12-0.25-0.24-0.37-0.38c-0.33-0.4-0.6-0.85-0.78-1.36c-0.11-0.29-0.18-0.59-0.23-0.9
              c-0.04,0.26-0.33,0.59-0.83,0.61c0.01-0.06,0.01-0.19-0.05-0.2c-0.12,0.14-0.32,0.3-0.77,0.14c0.07,0.35,0.17,0.69,0.3,1.03
              c0.26,0.72,0.65,1.37,1.14,1.92c0.17,0.18,0.34,0.36,0.51,0.51c0,0.03,0,0.07,0,0.1c0,0.19,0.18,0.48,0.43,0.61
              c0.22,0.1,0.45,0.08,0.65-0.08c0.39,0.21,0.88,0.4,1.41,0.54c0.6,0.17,1.17,0.27,1.63,0.27c0.38,0,0.9-0.19,1.41-0.51
              c0.2-0.13,0.39-0.27,0.54-0.4c0.02-0.02,0.04-0.04,0.05-0.05C32.92,26.78,32.32,26.66,31.83,26.54"/>
    <path d="M31.61,29.78c-0.05-0.11-0.14-0.17-0.22-0.17c-0.32,0-0.19,0.86-0.58,0.86c-0.17,0-0.26-0.1-0.26-0.23
              c0-0.12,0.09-0.16,0.09-0.25c0-0.1-0.08-0.13-0.16-0.13c-0.07,0-0.16,0.03-0.16,0.13c0,0.1,0.08,0.14,0.08,0.25
              c0,0.13-0.09,0.23-0.27,0.23c-0.39,0-0.26-0.86-0.58-0.86c-0.07,0-0.15,0.06-0.22,0.17c-0.07-0.12-0.1-0.25-0.1-0.33
              c0-0.16,0.12-0.38,0.37-0.38c0.43,0,0.33,0.59,0.55,0.59c0.09,0,0.16-0.06,0.16-0.14c0-0.17-0.31-0.33-0.31-0.57
              c0-0.24,0.22-0.45,0.46-0.64c0.25,0.19,0.47,0.4,0.47,0.64c0,0.24-0.31,0.4-0.31,0.57c0,0.08,0.07,0.14,0.16,0.14
              c0.21,0,0.11-0.59,0.54-0.59c0.26,0,0.38,0.22,0.38,0.38C31.71,29.53,31.68,29.66,31.61,29.78 M30.47,30.98
              c-0.12,0-0.21-0.09-0.21-0.21c0-0.12,0.1-0.22,0.21-0.22c0.11,0,0.21,0.09,0.21,0.22C30.68,30.89,30.58,30.98,30.47,30.98
                  M31.33,28.89c-0.06,0-0.11,0.02-0.16,0.03v-0.95c-0.42-0.02-0.91-0.09-1.39-0.21v1.17c-0.06-0.02-0.11-0.03-0.17-0.03
              c-0.33,0-0.54,0.28-0.54,0.55c0,0.24,0.14,0.47,0.27,0.61c0.06-0.15,0.11-0.27,0.21-0.27c0.16,0,0.08,0.83,0.57,0.85
              c-0.02,0.03-0.03,0.08-0.03,0.13c0,0.21,0.18,0.38,0.39,0.38c0.21,0,0.38-0.17,0.38-0.38c0-0.05-0.01-0.1-0.03-0.13
              c0.49-0.02,0.41-0.85,0.58-0.85c0.07,0,0.13,0.12,0.2,0.27c0.13-0.14,0.27-0.37,0.27-0.61C31.88,29.18,31.68,28.89,31.33,28.89"/>
    <path d="M42.54,30.04c-0.02-0.05-0.07-0.08-0.12-0.06c-1.12,0.33-2.52-0.6-3.85-1.49c-1.12-0.75-2.19-1.46-3.1-1.46
              c-0.35,0-0.64,0.07-0.91,0.2c-0.31,0.18-0.55,0.46-0.7,0.83c-0.16,0.37-0.32,0.63-0.45,0.83c-0.16,0.25-0.27,0.43-0.27,0.64
              c0,0.19,0.08,0.35,0.23,0.5c0.13,0.13,0.31,0.26,0.59,0.4c0.06,0.03,0.11,0.06,0.16,0.09c0.22,0.1,0.36,0.18,0.39,0.31
              c-0.45,0.19-1.02,0.35-1.67,0.47c-0.73,0.12-1.53,0.19-2.39,0.19c-0.84,0-1.65-0.07-2.39-0.19c-0.64-0.11-1.22-0.28-1.66-0.47
              c0.02-0.19,0.15-0.26,0.4-0.38c0.06-0.02,0.11-0.05,0.17-0.08c0.22-0.12,0.43-0.23,0.57-0.36c0.16-0.13,0.23-0.29,0.23-0.47
              c0-0.21-0.1-0.39-0.26-0.64c-0.13-0.2-0.29-0.45-0.45-0.83c-0.15-0.37-0.39-0.65-0.7-0.83c-0.26-0.14-0.56-0.21-0.89-0.21
              c-0.92,0-1.98,0.71-3.11,1.46c-1.34,0.9-2.73,1.82-3.85,1.49c-0.05-0.02-0.11,0.01-0.12,0.06c-0.02,0.05,0.01,0.11,0.06,0.13
              c0.34,0.15,0.64,0.38,0.93,0.61c0.4,0.32,0.78,0.61,1.21,0.61c0.39,0,0.82-0.13,1.33-0.39c0.46-0.24,0.92-0.56,1.37-0.86
              c0.89-0.6,1.79-1.23,2.66-1.3c-0.08,0.09-0.18,0.17-0.26,0.24c-0.26,0.23-0.48,0.43-0.48,0.83c0,0.32,0.11,0.54,0.26,0.86
              c0.04,0.09,0.09,0.19,0.14,0.31c0.1,0.21,0.14,0.38,0.19,0.62c0.03,0.1,0.06,0.21,0.09,0.35c0.05,0.2,0.16,0.59,0.8,0.91
              c0.74,0.37,2.01,0.56,3.77,0.56c1.77,0,3.04-0.19,3.78-0.56c0.63-0.33,0.74-0.71,0.79-0.91c0.04-0.14,0.07-0.26,0.09-0.35
              c0.06-0.24,0.1-0.41,0.19-0.62c0.07-0.16,0.14-0.29,0.2-0.4c0.14-0.25,0.24-0.45,0.24-0.74c0-0.4-0.24-0.61-0.5-0.84
              c-0.09-0.08-0.19-0.17-0.28-0.26c0.87,0.07,1.78,0.69,2.67,1.3c0.44,0.3,0.91,0.62,1.36,0.86c0.52,0.27,0.94,0.4,1.34,0.4
              c0.42,0,0.8-0.3,1.2-0.61c0.3-0.23,0.59-0.46,0.93-0.61C42.53,30.15,42.56,30.1,42.54,30.04"/>
    <path d="M30.62,21.37v-4.2c0.43,0.02,0.85,0.13,1.25,0.33c0.44,0.22,0.84,0.52,1.16,0.91c0.34,0.4,0.59,0.86,0.78,1.36
              c0.18,0.51,0.27,1.05,0.28,1.6H30.62 M30.47,15.43c-1.19,0-2.01,0.35-2.48,0.67c-0.28-0.16-0.4-0.32-0.4-0.51
              c0-0.68,1.91-0.73,2.88-0.73l0,0c0.97,0,2.88,0.06,2.88,0.73c0,0.19-0.13,0.35-0.39,0.51C32.48,15.78,31.67,15.43,30.47,15.43
                  M30.41,21.37h-3.57c0-0.55,0.1-1.09,0.28-1.6c0.18-0.5,0.45-0.96,0.78-1.36c0.34-0.39,0.72-0.69,1.16-0.91
              c0.43-0.21,0.88-0.33,1.34-0.34V21.37z M35.83,21.1c-0.12-0.09-0.33-0.28-0.43-0.5c-0.13-0.28-0.69-1.37-0.78-1.51
              c-0.07-0.13-0.1-0.24-0.1-0.33c0-0.11,0.06-0.21,0.12-0.29c0.05-0.06,0.16-0.18,0.21-0.25c0.03-0.06,0.07-0.09,0.1-0.13
              c-0.2-0.35-0.41-0.61-0.67-0.92c-0.33-0.37-0.7-0.68-1.09-0.93c0.22-0.15,0.43-0.34,0.43-0.68c0-0.19-0.08-0.35-0.22-0.47
              c0.22-0.72,0.63-1.58,0.96-1.96l-0.72-0.3c0.2,0.28,0.21,0.61,0.17,0.8c-0.19-0.13-0.35-0.3-0.4-0.54
              c-0.03,0.22-0.15,0.57-0.26,0.78c0.21-0.09,0.38-0.14,0.59-0.05c-0.12,0.16-0.43,0.42-0.91,0.3c-0.25-0.06-0.51-0.19-0.49-0.39
              c0-0.12,0.09-0.26,0.26-0.25c0.15,0.01,0.16,0.25,0.11,0.36c0.21-0.11,0.42-0.71,0.09-0.81c-0.25-0.07-0.48,0.28-0.56,0.55
              c-0.04-0.32-0.17-0.63-0.43-0.61c-0.34,0.02-0.23,0.64-0.11,0.79c0.02-0.21,0.14-0.33,0.23-0.32c0.09,0,0.21,0.06,0.19,0.27
              c-0.02,0.19-0.3,0.31-0.61,0.31c-0.31,0-0.84-0.09-0.89-0.68c0.21,0.04,0.51,0.19,0.64,0.38c-0.04-0.35-0.04-0.61,0-0.97
              c-0.16,0.23-0.44,0.35-0.64,0.38c0.06-0.26,0.27-0.52,0.53-0.68h-1.3c0.25,0.16,0.47,0.42,0.53,0.67
              c-0.2-0.03-0.46-0.15-0.63-0.38c0.05,0.37,0.05,0.62,0,0.97c0.14-0.19,0.44-0.34,0.63-0.38c-0.05,0.58-0.59,0.68-0.89,0.68
              c-0.31,0-0.59-0.12-0.62-0.31c-0.02-0.21,0.1-0.27,0.19-0.27c0.09-0.01,0.22,0.11,0.23,0.32c0.12-0.15,0.22-0.77-0.1-0.79
              c-0.25-0.02-0.39,0.29-0.44,0.61c-0.09-0.27-0.31-0.62-0.56-0.55c-0.32,0.1-0.11,0.7,0.09,0.81c-0.05-0.11-0.04-0.35,0.12-0.36
              c0.16-0.02,0.24,0.13,0.25,0.25c0.01,0.2-0.24,0.33-0.5,0.39c-0.47,0.12-0.78-0.13-0.9-0.3c0.22-0.09,0.38-0.05,0.59,0.05
              c-0.11-0.21-0.23-0.56-0.26-0.78c-0.06,0.24-0.22,0.42-0.41,0.55c-0.04-0.19-0.02-0.53,0.16-0.81l-0.72,0.3
              c0.35,0.38,0.74,1.24,0.97,1.96c-0.14,0.13-0.22,0.28-0.22,0.47c0,0.34,0.21,0.54,0.42,0.68c-0.39,0.26-0.75,0.56-1.08,0.93
              c-0.49,0.55-0.88,1.2-1.14,1.91c0.09,0.1,0.52,0.57,0.63,0.7c0.18,0.22,0.28,0.45,0.29,0.63c0.01,0.32,0.07,0.45,0.25,0.66
              c0.06,0.07,0.13,0.33,0.14,0.48h3.56v3.88c-0.14,0-0.29,0.04-0.4,0.19c0.41,0.16,0.8,0.31,1.2,0.43
              c0.04-0.25,0.09-0.41,0.21-0.57c0,0-0.51-0.06-0.79-0.06v-3.88h3.48c-0.01,0.54-0.1,1.05-0.28,1.53
              c-0.19,0.51-0.45,0.96-0.78,1.36c-0.32,0.39-0.72,0.7-1.16,0.92c-0.06,0.03-0.06,0.07-0.13,0.1c-0.06,0.07-0.12,0.18-0.18,0.32
              c-0.04,0.12-0.06,0.2-0.07,0.36c0.16,0.04,0.25,0.07,0.4,0.11c1.23,0.31,1.54,0.22,1.6,0.16h0c0.28-0.21,0.52-0.45,0.77-0.72
              c0.49-0.55,0.87-1.2,1.14-1.92c0.28-0.75,0.42-1.54,0.42-2.36C35.83,21.31,35.83,21.25,35.83,21.1"/>
    <path d="M32.57,18.87c-0.03,0.03-0.04,0.07-0.04,0.1c0.01,0.04,0.05,0.07,0.11,0.07c-0.04,0.03-0.06,0.08-0.08,0.15
              c0.06,0.01,0.12,0,0.16-0.03c-0.01,0.06,0.01,0.09,0.03,0.11c0.02,0.02,0.06,0.02,0.1,0c0.26,0.43,0.44,0.91,0.52,1.42
              c-0.03-0.03-0.08-0.04-0.13-0.04c0,0.07,0.03,0.12,0.07,0.16h-0.87c0.01-0.06-0.01-0.1-0.05-0.12
              c-0.04-0.02-0.08-0.01-0.12,0.04c-0.01-0.05-0.02-0.1-0.07-0.15c-0.04,0.04-0.07,0.1-0.07,0.15c-0.04-0.05-0.09-0.06-0.12-0.04
              c-0.03,0.02-0.08,0.06-0.06,0.12h-0.75c0.03-0.04,0.05-0.09,0.05-0.15c-0.06,0.01-0.11,0.03-0.14,0.06v-1.2
              c0.05,0.01,0.1-0.02,0.12-0.06c0.01-0.03,0.01-0.08-0.04-0.12c0.05-0.01,0.11-0.02,0.15-0.07c-0.05-0.05-0.1-0.06-0.15-0.06
              c0.05-0.04,0.06-0.08,0.04-0.12c-0.01-0.04-0.07-0.07-0.12-0.06v-1.02c0.03,0.03,0.07,0.04,0.13,0.06
              c0-0.06-0.01-0.11-0.04-0.15c0.24,0.07,0.47,0.19,0.67,0.33C32.13,18.41,32.37,18.63,32.57,18.87 M33.56,20.68
              c0.05,0.04,0.04,0.14-0.05,0.13c-0.07-0.64-0.31-1.25-0.66-1.77c0,0,0,0,0-0.01c0.07-0.02,0.13-0.08,0.15-0.18
              c-0.11-0.01-0.18,0.04-0.23,0.11c-0.02-0.04-0.05-0.07-0.07-0.11c-0.21-0.28-0.48-0.51-0.76-0.71c-0.26-0.18-0.54-0.3-0.83-0.38
              c0-0.07,0.09-0.08,0.13-0.02c0.01-0.12-0.09-0.16-0.14-0.14c-0.03,0.01-0.06,0.04-0.06,0.09c-0.03-0.05-0.09-0.08-0.16-0.09
              c0,0.07,0.02,0.13,0.05,0.17c-0.04,0-0.07,0.02-0.09,0.05c-0.03,0.05,0.01,0.15,0.12,0.16c-0.05-0.04-0.03-0.12,0.03-0.12v1.37
              c-0.07-0.03-0.15-0.01-0.22,0.05c0.07,0.07,0.16,0.08,0.22,0.06v1.48c-0.07,0.01-0.09-0.09-0.03-0.13
              c-0.11,0-0.16,0.1-0.14,0.16c0.02,0.03,0.05,0.07,0.12,0.06c-0.04,0.04-0.06,0.09-0.07,0.16c0.07,0,0.12-0.03,0.16-0.07
              c0,0.07,0.02,0.09,0.05,0.11c0.05,0.02,0.16-0.02,0.16-0.14c-0.04,0.06-0.13,0.04-0.13-0.03h1.03
              c-0.02,0.07-0.01,0.15,0.06,0.22c0.07-0.08,0.07-0.15,0.06-0.22h1.14c0.01,0.07-0.08,0.09-0.12,0.04c0,0.11,0.1,0.16,0.15,0.13
              c0.04-0.02,0.06-0.05,0.06-0.11c0.03,0.04,0.08,0.06,0.15,0.06c0-0.07-0.02-0.12-0.07-0.15c0.07,0,0.1-0.02,0.12-0.06
              C33.71,20.78,33.67,20.68,33.56,20.68"/>
    <path d="M32.94,20.31c0.05-0.02,0.08-0.06,0.1-0.09c-0.05,0.02-0.09-0.01-0.1-0.01c0.04-0.02,0.08,0.01,0.04-0.06
              c-0.04-0.07-0.07-0.07-0.12-0.02c-0.04,0.04-0.31-0.02-0.31-0.22c0.01,0.04,0.05,0.06,0.09,0.08c0.01,0.01,0.02,0.02,0.03,0.02
              c0.01,0.01,0.02,0.01,0.04,0.01c0.02,0.01,0.05,0.02,0.09,0.02h0v-0.01c0.06-0.01,0.11-0.04,0.11-0.11
              c0.01-0.12-0.11-0.17-0.22-0.26c-0.05-0.04-0.08-0.08-0.11-0.11c-0.04-0.08-0.01-0.16-0.12-0.3c0-0.04-0.02-0.08-0.03-0.13
              c-0.05,0.1-0.08,0.28,0.07,0.44c0.11,0.14,0.35,0.25,0.35,0.36c0,0.03-0.03,0.05-0.07,0.05c-0.01,0-0.02,0-0.03,0
              c0,0-0.01-0.01-0.02-0.01c-0.01,0-0.03-0.02-0.05-0.02c-0.02-0.02-0.06-0.04-0.08-0.07c-0.1-0.09-0.19-0.23-0.26-0.31
              c-0.11-0.14-0.06-0.29-0.05-0.41c0.09-0.11-0.04-0.34-0.12-0.4c0,0,0.02-0.05,0-0.12c-0.01,0.02-0.05,0.02-0.07,0.02
              c-0.02-0.04-0.03-0.06-0.06-0.06c-0.05-0.01-0.05-0.03-0.05-0.06c-0.04,0.03-0.04,0.05-0.08,0.06c-0.04,0-0.06,0-0.07,0.01
              c-0.03,0.02-0.04,0.03-0.08,0.03c-0.04,0-0.04,0.02-0.04,0.06c0,0.02,0,0.05,0.03,0.07c0,0,0.01,0.01,0.02,0.01l0.03,0.04
              l0.03-0.05c0.01-0.02,0.07-0.02,0.08,0.02c0.02,0.03,0.02,0.03-0.02,0.04c-0.04,0.01-0.06,0.01-0.1,0.02
              c-0.03,0-0.03,0.02-0.03,0.04c0,0.03,0.03,0.05,0.08,0.03C31.9,18.87,32,18.86,32,18.91c0,0.13-0.14,0.12-0.17,0.27
              c-0.03-0.03-0.07-0.05-0.08-0.08c-0.02-0.03-0.05-0.08-0.11-0.13c-0.03-0.03-0.07-0.06-0.1-0.09c-0.05-0.03-0.05-0.04-0.05-0.1
              c0-0.04,0.02-0.08,0.02-0.12c0-0.01-0.01-0.03-0.02-0.04c0-0.03-0.04-0.05-0.06-0.04c0.01,0.01,0.02,0.02,0.03,0.04
              c-0.01,0.01-0.02,0.02-0.02,0.02c-0.01,0.02-0.01,0.03,0,0.05c0,0,0,0,0,0.01c0,0.01,0,0.02,0,0.02c0,0.01,0,0.01,0,0
              c-0.01-0.03-0.03-0.08-0.06-0.08c0,0-0.01,0-0.02,0c0,0,0,0,0,0c0-0.03-0.04-0.06-0.08-0.02c0,0,0.03,0.01,0.03,0.02
              c-0.01,0.01-0.01,0.03-0.01,0.03c-0.01,0.03,0.02,0.04,0.06,0.04c0.01,0,0.01,0.01,0.01,0.02v0.01c0.01,0.01,0,0.01,0,0.01
              c-0.06-0.03-0.09,0-0.09,0.03c0,0,0,0.02,0,0.02c-0.02,0.01-0.02,0.04,0.01,0.06c0,0,0-0.02,0.01-0.03c0.01,0,0.01,0,0.01,0
              c0.01,0.01,0.01,0.01,0.01,0.01c0.01,0,0.02,0,0.04-0.01c0,0,0.01-0.01,0.01,0c0,0.01,0,0.01,0.02,0.01v0.01
              c-0.03,0.04-0.03,0.07,0.02,0.09c-0.03,0.03-0.09,0.02-0.09-0.04c-0.05,0.07,0.03,0.13,0.1,0.1c0,0.03,0,0.09,0.01,0.09
              c0-0.01,0-0.02,0.02-0.02c0,0,0,0,0,0.01c0,0.02,0.01,0.05,0.04,0.05c-0.01-0.01,0-0.02,0.01-0.03
              c0.01,0.02,0.02,0.03,0.03,0.06c0.04,0.06,0.1,0.2,0.25,0.27c-0.08,0.05-0.13,0.11-0.17,0.16c-0.04,0.04-0.1,0.09-0.14,0.07
              c-0.01-0.02-0.02-0.03-0.04-0.04c-0.02-0.01-0.04-0.01-0.05-0.01c0,0-0.01,0-0.02,0.01c-0.03-0.01-0.07,0-0.08,0.02
              c0.01,0,0.03,0,0.05,0.01c0,0.01,0,0.02,0,0.02c0,0.02,0.01,0.04,0.09,0.04c0,0,0.01,0,0,0c0,0.01-0.02,0.02-0.04,0.01
              c-0.03-0.01-0.05-0.03-0.07,0c0,0-0.01,0.01-0.02,0.01c-0.01,0-0.01,0-0.01,0c-0.02,0.01-0.05,0.07-0.02,0.09
              c0-0.01,0-0.03,0.02-0.04c0,0.01,0.02,0.01,0.02,0.01c0.02,0.04,0.05,0.05,0.09-0.02c0.01-0.01,0.01,0,0.01,0
              c0,0.04-0.03,0.09,0.01,0.1c0,0,0.01,0,0.02,0.01v0.01c0.01,0.04,0.07,0.05,0.08,0.04c-0.01,0-0.03-0.02-0.04-0.04
              c0.01,0,0.01-0.01,0.02-0.01c0.02-0.03-0.01-0.06,0.01-0.08c0-0.01,0-0.01,0.01,0c0.01,0.02,0.02,0.05,0.07,0.03
              c0.03-0.01,0.03-0.03,0.03-0.05c0.06-0.02,0.11-0.04,0.14-0.03c0-0.03,0.03-0.06,0.08-0.08c0.05-0.02,0.08,0,0.1,0.01
              c0-0.02,0.02-0.06,0.06-0.09c-0.01,0.22,0.28,0.21,0.35,0.35c-0.09-0.04-0.18-0.06-0.24-0.05c-0.07,0.01-0.2,0.08-0.21,0.16
              c-0.01,0.07,0.06,0.18,0.12,0.23c-0.08,0.01-0.11-0.01-0.18,0.01c0,0,0,0-0.01,0c-0.06,0.01-0.08-0.11-0.16-0.08
              c-0.01,0-0.03,0.01-0.03,0.02l0,0c-0.03,0-0.07,0.04-0.06,0.07c0-0.01,0.02-0.02,0.05-0.03c0,0.01,0,0.02,0,0.02
              c-0.01,0.01,0,0.02,0.02,0.02c0.02,0,0.03,0,0.03,0c0.01,0,0.01,0,0.01,0c0,0.03-0.1-0.02-0.07,0.07c0,0,0,0.01,0.01,0.02
              c0,0.02,0.01,0.05,0.06,0.04c-0.01-0.01-0.02-0.02-0.02-0.03c0.01,0,0.02,0,0.02,0c0.01,0,0.02,0,0.02-0.01
              c0-0.01,0-0.01,0-0.01c0.01,0,0.01,0.01,0.01,0.01c0,0.01,0,0.01,0,0.01c0,0,0,0.03,0,0.03c0,0.03,0.04,0.06,0.09,0.03
              c-0.01,0-0.04-0.01-0.04-0.03c0.01,0,0.02,0,0.02,0c0.02-0.01,0.02-0.02,0.02-0.03c0-0.01,0.01-0.01,0.01-0.01
              c0,0,0.01,0,0.02,0c0.01,0,0.02,0,0.02,0.01c0.01,0.02,0.03,0.03,0.06,0.03c0.01-0.01,0.02-0.02,0.02-0.03
              c0.02,0.01,0.02,0.01,0.04,0.03c-0.01-0.03,0.01-0.06,0.08-0.02l0.05-0.04c0,0,0.06,0.03,0.09,0c0.04-0.04,0.02-0.04,0.02-0.08
              c-0.03-0.06-0.04-0.05-0.05-0.11c-0.03-0.11,0.13-0.17,0.21-0.15c0.01,0.06,0.11,0.25,0.28,0.3c0.1,0.04,0.14-0.07,0.18-0.06
              c0.01,0,0.01,0.01,0.02,0.02c0,0.05,0,0.1,0,0.12c-0.02,0.02-0.07,0.01-0.11,0c-0.02,0-0.03,0.02-0.03,0.02
              c-0.04,0-0.07,0.03-0.07,0.07c0.01-0.01,0.03-0.02,0.06-0.03c0,0.01,0,0.02,0,0.02c0.01,0.04,0.06,0.06,0.08,0.03
              c0.01-0.01,0.02,0,0.01,0c-0.02,0.01-0.07,0.05-0.03,0.07c0,0,0.01,0.01,0.02,0.01c0,0.03,0.02,0.05,0.05,0.06
              c-0.02-0.01-0.02-0.02,0-0.04c0.01,0,0.02,0,0.02,0c0.02,0,0.02-0.06,0.04-0.07c0.01,0,0.01,0,0.01,0
              c-0.01,0.03-0.02,0.07,0.01,0.07c0,0,0,0.01,0.02,0.01c0,0.02,0.04,0.04,0.07,0.02c-0.01-0.01-0.02-0.02-0.03-0.03
              c0.01,0,0.02-0.02,0.02-0.02c0.02-0.06-0.04-0.06-0.04-0.09c0-0.03,0.07-0.01,0.07-0.07c0-0.01,0-0.01,0-0.02
              c0.02-0.02,0.06-0.03,0.06-0.06C32.99,20.33,32.95,20.31,32.94,20.31L32.94,20.31"/>
    <path d="M29.7,22.26l-0.04-0.01c-0.06-0.01-0.13,0.03-0.14,0.1c0,0.07,0.05,0.11,0.12,0.11l0.04,0.01c0,0.02,0,0.03-0.01,0.05
              c-0.02,0.11-0.04,0.29-0.08,0.49l-0.53-0.76c0.25-0.1,0.45-0.21,0.56-0.21C29.7,22.03,29.71,22.08,29.7,22.26 M29.5,23.58
              l-0.84-1.21c0.09-0.02,0.18-0.05,0.26-0.08l0.63,0.9C29.54,23.32,29.51,23.45,29.5,23.58 M29.4,24.12l-1.19-1.72
              c0.04,0,0.08,0,0.11,0c0.06,0,0.12,0,0.18-0.01l0.95,1.36C29.45,23.89,29.43,24.02,29.4,24.12 M28.07,22.42l1.3,1.87
              C28.68,24.02,27.98,23.39,28.07,22.42 M30.01,22.27h-0.07l0.01-0.07c0.01-0.21-0.11-0.36-0.34-0.36c-0.21,0-0.6,0.26-1.13,0.26
              c-0.23,0-0.5-0.11-0.68-0.21l-0.07,0.15v-0.01c0-0.08-0.06-0.14-0.13-0.14c-0.07,0-0.14,0.06-0.14,0.14
              c0,0.07,0.06,0.13,0.14,0.13c0.04,0,0.08-0.03,0.1-0.06l-0.07,0.15c0.02,0.02,0.05,0.02,0.07,0.03
              c-0.08,0.83,0.52,1.87,1.6,2.19c0.16-0.04,0.32-0.02,0.32,0.16c0,0.1-0.05,0.15-0.15,0.15c-0.06,0-0.11-0.04-0.11-0.08
              c0-0.07,0.13-0.03,0.14-0.07c0.02-0.08-0.03-0.11-0.1-0.11c-0.08,0-0.19,0.05-0.19,0.18c0,0.15,0.11,0.23,0.24,0.23
              c0.12,0,0.37-0.07,0.33-0.36c0.06,0.01,0.13-0.01,0.14-0.07l0.01-0.16l-0.05-0.01l0.04-1.88h0.04c0.07,0,0.13-0.03,0.13-0.11
              C30.12,22.31,30.06,22.28,30.01,22.27"/>
    <path d="M29.05,18.3c0.01-0.01,0.01-0.02,0.02-0.02c0.02,0.01,0.03,0,0.03-0.02c0-0.02-0.01-0.03-0.03-0.03
              c0.02-0.01,0.03-0.01,0.02-0.02c-0.01-0.01-0.02,0-0.03-0.01c0,0,0.01-0.01,0.01-0.01c0.01-0.01,0.02-0.01,0.03,0l0.07,0.03
              c0.01,0.01,0.02,0.01,0.02,0.01c0,0.02,0,0.03-0.01,0.03c-0.01,0-0.01-0.02-0.02-0.03c-0.01,0-0.01,0.02,0,0.03
              c-0.02-0.01-0.03-0.01-0.03,0c-0.02,0.02-0.01,0.03,0,0.04c0,0.01,0,0.02,0,0.03c-0.01,0.01-0.03,0.04-0.06,0.02
              C29.05,18.35,29.05,18.31,29.05,18.3 M29.13,18.12c-0.01,0.02-0.03,0.04-0.06,0.02c-0.01-0.02,0.01-0.02-0.01-0.05
              C29.08,18.1,29.12,18.12,29.13,18.12 M29.18,18.16c0.01,0.01,0.06,0.02,0.09,0.03c-0.04,0.01-0.03,0.02-0.06,0.02
              C29.19,18.21,29.18,18.17,29.18,18.16 M29,18.2L29,18.2L29,18.2 M29.78,18.48c0.25,0,0.37-0.08,0.37-0.16
              c0-0.28-0.7-0.11-0.7-0.28c0-0.03,0.03-0.05,0.06-0.07h0.01c0.35-0.03,0.36-0.28,0.61-0.33c-0.31-0.04-0.35,0.2-0.48,0.21
              c0.07-0.04,0.09-0.11,0.09-0.14c-0.07,0.08-0.2,0.09-0.28,0.18c-0.01,0.02-0.01,0.03-0.01,0.05c-0.04,0.03-0.07,0.06-0.07,0.1
              c0,0.27,0.71,0.08,0.71,0.28c0,0.06-0.12,0.11-0.31,0.11c-0.15,0-0.26-0.1-0.53-0.03c0-0.05,0.09-0.13,0.06-0.18
              c0.02-0.01,0.04-0.03,0.04-0.05c-0.01-0.02-0.02-0.02-0.05-0.03c0.02,0,0-0.02-0.01-0.03c0,0,0-0.03-0.02-0.04
              c-0.01,0-0.03-0.02-0.06-0.04c-0.03-0.02-0.05-0.02-0.06-0.02c-0.01-0.01-0.03,0-0.04,0c-0.01,0-0.03,0-0.03,0.01
              c-0.01-0.01-0.02-0.02-0.05-0.02c-0.01,0.02-0.01,0.04-0.01,0.07c-0.02,0-0.05,0.07-0.07,0.05c0.01,0.03,0.01,0.03,0.03,0.03
              c-0.02,0.04-0.03,0.08-0.05,0.08c0.01,0.02,0.01,0.02,0.02,0.02c-0.02,0.06-0.04,0.13-0.04,0.16l0,0
              c-0.01-0.01-0.03-0.03-0.05-0.04c-0.05-0.03-0.05-0.05-0.03-0.08c0-0.03,0.03-0.07,0.03-0.1c0-0.01-0.01-0.03-0.01-0.04
              c0-0.02-0.03-0.04-0.05-0.04c0.01,0.02,0.02,0.02,0.02,0.04c-0.01,0.01-0.02,0.02-0.02,0.02c-0.01,0.01-0.02,0.03-0.01,0.04
              c0,0,0,0,0,0.01c0,0,0,0.01-0.01,0.01c0,0.01,0,0.01,0,0c0-0.03-0.01-0.06-0.04-0.06h-0.01c0-0.01,0-0.01,0-0.01
              c0-0.03-0.03-0.05-0.07-0.02c0.01,0,0.03,0,0.03,0.01c-0.01,0-0.01,0.02-0.02,0.02c-0.01,0.03,0.02,0.04,0.05,0.04
              c0.01,0,0.01,0,0.01,0c0,0.01,0,0.01,0,0.01c0.01,0.01,0,0.01,0,0c-0.05-0.02-0.08,0-0.08,0.02c0,0,0,0.02,0,0.03
              c-0.02,0-0.03,0.03,0,0.05c0-0.01,0-0.03,0.02-0.03c0-0.01,0.01-0.01,0.01-0.01c0.01,0.01,0.02,0.01,0.02,0.01
              c0,0,0.01,0,0.03-0.01c0-0.01,0-0.01,0.01,0c0,0,0.01,0.01,0.01,0.01l0,0c-0.04,0.03-0.04,0.06,0.01,0.07c0,0,0,0,0,0.01
              c-0.01,0.05-0.1,0.04-0.08-0.02c-0.06,0.07,0.02,0.12,0.08,0.09c0,0,0,0,0,0c0,0.01,0.01,0.02,0.02,0.02
              c0-0.01,0-0.01,0.02-0.01c0.01,0,0.01,0,0.01,0c0,0.02,0,0.04,0.03,0.04c0-0.02,0-0.03,0.01-0.03c0.01,0,0.02,0.05,0.06,0.09
              c-0.06,0.02-0.15,0.04-0.16,0.04c-0.01,0-0.1-0.01-0.12,0.01c-0.04,0.02-0.14,0.06-0.17,0.02c-0.01-0.01,0-0.03-0.02-0.06
              c-0.01-0.01-0.02-0.01-0.03-0.02c-0.01,0-0.01,0-0.03,0c-0.02-0.02-0.05-0.02-0.07-0.01c0.01,0,0.02,0.01,0.04,0.02
              c-0.01,0.01-0.01,0.02-0.01,0.03c-0.01,0.01,0,0.03,0.06,0.06c0,0,0.01,0.01,0,0.01c0,0.01-0.02,0.01-0.03,0
              c-0.02-0.02-0.02-0.05-0.06-0.03c0,0-0.01,0.01-0.02,0.01l0-0.01c-0.03,0-0.07,0.03-0.06,0.06c0.01-0.01,0.02-0.02,0.04-0.02
              c0,0.01,0.01,0.01,0.01,0.02c0,0.03,0.02,0.06,0.08,0.01c0.01-0.01,0.01,0.01,0.01,0.01c-0.01,0.02-0.06,0.05-0.02,0.07
              c0,0,0.01,0.01,0.02,0.01c0,0.01,0,0.01,0,0.01c-0.01,0.04,0.03,0.06,0.06,0.06c-0.01-0.01-0.03-0.03-0.02-0.05
              c0.01,0,0.01,0.01,0.02,0.01c0.03-0.02,0.01-0.05,0.03-0.05c0.01-0.01,0.01-0.01,0.01,0c0.01,0.01,0.01,0.04,0.05,0.04
              c0.03,0,0.05-0.03,0.05-0.04c0,0,0-0.01,0,0c0.02,0.01,0.02,0.02,0.02,0.03c0.01,0,0.02,0,0.03-0.02
              c0.01,0.02,0.01,0.04-0.02,0.06c0.02,0,0.05-0.02,0.06-0.06c0.01,0.01,0.01,0.02,0.01,0.02h0c0.02,0,0.04,0,0.08,0v0
              c0,0.01,0,0.03,0.01,0.04c0-0.01,0.01-0.02,0.01-0.02c0.01,0,0,0.03,0.02,0.05c0.01-0.09,0.06-0.05,0.12-0.09c0-0.01,0-0.01,0,0
              c0,0.01-0.01,0.03-0.03,0.03c0.03,0,0.07-0.02,0.07-0.07c0,0,0.02-0.01,0.04-0.02c0.02,0,0.05-0.01,0.06-0.03
              c0.01,0.01,0.02,0.03,0,0.05c0.06,0,0.13-0.07,0.16-0.07c0.13-0.03-0.08-0.13,0.19-0.11c0.02,0.01,0.06-0.02,0.08-0.03
              c-0.02,0.04-0.02,0.13,0.02,0.13c0.02,0.01,0.05,0.02,0.07,0.03c0,0.01,0,0.01-0.01,0.01c-0.03,0-0.05,0.01-0.06,0.01
              c-0.07,0.04-0.07-0.09-0.13-0.07c0,0-0.02,0.01-0.02,0.01c-0.03,0-0.07,0.03-0.06,0.06c0.01-0.01,0.03-0.02,0.04-0.03
              c0,0.01,0,0.01,0,0.01c0,0.02,0,0.03,0.02,0.03c0.01,0,0.02-0.01,0.03-0.01c0.01,0,0.01,0.01,0.01,0.01
              c0,0.02-0.09-0.02-0.08,0.05c0,0,0.01,0.02,0.02,0.03c0,0.02,0.01,0.04,0.06,0.03c-0.01-0.01-0.03-0.02-0.02-0.03
              c0.01,0,0.02,0,0.02,0.01c0.01,0,0.01-0.01,0.01-0.02l0,0c0,0,0,0,0,0.01c0,0,0,0.01,0,0.01c0,0,0,0.02,0.01,0.02
              c-0.01,0.03,0.04,0.06,0.07,0.03c-0.01,0-0.02,0-0.02-0.02l0-0.01c0,0,0.01-0.01,0.01-0.02c0-0.01,0-0.01,0.01-0.01h0.01
              c0.01,0,0.02,0,0.02,0.01c0.01,0.02,0.03,0.03,0.06,0.02c0.05-0.02,0-0.05,0.04-0.06c0.01,0,0.02,0,0.03,0
              c0.03,0.01,0.08,0.01,0.09-0.01c0.01-0.02,0.01-0.08-0.03-0.11c-0.03-0.01,0-0.03-0.02-0.07c0.04,0.02,0.08,0.03,0.13,0.03
              c0.1,0,0.01-0.02,0.05-0.04c0.05-0.03,0.1-0.02,0.11-0.02c0.01,0,0.02,0.01,0.02,0.02c-0.01,0.06,0,0.06-0.01,0.08
              c-0.01,0.02-0.05,0.01-0.08,0c-0.02,0-0.04,0.01-0.04,0.01c-0.02,0.01-0.05,0.03-0.05,0.06c0.01-0.01,0.02-0.02,0.04-0.03
              c0,0.01,0,0.01,0,0.01c0.01,0.04,0.04,0.05,0.06,0.02c0.01,0,0.02,0,0.01,0c-0.02,0.03-0.06,0.06-0.03,0.07
              c0,0,0.01,0.01,0.01,0.01c0,0.02,0.02,0.04,0.03,0.04c-0.01,0-0.01-0.02,0-0.04c0.01,0,0.02,0,0.02,0
              c0.02,0,0.01-0.04,0.03-0.05c0.01,0,0.01,0,0.01,0c-0.01,0.02-0.01,0.05,0.01,0.06c0,0,0.01,0,0.01,0
              c0.01,0.03,0.03,0.03,0.06,0.03c-0.01-0.01-0.01-0.02-0.02-0.03c0.01-0.01,0.02-0.02,0.02-0.02c0.01-0.04-0.03-0.05-0.03-0.07
              c0-0.03,0.05-0.02,0.05-0.07c0-0.01-0.01-0.02-0.02-0.03c0,0,0,0,0,0h0c0.01,0,0.03,0.01,0.04-0.02
              c-0.04,0.01-0.03-0.03-0.04-0.04c0-0.01,0-0.01,0-0.02c0.01-0.01,0.03-0.03,0.03-0.05c-0.02,0.01-0.06,0.03-0.07,0
              c0,0,0-0.03-0.04-0.02C29.93,18.54,29.9,18.5,29.78,18.48C29.78,18.49,29.76,18.48,29.78,18.48"/>
    <path d="M28.63,19.83L28.63,19.83C28.63,19.83,28.63,19.83,28.63,19.83 M28.43,19.39c0.01-0.02,0.02-0.03,0.03-0.03
              c0.01,0,0.02,0,0.03-0.02c0-0.02-0.02-0.03-0.03-0.04c0.02,0,0.03-0.01,0.02-0.02c-0.01-0.01-0.03,0.01-0.03,0
              c0-0.01,0.01-0.02,0.01-0.02c0-0.01,0.02-0.01,0.03,0l0.08,0.03c0.01,0.01,0.01,0.01,0.01,0.03c0,0,0,0.02-0.01,0.02
              c-0.01,0-0.01-0.02-0.02-0.02c-0.01-0.01-0.01,0.01-0.01,0.02c-0.01-0.01-0.04-0.01-0.04,0c-0.01,0.02,0,0.03,0,0.05
              c0.01,0,0,0.02,0,0.04c-0.01,0.02-0.03,0.04-0.06,0.03C28.41,19.44,28.42,19.41,28.43,19.39 M28.52,19.19
              c-0.01,0.03-0.03,0.04-0.06,0.02c-0.02-0.02,0-0.02-0.02-0.07C28.45,19.16,28.5,19.19,28.52,19.19 M28.58,19.22
              c0.02,0.01,0.07,0.03,0.1,0.04c-0.05,0.01-0.03,0.02-0.07,0.02C28.58,19.29,28.58,19.25,28.58,19.22 M28.18,19.58
              C28.18,19.58,28.18,19.58,28.18,19.58L28.18,19.58 M30.13,19.44c0-0.08-0.09-0.13-0.34-0.13c-0.24,0-0.81,0.09-0.81-0.04
              c0-0.08,0.11-0.06,0.24-0.06c0.01,0.01,0.03,0.02,0.06,0.03c0.32,0.09,0.69-0.08,0.89-0.02c-0.23-0.18-0.42,0.01-0.66-0.05
              c0.14,0,0.19-0.04,0.19-0.08c-0.11,0.07-0.32-0.03-0.45,0.04c-0.01,0.01-0.01,0.02-0.02,0.02c-0.18-0.01-0.32-0.01-0.32,0.11
              c0,0.24,0.67,0.1,0.88,0.1c0.21,0,0.25,0.02,0.25,0.06c0,0.07-0.21,0.07-0.32,0.07c-0.18,0-0.73-0.09-1.06-0.03
              c0.02-0.06,0.09-0.13,0.05-0.16c0.04-0.02,0.05-0.04,0.05-0.06c-0.02-0.02-0.04-0.03-0.06-0.03c0.01-0.01,0-0.03-0.01-0.04
              c-0.01,0-0.02-0.04-0.02-0.04c-0.01-0.01-0.04-0.03-0.08-0.04c-0.03-0.02-0.06-0.02-0.07-0.02c-0.01,0-0.04,0-0.04,0
              c-0.03,0-0.04,0-0.05,0.02c-0.01-0.02-0.04-0.02-0.06-0.02c-0.01,0.03-0.02,0.05-0.01,0.09c-0.03,0-0.06,0.08-0.09,0.07
              c0.01,0.03,0.02,0.03,0.03,0.03c-0.02,0.04-0.04,0.09-0.06,0.1c0.01,0.02,0.03,0.03,0.04,0.03c-0.01,0.03-0.01,0.07-0.01,0.09
              l-0.05-0.02c0,0-0.01,0-0.01-0.01c-0.01,0-0.02,0-0.02-0.01c0,0,0.01,0.01,0.02,0.01l-0.03-0.01c-0.03-0.02-0.06-0.07-0.11-0.09
              c-0.04-0.03-0.04-0.06-0.04-0.1c0-0.04,0.02-0.08,0.02-0.12c0,0-0.01-0.03-0.02-0.04c0-0.03-0.04-0.05-0.06-0.05
              C28,19.06,28,19.06,28,19.09c-0.01,0.01-0.02,0.02-0.02,0.02c-0.01,0.02-0.01,0.03,0,0.04c0.01,0.01,0.01,0.01,0.01,0.01
              c0,0,0,0.01-0.01,0.02c0,0.01,0,0,0,0c-0.01-0.03-0.02-0.08-0.04-0.08c-0.01,0-0.02-0.01-0.03-0.01l0,0
              c0.01-0.03-0.03-0.06-0.06-0.02c0,0,0.02,0,0.02,0.01c-0.01,0.01-0.01,0.03-0.01,0.03c-0.01,0.03,0.01,0.04,0.04,0.04
              c0.01,0,0.01,0.01,0.01,0.01c0,0.01,0,0.01,0.01,0.01c0,0.01-0.01,0.01-0.01,0.01c-0.05-0.03-0.07,0-0.07,0.02
              c0,0-0.01,0.02,0,0.03c-0.03,0.01-0.03,0.04,0,0.06c0,0,0-0.03,0.02-0.03c0,0,0,0,0.01-0.01c0,0.01,0.01,0.02,0.01,0.02
              c0.01,0.01,0.02,0,0.04-0.01c0-0.01,0.01-0.01,0.02,0c0,0,0.01,0,0.01,0.01c0,0.01,0,0.01,0,0.01
              c-0.05,0.04-0.04,0.08,0.01,0.08c0.01,0.01,0.01,0.01,0.01,0.02c-0.01,0.07-0.11,0.06-0.09-0.02c-0.06,0.08,0.03,0.14,0.1,0.11
              c0.01-0.01,0.01-0.01,0.01,0C27.99,19.5,28,19.51,28,19.51c0-0.01,0-0.01,0.02-0.02c0.01,0,0.01,0.01,0.01,0.01
              c0,0.02,0.01,0.04,0.03,0.05c0-0.02,0-0.03,0.01-0.03c0.01,0,0.04,0.06,0.09,0.08c0.05,0.02,0.09,0.07,0.11,0.04
              c-0.01,0.05,0.04,0.11,0.02,0.11c-0.01,0-0.14-0.02-0.17,0c-0.05,0.03-0.16,0.07-0.19,0.02c-0.02-0.02,0-0.03-0.02-0.06
              c-0.01-0.02-0.03-0.03-0.04-0.03c0,0-0.01-0.01-0.03-0.01c-0.02-0.02-0.06-0.02-0.08-0.01c0.02,0.01,0.04,0.01,0.05,0.03
              c-0.01,0.02-0.01,0.03-0.01,0.03c-0.01,0.02-0.01,0.04,0.06,0.06c0.01,0,0.01,0.01,0.01,0.01c-0.01,0.01-0.03,0.01-0.04,0
              c-0.03-0.03-0.03-0.06-0.07-0.04c0,0-0.02,0.01-0.02,0.01l0-0.01c-0.04,0-0.09,0.04-0.07,0.07c0.01-0.01,0.02-0.03,0.04-0.03
              c0,0.02,0.01,0.03,0.01,0.03c0,0.03,0.02,0.07,0.09,0.01c0.01-0.01,0.01,0,0.01,0c-0.01,0.04-0.06,0.07-0.02,0.09
              c0,0,0.01,0.02,0.01,0.02c0,0.01,0,0.01,0,0.01c-0.01,0.04,0.04,0.07,0.06,0.07c-0.01-0.01-0.03-0.03-0.02-0.06
              c0.01,0.01,0.02,0.01,0.02,0.01c0.04-0.02,0.02-0.06,0.04-0.08c0.01,0,0.01,0,0.01,0c0.01,0.02,0.01,0.06,0.05,0.06
              c0.04,0,0.06-0.03,0.06-0.06c0,0,0,0,0.01,0c0.02,0,0.03,0.02,0.02,0.04c0.01-0.01,0.02-0.02,0.03-0.03
              c0.01,0.02,0.01,0.05-0.02,0.08c0.02-0.01,0.06-0.03,0.07-0.08c0.01,0.01,0.01,0.02,0.01,0.02c0,0,0,0,0.01,0
              c0.02,0,0.05,0.01,0.09-0.01c0.01,0,0.01,0,0.01,0.01c-0.01,0.02-0.01,0.04,0,0.04c0,0,0.01-0.02,0.02-0.02
              c0.01,0,0,0.04,0.02,0.07c0.01-0.11,0.07-0.07,0.14-0.11c0,0,0,0,0,0c0,0.02-0.01,0.03-0.03,0.05c0.07,0.02,0.2-0.1,0.21-0.16
              c0.04,0,0.07,0,0.08,0c0.22,0.02,0.07-0.2,0.42-0.13c0.03,0,0.07-0.02,0.09-0.04c-0.02,0.04-0.02,0.14,0.02,0.14
              c0.02,0.01,0.06,0.03,0.09,0.04c0,0.01,0,0.01,0,0.01c-0.03,0.01-0.07,0.01-0.07,0.02c-0.07,0.05-0.07-0.11-0.15-0.08
              c-0.01,0.01-0.02,0.01-0.02,0.02c-0.03,0-0.08,0.03-0.06,0.07c0-0.01,0.02-0.03,0.05-0.03c0,0.01,0,0.02,0,0.02
              c-0.01,0.01,0,0.03,0.03,0.03c0.02,0,0.02-0.02,0.03-0.02c0.01,0,0.01,0,0.01,0.02c0,0.03-0.1-0.02-0.07,0.07
              c0,0,0,0.01,0.01,0.03c0,0.02,0.02,0.04,0.07,0.03c-0.01-0.01-0.03-0.02-0.02-0.03c0,0,0.02,0,0.02,0c0,0,0,0,0-0.02
              c0,0,0,0,0.01,0c0,0,0.01,0,0.01,0.01c0,0.01-0.01,0.01-0.01,0.01c0,0,0.01,0.03,0.01,0.03c-0.01,0.03,0.04,0.06,0.08,0.03
              c-0.01-0.01-0.04-0.01-0.04-0.03c0.01,0,0.02-0.01,0.02-0.01c0.01-0.01,0.01-0.02,0.01-0.03c0-0.01,0.01-0.01,0.01-0.01
              c0.01,0,0.01,0,0.02,0c0.01,0,0.01,0,0.01,0.01c0.01,0.02,0.03,0.03,0.07,0.02c0.05-0.02,0-0.07,0.05-0.07c0,0,0.02-0.01,0.03,0
              c0.04,0.01,0.1,0.01,0.11-0.01c0.02-0.02,0.01-0.1-0.04-0.13c-0.03-0.01,0-0.04-0.02-0.08c0.05,0.02,0.09,0.03,0.16,0.03
              c0.12,0,0.13-0.01,0.19-0.04c0.06-0.03,0.13-0.02,0.14-0.02c0.01,0.01,0.03,0.01,0.03,0.03c-0.02,0.06,0.01,0.07-0.01,0.1
              c-0.01,0.02-0.06,0.01-0.09,0c-0.03,0-0.03,0.01-0.03,0.01c-0.03,0.01-0.06,0.03-0.06,0.07c0.01-0.01,0.03-0.03,0.05-0.03
              c0,0,0,0.02,0,0.02c0,0.04,0.05,0.06,0.07,0.03c0.01-0.01,0.01,0,0.01,0c-0.02,0.02-0.07,0.06-0.03,0.07
              c0.01,0,0.02,0.01,0.02,0.02c0,0.02,0.01,0.05,0.04,0.05c-0.01-0.01-0.01-0.02,0-0.05c0.01,0,0.01,0,0.02,0
              c0.02,0,0.01-0.05,0.04-0.06c0.01-0.01,0.01,0,0.01,0c-0.01,0.03-0.02,0.06,0.01,0.08c0,0,0.01,0,0.02,0
              c0.01,0.02,0.04,0.03,0.07,0.02c-0.02-0.01-0.03-0.02-0.03-0.02c0-0.02,0.01-0.03,0.02-0.03c0.02-0.06-0.04-0.06-0.04-0.09
              c0-0.03,0.06-0.01,0.06-0.07c0-0.01,0-0.03-0.03-0.04v-0.01l0,0c0.03,0,0.04,0.01,0.05-0.02c-0.05,0-0.04-0.04-0.04-0.06
              c0-0.01,0-0.01,0-0.01c0.02-0.01,0.03-0.03,0.03-0.07c-0.02,0.02-0.07,0.04-0.08,0c0,0,0-0.03-0.04-0.02
              c-0.08,0.01-0.13-0.01-0.28-0.02C29.89,19.57,30.13,19.53,30.13,19.44"/>
    <path d="M28.14,20.49c0.01-0.01,0.01-0.03,0.02-0.03c0.02,0,0.03,0,0.04-0.02c0-0.02-0.02-0.03-0.04-0.05
              c0.02,0,0.04,0,0.02-0.01c-0.01-0.02-0.03,0.01-0.03-0.01c0-0.01,0.01-0.01,0.01-0.02c0.02-0.01,0.02-0.01,0.03,0l0.08,0.03
              c0.01,0,0.02,0.02,0.02,0.02c0,0.01,0,0.03-0.01,0.03c-0.01,0-0.01-0.03-0.03-0.03c0-0.01,0,0.01,0,0.03
              c-0.02-0.01-0.04-0.02-0.05,0.01c0,0.01,0,0.02,0.01,0.04c0,0.01,0,0.02-0.01,0.03c0,0.02-0.02,0.04-0.05,0.03
              C28.13,20.54,28.13,20.51,28.14,20.49 M28.23,20.31c-0.01,0.01-0.04,0.03-0.06,0.01c-0.01-0.02,0.01-0.02-0.02-0.06
              C28.17,20.28,28.22,20.3,28.23,20.31 M28.28,20.33c0.01,0.01,0.07,0.03,0.09,0.03c-0.04,0.01-0.02,0.03-0.05,0.03
              C28.29,20.4,28.28,20.36,28.28,20.33 M30.02,20.53c0-0.07-0.08-0.12-0.32-0.12c-0.24,0-0.96,0.09-0.96-0.04
              c0-0.08,0.24-0.05,0.43-0.05c0.01,0.02,0.02,0.03,0.06,0.04c0.3,0.08,0.62-0.12,0.84-0.04c-0.17-0.15-0.4,0.01-0.63-0.03
              c0.14,0,0.28-0.03,0.28-0.07c-0.1,0.07-0.4-0.05-0.52,0.03c0,0.01-0.01,0.01-0.02,0.02c-0.23,0-0.5-0.03-0.5,0.1
              c0,0.24,0.82,0.1,1.03,0.1c0.2,0,0.24,0.02,0.24,0.06c0,0.05-0.2,0.06-0.31,0.06c-0.18,0-0.95-0.1-1.27,0
              c0.01-0.06,0.09-0.13,0.06-0.18c0.03,0,0.04-0.03,0.04-0.06c-0.01-0.01-0.04-0.03-0.05-0.03c0.01,0,0-0.03-0.02-0.04
              c-0.01,0-0.01-0.03-0.01-0.04c-0.01-0.01-0.03-0.03-0.07-0.05c-0.04-0.02-0.06-0.02-0.07-0.02c-0.01-0.01-0.04,0.01-0.04,0
              c-0.02,0-0.04,0-0.04,0.02c-0.01-0.01-0.03-0.02-0.05-0.02c-0.02,0.02-0.03,0.04-0.01,0.08c-0.02,0-0.06,0.08-0.09,0.06
              c0.01,0.02,0.03,0.03,0.03,0.03c-0.03,0.05-0.04,0.1-0.06,0.1c0.01,0.01,0.02,0.02,0.02,0.02c0,0.03,0,0.05,0,0.07h-0.03
              c-0.02,0-0.03,0-0.03,0c-0.02-0.01-0.03-0.01-0.05-0.01c-0.03,0-0.06-0.06-0.13-0.1c-0.05-0.03-0.05-0.05-0.05-0.1
              c0-0.05,0.03-0.09,0.02-0.12c0,0,0-0.03-0.01-0.04c-0.01-0.02-0.04-0.05-0.07-0.04c0.01,0.01,0.02,0.02,0.03,0.04
              c-0.01,0.01-0.02,0.02-0.02,0.02c-0.01,0.02-0.01,0.03,0,0.04c0,0.01,0,0.01,0,0.01c0,0.01,0,0.02,0,0.02
              c0,0.02-0.01,0.01-0.01,0c-0.01-0.02-0.02-0.07-0.05-0.07h-0.02c0,0,0,0,0-0.01c0-0.03-0.03-0.05-0.07-0.02
              c0.01,0,0.02,0.01,0.03,0.01c-0.01,0.01-0.01,0.03-0.01,0.03c-0.01,0.03,0.02,0.04,0.05,0.04c0.01,0,0.01,0,0.01,0
              c0,0,0,0.01,0.01,0.02h-0.01c-0.05-0.03-0.08,0-0.08,0.03v0.01c-0.02,0.02-0.03,0.05,0.01,0.08c0-0.02,0-0.03,0.02-0.03
              c0,0,0-0.01,0.01-0.01c0,0.01,0.01,0.01,0.01,0.02c0,0,0.01,0,0.03-0.01c0.01-0.01,0.01-0.01,0.02,0c0,0,0.01,0,0.01,0.01
              c0.01,0,0.01,0,0,0.01c-0.03,0.03-0.03,0.07,0.03,0.08c0,0,0.01,0,0.01,0.01c-0.01,0.06-0.09,0.06-0.09-0.02
              c-0.04,0.08,0.04,0.13,0.1,0.09c0.01,0,0.01,0,0.01,0c0,0.02,0,0.03,0.02,0.03c-0.01,0,0-0.01,0.01-0.01c0,0,0,0,0,0.01
              c0,0.02,0.01,0.04,0.03,0.04c0-0.02,0-0.02,0.01-0.02c0.01,0,0.05,0.09,0.15,0.14c0.03,0,0.05,0,0.06-0.03
              c0,0.01,0.01,0.02,0.02,0.03c0,0.05,0.03,0.1,0.01,0.1c-0.01,0-0.16-0.01-0.19,0.01c-0.05,0.02-0.15,0.07-0.18,0.02
              c-0.01-0.02-0.01-0.03-0.02-0.06c-0.01-0.02-0.03-0.03-0.03-0.03c-0.01,0-0.02,0-0.03,0c-0.02-0.02-0.06-0.03-0.08-0.02
              c0.02,0,0.02,0.01,0.04,0.03c-0.01,0.02-0.01,0.02-0.02,0.02c-0.01,0.02-0.01,0.04,0.07,0.07c0,0,0.01,0,0,0.01
              c0,0-0.02,0.01-0.04-0.01c-0.02-0.02-0.03-0.05-0.06-0.04c-0.01,0.01-0.02,0.02-0.03,0.02c0,0,0,0-0.01,0
              c-0.03-0.01-0.07,0.03-0.05,0.07c0-0.02,0.02-0.03,0.04-0.03c0.01,0.01,0.01,0.02,0.01,0.02c0.01,0.03,0.02,0.07,0.09,0.02
              c0.01,0,0.01,0.01,0.01,0.01c-0.02,0.03-0.07,0.05-0.03,0.08c0.01,0.01,0.02,0.01,0.03,0.02c0,0-0.01,0-0.01,0
              c-0.01,0.04,0.03,0.07,0.06,0.07c-0.01-0.02-0.03-0.03-0.02-0.07c0.01,0.01,0.01,0.01,0.02,0.01c0.03-0.02,0.02-0.06,0.03-0.07
              c0.01-0.01,0.01,0,0.01,0c0,0.02,0.01,0.05,0.05,0.05c0.04,0,0.07-0.03,0.06-0.05c-0.01-0.01,0-0.01,0-0.01
              c0,0.01,0.02,0.02,0.01,0.04c0.01-0.01,0.02-0.02,0.02-0.03c0.01,0.02,0.01,0.05-0.02,0.07c0.02,0,0.06-0.02,0.08-0.07
              c0,0.01,0.01,0.02,0.01,0.02c0-0.01,0.01-0.01,0.01-0.01c0.01,0.01,0.04,0.01,0.09,0l0,0c0,0.02,0,0.04,0,0.04
              c0,0,0.01-0.02,0.02-0.02c0.01,0,0,0.04,0.02,0.07C28,21,28.12,21.05,28.19,21c0.01-0.01,0.01,0,0.01,0
              c-0.01,0.01-0.02,0.02-0.04,0.03c0.03,0.01,0.07-0.01,0.09-0.03l0,0.01l0.11-0.05c0-0.01,0-0.02,0-0.03c0.01,0,0.03,0,0.03,0
              c0,0,0,0,0,0c0.07,0,0.07-0.05,0.09-0.05c0.39,0.05,0.16-0.17,0.62-0.13c0.02,0,0.02,0,0.05-0.02
              c-0.02,0.05-0.02,0.12,0.02,0.13c0.02,0,0.06,0.02,0.08,0.03c0.01,0.01,0,0.01,0,0.01c-0.02,0.01-0.06,0.01-0.06,0.01
              c-0.07,0.05-0.08-0.1-0.15-0.08c-0.01,0-0.02,0.02-0.03,0.02c-0.03,0-0.07,0.04-0.06,0.07c0.01-0.02,0.02-0.02,0.05-0.03
              c0,0.01,0,0.02,0,0.02c-0.01,0.02,0.01,0.03,0.02,0.03c0.02,0,0.03,0,0.03,0c0.01,0,0.01,0,0.01,0c0,0.03-0.1-0.01-0.08,0.07
              c0,0,0.01,0.02,0.02,0.02c-0.01,0.03,0.01,0.05,0.06,0.03c-0.01,0-0.03-0.02-0.02-0.03c0.01,0,0.01,0,0.02,0c0,0,0,0,0-0.01
              c0.01-0.01,0.01-0.01,0.01-0.01c0,0,0,0.01,0,0.01c0,0,0,0,0,0.01c0,0,0,0.02,0.01,0.03c-0.01,0.02,0.04,0.05,0.08,0.03
              c-0.01,0-0.04,0-0.04-0.02c0,0,0.01-0.01,0.02-0.01c0.01-0.01,0.01-0.01,0.01-0.03c0.01,0,0.01-0.01,0.01-0.01
              c0.01,0,0.02,0,0.02,0c0.01,0,0.01,0,0.01,0c0.01,0.02,0.03,0.03,0.06,0.03c0.05-0.02,0.01-0.06,0.05-0.08c0.01,0,0.03,0,0.03,0
              c0.04,0.02,0.1,0.02,0.11-0.01c0.02-0.02,0-0.09-0.03-0.12c-0.03-0.01,0-0.04-0.03-0.08c0.05,0.02,0.09,0.04,0.15,0.04
              c0.11,0,0.14-0.02,0.19-0.05c0.05-0.03,0.11-0.02,0.13-0.02c0.01,0,0.03,0.02,0.03,0.03c-0.01,0.06,0.01,0.07-0.01,0.09
              c-0.01,0.02-0.06,0-0.09,0c-0.02,0-0.03,0.01-0.03,0.02c-0.03,0-0.06,0.03-0.06,0.06c0.02-0.01,0.03-0.02,0.06-0.03
              c0,0.01,0,0.01,0,0.01c0,0.04,0.05,0.05,0.07,0.03c0.01-0.01,0.01,0,0.01,0c-0.02,0.02-0.06,0.06-0.02,0.07c0,0,0,0,0.01,0.02
              c0,0.02,0.01,0.04,0.03,0.04c-0.01-0.02-0.01-0.02,0.01-0.04c0,0,0.02,0,0.02,0c0.03,0,0.01-0.05,0.04-0.07c0-0.01,0,0,0,0.01
              c-0.01,0.03-0.01,0.06,0.01,0.07c0,0,0.01,0.01,0.03,0.01c0,0.02,0.02,0.04,0.06,0.02c0,0-0.02-0.01-0.03-0.02
              c0.01,0,0.02-0.02,0.02-0.02c0.03-0.05-0.03-0.06-0.03-0.08c0-0.03,0.06-0.01,0.06-0.07c0-0.01-0.01-0.03-0.03-0.03l0,0l0,0
              c0.02-0.01,0.03,0,0.04-0.02c-0.04,0-0.03-0.03-0.03-0.06c0-0.01-0.01-0.02,0-0.02c0.01,0,0.02-0.03,0.02-0.06
              c-0.02,0.02-0.07,0.04-0.07,0c0,0-0.01-0.03-0.05-0.02c-0.07,0.01-0.12-0.01-0.26-0.02C29.78,20.64,30.02,20.62,30.02,20.53"/>
    <path d="M31.85,22.43C31.86,22.43,31.85,22.43,31.85,22.43 M31.5,21.88C31.49,21.89,31.49,21.89,31.5,21.88
              C31.49,21.89,31.49,21.88,31.5,21.88 M31.48,21.97L31.48,21.97L31.48,21.97z M31.54,22.08c0.01-0.02,0.02-0.03,0.03-0.03
              c0.02,0,0.02,0,0.03-0.02c0.01-0.02-0.02-0.03-0.03-0.04c0.02,0,0.03-0.01,0.02-0.02c-0.01-0.01-0.02,0.01-0.03,0
              c0-0.01,0.01-0.02,0.02-0.02c0.01-0.01,0.01-0.01,0.02,0l0.08,0.03c0.01,0.01,0.01,0.01,0.01,0.02c0,0,0.01,0.02,0,0.02
              C31.68,22.03,31.68,22,31.66,22c-0.01-0.01-0.01,0.01,0,0.03c-0.03-0.01-0.04-0.02-0.05,0c0,0.02,0,0.02,0.01,0.04
              c0,0.01,0,0.02-0.01,0.05c0,0.01-0.03,0.03-0.05,0.02C31.53,22.12,31.53,22.09,31.54,22.08 M31.63,21.88
              c-0.01,0.02-0.04,0.04-0.06,0.02c-0.02-0.02,0-0.03-0.03-0.07C31.57,21.85,31.62,21.88,31.63,21.88 M31.69,21.92
              c0.01,0.01,0.06,0.03,0.09,0.03c-0.04,0.01-0.04,0.03-0.06,0.03C31.69,21.98,31.68,21.94,31.69,21.92 M33.39,22.36
              C33.39,22.35,33.39,22.35,33.39,22.36c0.02-0.02,0.04-0.04,0.03-0.08c-0.02,0.02-0.07,0.04-0.07,0.01c0-0.01,0-0.03-0.05-0.02
              c-0.07,0.01-0.14,0-0.27-0.02c-0.01,0-0.01-0.01,0-0.01c0.14,0,0.39-0.02,0.39-0.11c0-0.07-0.09-0.12-0.32-0.12
              c-0.24,0-0.97,0.08-0.97-0.05c0-0.08,0.26-0.05,0.43-0.04c0.01,0.02,0.03,0.02,0.05,0.04c0.31,0.08,0.65-0.15,0.84-0.09
              c-0.24-0.08-0.39,0.06-0.62,0.02c0.13,0,0.27-0.03,0.28-0.07c-0.11,0.07-0.4-0.04-0.52,0.03c-0.01,0.01-0.02,0.01-0.02,0.01
              c-0.23,0-0.51-0.02-0.51,0.1c0,0.23,0.84,0.1,1.04,0.1c0.19,0,0.24,0.02,0.24,0.06c0,0.06-0.2,0.07-0.31,0.07
              c-0.18,0-0.97-0.11-1.28-0.01c0.03-0.06,0.1-0.14,0.07-0.18c0.02-0.01,0.04-0.03,0.04-0.07c-0.01,0-0.04-0.02-0.05-0.02
              c0.01-0.01,0-0.03-0.02-0.04c0,0,0-0.03-0.01-0.04c-0.01-0.02-0.04-0.03-0.07-0.05c-0.03-0.01-0.06-0.01-0.07-0.02
              c-0.01-0.01-0.03,0.01-0.04,0.01c-0.02,0-0.04,0-0.04,0.02c-0.02-0.01-0.04-0.02-0.05-0.02c-0.01,0.03-0.02,0.04,0,0.08
              c-0.03,0-0.06,0.08-0.09,0.06c0.01,0.02,0.01,0.03,0.03,0.03c-0.02,0.04-0.04,0.09-0.06,0.09c0.02,0.03,0.04,0.04,0.04,0.04
              c0,0.02,0,0.05,0,0.07l-0.04-0.01c-0.01,0-0.04,0-0.05,0c0,0-0.02,0-0.03,0c-0.03-0.01-0.07-0.07-0.13-0.11
              c-0.05-0.03-0.05-0.05-0.05-0.09c0-0.05,0.02-0.08,0.02-0.12c-0.01-0.01-0.01-0.03-0.02-0.04c0-0.03-0.04-0.05-0.06-0.04
              c0.01,0.01,0.02,0.02,0.02,0.04c-0.01,0.01-0.02,0.02-0.02,0.02c-0.01,0.01-0.01,0.02,0,0.04c0.01,0,0.01,0.01,0.01,0.01
              s0,0.01-0.01,0.02c0,0.01,0,0,0,0c-0.01-0.03-0.02-0.08-0.06-0.08c0,0-0.01,0-0.02,0c0,0,0.01,0,0.01-0.01
              c0-0.03-0.04-0.05-0.07-0.02c0.01,0,0.02,0.01,0.03,0.02c-0.01,0.01-0.01,0.03-0.01,0.03c0,0.03,0.02,0.04,0.06,0.04
              c0,0,0,0.01,0,0.01c0,0,0,0.01,0,0.02c0.01,0.01,0,0,0,0c-0.05-0.03-0.08,0-0.08,0.03c0,0,0,0.01,0,0.02
              c-0.01,0.01-0.02,0.04,0.02,0.06c0-0.01,0-0.03,0.01-0.03h0c0.01,0.01,0.01,0.01,0.01,0.01c0.01,0,0.02,0,0.03-0.01
              c0,0,0.01,0,0.01,0c0,0.01,0.01,0.01,0.02,0.01c0,0.01,0,0.01,0,0.02C31,22,31.01,22.03,31.05,22.05c0.01,0,0.01,0,0.01,0.01
              c-0.01,0.07-0.09,0.06-0.09-0.02c-0.04,0.09,0.04,0.15,0.11,0.1h0.01c0,0.01,0.01,0.02,0.03,0.02c-0.01,0,0-0.01,0.01-0.01
              l0,0.01c0,0.02,0.01,0.04,0.03,0.04c-0.01-0.02,0-0.02,0.01-0.02c0.01,0,0.06,0.1,0.16,0.14c-0.01,0,0.04-0.02,0.05-0.03
              c0,0.02,0.01,0.03,0.04,0.04l0.01-0.01c-0.01,0.05,0.04,0.09,0.04,0.09c-0.01,0-0.1-0.01-0.14,0.01
              c-0.05,0.02-0.16,0.07-0.19,0.01c-0.01-0.01-0.01-0.03-0.02-0.05c-0.01-0.02-0.02-0.03-0.03-0.03c-0.01,0-0.02,0-0.03,0
              c-0.02-0.02-0.05-0.02-0.07-0.01c0.01,0,0.02,0.01,0.04,0.02c0,0.02-0.01,0.03-0.01,0.03c-0.01,0.01-0.01,0.04,0.07,0.06
              c0.01,0,0.01,0,0.01,0.01c-0.01,0.01-0.02,0.01-0.04-0.01c-0.03-0.02-0.03-0.05-0.07-0.03c0,0-0.01,0-0.02,0h0
              c-0.03,0-0.08,0.04-0.06,0.08c0.01-0.02,0.02-0.03,0.04-0.03c0,0.01,0,0.01,0,0.01c0,0.05,0.02,0.07,0.09,0.02
              c0.01-0.01,0,0,0,0c-0.02,0.04-0.07,0.06-0.03,0.09c0,0,0.01,0.01,0.02,0.01l-0.01,0c0,0.04,0.04,0.07,0.06,0.07
              c-0.01-0.02-0.02-0.03-0.02-0.07c0.01,0,0.01,0.01,0.02,0.01c0.03-0.02,0.02-0.06,0.04-0.08c0,0,0.01,0,0.01,0.01
              c0.01,0.02,0.01,0.06,0.05,0.05c0.04,0,0.06-0.03,0.06-0.06c0,0,0,0,0,0c0.01,0.01,0.03,0.03,0.02,0.05
              c0.01,0,0.02-0.02,0.03-0.03c0.01,0.02,0.01,0.05-0.02,0.08c0.02-0.01,0.05-0.03,0.07-0.08c0.01,0.02,0.02,0.02,0.02,0.03
              c0,0,0-0.01,0.01-0.01c0.01,0.01,0.04,0.01,0.08,0c0.01,0,0.01,0,0.01,0.01c-0.01,0.02-0.01,0.03,0,0.04
              c0-0.01,0.01-0.02,0.02-0.02c0.01,0,0,0.04,0.03,0.06c0.01-0.1,0.06-0.06,0.13-0.1c0-0.01,0-0.01,0,0.01c0,0,0,0.02-0.02,0.03
              c0.02,0.02,0.11-0.05,0.11-0.08c0-0.02,0.04-0.02,0.07-0.02c0.07,0.01,0.06-0.05,0.08-0.05c0.39,0.06,0.16-0.16,0.63-0.12
              c0.02,0,0.03-0.03,0.05-0.04c-0.02,0.04-0.02,0.13,0.03,0.15c0.02,0,0.06,0.01,0.08,0.03c0,0.01,0,0.01,0,0.01
              c-0.03,0-0.05,0-0.07,0.02c-0.07,0.05-0.07-0.1-0.14-0.08c0,0.01-0.01,0.01-0.02,0.02c-0.02-0.01-0.06,0.04-0.06,0.07
              c0.01-0.02,0.03-0.02,0.05-0.03v0.01c0,0.02,0,0.03,0.03,0.03c0.01,0,0.02-0.01,0.02-0.01c0.01,0,0.01,0,0.01,0.01
              c0,0.03-0.09-0.01-0.08,0.07c0,0,0.01,0.02,0.01,0.02c0,0.02,0.02,0.05,0.06,0.03c-0.01-0.01-0.03-0.02-0.02-0.03
              c0.01,0,0.02,0,0.02,0c0,0,0.01,0,0.01-0.01c0,0,0-0.01,0,0c0.01,0,0.01,0,0.01,0.01c0,0-0.01,0.01-0.01,0.01
              c0,0.01,0,0.03,0.01,0.03c-0.01,0.03,0.03,0.07,0.07,0.03c-0.01,0-0.03,0-0.04-0.02c0.01,0,0.02-0.01,0.02-0.01
              c0.01-0.01,0.01-0.02,0.01-0.03c0,0,0,0,0.01,0c0,0,0.02,0,0.02,0c0.01-0.01,0.01,0,0.01,0c0.01,0.02,0.03,0.03,0.06,0.02
              c0.05-0.02,0-0.06,0.05-0.07c0.01,0,0.02,0,0.03,0c0.04,0.01,0.1,0.01,0.11-0.01c0.01-0.02,0-0.09-0.04-0.11
              c-0.02-0.02,0-0.05-0.02-0.08c0.04,0.02,0.09,0.03,0.15,0.03c0.11,0,0.14-0.02,0.19-0.04c0.06-0.03,0.12-0.01,0.14-0.01
              c0.01,0,0.02,0.01,0.01,0.02c-0.01,0.06,0,0.06-0.01,0.09c-0.01,0.02-0.06,0-0.09,0c-0.01,0-0.03,0.01-0.04,0.02
              c-0.02,0-0.06,0.02-0.06,0.06c0.02-0.01,0.04-0.02,0.05-0.02v0.01c0.01,0.04,0.04,0.05,0.06,0.03c0.01-0.01,0.02,0,0.01,0
              c-0.03,0.02-0.07,0.06-0.03,0.07c0,0,0.01,0.01,0.02,0.01c0,0.03,0.01,0.04,0.04,0.05c-0.01-0.01-0.01-0.02,0.01-0.04h0.02
              c0.02,0,0.02-0.05,0.04-0.07h0.01c-0.01,0.03-0.02,0.07,0,0.08c0,0,0.01,0,0.01,0c0.01,0.02,0.03,0.04,0.07,0.02
              c0-0.01-0.02-0.01-0.02-0.02c0.01-0.01,0.02-0.02,0.02-0.03c0.02-0.06-0.03-0.06-0.03-0.08c0-0.03,0.06-0.01,0.06-0.07
              c0-0.01,0-0.03-0.03-0.03l0,0l0,0c0.02,0,0.03,0,0.05-0.02C33.38,22.42,33.4,22.38,33.39,22.36"/>
    <path d="M31.68,23.02c-0.02,0-0.04-0.03-0.03-0.06c0.01,0,0.07,0.02,0.09,0.03C31.7,23.01,31.71,23.02,31.68,23.02 M31.64,23.08
              c-0.01,0-0.01-0.03-0.02-0.03c-0.01,0-0.01,0.01,0,0.03c-0.02-0.01-0.04-0.02-0.04,0c-0.01,0.01-0.01,0.02,0.01,0.03
              c0.01,0.01,0,0.03-0.01,0.04c-0.01,0.02-0.03,0.04-0.05,0.03c-0.02-0.02-0.02-0.04-0.01-0.06c0.01-0.02,0.01-0.02,0.02-0.02
              c0.02,0,0.02-0.01,0.03-0.02c0-0.03-0.01-0.03-0.03-0.04c0.02-0.01,0.02-0.02,0.02-0.02c-0.01-0.01-0.03,0-0.03-0.01
              C31.52,23.01,31.53,23,31.54,23c0.01-0.01,0.01-0.01,0.02,0l0.07,0.03c0.01,0.01,0.02,0.01,0.02,0.02
              C31.64,23.05,31.65,23.07,31.64,23.08 M31.6,22.94c-0.02,0.02-0.04,0.03-0.06,0.02c-0.02-0.02,0-0.03-0.02-0.07
              C31.54,22.91,31.58,22.93,31.6,22.94 M32.33,22.95c0.01,0.02,0.02,0.03,0.05,0.04c0.29,0.09,0.62-0.14,0.8-0.09
              c-0.23-0.08-0.38,0.06-0.59,0.01c0.12,0,0.26-0.03,0.26-0.07c-0.1,0.07-0.38-0.03-0.5,0.03c-0.01,0.01-0.01,0.01-0.02,0.01
              c-0.16,0-0.29,0-0.29,0.11c0,0.23,0.6,0.09,0.8,0.09c0.18,0,0.16,0.02,0.16,0.05c0,0.05-0.21,0.07-0.32,0.07
              c-0.16,0-0.65-0.08-0.96-0.03c0.03-0.05,0.08-0.11,0.05-0.15c0.02-0.01,0.04-0.03,0.04-0.06c-0.01-0.02-0.03-0.02-0.05-0.03
              c0.01-0.01,0-0.03-0.02-0.04c0-0.01-0.01-0.03-0.02-0.04c-0.01-0.01-0.03-0.03-0.07-0.05c-0.03,0-0.05,0-0.07-0.01
              c-0.01,0-0.04,0.01-0.04,0.01c-0.02,0-0.04,0-0.04,0.02c-0.02-0.02-0.03-0.02-0.05-0.03c-0.01,0.03-0.02,0.05-0.01,0.08
              c-0.03,0-0.05,0.07-0.08,0.07c0.01,0.02,0.02,0.02,0.03,0.02c-0.02,0.04-0.04,0.09-0.06,0.09c0.01,0.01,0.02,0.02,0.02,0.03
              c0,0.03-0.01,0.05-0.01,0.08l-0.02-0.02c-0.01,0-0.01,0-0.01,0c-0.03,0-0.05,0-0.12-0.03c-0.04-0.03-0.04-0.05-0.04-0.1
              c0-0.03,0.02-0.07,0.02-0.11c0-0.01-0.01-0.03-0.02-0.04c0-0.02-0.03-0.04-0.05-0.04c0.01,0.01,0.02,0.02,0.02,0.04
              c-0.01,0.01-0.02,0.02-0.02,0.02c-0.01,0.02-0.01,0.03,0,0.04c0,0,0,0.01,0,0.01c0,0.01,0,0.01,0,0.02c0,0.01-0.01,0-0.01,0
              c-0.01-0.03-0.02-0.07-0.05-0.07c0,0-0.01,0-0.02,0v-0.01c0-0.03-0.03-0.05-0.07-0.02c0.01,0,0.02,0.01,0.03,0.02
              c0,0.01,0,0.03,0,0.03c0,0.02,0.02,0.05,0.05,0.05c0,0,0.01,0,0.01,0c0,0.01,0,0.01,0,0.02c0,0.01,0,0.01,0,0
              c-0.06-0.02-0.07,0.01-0.08,0.02c0,0,0,0.02,0,0.02c-0.02,0.01-0.02,0.04,0.01,0.06c0-0.01-0.01-0.03,0-0.03c0,0,0.01,0,0.01,0
              c0.01,0,0.02,0,0.02,0.01c0,0.01,0.02,0.01,0.03-0.01c0,0,0,0,0.01,0c0.01,0,0.01,0,0.02,0c0,0.01,0,0.01,0,0.02
              c-0.03,0.03-0.02,0.07,0.02,0.08c0.01,0,0.01,0,0.01,0c0,0.07-0.09,0.06-0.08,0c-0.05,0.07,0.04,0.12,0.1,0.09
              c0.01-0.01,0.01,0,0.01,0c0.01,0.01,0.01,0.02,0.02,0.02c0-0.01,0.01-0.01,0.01-0.01c0,0,0,0,0,0.01c0,0.02,0.01,0.04,0.03,0.04
              c0-0.02,0-0.03,0.01-0.03c0.01,0,0.01-0.03,0.09,0.01c0.01,0.02,0.01,0.02,0.03,0.03l0.05-0.01c0,0.04,0.01,0.11,0,0.11
              c-0.01,0-0.1-0.02-0.13,0.01c-0.05,0.03-0.15,0.07-0.17,0.02c-0.01-0.02-0.01-0.03-0.03-0.06c-0.01-0.02-0.02-0.02-0.03-0.02H31
              c-0.02-0.02-0.05-0.02-0.07-0.01c0.02,0.01,0.02,0.01,0.04,0.03c0,0.01,0,0.02,0,0.02c-0.01,0.01-0.01,0.03,0.06,0.05
              c0.01,0,0.01,0.01,0.01,0.01c-0.01,0.01-0.02,0.01-0.04,0c-0.03-0.02-0.03-0.05-0.06-0.03c0,0-0.01,0-0.02,0.02
              c0-0.01-0.01-0.01-0.01-0.01c-0.03-0.01-0.08,0.04-0.05,0.06c0.01-0.01,0.01-0.03,0.03-0.03c0,0.01,0.01,0.02,0.01,0.02
              c0.01,0.04,0.03,0.07,0.09,0.02c0.01-0.01,0.01,0,0.01,0c-0.02,0.04-0.07,0.06-0.03,0.08c0.01,0,0.01,0.01,0.02,0.01
              c0,0.01,0,0.01-0.01,0.01c0,0.04,0.04,0.06,0.06,0.06C31.01,23.7,31,23.67,31,23.65c0,0,0.02,0,0.02,0
              c0.03-0.01,0.02-0.05,0.04-0.07c0.01,0,0.01,0,0.01,0.01c0,0.02,0.01,0.05,0.05,0.05c0.03,0,0.05-0.03,0.05-0.06c0,0,0,0,0,0
              c0.02,0,0.02,0.03,0.02,0.04c0.01,0,0.02-0.01,0.04-0.03c0,0.02,0.01,0.04-0.02,0.07c0.02-0.01,0.06-0.03,0.06-0.07
              c0.01,0.01,0.01,0.02,0.02,0.02c0,0,0,0,0-0.01c0.01,0.01,0.05,0.01,0.09,0c0,0,0,0,0,0.01c0,0.02,0,0.03,0.01,0.04
              c0,0,0-0.01,0-0.01c0.01,0,0,0.03,0.03,0.06c0-0.1,0.09-0.08,0.14-0.11c0.01-0.01,0.01,0,0.01,0c0,0.02-0.01,0.03-0.03,0.03
              c0.07,0.04,0.14-0.05,0.16-0.1c0.01,0,0.01-0.01,0.01-0.02c0.01,0.01,0.01,0.02-0.01,0.03c0.07,0,0.05-0.05,0.08-0.05
              c0.19,0.02,0.04-0.16,0.36-0.11c0.02,0,0.05-0.02,0.07-0.04c-0.02,0.04-0.03,0.14,0.02,0.14c0.02,0,0.06,0.02,0.08,0.03
              c0,0.01,0,0.01-0.01,0.02c-0.02,0-0.05,0-0.06,0.01c-0.06,0.05-0.07-0.1-0.14-0.07c-0.01,0-0.02,0.01-0.02,0.02
              c-0.03,0-0.06,0.03-0.06,0.05c0.01-0.01,0.02-0.02,0.05-0.02c0,0.01,0,0.01,0,0.01c0,0.01,0,0.03,0.03,0.03
              c0.01,0,0.02-0.01,0.03-0.01c0.01,0,0.01,0,0.01,0.01c0,0.03-0.09-0.02-0.08,0.07c0.01,0,0.01,0.01,0.02,0.02
              c-0.01,0.02,0.01,0.04,0.05,0.03c-0.01,0-0.02-0.01-0.02-0.02c0,0,0.01,0,0.01,0c0.01,0.01,0.01,0,0.02-0.01c0,0,0,0,0,0
              c0,0,0,0,0,0.01c0,0.01,0,0.01,0,0.01c0,0,0,0.03,0.01,0.03c-0.01,0.02,0.03,0.05,0.07,0.03c-0.01-0.01-0.04-0.02-0.04-0.03
              c0.01,0,0.02,0,0.02-0.01c0-0.01,0-0.02,0-0.03c0-0.01,0.01-0.01,0.01-0.01c0.01,0,0.02,0,0.02,0c0.01,0,0.01,0,0.01,0.01
              c0,0.01,0.03,0.03,0.06,0.01c0.05-0.01,0.01-0.05,0.04-0.06c0.01,0,0.02-0.01,0.03,0c0.03,0.01,0.09,0.01,0.11-0.01
              c0-0.02,0-0.08-0.04-0.11c-0.03-0.02,0.01-0.05-0.02-0.08c0.04,0.03,0.08,0.03,0.15,0.03c0.09,0,0.14-0.01,0.21-0.03
              c0.05-0.03,0.11-0.02,0.13-0.02c0.01,0,0.01,0.01,0.01,0.03c-0.02,0.06-0.01,0.06-0.02,0.08c-0.02,0.02-0.06,0.01-0.09,0.01
              c-0.02,0-0.03,0.01-0.03,0.01c-0.03,0-0.07,0.03-0.07,0.06c0.01-0.01,0.04-0.03,0.05-0.03c0,0,0,0.01,0,0.01
              c-0.01,0.03,0.03,0.04,0.06,0.03c0-0.01,0.01,0,0.01,0c-0.03,0.02-0.08,0.05-0.05,0.06c0.01,0,0.01,0,0.02,0.01
              c0,0.02,0,0.05,0.02,0.05c-0.01-0.02,0-0.02,0.02-0.04c0.01,0,0.01,0,0.02,0c0.02,0,0.03-0.04,0.06-0.06c0,0,0.01,0,0,0
              c-0.02,0.03-0.03,0.06-0.01,0.07c0,0,0.01,0,0.01,0.01c0,0.01,0.02,0.03,0.06,0.01c0,0-0.02-0.01-0.02-0.02
              c0.01-0.01,0.02-0.03,0.02-0.03c0.03-0.06-0.01-0.06-0.01-0.08c0.01-0.03,0.06-0.01,0.07-0.06c0-0.01,0-0.03-0.02-0.04
              c-0.01,0-0.01,0-0.01,0h0.01c0.02,0,0.03,0,0.04-0.02c-0.04,0.01-0.02-0.03-0.02-0.05c0-0.01,0-0.01,0-0.02
              c0.02-0.01,0.04-0.02,0.04-0.05c-0.02,0.02-0.07,0.04-0.07,0.01c0-0.01,0.01-0.03-0.04-0.02c-0.06,0-0.17-0.01-0.29-0.02
              c-0.01,0-0.02-0.01,0-0.01c0.12-0.01,0.39-0.03,0.39-0.11c0-0.07-0.02-0.12-0.24-0.12c-0.23,0-0.74,0.08-0.74-0.05
              C32.12,22.95,32.21,22.95,32.33,22.95"/>
    <path d="M31.42,24.17c0.01-0.01,0.01-0.03,0.02-0.03c0.02,0,0.03,0,0.03-0.02c0.01-0.01-0.01-0.02-0.02-0.03
              c0.02,0,0.02-0.01,0.02-0.02c-0.01-0.01-0.03,0-0.03,0c0-0.01,0.01-0.02,0.01-0.02c0,0,0.01,0,0.02,0l0.07,0.03
              c0,0,0.01,0.01,0.01,0.02c0,0.01,0,0.02-0.01,0.03c0,0,0-0.02-0.02-0.03c-0.01,0-0.01,0.01-0.01,0.03
              c-0.01,0-0.03-0.01-0.03,0.01c-0.01,0.01-0.01,0.02,0,0.03c0.01,0.01,0,0.02,0,0.03c-0.01,0.02-0.03,0.04-0.05,0.03
              C31.4,24.21,31.41,24.19,31.42,24.17 M31.5,23.99c-0.02,0.02-0.04,0.04-0.06,0.02c-0.01-0.02,0-0.02-0.02-0.05
              C31.44,23.97,31.48,23.99,31.5,23.99 M31.54,24.03c0.02,0.01,0.07,0.02,0.09,0.03c-0.04,0.01-0.02,0.02-0.05,0.02
              C31.55,24.08,31.54,24.05,31.54,24.03 M32.09,24c0,0.02,0.02,0.03,0.06,0.04c0.28,0.08,0.61-0.14,0.8-0.08
              c-0.24-0.09-0.38,0.05-0.6,0.01c0.13,0,0.27-0.02,0.27-0.06c-0.09,0.06-0.37-0.05-0.5,0.02c-0.01,0.01-0.02,0.02-0.03,0.03
              c-0.09,0.01-0.17,0.06-0.17,0.13c0,0.19,0.75,0.04,0.75,0.11c0,0.05-0.15,0.1-0.34,0.1c-0.14,0-0.4-0.1-0.73-0.02l0,0
              c0.02-0.05,0.09-0.14,0.07-0.18c0.02-0.01,0.04-0.03,0.04-0.05c-0.01-0.02-0.03-0.02-0.04-0.03c0.01,0-0.01-0.03-0.02-0.04
              c0,0-0.01-0.02-0.02-0.03c0-0.01-0.02-0.03-0.06-0.04c-0.03-0.02-0.05-0.02-0.07-0.03c0,0-0.03,0.01-0.03,0.01
              c-0.02,0-0.04,0-0.04,0.02c-0.01-0.02-0.03-0.02-0.05-0.02c0,0.02-0.01,0.04,0,0.07c-0.03,0-0.05,0.06-0.08,0.05
              c0.01,0.02,0.02,0.03,0.03,0.03c-0.02,0.04-0.03,0.09-0.05,0.09c0,0.01,0.01,0.03,0.03,0.03c-0.02,0.05-0.03,0.13-0.02,0.18
              c-0.04-0.05-0.11-0.15-0.15-0.18c-0.04-0.03-0.05-0.04-0.05-0.09c0-0.04,0.02-0.06,0.02-0.11c0,0-0.01-0.02-0.01-0.03
              c-0.01-0.02-0.04-0.04-0.05-0.04c0.01,0.02,0.02,0.02,0.02,0.04c-0.01,0.01-0.01,0.03-0.01,0.03c-0.01,0.01-0.02,0.02,0,0.03
              c0,0,0,0,0,0.01c0,0.01,0,0.02,0,0.02c0,0.02,0,0,0,0c-0.01-0.03-0.03-0.05-0.04-0.05c0,0-0.02-0.01-0.02-0.01s0-0.01,0-0.01
              c0-0.03-0.02-0.05-0.06-0.02c0,0,0.02,0.01,0.02,0.02c0,0.01-0.01,0.02-0.01,0.02c0,0.03,0.02,0.05,0.05,0.05
              c0.01,0,0.01,0,0.01,0l0,0c0,0.01,0,0.01,0,0.01c-0.05-0.02-0.07,0-0.07,0.02c0,0,0,0.02,0,0.02c-0.02,0.01-0.02,0.03,0.01,0.05
              c0,0,0-0.03,0.02-0.03c0-0.01,0-0.01,0-0.01c0,0.01,0.01,0.01,0.01,0.01c0,0.01,0.01,0,0.03-0.01c0,0,0,0,0.01,0
              C31,24.1,31,24.1,31.01,24.1c0,0.01,0,0.01,0,0.01c-0.03,0.03-0.03,0.06,0.01,0.07c0.01,0,0.01,0.01,0.01,0.01
              c0,0.05-0.09,0.04-0.09-0.01c-0.03,0.06,0.04,0.12,0.1,0.08c0,0,0.01,0,0.01,0c0,0.02,0.01,0.02,0.02,0.02
              c0-0.01,0.01-0.02,0.01-0.02c0,0,0.01,0.01,0.01,0.01c0,0.01,0.01,0.03,0.03,0.04c0-0.02,0-0.03,0.01-0.03
              c0.01,0,0,0.1,0.08,0.15c0.01,0.04,0.06,0.07,0.11,0.07c0.01,0.04,0.04,0.07,0.03,0.07c-0.02,0-0.11-0.01-0.14,0.01
              c-0.02,0.01-0.06,0.03-0.09,0.03l-0.01,0.01c0.01,0,0.01,0,0.01-0.01c-0.03,0.01-0.07,0.01-0.08-0.02
              c-0.01-0.01,0-0.03-0.02-0.05c-0.01-0.02-0.02-0.02-0.03-0.02c0,0-0.01,0-0.02,0c-0.01-0.02-0.05-0.02-0.06-0.02
              c0.01,0,0.03,0.01,0.03,0.03c0,0.01,0,0.02,0,0.02c-0.01,0.01-0.01,0.03,0.06,0.06c0,0,0.01,0,0,0c-0.01,0.01-0.02,0.01-0.03,0
              c-0.02-0.02-0.02-0.05-0.06-0.03c0,0-0.01,0.01-0.02,0.01c-0.01,0-0.01,0-0.01,0c-0.03-0.01-0.07,0.03-0.05,0.07
              c0.01-0.01,0.02-0.02,0.04-0.03c0.01,0.02,0.01,0.02,0.01,0.02c0,0.03,0.02,0.06,0.08,0.02c0.01-0.01,0.01,0,0.01,0
              c-0.02,0.03-0.06,0.06-0.02,0.08c0,0.01,0,0.01,0.01,0.01c0,0,0,0,0,0c0,0.04,0.03,0.07,0.06,0.07c-0.01,0-0.03-0.03-0.02-0.05
              c0,0,0.01,0.01,0.02,0c0.03-0.02,0.02-0.05,0.03-0.06c0,0,0,0,0,0.01c0.01,0.02,0.01,0.05,0.05,0.05
              c0.04-0.01,0.05-0.04,0.05-0.06c0,0,0-0.01,0,0c0.01,0.01,0.02,0.02,0.02,0.04c0.01-0.01,0.02-0.02,0.02-0.03
              c0.01,0.02,0.02,0.04-0.01,0.06c0.01,0,0.05-0.03,0.07-0.06c0.01,0.01,0.01,0.01,0.01,0.02c0,0,0,0,0-0.01
              c0.02,0.01,0.04,0.02,0.08,0c0.01,0,0.01,0,0.01,0.01c-0.01,0.02-0.01,0.03,0,0.04c0,0,0.01-0.03,0.01-0.03
              c0.01,0,0,0.04,0.03,0.06c0.01-0.09,0.05-0.06,0.11-0.09c0.01-0.01,0.01,0,0.01,0.01c-0.01,0-0.01,0.02-0.03,0.03
              c0.03,0,0.09-0.03,0.09-0.06c0-0.02,0.05-0.05,0.06-0.17c0.01,0,0.02,0.01,0.02,0c0.08-0.01,0.12-0.06,0.19-0.07
              c-0.02,0.02-0.02,0.08-0.02,0.12c0,0.04,0.05,0.09,0.07,0.1c0,0.01,0,0.01,0,0.01c-0.03,0.01-0.05,0.01-0.06,0.01
              c-0.06,0.05-0.06-0.09-0.13-0.07c0,0.01-0.01,0.02-0.02,0.02c-0.02-0.01-0.06,0.03-0.06,0.06c0.01-0.02,0.03-0.03,0.04-0.03
              v0.01c0,0.02,0.01,0.02,0.03,0.02c0.02,0,0.02-0.01,0.03-0.01l0.01,0.01c0,0.03-0.09-0.02-0.07,0.06c0,0,0,0.01,0.01,0.02
              c-0.01,0.02,0.02,0.04,0.06,0.03c-0.01-0.01-0.02-0.01-0.02-0.02c0.01,0,0.02,0,0.02,0c0,0,0.01-0.01,0.01-0.01
              c0-0.01,0-0.01,0-0.01c0.01,0,0.01,0.01,0.01,0.01c0,0.01,0,0.01,0,0.02c0,0,0,0.02,0.01,0.02c-0.01,0.02,0.03,0.04,0.07,0.02
              c-0.01,0-0.04,0-0.04-0.01c0.01-0.01,0.02-0.01,0.02-0.01c0.02-0.01,0.02-0.02,0.02-0.03c0,0,0.01,0,0.01,0
              c0.01-0.01,0.01-0.01,0.01-0.01c0.01,0,0.02,0.01,0.02,0.01c0,0.01,0.02,0.03,0.05,0.02c0.04,0,0.01-0.05,0.04-0.05
              c0.01,0,0.02-0.01,0.02,0c0.04,0,0.07,0.01,0.07-0.01c0.01-0.01,0.01-0.08-0.03-0.09c-0.03-0.02,0.03-0.16-0.08-0.23
              c0.04,0.02,0.22,0.04,0.24,0c0.05,0.01,0.11,0.04,0.11,0.05c0.01,0.02,0.01,0.02,0,0.03c-0.05,0.03-0.04,0.05-0.06,0.05h-0.01
              c-0.01-0.01-0.02-0.03-0.04-0.04c-0.02-0.01-0.03,0-0.03,0c-0.02-0.01-0.07,0-0.07,0.03c0-0.01,0.03-0.01,0.05-0.01
              c0,0.01,0,0.02,0,0.02c-0.01,0,0,0.02,0.01,0.02l0,0l0,0v0.01c0,0,0,0.01,0,0.01c-0.02-0.01-0.08-0.01-0.06,0.02
              c0,0,0.01,0.01,0.01,0.02c-0.03,0.01-0.03,0.03-0.01,0.06c0.01-0.02,0.01-0.03,0.03-0.03c0.01,0,0.01,0,0.01,0.01
              c0.02,0.02,0.04-0.03,0.06-0.01l0,0c-0.02,0.01-0.04,0.03-0.04,0.05c0,0,0.01,0.01,0.01,0.02c-0.01,0.02-0.01,0.04,0.03,0.05
              c0-0.01,0-0.02,0-0.03c0.01,0,0.03,0,0.03,0c0.05-0.03,0.01-0.06,0.03-0.08c0.02-0.02,0.04,0.03,0.08-0.01
              c0,0,0.02-0.02,0.01-0.03c-0.01-0.01,0-0.01,0-0.01l0,0c0.02,0.02,0.02,0.02,0.04,0.02c-0.03-0.03,0-0.03,0.01-0.06
              c0.01-0.01,0.01-0.01,0.01-0.01c0.01,0.01,0.03,0,0.04-0.03c-0.02,0.01-0.08-0.03-0.04-0.04c0.05-0.01,0.06-0.04,0.04-0.07
              c-0.04-0.05-0.12-0.06-0.12-0.11c0.03-0.01,0.07-0.01,0.08-0.01c0.26,0.01,0.41-0.07,0.41-0.15c-0.01-0.17-0.76,0.01-0.76-0.11
              C31.99,24.05,32.04,24.02,32.09,24"/>
    <path d="M19.92,10.89c0-0.09-0.09-0.18-0.19-0.18c-0.09,0-0.18,0.08-0.18,0.18c0,0.1,0.09,0.2,0.18,0.2
              C19.84,11.09,19.92,11,19.92,10.89"/>
    <path d="M19.85,10.41c0-0.1-0.08-0.18-0.18-0.18c-0.1,0-0.19,0.08-0.19,0.18c0,0.1,0.09,0.18,0.19,0.18
              C19.77,10.6,19.85,10.51,19.85,10.41"/>
    <path d="M19.96,10.2c0.1,0,0.18-0.09,0.18-0.18c0-0.1-0.09-0.18-0.18-0.18c-0.1,0-0.18,0.08-0.18,0.18
              C19.78,10.11,19.85,10.2,19.96,10.2"/>
    <path d="M20.44,10.17c0.1,0,0.18-0.09,0.18-0.19c0-0.1-0.08-0.18-0.18-0.18c-0.1,0-0.18,0.08-0.18,0.18
              C20.26,10.09,20.34,10.17,20.44,10.17"/>
    <path d="M22.51,9.84c0.08,0.06,0.19,0.06,0.26-0.01c0.07-0.06,0.07-0.18,0-0.27c-0.07-0.07-0.19-0.07-0.26,0
              C22.44,9.64,22.44,9.77,22.51,9.84"/>
    <path d="M22.47,9.44c0.07-0.07,0.07-0.19,0-0.26c-0.07-0.07-0.19-0.07-0.25,0c-0.08,0.08-0.07,0.2,0,0.26
              C22.29,9.51,22.4,9.51,22.47,9.44"/>
    <path d="M21.99,9.37c0.07-0.08,0.07-0.2,0-0.26c-0.08-0.08-0.19-0.08-0.27,0c-0.07,0.06-0.07,0.18,0,0.26
              C21.8,9.43,21.91,9.43,21.99,9.37"/>
    <path d="M21.57,9.67c0.08-0.08,0.08-0.19,0-0.25c-0.07-0.07-0.19-0.07-0.26,0c-0.07,0.06-0.07,0.18,0,0.26
              C21.38,9.74,21.51,9.74,21.57,9.67"/>
    <path d="M20.41,9.42l0.15,0.33l0.18-0.23c0,0,0.01,0,0.02,0c0.01,0.11,0.03,0.31,0.03,0.4c0,0.13,0.1,0.24,0.24,0.24
              c0.12,0,0.23-0.11,0.23-0.24c0-0.08-0.05-0.16-0.13-0.2c-0.08-0.07-0.19-0.17-0.25-0.25c0-0.01,0-0.02,0.01-0.02l0.31,0.02
              l-0.12-0.33l-0.23,0.2c-0.01-0.01-0.01-0.01-0.02-0.01L20.81,9l-0.32,0.12l0.21,0.26c0,0-0.01,0.02-0.01,0.03L20.41,9.42"/>
    <path d="M22.51,9.98c0.08,0.11,0.1,0.17,0.11,0.26c-0.05-0.03-0.12-0.08-0.19-0.18l0.03,0.42c0.05-0.08,0.09-0.13,0.16-0.15
              c-0.01,0.29-0.12,0.39-0.22,0.41c-0.11,0.02-0.2-0.05-0.22-0.13c-0.02-0.13,0.08-0.21,0.2-0.1c0.02-0.25-0.19-0.25-0.28-0.15
              c0.11-0.24,0.07-0.41-0.15-0.53c-0.14,0.22-0.08,0.38,0.09,0.54c-0.17-0.08-0.32,0.06-0.17,0.26c0.03-0.17,0.18-0.14,0.21,0.01
              c0.02,0.11-0.09,0.24-0.27,0.3c-0.25,0.08-0.35-0.09-0.41-0.23c0.06-0.04,0.19-0.02,0.34,0.07l-0.13-0.41
              c-0.05,0.15-0.14,0.21-0.25,0.25c-0.01-0.13,0.08-0.36,0.08-0.36l-0.5,0.2c0,0,0.23,0.11,0.31,0.21c-0.11,0.04-0.2,0.05-0.36,0
              l0.19,0.38c0.05-0.18,0.13-0.28,0.21-0.29c0.05,0.14,0.11,0.32-0.15,0.44c-0.15,0.09-0.34,0.06-0.4-0.03
              c-0.07-0.12,0.01-0.25,0.15-0.15c-0.02-0.24-0.24-0.24-0.29-0.06c0.01-0.25-0.06-0.39-0.32-0.46c-0.07,0.25,0.02,0.39,0.27,0.5
              c-0.14-0.02-0.29,0.12-0.1,0.29c0-0.14,0.13-0.16,0.2-0.06c0.05,0.07,0.03,0.19-0.06,0.26c-0.07,0.05-0.24,0.04-0.44-0.15
              c0.06-0.03,0.13-0.01,0.22,0.01l-0.27-0.32c0.01,0.11,0.01,0.19-0.02,0.24c-0.06-0.06-0.07-0.11-0.1-0.24l-0.21,0.18
              c0.19,0.12,0.42,0.31,0.69,0.69c0.28-0.19,0.79-0.43,1.1-0.56c0.32-0.13,0.86-0.3,1.19-0.38c-0.07-0.45-0.03-0.73,0.02-0.97
              L22.51,9.98"/>
    <path d="M23.1,12.4c-0.25,0.19-0.6,0.02-0.75-0.25c0.35-0.14,0.76-0.3,1.03-0.48C23.13,12.06,23.3,12.23,23.1,12.4 M23.04,15.04
              c-0.32,0.15-0.59-0.14-0.65-0.34c-0.07-0.19-0.12-0.36-0.04-0.44c0.14-0.14,0.18-0.24,0.1-0.42c-0.1-0.2-0.31-0.11-0.54-0.05
              c0.11-0.19,0.11-0.33-0.03-0.32c-0.17,0.02-0.17,0.31-0.27,0.28c-0.09-0.04-0.04-0.21-0.04-0.29c0-0.12,0.08-0.16,0.19-0.21
              l0.96-0.37c0.12-0.04,0.21-0.06,0.29,0.02c0.06,0.06,0.21,0.14,0.17,0.23c-0.05,0.09-0.26-0.11-0.4,0
              c-0.12,0.09-0.01,0.18,0.2,0.24c-0.21,0.12-0.43,0.2-0.36,0.41c0.07,0.18,0.17,0.24,0.37,0.24c0.1,0,0.18,0.16,0.27,0.34
              C23.36,14.56,23.39,14.89,23.04,15.04 M21.24,13.13c-0.26,0.02-0.25-0.22-0.69-0.33c0.31-0.07,0.72-0.23,1.07-0.36
              C21.68,12.73,21.56,13.1,21.24,13.13 M26.52,21.58c0.08-0.2-0.29-0.42-0.33-0.7c-0.04-0.28,0-0.55-0.32-0.92
              c-0.32-0.36-1.41-1.53-1.74-1.9c0.08-0.01,0.28-0.06,0.48,0.13c0.12,0.12,0.35,0.34,0.57,0.55c0.29-0.74,0.65-1.29,1.16-1.86
              c0.07-0.07,0.13-0.15,0.19-0.22c-0.18,0.06-0.48,0.1-0.63,0.22c-0.02-0.32,0-0.58-0.21-0.78c0.08-0.45,0.01-0.99-1-1.66
              c0.52,0.13,0.82,0.6,1.21,0.23c-0.35-0.01-0.35-0.78-1.63-1.41c0.49-0.02,0.86,0.77,1.43,0.32c-0.53-0.07-0.71-1.01-1.66-1.29
              c0.32,0.04,0.67,0.2,0.96-0.19c-0.33,0.07-0.53-0.22-0.88-0.26c0.14-0.41,0.1-0.67-0.04-0.98c-0.25,0.02-0.5,0.1-0.69,0.25
              c-0.03-0.23-0.27-0.24-0.48-0.23c0.02,0.11,0.06,0.25-0.05,0.28c-0.17,0.03-0.74,0.18-1.17,0.35c-0.45,0.17-0.94,0.48-1.08,0.57
              c-0.09,0.07-0.17-0.08-0.22-0.14c-0.15,0.13-0.31,0.29-0.19,0.47c-0.25,0.02-0.52,0.08-0.75,0.26c0,0.28,0.24,0.56,0.59,0.71
              c-0.59,0.58-0.05,1.13-0.57,1.64c0.74,0.03,0.6-0.99,0.97-1.13c-0.03,0.72-0.44,0.84-0.44,1.61c0,0.42,0.25,0.86,0.03,1.13
              c0.61-0.17,0.45-1.52,0.83-1.92c0.07,0.23,0.02,0.45-0.06,0.68c-0.21,0.63,0.03,1.49-0.31,1.77c0.63-0.06,0.69-1.06,1.21-1.43
              c-0.44,0.9-0.89,2.81-1.55,3.78c-1.06,1.43-1.69,3.18-2.66,3.18c-0.43,0-0.75-0.27-0.75-0.8c0-1.63,2.8-2.75,2.8-4.5
              c0-0.77-0.64-1.06-1.03-1.06c-0.27,0-0.59,0.12-0.86,0.35c-0.12-0.04-0.23-0.07-0.33-0.07c-0.99,0-0.72,1.78-1.59,1.76
              c0.34,0.19,0.93-0.18,1.28-0.68c-0.15,1.15-1.81,0.84-1.68,2.23c0.23-1.09,2.88-0.93,2.88-2.57c0-0.18-0.1-0.34-0.23-0.46
              c0.2-0.13,0.38-0.18,0.56-0.18c0.31,0,0.6,0.24,0.6,0.71c0,1.46-2.77,2.68-2.77,4.47c0,0.29,0.08,0.55,0.23,0.74
              c-0.19,0.08-0.4,0.05-0.56-0.15c-0.02,0.46,0.64,0.75,1.05,0.52c0.09,0.03,0.19,0.04,0.29,0.05c-0.13,0.34-0.55,0.44-0.78,0.42
              c0.69,0.54,1.88-0.17,1.81-0.78c0.54-0.44,0.88-1.18,1.28-1.67c-0.03,0.11-0.05,0.23-0.07,0.34c-0.39,0.72-0.77,1.37-0.88,2.33
              c-0.08,0.8-0.49,1.53-1.05,1.53c-0.12,0-0.33-0.17-0.42-0.08c-0.18,0.14-0.01,0.31-0.01,0.46c0,0.22-0.43,0.45-0.43,1.16
              c0,0.31,0.18,0.69,0.11,0.9c0.18-0.09,0.42-0.4,0.52-0.78c0.19,0.93-0.4,0.89,0.03,1.72c0.05-0.28,0.32-0.39,0.49-0.28
              c0.17,0.12,0.09,0.2-0.03,0.33c-0.13,0.12-0.24,0.73,0.32,0.69c-0.11-0.07-0.12-0.23,0.17-0.29c0.39-0.08,0.5,0.1,0.91,0.1
              c0.26,0,0.32-0.33,0.53-0.33c0.2,0,0.2,0.15,0.13,0.27c0.32-0.09,0.38-0.26,0.38-0.45c0-0.18-0.15-0.29-0.04-0.37
              c0.12-0.07,0.5,0.01,0.34,0.32c0.19-0.04,0.3-0.18,0.3-0.41c0-0.24-0.27-0.38-0.52-0.34c-0.04-0.15-0.26-0.23-0.46-0.23
              c-0.46,0-0.39,0.36-0.7,0.36c-0.5,0-0.99-0.65-0.99-1.75c0-0.59,0.63-0.74,1.09-0.94c0.45-0.19,1.23-0.67,1.7-1.46
              c0.37-0.62,0.38-1.3,0.34-2.09c0.63,0.36,0.7,0.89,0.7,1.26c0,0.49-0.26,0.69-0.45,0.78c-0.17,0.08-0.22,0.05-0.24,0.15
              c-0.03,0.13,0.06,0.2,0.13,0.24c0.23,0.12,0.17,0.33,0.25,0.57c0.06,0.23,0.27,0.6,0.63,0.88c0.03-0.14,0.02-0.38,0-0.69
              c0.49,0.24,0.09,1.22,1.04,1.22c-0.17-0.1-0.13-0.36-0.03-0.39c0.1-0.04,0.22,0.06,0.41,0.31c0.18,0.25,0.13,0.23,0.58,0.23
              c0.45,0,0.24-0.15,0.48-0.15c0.23,0,0.22,0.27,0.09,0.46c0.4-0.12,0.52-0.42,0.39-0.73c0.35-0.19,0.54,0.08,0.58,0.27
              c0.35-0.35,0-0.77-0.27-0.8c0-0.12-0.11-0.25-0.26-0.26c-0.14-0.01-0.28-0.02-0.44-0.01c-0.16,0.01-0.26,0.25-0.45,0.25
              c-0.59,0-1.75-1.07-1.75-1.53c0-0.46,1.11-0.75,1.11-1.47c0-0.94-0.91-1.25-1.69-1.85c0.27-0.32,1.08-0.39,1.54-0.17
              c0.04-0.26,0.22-0.2,0.28-0.65c0.16,0.4-0.01,0.74,0.16,0.91c0.13-0.19,0.47-0.16,0.44-0.65c0.1,0.3-0.12,0.77,0.1,0.98
              c0.04-0.26,0.2-0.3,0.29-0.3c0.09,0,0.18,0.07,0.18,0.22c0,0.37-0.46,0.2-0.46,0.63c0,0.17,0.22,0.23,0.22,0.35
              c0,0.11-0.18,0.29-0.4,0.14c0.07,0.16,0.22,0.3,0.41,0.3c0.2,0,0.42-0.16,0.51-0.38c0.1,0.28,0.02,0.58-0.17,0.61
              c0.2,0.1,0.69,0.01,0.64-0.62c0.27,0.05,0.42,0.23,0.25,0.56c0.23-0.05,0.43-0.16,0.43-0.4C26.64,21.87,26.44,21.82,26.52,21.58
              "/>
    <path d="M44.55,26.08c0-0.32,0.25-0.58,0.58-0.58c0.32,0,0.59,0.26,0.59,0.58c0,0.32-0.26,0.58-0.59,0.58
              C44.81,26.66,44.55,26.39,44.55,26.08 M44.35,26.08c0,0.43,0.36,0.78,0.79,0.78c0.43,0,0.78-0.35,0.78-0.78
              c0-0.44-0.35-0.79-0.78-0.79C44.71,25.29,44.35,25.64,44.35,26.08"/>
    <path d="M41.77,27.5c-0.23-0.04-0.38-0.21-0.35-0.37c0.02-0.08,0.07-0.14,0.11-0.16c0.09-0.07,0.22-0.09,0.34-0.07
              c0.21,0.04,0.36,0.18,0.36,0.33c0,0.02,0,0.03-0.01,0.04C42.19,27.44,41.99,27.54,41.77,27.5 M41.42,26.8
              c-0.11,0.07-0.18,0.17-0.2,0.29c-0.03,0.14,0.02,0.28,0.12,0.39c0.09,0.12,0.24,0.19,0.39,0.22c0.17,0.03,0.32,0.01,0.45-0.06
              c0.14-0.07,0.23-0.19,0.25-0.32c0.05-0.28-0.18-0.55-0.51-0.61C41.73,26.67,41.54,26.7,41.42,26.8"/>
    <path d="M37.04,16.22c0-0.1,0.06-0.22,0.16-0.3c0.09-0.07,0.2-0.1,0.3-0.1c0.04,0.01,0.1,0.03,0.15,0.09
              c0.04,0.05,0.04,0.11,0.04,0.16c-0.02,0.1-0.08,0.2-0.16,0.26c-0.16,0.12-0.36,0.13-0.45,0.02
              C37.05,16.32,37.04,16.28,37.04,16.22 M37.09,15.77c-0.25,0.18-0.32,0.51-0.16,0.71l0,0c0.16,0.2,0.48,0.21,0.73,0.02
              c0.13-0.1,0.22-0.24,0.24-0.4c0.02-0.12-0.02-0.23-0.08-0.31c-0.06-0.08-0.15-0.14-0.27-0.16
              C37.38,15.61,37.22,15.66,37.09,15.77"/>
    <path d="M40.79,26.59L40.79,26.59L40.79,26.59 M40.79,26.38L40.79,26.38c-0.08,0-0.14-0.04-0.18-0.08
              c-0.07-0.08-0.12-0.2-0.12-0.34c0-0.13,0.06-0.25,0.13-0.33c0.04-0.04,0.11-0.08,0.19-0.08c0.16,0,0.29,0.19,0.29,0.42
              c0,0.13-0.05,0.25-0.13,0.33C40.94,26.34,40.88,26.38,40.79,26.38 M40.49,25.49c-0.12,0.11-0.19,0.29-0.19,0.47v0.02
              c0,0.18,0.06,0.34,0.18,0.46c0.09,0.09,0.2,0.14,0.31,0.15c0.12,0,0.24-0.04,0.33-0.13c0.12-0.12,0.18-0.29,0.19-0.47
              c0-0.15-0.04-0.31-0.13-0.43c-0.09-0.12-0.22-0.19-0.36-0.19C40.7,25.35,40.58,25.4,40.49,25.49"/>
    <path d="M36.8,19.91c-0.2-0.1-0.31-0.3-0.23-0.45c0.03-0.08,0.1-0.12,0.14-0.13c0.1-0.04,0.24-0.03,0.36,0.03
              c0.12,0.06,0.21,0.16,0.24,0.26c0.02,0.05,0.04,0.12-0.01,0.19c-0.03,0.07-0.1,0.11-0.15,0.13
              C37.05,19.98,36.92,19.97,36.8,19.91 M36.64,19.14c-0.12,0.05-0.22,0.12-0.27,0.22c-0.12,0.25,0.04,0.57,0.34,0.72
              c0.16,0.08,0.35,0.09,0.51,0.03c0.12-0.04,0.22-0.12,0.26-0.23c0.05-0.1,0.05-0.23,0.02-0.35c-0.06-0.16-0.19-0.29-0.35-0.37
              C36.99,19.1,36.8,19.08,36.64,19.14"/>
    <path d="M42.34,22.72c-0.13,0.18-0.35,0.25-0.49,0.15c-0.15-0.1-0.16-0.34-0.02-0.52c0.13-0.18,0.34-0.24,0.49-0.14
              C42.46,22.3,42.47,22.54,42.34,22.72 M41.42,24.19c-0.14,0.18-0.35,0.24-0.49,0.14c-0.14-0.1-0.16-0.34-0.03-0.51
              c0.13-0.18,0.35-0.25,0.49-0.14C41.53,23.77,41.54,24,41.42,24.19 M38.24,16.17c0.11-0.35,0.32-1.02,0.32-1.02l0.36,0.14
              c-0.1,0.04-0.23,0.14-0.35,0.24c0.08,0.03,0.23,0.04,0.33-0.02l-0.14,0.36c-0.04-0.06-0.14-0.19-0.24-0.21
              c-0.07,0.29,0.11,0.4,0.24,0.47c0.22,0.11,0.36,0.13,0.42,0.02c0.07-0.12-0.07-0.29-0.26-0.21c-0.02-0.19,0.08-0.29,0.21-0.29
              c0.1,0,0.18,0.09,0.21,0.21c-0.02-0.31,0.13-0.54,0.4-0.63c0.11,0.3,0.02,0.5-0.2,0.71c0.12-0.05,0.25-0.04,0.3,0.04
              c0.08,0.1,0.05,0.24-0.12,0.33c-0.04-0.2-0.26-0.21-0.33-0.09c-0.07,0.13,0.04,0.25,0.23,0.37c0.23,0.12,0.42,0.04,0.55-0.15
              c-0.08-0.03-0.21-0.01-0.33,0.07l0.24-0.44c0.01,0.06,0.05,0.18,0.16,0.25c0.03-0.09,0.08-0.26,0.01-0.42l0.51,0.29
              c-0.17,0.01-0.29,0.15-0.36,0.23c0.11,0.04,0.24,0.02,0.3,0l-0.26,0.43c0-0.15-0.06-0.27-0.12-0.32
              c-0.11,0.21-0.08,0.41,0.15,0.55c0.19,0.11,0.34,0.14,0.42,0.03c0.08-0.12-0.05-0.31-0.24-0.25c-0.01-0.19,0.1-0.28,0.23-0.28
              c0.1,0.01,0.17,0.12,0.19,0.25c0.07-0.3,0.2-0.47,0.51-0.53c0.07,0.29-0.07,0.52-0.34,0.67c0.12-0.04,0.24-0.01,0.29,0.07
              c0.07,0.1,0.02,0.25-0.14,0.32c-0.03-0.2-0.25-0.24-0.32-0.12c-0.06,0.1,0.03,0.22,0.23,0.35c0.13,0.08,0.31,0.18,0.52-0.02
              c-0.07-0.08-0.23-0.1-0.29-0.1l0.24-0.3c-0.01,0.12,0.07,0.24,0.14,0.29c0.04-0.14,0.05-0.3,0.04-0.42l0.3,0.24
              c0,0-0.49,0.52-0.72,0.78L38.24,16.17z M42.09,20.54c0-0.05,0.01-0.13,0.08-0.18c0.05-0.05,0.13-0.07,0.18-0.06
              c0.11,0,0.23,0.06,0.32,0.16c0.09,0.09,0.14,0.22,0.14,0.32c0,0.06-0.02,0.13-0.08,0.18l0,0c-0.06,0.06-0.13,0.07-0.18,0.07
              c-0.11,0-0.24-0.07-0.32-0.16C42.14,20.78,42.09,20.65,42.09,20.54 M43.5,27.02c0.02-0.11,0.11-0.21,0.21-0.29
              c0.12-0.07,0.24-0.1,0.36-0.08c0.04,0.02,0.12,0.04,0.16,0.1l0,0c0.05,0.07,0.04,0.14,0.03,0.19c-0.02,0.11-0.1,0.22-0.2,0.29
              c-0.19,0.13-0.42,0.11-0.51-0.03C43.48,27.14,43.48,27.06,43.5,27.02 M36.79,17.26c0,0.11-0.05,0.22-0.11,0.28
              c-0.03,0.03-0.09,0.06-0.15,0.06c-0.14-0.01-0.24-0.15-0.24-0.33c0-0.01,0-0.02,0-0.03c0.01-0.12,0.05-0.21,0.12-0.28
              c0.03-0.03,0.09-0.07,0.16-0.06c0.06,0,0.12,0.04,0.14,0.07C36.77,17.04,36.8,17.15,36.79,17.26 M38.87,13
              c0.11-0.21,0-0.53,0.38-0.53c0.2,0,0.36,0.18,0.58,0.26C39.47,12.77,39.13,12.85,38.87,13 M44.9,18.33
              c0.26,0.7,0.77,0.96,1.15,0.77c-0.87-0.09-0.16-1.58-1.28-1.58c-0.06,0-0.12,0.01-0.17,0.02c-0.19-0.2-0.41-0.28-0.73-0.28
              c-0.48,0-1.28,0.46-1.28,1.4c0,2.03,2.36,2.2,2.36,4.01c0,0.52-0.4,0.84-0.85,0.84c-0.4,0-0.71-0.45-1.05-1.14
              c-0.16-0.34-0.5-0.78-0.86-1.26c0.1,0.08,0.23,0.13,0.35,0.13c0.12,0,0.23-0.05,0.32-0.12c0.09-0.08,0.14-0.19,0.14-0.31v-0.02
              c0-0.17-0.08-0.32-0.19-0.46c-0.13-0.13-0.31-0.21-0.47-0.22c-0.12,0-0.25,0.04-0.33,0.12c-0.08,0.08-0.13,0.19-0.14,0.33v0.02
              c0,0.07,0.01,0.13,0.04,0.2c-0.51-0.66-0.98-1.31-0.98-1.66c0-0.31,0.22-0.6,0.49-0.92c0.01,0,0.09,0.05,0.09,0.05l0.07-0.08
              c0.1-0.1,0.3-0.32,0.7-0.75l0.02-0.03h-0.01l0.11-0.11l-0.26-0.2c0.07-0.16,0.13-0.33,0.17-0.5c0.08,0.32,0.25,0.53,0.48,0.46
              c-0.15-0.34,0.16-0.8-0.05-1.61c0.2,0.31,0.47,0.48,0.67,0.42c-0.52-0.46,0.16-1.11-0.52-2.11c0.21,0.08,0.37,0.03,0.46-0.08
              c-0.61-0.09-0.34-0.88-1.42-1.16c0.27-0.05,0.43-0.21,0.39-0.35c-0.29,0.22-0.54-0.39-1.49-0.38c-0.06-0.35-0.39-0.71-0.76-0.9
              c0.07,0.28,0.01,0.52-0.06,0.73l-3.07-3.02c-0.1-0.08-0.14-0.1-0.17-0.07c-0.02,0.03-0.02,0.08,0.04,0.14l2.65,3.32
              c-0.2,0.07-0.4,0.15-0.6,0.22c-0.13,0.05-0.23,0.18-0.23,0.34c-0.49,0.24-0.92,0.54-1.13,0.74c-0.16,0.15-0.29,0.18-0.15,0.52
              c0.05,0.13-0.12,0.44,0.26,0.21c0.25-0.15,0.82-0.47,0.91-0.27c0.05,0.1-0.23,0.23-0.43,0.31c-0.19,0.07-0.4,0.23-0.37,0.3
              c0.03,0.07,0.19-0.01,0.19,0.07c0.01,0.09,0.07,0.17,0.15,0.17c0.08,0,0.18-0.16,0.23-0.1c0.07,0.05-0.02,0.41-0.09,0.51
              c0.3-0.04,0.49-0.33,0.5-0.55c0-0.21,0.07-0.27,0.11-0.3c0.05-0.03,0.1,0.24,0.04,0.4c0.16-0.03,0.32-0.24,0.3-0.62
              c0.08-0.07,0.16-0.12,0.23-0.12c0.09,0,0.3,0.28,0.58,0.28c0.52,0,0.82-0.42,0.85-0.63c0.02-0.16,0.01-0.32-0.08-0.43
              c0.19,0.15,0.24,0.39,0.24,0.56c0,0.75-1.3,1.09-1.84,1.6c-0.02,0.02-0.04,0.04-0.06,0.06l-0.61-0.24l-0.05,0.14
              c0,0.01,0,0.03-0.03,0.11c-0.07,0.21-0.2,0.65-0.28,0.9l-0.03,0.1l0.05,0.04c-0.36,0.48-0.65,1.02-0.72,1.58
              c-0.15-0.15-0.29-0.27-0.45-0.41c0.02-0.06,0.03-0.12,0.03-0.17c0.01-0.17-0.04-0.32-0.14-0.43c-0.07-0.09-0.17-0.14-0.28-0.15
              c-0.1,0-0.21,0.04-0.3,0.11c-0.02,0.02-0.04,0.04-0.06,0.06c-0.02-0.02-0.04-0.04-0.06-0.04c-0.21-0.16-0.45-0.35-0.61-0.51
              c-0.07-0.08-0.13-0.11-0.26-0.11c-0.06,0-0.19-0.01-0.28-0.01c-0.09,0-0.14,0.06-0.25,0.16c-0.06,0.04-0.19,0.15-0.35,0.27
              c0.07,0.08,0.14,0.16,0.21,0.24c0.05,0.04,0.08,0.09,0.12,0.13c0.04-0.03,0.08-0.05,0.11-0.08c0.07-0.05,0.15-0.07,0.23-0.07
              c0.08,0,0.19,0.07,0.27,0.18c0.05,0.08,0.56,0.73,0.96,1.19c-0.04,0.01-0.09,0.03-0.13,0.05c-0.17,0.08-0.56,0.06-0.75,0.05
              c-0.17-0.02-0.21-0.06-0.33,0.12c-0.05,0.07-0.1,0.15-0.16,0.23c-0.06,0.07-0.1,0.15,0.02,0.36c0.18,0.31,0.64,1.12,0.79,1.48
              c0.14,0.36,0.33,0.42,0.61,0.54c0.29,0.11,0.78,0.39,0.83,0.46l0.01-0.28c-0.08-0.08-0.35-0.18-0.46-0.23
              c-0.1-0.03-0.13-0.08-0.01-0.08c0.12,0,0.47,0.12,0.72,0.22c-0.08-0.27-0.33-0.58-0.49-0.75c-0.21-0.06-0.42-0.06-0.51,0.02
              c0.01,0.06-0.03,0.13-0.12,0.13c-0.08,0-0.13-0.07-0.11-0.14c0.03-0.09,0.15-0.11,0.13-0.27c-0.03-0.15-0.23-0.18-0.34-0.19
              c-0.19-0.25-0.38-0.63-0.48-0.77c-0.09-0.15-0.03-0.23,0.03-0.29c0.15-0.12,0.47,0.07,1.08,0.1c0.22,0.02,0.5,0.03,0.77,0.04
              c0.08,0.73,0.37,1.42,1.39,1.66c0.48,0.13,0.99,0.49,1.17,0.97c-2.01-0.03-2.33,0.75-2.33,1.49c0,0.84,0.71,0.79,0.71,1.43
              c0,0.55-1.69,0.78-2.21,0.85c-0.44,0.07-0.68,0.16-0.89,0.37c-0.2,0.21-0.41,0.41-0.79,0.79c0,0,0.16,0.04,0.32,0.03l0.29-0.37
              c0.08-0.12,0.14-0.22,0.2-0.21c0.06,0.01,0.02,0.1-0.05,0.24L35,26.65c0.99,0.07,1.06-0.3,1.06-0.45c0-0.15-0.25-0.25-0.1-0.35
              c0.15-0.09,0.27-0.03,0.38,0.1c0.12,0.14,0.15,0.25,0.43,0.14c0,0,2.17-0.9,2.44-1.02c0.24-0.11,0.17-0.22,0.02-0.34
              c-0.15-0.13-0.19-0.35-0.19-0.58c0-0.66,0.4-0.86,1.11-0.85c-0.02,0.12-0.03,0.22-0.03,0.32c0,1.02,1.56,2.03,1.97,2.03
              c0.19,0,0.44-0.14,0.46,0.48c0.01,0.45,0.11,0.78,0.02,1.3c-0.08,0.52-0.24,0.61-0.55,0.82c-0.31,0.23-0.61,0.92-0.74,1.06
              c0.14,0.09,0.28,0.11,0.4-0.23c0.11-0.28,0.22-0.47,0.33-0.55c-0.12,0.31-0.21,0.75-0.28,0.89c0.41,0.07,1.04-0.29,1.04-0.57
              c0-0.27-0.22-0.25-0.22-0.45c0-0.08,0.1-0.17,0.22-0.17c0.16,0,0.28,0.12,0.29,0.19c0.17-0.1,0.29-0.27,0.28-0.68
              c0-0.16,0-0.33-0.01-0.5c0.01,0.03,0.02,0.04,0.03,0.07c0.07,0.11,0.2,0.19,0.36,0.2c0.14,0.01,0.3-0.03,0.43-0.12
              c0.15-0.1,0.26-0.25,0.3-0.41c0.01-0.04,0.01-0.07,0.01-0.1c0-0.08-0.02-0.17-0.07-0.24c-0.06-0.1-0.17-0.16-0.29-0.19
              c-0.16-0.04-0.35,0.01-0.5,0.1c-0.14,0.09-0.26,0.23-0.29,0.38c-0.03-0.56-0.08-1.08-0.06-1.3c0.03-0.31,0.04-0.45-0.07-0.5
              c-0.11-0.04-0.22,0.14-0.37,0.14c-0.16,0-0.61-0.42-0.61-0.87c0-0.44,0.48-1.01,0.45-1.62c-0.01-0.19,0.11-0.29,0.19-0.12
              c0.09,0.21,0.23,0.49,0.44,0.72c-0.13,0.77,0.71,1.51,1.4,0.96c-0.34,0.05-0.58-0.26-0.73-0.56c0.06,0.01,0.13,0.01,0.19,0.01
              c0.03,0,0.07,0,0.1,0c0.24,0.3,1.01,0.27,1.21-0.47c-0.13,0.16-0.41,0.28-0.61,0.26c0.29-0.23,0.44-0.59,0.44-0.99
              c0-1.94-2.35-2.16-2.35-3.91c0-0.65,0.57-1.08,0.97-1.08c0.16,0,0.27,0.05,0.36,0.12c-0.15,0.15-0.23,0.39-0.22,0.67
              c0.06,1.38,2.33,1.32,2.36,1.98C46.66,19.38,44.97,19.69,44.9,18.33"/>
    <path d="M26.9,47.72c0,3.21-1.84,4.91-5.01,4.91c-3.28,0-5.23-1.52-5.23-4.91v-8.14h1.7v8.14c0,2.25,1.28,3.48,3.53,3.48
              c2.14,0,3.32-1.23,3.32-3.48v-8.14h1.7V47.72z"/>
    <path d="M29.61,39.58h1.7v6.35l6.46-6.35h2.19l-5.37,5.14l5.59,7.6h-2.14l-4.6-6.44l-2.12,1.98v4.46h-1.7V39.58z"/>
    <path d="M46.48,39.58h1.7v5.48h6.71v-5.48h1.7v12.74h-1.7v-5.84h-6.71v5.84h-1.7V39.58z"/>
    <path d="M66.98,49.4c-0.41,2.03-1.87,3.14-3.94,3.14c-2.94,0-4.34-2.03-4.43-4.85c0-2.77,1.82-4.8,4.34-4.8
              c3.27,0,4.27,3.05,4.18,5.28h-6.91c-0.05,1.61,0.86,3.03,2.87,3.03c1.25,0,2.12-0.61,2.39-1.8H66.98z M65.52,46.83
              c-0.07-1.45-1.16-2.61-2.66-2.61c-1.59,0-2.53,1.2-2.64,2.61H65.52z"/>
    <path d="M76.87,52.29c-0.27,0.16-0.61,0.25-1.09,0.25c-0.79,0-1.28-0.43-1.28-1.43c-0.84,0.98-1.96,1.43-3.25,1.43
              c-1.68,0-3.05-0.75-3.05-2.59c0-2.09,1.55-2.53,3.12-2.84c1.68-0.32,3.11-0.21,3.11-1.36c0-1.32-1.09-1.54-2.05-1.54
              c-1.28,0-2.23,0.39-2.3,1.75h-1.52c0.09-2.28,1.86-3.09,3.91-3.09c1.66,0,3.46,0.37,3.46,2.53v4.75c0,0.71,0,1.04,0.48,1.04
              c0.12,0,0.27-0.02,0.46-0.09V52.29z M74.4,47.56c-0.59,0.43-1.73,0.45-2.75,0.62c-1,0.18-1.86,0.54-1.86,1.66
              c0,1,0.86,1.36,1.78,1.36c2,0,2.82-1.25,2.82-2.09V47.56z"/>
    <path d="M78.37,39.58h1.52v12.74h-1.52V39.58z"/>
    <path d="M84.35,43.1h1.84v1.34h-1.84v5.73c0,0.7,0.2,0.82,1.14,0.82h0.7v1.34h-1.16c-1.57,0-2.19-0.32-2.19-2.02v-5.87h-1.57
              V43.1h1.57v-2.77h1.52V43.1z"/>
    <path d="M87.86,39.58h1.52v4.87h0.04c0.5-1.11,1.8-1.57,2.91-1.57c2.43,0,3.18,1.39,3.18,3.37v6.07h-1.52v-6.25
              c0-1.12-0.71-1.86-1.87-1.86c-1.84,0-2.73,1.23-2.73,2.89v5.21h-1.52V39.58z"/>
    <path d="M24.09,62.08c-0.2-1.82-1.41-2.61-3.16-2.61c-1.43,0-2.86,0.52-2.86,2.18c0,1.57,2.03,1.8,4.09,2.27
              c2.03,0.46,4.07,1.18,4.07,3.68c0,2.71-2.66,3.8-4.98,3.8c-2.86,0-5.26-1.39-5.26-4.5h1.61c0,2.14,1.78,3.07,3.71,3.07
              c1.53,0,3.23-0.48,3.23-2.32c0-1.75-2.03-2.05-4.07-2.5s-4.09-1.03-4.09-3.37c0-2.59,2.3-3.73,4.62-3.73
              c2.61,0,4.59,1.23,4.69,4.03H24.09z"/>
    <path d="M35.91,68.16c-0.41,2.03-1.87,3.14-3.94,3.14c-2.94,0-4.34-2.03-4.43-4.85c0-2.77,1.82-4.8,4.34-4.8
              c3.27,0,4.27,3.05,4.18,5.28h-6.91c-0.05,1.61,0.86,3.03,2.87,3.03c1.25,0,2.12-0.61,2.39-1.8H35.91z M34.45,65.59
              c-0.07-1.45-1.16-2.61-2.66-2.61c-1.59,0-2.53,1.2-2.64,2.61H34.45z"/>
    <path d="M43.89,64.83c-0.23-1.16-1.04-1.84-2.28-1.84c-2.19,0-2.87,1.73-2.87,3.6c0,1.7,0.77,3.37,2.69,3.37
              c1.46,0,2.34-0.86,2.53-2.25h1.55c-0.34,2.25-1.75,3.59-4.07,3.59c-2.82,0-4.32-1.96-4.32-4.71c0-2.77,1.43-4.94,4.35-4.94
              c2.09,0,3.77,0.98,3.98,3.18H43.89z"/>
    <path d="M54.84,71.09h-1.43v-1.46h-0.04c-0.64,1.14-1.68,1.68-3,1.68c-2.43,0-3.18-1.39-3.18-3.37v-6.07h1.52v6.25
              c0,1.12,0.71,1.86,1.87,1.86c1.84,0,2.73-1.23,2.73-2.89v-5.21h1.52V71.09z"/>
    <path d="M57.08,61.86h1.43v1.95h0.04c0.73-1.48,1.75-2.21,3.39-2.16v1.61c-2.44,0-3.34,1.39-3.34,3.73v4.1h-1.52V61.86z"/>
    <path d="M64.68,60.21h-1.52v-1.86h1.52V60.21z M63.16,61.86h1.52v9.23h-1.52V61.86z"/>
    <path d="M69.14,61.86h1.84v1.34h-1.84v5.73c0,0.7,0.2,0.82,1.14,0.82h0.7v1.34h-1.16c-1.57,0-2.19-0.32-2.19-2.02V63.2h-1.57
              v-1.34h1.57V59.1h1.52V61.86z"/>
    <path d="M76.28,72.32c-0.7,1.8-1.32,2.46-2.68,2.46c-0.36,0-0.71-0.04-1.05-0.16v-1.39c0.29,0.09,0.59,0.21,0.89,0.21
              c0.62,0,0.96-0.3,1.25-0.84l0.62-1.57l-3.66-9.17h1.71l2.69,7.55h0.04l2.59-7.55h1.61L76.28,72.32z"/>
    <path d="M20.19,77.11h1.87l4.98,12.74h-1.87l-1.39-3.84h-5.39l-1.43,3.84h-1.75L20.19,77.11z M18.92,84.59h4.32l-2.12-5.94
              h-0.04L18.92,84.59z"/>
    <path d="M36,89.07c0,3-1.37,4.53-4.28,4.53c-1.73,0-3.73-0.7-3.82-2.71h1.52c0.07,1.11,1.39,1.5,2.39,1.5
              c1.98,0,2.77-1.43,2.77-3.5v-0.61h-0.04c-0.5,1.12-1.71,1.68-2.87,1.68c-2.75,0-4.12-2.16-4.12-4.68
              c0-2.18,1.07-4.87,4.27-4.87c1.16,0,2.19,0.52,2.75,1.53h0.02v-1.32H36V89.07z M34.5,85.05c0-1.62-0.71-3.3-2.62-3.3
              c-1.95,0-2.73,1.59-2.73,3.36c0,1.66,0.61,3.52,2.61,3.52S34.5,86.79,34.5,85.05z"/>
    <path d="M46.15,86.93c-0.41,2.03-1.87,3.14-3.94,3.14c-2.94,0-4.34-2.03-4.43-4.85c0-2.77,1.82-4.8,4.34-4.8
              c3.27,0,4.27,3.05,4.18,5.28h-6.91c-0.05,1.61,0.86,3.03,2.87,3.03c1.25,0,2.12-0.61,2.39-1.8H46.15z M44.69,84.36
              c-0.07-1.45-1.16-2.61-2.66-2.61c-1.59,0-2.53,1.2-2.64,2.61H44.69z"/>
    <path d="M47.87,80.63h1.43v1.46h0.04c0.64-1.14,1.68-1.68,3-1.68c2.43,0,3.18,1.39,3.18,3.37v6.07h-1.52v-6.25
              c0-1.12-0.71-1.86-1.87-1.86c-1.84,0-2.73,1.23-2.73,2.89v5.21h-1.52V80.63z"/>
    <path d="M64.05,83.59c-0.23-1.16-1.04-1.84-2.28-1.84c-2.19,0-2.87,1.73-2.87,3.6c0,1.7,0.77,3.37,2.69,3.37
              c1.46,0,2.34-0.86,2.53-2.25h1.55c-0.34,2.25-1.75,3.59-4.07,3.59c-2.82,0-4.32-1.96-4.32-4.71c0-2.77,1.43-4.94,4.35-4.94
              c2.09,0,3.77,0.98,3.98,3.18H64.05z"/>
    <path d="M71,91.09c-0.7,1.8-1.32,2.46-2.68,2.46c-0.36,0-0.71-0.04-1.05-0.16V92c0.29,0.09,0.59,0.21,0.89,0.21
              c0.62,0,0.96-0.3,1.25-0.84l0.62-1.57l-3.66-9.17h1.71l2.69,7.55h0.04l2.59-7.55h1.61L71,91.09z"/>
  </g>
</svg>
